# asteroid_large
mtllib asteroid_large.mtl
o asteroid_large
v 0.000000 0.465369 0.000000
v 0.000000 0.465369 0.000000
v 0.000000 0.465369 0.000000
v 0.000000 0.465369 0.000000
v -0.000000 0.465369 0.000000
v -0.000000 0.465369 0.000000
v -0.000000 0.465369 0.000000
v -0.000000 0.465369 0.000000
v -0.000000 0.465369 -0.000000
v -0.000000 0.465369 -0.000000
v -0.000000 0.465369 -0.000000
v 0.000000 0.465369 -0.000000
v 0.000000 0.465369 -0.000000
v 0.000000 0.465369 -0.000000
v 0.000000 0.465369 -0.000000
v 0.159762 0.419978 0.000000
v 0.138111 0.402968 0.058529
v 0.096543 0.407048 0.106534
v 0.034341 0.405692 0.132403
v -0.033281 0.393166 0.128315
v -0.084811 0.357584 0.093588
v -0.120674 0.352092 0.051140
v -0.139162 0.365826 0.000000
v -0.131500 0.383679 -0.055728
v -0.092838 0.391428 -0.102446
v -0.035442 0.418693 -0.136646
v 0.035085 0.414474 -0.135270
v 0.100727 0.424686 -0.111150
v 0.147323 0.429846 -0.062433
v 0.159762 0.419978 -0.000000
v 0.293640 0.365850 0.000000
v 0.251011 0.347113 0.106375
v 0.176994 0.353685 0.195310
v 0.066757 0.373779 0.257385
v -0.062709 0.351111 0.241775
v -0.161222 0.322168 0.177906
v -0.214618 0.296787 0.090952
v -0.261372 0.325647 0.000000
v -0.249221 0.344638 -0.105616
v -0.171391 0.342489 -0.189128
v -0.059491 0.333096 -0.229370
v 0.063122 0.353423 -0.243367
v 0.178040 0.355776 -0.196465
v 0.272682 0.377081 -0.115559
v 0.293640 0.365850 -0.000000
v 0.375181 0.282278 0.000000
v 0.348978 0.291423 0.147892
v 0.258361 0.311769 0.285097
v 0.095037 0.321333 0.366417
v -0.096486 0.326233 0.372004
v -0.230428 0.278061 0.254274
v -0.305561 0.255167 0.129493
v -0.336679 0.253309 0.000000
v -0.323574 0.270208 -0.137126
v -0.231455 0.279301 -0.255407
v -0.092302 0.312086 -0.355872
v 0.093672 0.316720 -0.361157
v 0.241540 0.291470 -0.266536
v 0.357640 0.298656 -0.151563
v 0.375181 0.282278 -0.000000
v 0.469355 0.224579 0.000000
v 0.416906 0.221409 0.176679
v 0.323870 0.248547 0.357386
v 0.119723 0.257439 0.461597
v -0.125837 0.270585 0.485168
v -0.300153 0.230346 0.331214
v -0.399916 0.212387 0.169479
v -0.430113 0.205802 0.000000
v -0.411485 0.218530 -0.174382
v -0.300381 0.230521 -0.331466
v -0.115743 0.248881 -0.446252
v 0.115753 0.248903 -0.446290
v 0.319545 0.245228 -0.352613
v 0.420520 0.223328 -0.178210
v 0.469355 0.224579 -0.000000
v 0.608010 0.175681 0.000000
v 0.530521 0.170140 0.224827
v 0.402086 0.186339 0.443696
v 0.149087 0.193590 0.574809
v -0.137698 0.178802 0.530899
v -0.353495 0.163821 0.390076
v -0.509082 0.163265 0.215742
v -0.527484 0.152414 0.000000
v -0.535276 0.171665 -0.226842
v -0.338794 0.157008 -0.373854
v -0.118870 0.154353 -0.458305
v 0.134243 0.174315 -0.517577
v 0.350482 0.162424 -0.386752
v 0.529237 0.169729 -0.224283
v 0.608010 0.175681 -0.000000
v 0.682283 0.093436 0.000000
v 0.584801 0.088889 0.247830
v 0.378893 0.083222 0.418103
v 0.150191 0.092432 0.579066
v -0.156397 0.096251 0.602994
v -0.352061 0.077328 0.388494
v -0.515724 0.078389 0.218557
v -0.587495 0.080455 0.000000
v -0.560316 0.085167 -0.237454
v -0.404658 0.088881 -0.446534
v -0.156493 0.096311 -0.603364
v 0.150751 0.092777 -0.581225
v 0.401839 0.088262 -0.443423
v 0.589456 0.089596 -0.249803
v 0.682283 0.093436 -0.000000
v 0.753174 0.000000 0.000000
v 0.562456 0.000000 0.238361
v 0.415753 0.000000 0.458777
v 0.146763 0.000000 0.565850
v -0.156860 0.000000 0.604777
v -0.424590 0.000000 0.468529
v -0.524824 0.000000 0.222413
v -0.673991 0.000000 0.000000
v -0.612741 0.000000 -0.259671
v -0.415646 0.000000 -0.458659
v -0.162160 0.000000 -0.625215
v 0.151526 0.000000 -0.584213
v 0.384665 0.000000 -0.424472
v 0.606826 0.000000 -0.257164
v 0.753174 0.000000 -0.000000
v 0.690997 -0.094629 0.000000
v 0.587386 -0.089282 0.248926
v 0.386433 -0.084878 0.426424
v 0.131208 -0.080749 0.505876
v -0.134414 -0.082722 0.518238
v -0.394119 -0.086566 0.434904
v -0.555501 -0.084435 0.235414
v -0.638356 -0.087420 0.000000
v -0.592484 -0.090057 -0.251086
v -0.410522 -0.090169 -0.453005
v -0.143290 -0.088185 -0.552458
v 0.140547 -0.086497 -0.541885
v 0.373186 -0.081968 -0.411805
v 0.584431 -0.088833 -0.247673
v 0.690997 -0.094629 -0.000000
v 0.688460 -0.198927 0.000000
v 0.562581 -0.180422 0.238414
v 0.391353 -0.181365 0.431853
v 0.128081 -0.166314 0.493821
v -0.125243 -0.162629 0.482878
v -0.386157 -0.178957 0.426119
v -0.531413 -0.170427 0.225205
v -0.619493 -0.178999 0.000000
v -0.572173 -0.183498 -0.242479
v -0.382995 -0.177492 -0.422630
v -0.129488 -0.168141 -0.499246
v 0.136311 -0.177000 -0.525550
v 0.351289 -0.162798 -0.387642
v 0.575864 -0.184682 -0.244043
v 0.688460 -0.198927 -0.000000
v 0.505920 -0.242075 0.000000
v 0.498709 -0.264853 0.211346
v 0.350850 -0.269252 0.387157
v 0.114153 -0.245462 0.440121
v -0.114341 -0.245866 0.440845
v -0.318673 -0.244559 0.351651
v -0.482264 -0.256119 0.204376
v -0.451662 -0.216113 0.000000
v -0.489692 -0.260064 -0.207524
v -0.317886 -0.243955 -0.350783
v -0.104526 -0.224762 -0.403005
v 0.110462 -0.237525 -0.425890
v 0.345508 -0.265153 -0.381263
v 0.498182 -0.264573 -0.211122
v 0.505920 -0.242075 -0.000000
v 0.405102 -0.304789 0.000000
v 0.404682 -0.337939 0.171498
v 0.299082 -0.360907 0.330032
v 0.094725 -0.320281 0.365217
v -0.093917 -0.317548 0.362101
v -0.259802 -0.313508 0.286688
v -0.362253 -0.302509 0.153518
v -0.366024 -0.275388 0.000000
v -0.376143 -0.314108 -0.159404
v -0.239261 -0.288720 -0.264021
v -0.082383 -0.278549 -0.317630
v 0.086011 -0.290815 -0.331618
v 0.260692 -0.314582 -0.287670
v 0.409222 -0.341731 -0.173422
v 0.405102 -0.304789 -0.000000
v 0.320626 -0.399472 0.000000
v 0.290058 -0.401110 0.122923
v 0.187411 -0.374502 0.206806
v 0.072794 -0.407577 0.280658
v -0.070069 -0.392323 0.270154
v -0.176672 -0.353041 0.194954
v -0.241391 -0.333810 0.102298
v -0.277359 -0.345566 0.000000
v -0.263932 -0.364981 -0.111851
v -0.178851 -0.357396 -0.197359
v -0.064525 -0.361282 -0.248779
v 0.066832 -0.374195 -0.257671
v 0.180468 -0.360627 -0.199144
v 0.299667 -0.414398 -0.126995
v 0.320626 -0.399472 -0.000000
v 0.163696 -0.430318 0.000000
v 0.141087 -0.411652 0.059791
v 0.100327 -0.423002 0.110710
v 0.034207 -0.404104 0.131885
v -0.033736 -0.398546 0.130071
v -0.091899 -0.387467 0.101409
v -0.131265 -0.382995 0.055628
v -0.150528 -0.395703 0.000000
v -0.140489 -0.409908 -0.059537
v -0.097251 -0.410031 -0.107315
v -0.035010 -0.413588 -0.134980
v 0.034063 -0.402401 -0.131329
v 0.101835 -0.429360 -0.112374
v 0.148697 -0.433856 -0.063016
v 0.163696 -0.430318 -0.000000
v 0.000000 -0.449089 0.000000
v 0.000000 -0.449089 0.000000
v 0.000000 -0.449089 0.000000
v 0.000000 -0.449089 0.000000
v -0.000000 -0.449089 0.000000
v -0.000000 -0.449089 0.000000
v -0.000000 -0.449089 0.000000
v -0.000000 -0.449089 0.000000
v -0.000000 -0.449089 -0.000000
v -0.000000 -0.449089 -0.000000
v -0.000000 -0.449089 -0.000000
v 0.000000 -0.449089 -0.000000
v 0.000000 -0.449089 -0.000000
v 0.000000 -0.449089 -0.000000
v 0.000000 -0.449089 -0.000000
vn 0.000000 0.000000 0.000000
vn -0.255418 -0.898997 -0.355761
vn -0.328876 -0.921531 -0.206447
vn -0.136949 -0.915910 -0.377298
vn 0.189090 -0.875928 -0.443841
vn 0.654459 -0.718750 -0.234695
vn 0.549267 -0.750785 -0.366917
vn 0.534710 -0.747531 -0.394059
vn 0.572527 -0.800399 -0.177693
vn 0.444168 -0.867576 0.223667
vn 0.500096 -0.850884 0.160936
vn -0.062773 -0.939357 0.337147
vn 0.014771 -0.934575 0.355460
vn -0.134564 -0.963657 0.230775
vn -0.272006 -0.957383 -0.097115
vn -0.298639 -0.881160 -0.366566
vn -0.320577 -0.900660 -0.293328
vn -0.275300 -0.918509 -0.283816
vn -0.066857 -0.943474 -0.324632
vn 0.365498 -0.884031 -0.291377
vn 0.500683 -0.844744 -0.189008
vn 0.472395 -0.844019 -0.253917
vn 0.415438 -0.846601 -0.332682
vn 0.406530 -0.911971 -0.055151
vn 0.389376 -0.903404 0.179576
vn 0.213973 -0.876188 0.431868
vn 0.031784 -0.875147 0.482811
vn -0.140029 -0.901694 0.409071
vn -0.257968 -0.940514 0.221100
vn -0.355012 -0.933304 -0.053954
vn -0.457704 -0.817804 -0.348860
vn -0.438790 -0.868495 -0.230607
vn -0.315313 -0.926755 -0.204213
vn -0.064557 -0.948018 -0.311600
vn 0.227725 -0.947463 -0.224624
vn 0.403974 -0.910204 -0.091290
vn 0.384690 -0.898304 -0.212283
vn 0.449166 -0.861021 -0.238523
vn 0.502052 -0.857613 0.111549
vn 0.346496 -0.832136 0.433002
vn 0.186521 -0.893511 0.408469
vn 0.019484 -0.932258 0.361269
vn -0.242181 -0.870918 0.427611
vn -0.405118 -0.869334 0.283085
vn -0.594429 -0.804093 0.009433
vn -0.558294 -0.818558 -0.135170
vn -0.514167 -0.843781 -0.153838
vn -0.400211 -0.873924 -0.275841
vn -0.130773 -0.894990 -0.426487
vn 0.166938 -0.934327 -0.314905
vn 0.448062 -0.880220 -0.156377
vn 0.428687 -0.891336 -0.147469
vn 0.561279 -0.824762 -0.068804
vn 0.527304 -0.835713 0.153412
vn 0.365243 -0.893013 0.262917
vn 0.221168 -0.923550 0.313272
vn -0.136868 -0.873011 0.468101
vn -0.322713 -0.848893 0.418614
vn -0.594388 -0.772534 0.223371
vn -0.663132 -0.745764 0.063971
vn -0.489382 -0.863017 -0.125327
vn -0.469349 -0.868867 -0.157424
vn -0.380949 -0.874270 -0.300881
vn -0.172258 -0.869218 -0.463451
vn 0.245923 -0.802290 -0.543924
vn 0.495913 -0.795461 -0.348299
vn 0.413804 -0.897470 -0.152687
vn 0.462434 -0.886307 -0.024779
vn 0.408583 -0.910051 0.069766
vn 0.400694 -0.825128 0.398256
vn 0.218797 -0.602834 0.767280
vn -0.110498 -0.720178 0.684933
vn -0.450624 -0.746491 0.489580
vn -0.561989 -0.789453 0.246845
vn -0.400807 -0.906140 0.135143
vn -0.470875 -0.864361 -0.176514
vn -0.569368 -0.789712 -0.228419
vn -0.547373 -0.560386 -0.621571
vn -0.210411 -0.434797 -0.875602
vn 0.287660 -0.530774 -0.797202
vn 0.580127 -0.588117 -0.563535
vn 0.696108 -0.633708 -0.337415
vn 0.659035 -0.746614 -0.090776
vn 0.626921 -0.731638 0.267722
vn 0.439546 -0.597329 0.670818
vn 0.214475 -0.747552 0.628622
vn -0.121674 -0.735308 0.666722
vn -0.457782 -0.682478 0.569789
vn -0.467207 -0.817371 0.337079
vn -0.587467 -0.776040 0.229445
vn -0.742797 -0.601689 -0.293638
vn -0.797426 -0.179574 -0.576077
vn -0.620262 -0.039243 -0.783412
vn -0.252857 -0.197486 -0.947134
vn 0.296419 -0.244378 -0.923263
vn 0.634354 -0.396302 -0.663732
vn 0.829117 -0.393606 -0.397037
vn 0.808206 -0.567797 -0.156235
vn 0.728633 -0.593811 0.341296
vn 0.481751 -0.677186 0.556180
vn 0.234872 -0.657623 0.715799
vn -0.262439 -0.402576 0.876960
vn -0.575919 -0.303772 0.758973
vn -0.763639 -0.375107 0.525499
vn -0.792843 -0.495260 0.355129
vn -0.831783 0.054505 -0.552419
vn -0.805877 -0.004930 -0.592063
vn -0.617228 -0.064114 -0.784167
vn -0.208921 0.334308 -0.919016
vn 0.235560 0.242871 -0.941023
vn 0.654511 -0.087149 -0.751013
vn 0.854498 -0.232347 -0.464594
vn 0.924718 -0.350051 -0.149539
vn 0.882634 -0.098614 0.459601
vn 0.632692 -0.036578 0.773539
vn 0.184181 0.193737 0.963610
vn -0.303760 0.316232 0.898736
vn -0.580852 0.208378 0.786886
vn -0.771738 -0.070219 0.632052
vn -0.883026 0.054220 0.466182
vn -0.876686 0.100941 -0.470353
vn -0.828584 0.080751 -0.554010
vn -0.494572 0.292342 -0.818495
vn -0.159649 0.411619 -0.897263
vn 0.151194 0.528063 -0.835637
vn 0.568328 0.223631 -0.791828
vn 0.853860 0.055204 -0.517566
vn 0.956234 0.284655 -0.067736
vn 0.869647 0.204519 0.449318
vn 0.543573 0.338701 0.767991
vn 0.100559 0.555851 0.825177
vn -0.245360 0.354752 0.902192
vn -0.541051 0.259227 0.800041
vn -0.742121 0.276584 0.610539
vn -0.888997 0.226843 0.397777
vn -0.691844 0.615272 -0.377878
vn -0.676329 0.573945 -0.461698
vn -0.484958 0.317675 -0.814800
vn -0.083880 0.403330 -0.911202
vn 0.126644 0.404488 -0.905732
vn 0.480742 0.514558 -0.710012
vn 0.762117 0.478635 -0.435989
vn 0.706404 0.707765 0.007862
vn 0.660570 0.677827 0.322796
vn 0.356992 0.651148 0.669749
vn 0.097793 0.680525 0.726169
vn -0.184760 0.641930 0.744170
vn -0.470867 0.337171 0.815230
vn -0.735461 0.323065 0.595589
vn -0.639534 0.737764 0.216106
vn -0.470559 0.879701 -0.068554
vn -0.639091 0.735630 -0.224523
vn -0.379823 0.643606 -0.664459
vn -0.035631 0.600363 -0.798933
vn 0.122572 0.675579 -0.727027
vn 0.376046 0.763827 -0.524555
vn 0.475018 0.863410 -0.169946
vn 0.419679 0.907211 0.028945
vn 0.496933 0.854474 0.151435
vn 0.155593 0.867988 0.471579
vn 0.076922 0.864704 0.496357
vn -0.052284 0.780596 0.622846
vn -0.297143 0.687729 0.662370
vn -0.452516 0.861171 0.231547
vn -0.440529 0.891133 -0.108700
vn -0.636664 0.762823 0.112964
vn -0.585804 0.798015 -0.141440
vn -0.168964 0.873467 -0.456626
vn -0.026247 0.794216 -0.607068
vn 0.169451 0.757893 -0.629987
vn 0.325830 0.879788 -0.346132
vn 0.365904 0.929630 0.043616
vn 0.525096 0.841845 -0.124786
vn 0.357246 0.920603 0.157686
vn 0.152550 0.864849 0.478293
vn 0.148651 0.785512 0.600728
vn 0.033339 0.789144 0.613302
vn -0.187646 0.870831 0.454359
vn -0.450567 0.864169 0.224058
vn -0.615702 0.777868 -0.125824
vn -0.491775 0.870703 0.005849
vn -0.171002 0.970914 -0.167585
vn -0.108155 0.958110 -0.265193
vn -0.083488 0.912103 -0.401370
vn 0.237181 0.943661 -0.230756
vn 0.311737 0.948898 -0.049124
vn 0.357559 0.931705 -0.063859
vn 0.462816 0.862811 -0.203368
vn 0.332603 0.923808 0.189614
vn 0.261039 0.840927 0.474026
vn 0.176479 0.794085 0.581622
vn -0.079399 0.882408 0.463737
vn -0.116940 0.869878 0.479205
vn -0.339135 0.911183 0.233949
vn -0.389358 0.920685 -0.027185
vn -0.108337 0.977995 -0.178294
vn -0.100895 0.972008 -0.212180
vn -0.149601 0.979342 -0.136046
vn 0.136591 0.982457 -0.126968
vn 0.229626 0.966288 -0.116445
vn 0.321614 0.933582 -0.158077
vn 0.333991 0.908342 -0.251722
vn 0.353325 0.913679 -0.200880
vn 0.281396 0.952925 0.112914
vn 0.206513 0.935972 0.285148
vn 0.039428 0.951773 0.304259
vn -0.052014 0.941922 0.331778
vn 0.037748 0.897658 0.439073
vn -0.124209 0.992185 0.011904
vn -0.152903 0.988057 -0.019077
vn -0.107419 0.936761 -0.333076
vn -0.259468 0.965722 0.007579
vn 0.150503 0.923094 -0.353901
vn 0.085685 0.935974 -0.341483
vn 0.308509 0.910918 -0.273953
vn 0.361595 0.905399 -0.222491
vn 0.317321 0.894726 -0.314283
vn 0.329612 0.929380 -0.166158
vn 0.195310 0.965132 0.174281
vn 0.150606 0.964989 0.214740
vn -0.167928 0.941791 0.291256
vn 0.247788 0.890777 0.380943
vn -0.045074 0.990093 0.132982
vn -0.113877 0.993082 -0.028647
vn -0.113874 0.993056 0.029535
usemtl asteroid_large
f 1//1 16//16 2//2
f 16//16 17//17 2//2
f 2//2 17//17 3//3
f 17//17 18//18 3//3
f 3//3 18//18 4//4
f 18//18 19//19 4//4
f 4//4 19//19 5//5
f 19//19 20//20 5//5
f 5//5 20//20 6//6
f 20//20 21//21 6//6
f 6//6 21//21 7//7
f 21//21 22//22 7//7
f 7//7 22//22 8//8
f 22//22 23//23 8//8
f 8//8 23//23 9//9
f 23//23 24//24 9//9
f 9//9 24//24 10//10
f 24//24 25//25 10//10
f 10//10 25//25 11//11
f 25//25 26//26 11//11
f 11//11 26//26 12//12
f 26//26 27//27 12//12
f 12//12 27//27 13//13
f 27//27 28//28 13//13
f 13//13 28//28 14//14
f 28//28 29//29 14//14
f 14//14 29//29 15//15
f 29//29 30//30 15//15
f 16//16 31//31 17//17
f 31//31 32//32 17//17
f 17//17 32//32 18//18
f 32//32 33//33 18//18
f 18//18 33//33 19//19
f 33//33 34//34 19//19
f 19//19 34//34 20//20
f 34//34 35//35 20//20
f 20//20 35//35 21//21
f 35//35 36//36 21//21
f 21//21 36//36 22//22
f 36//36 37//37 22//22
f 22//22 37//37 23//23
f 37//37 38//38 23//23
f 23//23 38//38 24//24
f 38//38 39//39 24//24
f 24//24 39//39 25//25
f 39//39 40//40 25//25
f 25//25 40//40 26//26
f 40//40 41//41 26//26
f 26//26 41//41 27//27
f 41//41 42//42 27//27
f 27//27 42//42 28//28
f 42//42 43//43 28//28
f 28//28 43//43 29//29
f 43//43 44//44 29//29
f 29//29 44//44 30//30
f 44//44 45//45 30//30
f 31//31 46//46 32//32
f 46//46 47//47 32//32
f 32//32 47//47 33//33
f 47//47 48//48 33//33
f 33//33 48//48 34//34
f 48//48 49//49 34//34
f 34//34 49//49 35//35
f 49//49 50//50 35//35
f 35//35 50//50 36//36
f 50//50 51//51 36//36
f 36//36 51//51 37//37
f 51//51 52//52 37//37
f 37//37 52//52 38//38
f 52//52 53//53 38//38
f 38//38 53//53 39//39
f 53//53 54//54 39//39
f 39//39 54//54 40//40
f 54//54 55//55 40//40
f 40//40 55//55 41//41
f 55//55 56//56 41//41
f 41//41 56//56 42//42
f 56//56 57//57 42//42
f 42//42 57//57 43//43
f 57//57 58//58 43//43
f 43//43 58//58 44//44
f 58//58 59//59 44//44
f 44//44 59//59 45//45
f 59//59 60//60 45//45
f 46//46 61//61 47//47
f 61//61 62//62 47//47
f 47//47 62//62 48//48
f 62//62 63//63 48//48
f 48//48 63//63 49//49
f 63//63 64//64 49//49
f 49//49 64//64 50//50
f 64//64 65//65 50//50
f 50//50 65//65 51//51
f 65//65 66//66 51//51
f 51//51 66//66 52//52
f 66//66 67//67 52//52
f 52//52 67//67 53//53
f 67//67 68//68 53//53
f 53//53 68//68 54//54
f 68//68 69//69 54//54
f 54//54 69//69 55//55
f 69//69 70//70 55//55
f 55//55 70//70 56//56
f 70//70 71//71 56//56
f 56//56 71//71 57//57
f 71//71 72//72 57//57
f 57//57 72//72 58//58
f 72//72 73//73 58//58
f 58//58 73//73 59//59
f 73//73 74//74 59//59
f 59//59 74//74 60//60
f 74//74 75//75 60//60
f 61//61 76//76 62//62
f 76//76 77//77 62//62
f 62//62 77//77 63//63
f 77//77 78//78 63//63
f 63//63 78//78 64//64
f 78//78 79//79 64//64
f 64//64 79//79 65//65
f 79//79 80//80 65//65
f 65//65 80//80 66//66
f 80//80 81//81 66//66
f 66//66 81//81 67//67
f 81//81 82//82 67//67
f 67//67 82//82 68//68
f 82//82 83//83 68//68
f 68//68 83//83 69//69
f 83//83 84//84 69//69
f 69//69 84//84 70//70
f 84//84 85//85 70//70
f 70//70 85//85 71//71
f 85//85 86//86 71//71
f 71//71 86//86 72//72
f 86//86 87//87 72//72
f 72//72 87//87 73//73
f 87//87 88//88 73//73
f 73//73 88//88 74//74
f 88//88 89//89 74//74
f 74//74 89//89 75//75
f 89//89 90//90 75//75
f 76//76 91//91 77//77
f 91//91 92//92 77//77
f 77//77 92//92 78//78
f 92//92 93//93 78//78
f 78//78 93//93 79//79
f 93//93 94//94 79//79
f 79//79 94//94 80//80
f 94//94 95//95 80//80
f 80//80 95//95 81//81
f 95//95 96//96 81//81
f 81//81 96//96 82//82
f 96//96 97//97 82//82
f 82//82 97//97 83//83
f 97//97 98//98 83//83
f 83//83 98//98 84//84
f 98//98 99//99 84//84
f 84//84 99//99 85//85
f 99//99 100//100 85//85
f 85//85 100//100 86//86
f 100//100 101//101 86//86
f 86//86 101//101 87//87
f 101//101 102//102 87//87
f 87//87 102//102 88//88
f 102//102 103//103 88//88
f 88//88 103//103 89//89
f 103//103 104//104 89//89
f 89//89 104//104 90//90
f 104//104 105//105 90//90
f 91//91 106//106 92//92
f 106//106 107//107 92//92
f 92//92 107//107 93//93
f 107//107 108//108 93//93
f 93//93 108//108 94//94
f 108//108 109//109 94//94
f 94//94 109//109 95//95
f 109//109 110//110 95//95
f 95//95 110//110 96//96
f 110//110 111//111 96//96
f 96//96 111//111 97//97
f 111//111 112//112 97//97
f 97//97 112//112 98//98
f 112//112 113//113 98//98
f 98//98 113//113 99//99
f 113//113 114//114 99//99
f 99//99 114//114 100//100
f 114//114 115//115 100//100
f 100//100 115//115 101//101
f 115//115 116//116 101//101
f 101//101 116//116 102//102
f 116//116 117//117 102//102
f 102//102 117//117 103//103
f 117//117 118//118 103//103
f 103//103 118//118 104//104
f 118//118 119//119 104//104
f 104//104 119//119 105//105
f 119//119 120//120 105//105
f 106//106 121//121 107//107
f 121//121 122//122 107//107
f 107//107 122//122 108//108
f 122//122 123//123 108//108
f 108//108 123//123 109//109
f 123//123 124//124 109//109
f 109//109 124//124 110//110
f 124//124 125//125 110//110
f 110//110 125//125 111//111
f 125//125 126//126 111//111
f 111//111 126//126 112//112
f 126//126 127//127 112//112
f 112//112 127//127 113//113
f 127//127 128//128 113//113
f 113//113 128//128 114//114
f 128//128 129//129 114//114
f 114//114 129//129 115//115
f 129//129 130//130 115//115
f 115//115 130//130 116//116
f 130//130 131//131 116//116
f 116//116 131//131 117//117
f 131//131 132//132 117//117
f 117//117 132//132 118//118
f 132//132 133//133 118//118
f 118//118 133//133 119//119
f 133//133 134//134 119//119
f 119//119 134//134 120//120
f 134//134 135//135 120//120
f 121//121 136//136 122//122
f 136//136 137//137 122//122
f 122//122 137//137 123//123
f 137//137 138//138 123//123
f 123//123 138//138 124//124
f 138//138 139//139 124//124
f 124//124 139//139 125//125
f 139//139 140//140 125//125
f 125//125 140//140 126//126
f 140//140 141//141 126//126
f 126//126 141//141 127//127
f 141//141 142//142 127//127
f 127//127 142//142 128//128
f 142//142 143//143 128//128
f 128//128 143//143 129//129
f 143//143 144//144 129//129
f 129//129 144//144 130//130
f 144//144 145//145 130//130
f 130//130 145//145 131//131
f 145//145 146//146 131//131
f 131//131 146//146 132//132
f 146//146 147//147 132//132
f 132//132 147//147 133//133
f 147//147 148//148 133//133
f 133//133 148//148 134//134
f 148//148 149//149 134//134
f 134//134 149//149 135//135
f 149//149 150//150 135//135
f 136//136 151//151 137//137
f 151//151 152//152 137//137
f 137//137 152//152 138//138
f 152//152 153//153 138//138
f 138//138 153//153 139//139
f 153//153 154//154 139//139
f 139//139 154//154 140//140
f 154//154 155//155 140//140
f 140//140 155//155 141//141
f 155//155 156//156 141//141
f 141//141 156//156 142//142
f 156//156 157//157 142//142
f 142//142 157//157 143//143
f 157//157 158//158 143//143
f 143//143 158//158 144//144
f 158//158 159//159 144//144
f 144//144 159//159 145//145
f 159//159 160//160 145//145
f 145//145 160//160 146//146
f 160//160 161//161 146//146
f 146//146 161//161 147//147
f 161//161 162//162 147//147
f 147//147 162//162 148//148
f 162//162 163//163 148//148
f 148//148 163//163 149//149
f 163//163 164//164 149//149
f 149//149 164//164 150//150
f 164//164 165//165 150//150
f 151//151 166//166 152//152
f 166//166 167//167 152//152
f 152//152 167//167 153//153
f 167//167 168//168 153//153
f 153//153 168//168 154//154
f 168//168 169//169 154//154
f 154//154 169//169 155//155
f 169//169 170//170 155//155
f 155//155 170//170 156//156
f 170//170 171//171 156//156
f 156//156 171//171 157//157
f 171//171 172//172 157//157
f 157//157 172//172 158//158
f 172//172 173//173 158//158
f 158//158 173//173 159//159
f 173//173 174//174 159//159
f 159//159 174//174 160//160
f 174//174 175//175 160//160
f 160//160 175//175 161//161
f 175//175 176//176 161//161
f 161//161 176//176 162//162
f 176//176 177//177 162//162
f 162//162 177//177 163//163
f 177//177 178//178 163//163
f 163//163 178//178 164//164
f 178//178 179//179 164//164
f 164//164 179//179 165//165
f 179//179 180//180 165//165
f 166//166 181//181 167//167
f 181//181 182//182 167//167
f 167//167 182//182 168//168
f 182//182 183//183 168//168
f 168//168 183//183 169//169
f 183//183 184//184 169//169
f 169//169 184//184 170//170
f 184//184 185//185 170//170
f 170//170 185//185 171//171
f 185//185 186//186 171//171
f 171//171 186//186 172//172
f 186//186 187//187 172//172
f 172//172 187//187 173//173
f 187//187 188//188 173//173
f 173//173 188//188 174//174
f 188//188 189//189 174//174
f 174//174 189//189 175//175
f 189//189 190//190 175//175
f 175//175 190//190 176//176
f 190//190 191//191 176//176
f 176//176 191//191 177//177
f 191//191 192//192 177//177
f 177//177 192//192 178//178
f 192//192 193//193 178//178
f 178//178 193//193 179//179
f 193//193 194//194 179//179
f 179//179 194//194 180//180
f 194//194 195//195 180//180
f 181//181 196//196 182//182
f 196//196 197//197 182//182
f 182//182 197//197 183//183
f 197//197 198//198 183//183
f 183//183 198//198 184//184
f 198//198 199//199 184//184
f 184//184 199//199 185//185
f 199//199 200//200 185//185
f 185//185 200//200 186//186
f 200//200 201//201 186//186
f 186//186 201//201 187//187
f 201//201 202//202 187//187
f 187//187 202//202 188//188
f 202//202 203//203 188//188
f 188//188 203//203 189//189
f 203//203 204//204 189//189
f 189//189 204//204 190//190
f 204//204 205//205 190//190
f 190//190 205//205 191//191
f 205//205 206//206 191//191
f 191//191 206//206 192//192
f 206//206 207//207 192//192
f 192//192 207//207 193//193
f 207//207 208//208 193//193
f 193//193 208//208 194//194
f 208//208 209//209 194//194
f 194//194 209//209 195//195
f 209//209 210//210 195//195
f 196//196 211//211 197//197
f 211//211 212//212 197//197
f 197//197 212//212 198//198
f 212//212 213//213 198//198
f 198//198 213//213 199//199
f 213//213 214//214 199//199
f 199//199 214//214 200//200
f 214//214 215//215 200//200
f 200//200 215//215 201//201
f 215//215 216//216 201//201
f 201//201 216//216 202//202
f 216//216 217//217 202//202
f 202//202 217//217 203//203
f 217//217 218//218 203//203
f 203//203 218//218 204//204
f 218//218 219//219 204//204
f 204//204 219//219 205//205
f 219//219 220//220 205//205
f 205//205 220//220 206//206
f 220//220 221//221 206//206
f 206//206 221//221 207//207
f 221//221 222//222 207//207
f 207//207 222//222 208//208
f 222//222 223//223 208//208
f 208//208 223//223 209//209
f 223//223 224//224 209//209
f 209//209 224//224 210//210
f 224//224 225//225 210//210
