# asteroid_medium
mtllib asteroid_medium.mtl
o asteroid_medium
v 0.000000 0.241560 0.000000
v 0.000000 0.241560 0.000000
v 0.000000 0.241560 0.000000
v 0.000000 0.241560 0.000000
v -0.000000 0.241560 0.000000
v -0.000000 0.241560 0.000000
v -0.000000 0.241560 0.000000
v -0.000000 0.241560 -0.000000
v -0.000000 0.241560 -0.000000
v -0.000000 0.241560 -0.000000
v 0.000000 0.241560 -0.000000
v 0.000000 0.241560 -0.000000
v 0.000000 0.241560 -0.000000
v 0.099261 0.257703 0.000000
v 0.092029 0.275890 0.046203
v 0.057116 0.296573 0.086025
v 0.000000 0.273938 0.091752
v -0.052019 0.270102 0.078347
v -0.086819 0.260271 0.043587
v -0.100609 0.261203 0.000000
v -0.086388 0.258978 -0.043371
v -0.048685 0.252790 -0.073325
v -0.000000 0.244338 -0.081838
v 0.047696 0.247658 -0.071837
v 0.082772 0.248137 -0.041555
v 0.099261 0.257703 -0.000000
v 0.173606 0.209178 0.000000
v 0.168021 0.233768 0.084354
v 0.109463 0.263785 0.164866
v 0.000000 0.250108 0.180500
v -0.104116 0.250899 0.156812
v -0.171901 0.239166 0.086302
v -0.218344 0.263084 0.000000
v -0.156920 0.218324 -0.078781
v -0.105517 0.254275 -0.158922
v -0.000000 0.205104 -0.148021
v 0.089613 0.215950 -0.134969
v 0.149409 0.207874 -0.075010
v 0.173606 0.209178 -0.000000
v 0.188766 0.131316 0.000000
v 0.254882 0.204739 0.127962
v 0.135477 0.188489 0.204046
v 0.000000 0.207206 0.259007
v -0.149001 0.207306 0.224415
v -0.270457 0.217250 0.135781
v -0.261735 0.182077 0.000000
v -0.243479 0.195579 -0.122237
v -0.138486 0.192676 -0.208578
v -0.000000 0.177854 -0.222318
v 0.111081 0.154547 -0.167302
v 0.208615 0.167574 -0.104734
v 0.188766 0.131316 -0.000000
v 0.238513 0.095795 0.000000
v 0.341440 0.158349 0.171418
v 0.176876 0.142080 0.266399
v 0.000000 0.152787 0.330794
v -0.191260 0.153633 0.288063
v -0.309251 0.143421 0.155258
v -0.324427 0.130301 0.000000
v -0.271611 0.125965 -0.136361
v -0.166806 0.133990 -0.251231
v -0.000000 0.121965 -0.264062
v 0.142306 0.114310 -0.214332
v 0.280123 0.129912 -0.140634
v 0.238513 0.095795 -0.000000
v 0.300235 0.055964 0.000000
v 0.367240 0.079043 0.184371
v 0.196122 0.073114 0.295386
v 0.000000 0.075609 0.352722
v -0.175640 0.065478 0.264536
v -0.296304 0.063775 0.148758
v -0.360930 0.067277 0.000000
v -0.275484 0.059294 -0.138305
v -0.186977 0.069705 -0.281611
v -0.000000 0.066469 -0.310080
v 0.171882 0.064077 -0.258877
v 0.317267 0.068287 -0.159282
v 0.300235 0.055964 -0.000000
v 0.394846 0.000000 0.000000
v 0.385801 0.000000 0.193689
v 0.192403 0.000000 0.289784
v 0.000000 0.000000 0.325994
v -0.161906 0.000000 0.243852
v -0.314168 0.000000 0.157726
v -0.470527 0.000000 0.000000
v -0.310679 0.000000 -0.155974
v -0.199783 0.000000 -0.300900
v -0.000000 0.000000 -0.338164
v 0.183177 0.000000 -0.275889
v 0.355514 0.000000 -0.178483
v 0.394846 0.000000 -0.000000
v 0.335826 -0.062598 0.000000
v 0.358767 -0.077220 0.180117
v 0.191164 -0.071266 0.287918
v 0.000000 -0.067259 0.313767
v -0.170557 -0.063583 0.256881
v -0.305091 -0.065666 0.153169
v -0.390277 -0.072747 0.000000
v -0.294635 -0.063416 -0.147919
v -0.199341 -0.074314 -0.300233
v -0.000000 -0.066200 -0.308827
v 0.184370 -0.068733 -0.277686
v 0.319157 -0.068694 -0.160231
v 0.335826 -0.062598 -0.000000
v 0.304305 -0.122220 0.000000
v 0.318132 -0.147540 0.159716
v 0.144144 -0.115787 0.217100
v 0.000000 -0.141582 0.306533
v -0.163678 -0.131478 0.246521
v -0.267075 -0.123861 0.134083
v -0.345719 -0.138853 0.000000
v -0.301335 -0.139750 -0.151284
v -0.188229 -0.151199 -0.283498
v -0.000000 -0.135679 -0.293754
v 0.158579 -0.127382 -0.238841
v 0.328717 -0.152448 -0.165030
v 0.304305 -0.122220 -0.000000
v 0.213786 -0.148721 0.000000
v 0.222981 -0.179114 0.111946
v 0.133942 -0.186355 0.201735
v 0.000000 -0.198273 0.247842
v -0.123509 -0.171839 0.186021
v -0.210650 -0.169209 0.105756
v -0.254160 -0.176807 0.000000
v -0.231265 -0.185768 -0.116105
v -0.134250 -0.186782 -0.202198
v -0.000000 -0.193715 -0.242144
v 0.130802 -0.181985 -0.197004
v 0.224307 -0.180179 -0.112612
v 0.213786 -0.148721 -0.000000
v 0.181596 -0.218806 0.000000
v 0.168104 -0.233885 0.084396
v 0.100385 -0.241908 0.151193
v 0.000000 -0.237410 0.171336
v -0.082771 -0.199463 0.124664
v -0.150189 -0.208959 0.075402
v -0.196063 -0.236237 0.000000
v -0.142460 -0.198205 -0.071521
v -0.098997 -0.238564 -0.149102
v -0.000000 -0.223396 -0.161222
v 0.095360 -0.229799 -0.143624
v 0.156744 -0.218078 -0.078692
v 0.181596 -0.218806 -0.000000
v 0.101597 -0.263767 0.000000
v 0.096225 -0.288466 0.048309
v 0.056678 -0.294296 0.085365
v 0.000000 -0.278247 0.093195
v -0.050652 -0.263009 0.076289
v -0.082557 -0.247493 0.041447
v -0.092729 -0.240745 0.000000
v -0.080014 -0.239870 -0.040171
v -0.050362 -0.261502 -0.075852
v -0.000000 -0.263788 -0.088352
v 0.050302 -0.261187 -0.075761
v 0.084856 -0.254384 -0.042601
v 0.101597 -0.263767 -0.000000
v 0.000000 -0.240478 0.000000
v 0.000000 -0.240478 0.000000
v 0.000000 -0.240478 0.000000
v 0.000000 -0.240478 0.000000
v -0.000000 -0.240478 0.000000
v -0.000000 -0.240478 0.000000
v -0.000000 -0.240478 0.000000
v -0.000000 -0.240478 -0.000000
v -0.000000 -0.240478 -0.000000
v -0.000000 -0.240478 -0.000000
v 0.000000 -0.240478 -0.000000
v 0.000000 -0.240478 -0.000000
v 0.000000 -0.240478 -0.000000
vn 0.000000 0.000000 0.000000
vn 0.148331 -0.912077 0.382248
vn 0.067065 -0.860182 0.505558
vn 0.377023 -0.873414 0.308222
vn -0.016207 -0.942881 0.332736
vn -0.046389 -0.948092 0.314595
vn -0.191471 -0.980699 0.039611
vn -0.191606 -0.981392 -0.012494
vn -0.183839 -0.982545 -0.028428
vn -0.176630 -0.983711 -0.033393
vn 0.076459 -0.996499 -0.033827
vn 0.055120 -0.997322 -0.048065
vn 0.158417 -0.974098 0.161363
vn -0.172617 -0.925445 0.337275
vn -0.300888 -0.908397 0.290312
vn -0.111439 -0.992119 0.057286
vn 0.177040 -0.977683 -0.113109
vn 0.078256 -0.996894 -0.008847
vn 0.120270 -0.992376 0.026921
vn -0.037657 -0.994637 -0.096334
vn 0.034279 -0.954916 0.294890
vn 0.067749 -0.997702 0.000016
vn -0.208389 -0.943938 0.256037
vn -0.014521 -0.960706 0.277188
vn -0.186894 -0.957477 0.219792
vn -0.306497 -0.923448 0.230874
vn -0.752952 -0.641761 0.145622
vn -0.585628 -0.782389 0.211911
vn -0.232751 -0.861978 -0.450357
vn -0.030367 -0.885262 -0.464101
vn 0.188408 -0.935903 -0.297639
vn 0.148590 -0.963931 -0.220810
vn 0.404309 -0.895586 0.185635
vn 0.382756 -0.902168 0.198973
vn 0.087636 -0.938676 0.333477
vn -0.153468 -0.840059 0.520335
vn -0.294715 -0.815144 0.498683
vn -0.453820 -0.810057 0.371288
vn -0.767936 -0.640416 0.011859
vn -0.645656 -0.568541 0.509794
vn -0.531439 -0.835022 0.142515
vn -0.255728 -0.769713 -0.584932
vn -0.098103 -0.845785 -0.524426
vn 0.185317 -0.864802 -0.466664
vn 0.545863 -0.796830 -0.259029
vn 0.717822 -0.676363 0.165119
vn 0.580104 -0.771521 0.261217
vn 0.245027 -0.692595 0.678434
vn -0.147895 -0.726308 0.671270
vn -0.375472 -0.689625 0.619224
vn -0.507099 -0.826213 0.245403
vn -0.722387 -0.603181 -0.338126
vn -0.517410 -0.641044 0.566877
vn -0.637240 -0.767943 -0.064724
vn -0.351358 -0.632027 -0.690716
vn -0.069832 -0.597000 -0.799196
vn 0.474542 -0.328302 -0.816718
vn 0.895070 -0.189121 -0.403834
vn 0.872049 -0.488515 0.029718
vn 0.766365 -0.360271 0.531873
vn 0.401572 -0.519829 0.754001
vn -0.114325 -0.621718 0.774852
vn -0.234754 -0.753500 0.614108
vn -0.565743 -0.792242 0.228663
vn -0.669710 -0.690224 -0.274005
vn -0.649320 -0.646204 0.401004
vn -0.794052 -0.499988 -0.345679
vn -0.402675 -0.205145 -0.892059
vn 0.065879 0.092471 -0.993534
vn 0.548672 0.298961 -0.780757
vn 0.820619 -0.047573 -0.569493
vn 0.769766 -0.636960 -0.041739
vn 0.705598 -0.486809 0.514926
vn 0.456561 -0.484409 0.746257
vn -0.045503 -0.513600 0.856822
vn -0.351349 -0.497709 0.792994
vn -0.722402 -0.585207 0.368332
vn -0.645276 -0.763675 -0.020507
vn -0.961768 -0.246890 0.118521
vn -0.823715 0.195001 -0.532417
vn -0.349353 0.154350 -0.924191
vn 0.130426 0.241216 -0.961667
vn 0.483481 0.032175 -0.874763
vn 0.640657 -0.298535 -0.707415
vn 0.976100 -0.217303 0.002800
vn 0.776489 -0.000503 0.630131
vn 0.509360 -0.135843 0.849764
vn -0.078110 -0.037524 0.996238
vn -0.391987 -0.129372 0.910829
vn -0.810453 -0.239307 0.534694
vn -0.985328 -0.006799 0.170533
vn -0.860005 0.504011 0.079773
vn -0.799229 0.404200 -0.444809
vn -0.249950 0.495198 -0.832048
vn 0.057053 0.268565 -0.961570
vn 0.448939 0.022387 -0.893282
vn 0.672392 0.420935 -0.608854
vn 0.774040 0.627007 0.087883
vn 0.847715 0.142962 0.510825
vn 0.479905 0.150626 0.864293
vn -0.086018 0.242520 0.966326
vn -0.396877 0.330734 0.856215
vn -0.778287 0.389881 0.492201
vn -0.930912 0.365166 -0.007567
vn -0.701694 0.691803 0.170393
vn -0.378673 0.880163 -0.286217
vn -0.281751 0.656541 -0.699693
vn -0.066788 0.376983 -0.923809
vn 0.463209 0.610077 -0.642840
vn 0.572833 0.699159 -0.427831
vn 0.713800 0.700210 -0.013955
vn 0.752366 0.540245 0.376935
vn 0.264391 0.674445 0.689363
vn -0.094386 0.593304 0.799426
vn -0.357225 0.521796 0.774674
vn -0.664274 0.660881 0.349250
vn -0.501901 0.828710 -0.247659
vn -0.504027 0.835083 0.220440
vn -0.554547 0.788181 -0.266924
vn -0.485680 0.582735 -0.651564
vn 0.086916 0.819100 -0.567027
vn 0.381947 0.867063 -0.319873
vn 0.385642 0.861695 -0.329790
vn 0.511688 0.853399 -0.099430
vn 0.332681 0.919283 0.210340
vn 0.214227 0.890835 0.400649
vn -0.074725 0.792990 0.604634
vn -0.236529 0.833502 0.499328
vn -0.361930 0.932046 -0.017228
vn -0.562162 0.811816 -0.157886
vn -0.731825 0.673906 0.101405
vn -0.569918 0.797201 -0.199159
vn -0.295774 0.814813 -0.498596
vn 0.258851 0.868744 -0.422231
vn 0.401354 0.823610 -0.400725
vn 0.411771 0.793180 -0.448677
vn 0.323283 0.945272 0.044138
vn 0.285443 0.932465 0.221429
vn 0.315860 0.905337 0.283897
vn -0.085333 0.898461 0.430680
vn -0.256464 0.879204 0.401530
vn -0.525001 0.845419 0.098186
vn -0.614043 0.747720 0.252718
vn -0.360507 0.891500 0.274342
vn -0.269876 0.960915 0.061716
vn 0.041568 0.982391 -0.182156
vn 0.386867 0.907087 -0.165915
vn 0.343347 0.920605 -0.186010
vn 0.193351 0.980140 -0.044060
vn 0.092465 0.959823 0.264933
vn 0.411131 0.906822 -0.092979
vn 0.125877 0.989297 0.073803
vn -0.007091 0.978061 0.208200
vn -0.193090 0.979446 0.058323
vn -0.219424 0.968345 0.119003
vn -0.114538 0.959758 0.256409
vn 0.197978 0.863654 0.463580
vn 0.241911 0.885166 0.397441
vn 0.299861 0.884135 0.358315
vn 0.151676 0.916060 0.371253
vn 0.089032 0.937633 0.336032
vn -0.002842 0.986890 0.161367
vn -0.002880 0.999778 0.020853
vn 0.198663 0.902531 -0.382062
vn -0.019419 0.966730 -0.255060
vn 0.013844 0.966820 -0.255084
vn 0.038777 0.970138 -0.239436
vn 0.221660 0.966965 0.125877
vn 0.222910 0.972416 -0.068688
usemtl asteroid_medium
f 1//1 14//14 2//2
f 14//14 15//15 2//2
f 2//2 15//15 3//3
f 15//15 16//16 3//3
f 3//3 16//16 4//4
f 16//16 17//17 4//4
f 4//4 17//17 5//5
f 17//17 18//18 5//5
f 5//5 18//18 6//6
f 18//18 19//19 6//6
f 6//6 19//19 7//7
f 19//19 20//20 7//7
f 7//7 20//20 8//8
f 20//20 21//21 8//8
f 8//8 21//21 9//9
f 21//21 22//22 9//9
f 9//9 22//22 10//10
f 22//22 23//23 10//10
f 10//10 23//23 11//11
f 23//23 24//24 11//11
f 11//11 24//24 12//12
f 24//24 25//25 12//12
f 12//12 25//25 13//13
f 25//25 26//26 13//13
f 14//14 27//27 15//15
f 27//27 28//28 15//15
f 15//15 28//28 16//16
f 28//28 29//29 16//16
f 16//16 29//29 17//17
f 29//29 30//30 17//17
f 17//17 30//30 18//18
f 30//30 31//31 18//18
f 18//18 31//31 19//19
f 31//31 32//32 19//19
f 19//19 32//32 20//20
f 32//32 33//33 20//20
f 20//20 33//33 21//21
f 33//33 34//34 21//21
f 21//21 34//34 22//22
f 34//34 35//35 22//22
f 22//22 35//35 23//23
f 35//35 36//36 23//23
f 23//23 36//36 24//24
f 36//36 37//37 24//24
f 24//24 37//37 25//25
f 37//37 38//38 25//25
f 25//25 38//38 26//26
f 38//38 39//39 26//26
f 27//27 40//40 28//28
f 40//40 41//41 28//28
f 28//28 41//41 29//29
f 41//41 42//42 29//29
f 29//29 42//42 30//30
f 42//42 43//43 30//30
f 30//30 43//43 31//31
f 43//43 44//44 31//31
f 31//31 44//44 32//32
f 44//44 45//45 32//32
f 32//32 45//45 33//33
f 45//45 46//46 33//33
f 33//33 46//46 34//34
f 46//46 47//47 34//34
f 34//34 47//47 35//35
f 47//47 48//48 35//35
f 35//35 48//48 36//36
f 48//48 49//49 36//36
f 36//36 49//49 37//37
f 49//49 50//50 37//37
f 37//37 50//50 38//38
f 50//50 51//51 38//38
f 38//38 51//51 39//39
f 51//51 52//52 39//39
f 40//40 53//53 41//41
f 53//53 54//54 41//41
f 41//41 54//54 42//42
f 54//54 55//55 42//42
f 42//42 55//55 43//43
f 55//55 56//56 43//43
f 43//43 56//56 44//44
f 56//56 57//57 44//44
f 44//44 57//57 45//45
f 57//57 58//58 45//45
f 45//45 58//58 46//46
f 58//58 59//59 46//46
f 46//46 59//59 47//47
f 59//59 60//60 47//47
f 47//47 60//60 48//48
f 60//60 61//61 48//48
f 48//48 61//61 49//49
f 61//61 62//62 49//49
f 49//49 62//62 50//50
f 62//62 63//63 50//50
f 50//50 63//63 51//51
f 63//63 64//64 51//51
f 51//51 64//64 52//52
f 64//64 65//65 52//52
f 53//53 66//66 54//54
f 66//66 67//67 54//54
f 54//54 67//67 55//55
f 67//67 68//68 55//55
f 55//55 68//68 56//56
f 68//68 69//69 56//56
f 56//56 69//69 57//57
f 69//69 70//70 57//57
f 57//57 70//70 58//58
f 70//70 71//71 58//58
f 58//58 71//71 59//59
f 71//71 72//72 59//59
f 59//59 72//72 60//60
f 72//72 73//73 60//60
f 60//60 73//73 61//61
f 73//73 74//74 61//61
f 61//61 74//74 62//62
f 74//74 75//75 62//62
f 62//62 75//75 63//63
f 75//75 76//76 63//63
f 63//63 76//76 64//64
f 76//76 77//77 64//64
f 64//64 77//77 65//65
f 77//77 78//78 65//65
f 66//66 79//79 67//67
f 79//79 80//80 67//67
f 67//67 80//80 68//68
f 80//80 81//81 68//68
f 68//68 81//81 69//69
f 81//81 82//82 69//69
f 69//69 82//82 70//70
f 82//82 83//83 70//70
f 70//70 83//83 71//71
f 83//83 84//84 71//71
f 71//71 84//84 72//72
f 84//84 85//85 72//72
f 72//72 85//85 73//73
f 85//85 86//86 73//73
f 73//73 86//86 74//74
f 86//86 87//87 74//74
f 74//74 87//87 75//75
f 87//87 88//88 75//75
f 75//75 88//88 76//76
f 88//88 89//89 76//76
f 76//76 89//89 77//77
f 89//89 90//90 77//77
f 77//77 90//90 78//78
f 90//90 91//91 78//78
f 79//79 92//92 80//80
f 92//92 93//93 80//80
f 80//80 93//93 81//81
f 93//93 94//94 81//81
f 81//81 94//94 82//82
f 94//94 95//95 82//82
f 82//82 95//95 83//83
f 95//95 96//96 83//83
f 83//83 96//96 84//84
f 96//96 97//97 84//84
f 84//84 97//97 85//85
f 97//97 98//98 85//85
f 85//85 98//98 86//86
f 98//98 99//99 86//86
f 86//86 99//99 87//87
f 99//99 100//100 87//87
f 87//87 100//100 88//88
f 100//100 101//101 88//88
f 88//88 101//101 89//89
f 101//101 102//102 89//89
f 89//89 102//102 90//90
f 102//102 103//103 90//90
f 90//90 103//103 91//91
f 103//103 104//104 91//91
f 92//92 105//105 93//93
f 105//105 106//106 93//93
f 93//93 106//106 94//94
f 106//106 107//107 94//94
f 94//94 107//107 95//95
f 107//107 108//108 95//95
f 95//95 108//108 96//96
f 108//108 109//109 96//96
f 96//96 109//109 97//97
f 109//109 110//110 97//97
f 97//97 110//110 98//98
f 110//110 111//111 98//98
f 98//98 111//111 99//99
f 111//111 112//112 99//99
f 99//99 112//112 100//100
f 112//112 113//113 100//100
f 100//100 113//113 101//101
f 113//113 114//114 101//101
f 101//101 114//114 102//102
f 114//114 115//115 102//102
f 102//102 115//115 103//103
f 115//115 116//116 103//103
f 103//103 116//116 104//104
f 116//116 117//117 104//104
f 105//105 118//118 106//106
f 118//118 119//119 106//106
f 106//106 119//119 107//107
f 119//119 120//120 107//107
f 107//107 120//120 108//108
f 120//120 121//121 108//108
f 108//108 121//121 109//109
f 121//121 122//122 109//109
f 109//109 122//122 110//110
f 122//122 123//123 110//110
f 110//110 123//123 111//111
f 123//123 124//124 111//111
f 111//111 124//124 112//112
f 124//124 125//125 112//112
f 112//112 125//125 113//113
f 125//125 126//126 113//113
f 113//113 126//126 114//114
f 126//126 127//127 114//114
f 114//114 127//127 115//115
f 127//127 128//128 115//115
f 115//115 128//128 116//116
f 128//128 129//129 116//116
f 116//116 129//129 117//117
f 129//129 130//130 117//117
f 118//118 131//131 119//119
f 131//131 132//132 119//119
f 119//119 132//132 120//120
f 132//132 133//133 120//120
f 120//120 133//133 121//121
f 133//133 134//134 121//121
f 121//121 134//134 122//122
f 134//134 135//135 122//122
f 122//122 135//135 123//123
f 135//135 136//136 123//123
f 123//123 136//136 124//124
f 136//136 137//137 124//124
f 124//124 137//137 125//125
f 137//137 138//138 125//125
f 125//125 138//138 126//126
f 138//138 139//139 126//126
f 126//126 139//139 127//127
f 139//139 140//140 127//127
f 127//127 140//140 128//128
f 140//140 141//141 128//128
f 128//128 141//141 129//129
f 141//141 142//142 129//129
f 129//129 142//142 130//130
f 142//142 143//143 130//130
f 131//131 144//144 132//132
f 144//144 145//145 132//132
f 132//132 145//145 133//133
f 145//145 146//146 133//133
f 133//133 146//146 134//134
f 146//146 147//147 134//134
f 134//134 147//147 135//135
f 147//147 148//148 135//135
f 135//135 148//148 136//136
f 148//148 149//149 136//136
f 136//136 149//149 137//137
f 149//149 150//150 137//137
f 137//137 150//150 138//138
f 150//150 151//151 138//138
f 138//138 151//151 139//139
f 151//151 152//152 139//139
f 139//139 152//152 140//140
f 152//152 153//153 140//140
f 140//140 153//153 141//141
f 153//153 154//154 141//141
f 141//141 154//154 142//142
f 154//154 155//155 142//142
f 142//142 155//155 143//143
f 155//155 156//156 143//143
f 144//144 157//157 145//145
f 157//157 158//158 145//145
f 145//145 158//158 146//146
f 158//158 159//159 146//146
f 146//146 159//159 147//147
f 159//159 160//160 147//147
f 147//147 160//160 148//148
f 160//160 161//161 148//148
f 148//148 161//161 149//149
f 161//161 162//162 149//149
f 149//149 162//162 150//150
f 162//162 163//163 150//150
f 150//150 163//163 151//151
f 163//163 164//164 151//151
f 151//151 164//164 152//152
f 164//164 165//165 152//152
f 152//152 165//165 153//153
f 165//165 166//166 153//153
f 153//153 166//166 154//154
f 166//166 167//167 154//154
f 154//154 167//167 155//155
f 167//167 168//168 155//155
f 155//155 168//168 156//156
f 168//168 169//169 156//156
