# asteroid_small
mtllib asteroid_small.mtl
o asteroid_small
v 0.000000 0.159488 0.000000
v 0.000000 0.159488 0.000000
v 0.000000 0.159488 0.000000
v -0.000000 0.159488 0.000000
v -0.000000 0.159488 0.000000
v -0.000000 0.159488 0.000000
v -0.000000 0.159488 -0.000000
v -0.000000 0.159488 -0.000000
v 0.000000 0.159488 -0.000000
v 0.000000 0.159488 -0.000000
v 0.000000 0.159488 -0.000000
v 0.057907 0.151487 0.000000
v 0.047046 0.152129 0.030763
v 0.018616 0.157600 0.051566
v -0.018809 0.159229 0.052099
v -0.049662 0.160587 0.032473
v -0.065858 0.172286 0.000000
v -0.054105 0.174955 -0.035379
v -0.019546 0.165468 -0.054140
v 0.019921 0.168641 -0.055178
v 0.048246 0.156006 -0.031547
v 0.057907 0.151487 -0.000000
v 0.129561 0.151577 0.000000
v 0.089619 0.129599 0.058601
v 0.034002 0.128731 0.094184
v -0.038521 0.145838 0.106699
v -0.095899 0.138679 0.062707
v -0.131696 0.154074 0.000000
v -0.101723 0.147102 -0.066515
v -0.040829 0.154577 -0.113093
v 0.040022 0.151523 -0.110859
v 0.105552 0.152640 -0.069019
v 0.129561 0.151577 -0.000000
v 0.172678 0.106639 0.000000
v 0.136492 0.104191 0.089250
v 0.049543 0.099011 0.137231
v -0.051227 0.102376 0.141894
v -0.136816 0.104438 0.089462
v -0.171623 0.105987 0.000000
v -0.156190 0.119227 -0.102131
v -0.055692 0.111300 -0.154263
v 0.054688 0.109293 -0.151482
v 0.157115 0.119933 -0.102736
v 0.172678 0.106639 -0.000000
v 0.182596 0.050430 0.000000
v 0.146112 0.049880 0.095541
v 0.059595 0.053263 0.165073
v -0.063301 0.056575 0.175338
v -0.161007 0.054964 0.105281
v -0.198335 0.054777 0.000000
v -0.181801 0.062063 -0.118878
v -0.066889 0.059782 -0.185278
v 0.068177 0.060933 -0.188845
v 0.167385 0.057142 -0.109451
v 0.182596 0.050430 -0.000000
v 0.193904 0.000000 0.000000
v 0.152865 0.000000 0.099957
v 0.057415 0.000000 0.159034
v -0.063912 0.000000 0.177031
v -0.176959 0.000000 0.115711
v -0.218339 0.000000 0.000000
v -0.169025 0.000000 -0.110524
v -0.063091 0.000000 -0.174757
v 0.064878 0.000000 -0.179707
v 0.151979 0.000000 -0.099377
v 0.193904 0.000000 -0.000000
v 0.164082 -0.045317 0.000000
v 0.142845 -0.048764 0.093405
v 0.054451 -0.048665 0.150825
v -0.063320 -0.056592 0.175392
v -0.144251 -0.049244 0.094324
v -0.167690 -0.046313 0.000000
v -0.134848 -0.046034 -0.088176
v -0.054376 -0.048598 -0.150616
v 0.050500 -0.045134 -0.139880
v 0.133921 -0.045718 -0.087569
v 0.164082 -0.045317 -0.000000
v 0.141115 -0.087147 0.000000
v 0.125369 -0.095700 0.081977
v 0.048159 -0.096245 0.133397
v -0.046776 -0.093481 0.129566
v -0.117209 -0.089471 0.076642
v -0.142209 -0.087823 0.000000
v -0.119720 -0.091388 -0.078283
v -0.042247 -0.084430 -0.117021
v 0.044309 -0.088551 -0.122733
v 0.129128 -0.098570 -0.084435
v 0.141115 -0.087147 -0.000000
v 0.103492 -0.121078 0.000000
v 0.086340 -0.124857 0.056457
v 0.037169 -0.140720 0.102955
v -0.034393 -0.130210 0.095265
v -0.087112 -0.125973 0.056962
v -0.100294 -0.117336 0.000000
v -0.086003 -0.124369 -0.056236
v -0.031414 -0.118932 -0.087014
v 0.037902 -0.143495 -0.104985
v 0.095339 -0.137871 -0.062341
v 0.103492 -0.121078 -0.000000
v 0.056043 -0.146610 0.000000
v 0.053505 -0.173013 0.034986
v 0.017038 -0.144236 0.047193
v -0.016680 -0.141205 0.046201
v -0.046504 -0.150374 0.030408
v -0.057462 -0.150323 0.000000
v -0.047363 -0.153152 -0.030970
v -0.016201 -0.137156 -0.044877
v 0.017127 -0.144989 -0.047440
v 0.051120 -0.165300 -0.033427
v 0.056043 -0.146610 -0.000000
v 0.000000 -0.125062 0.000000
v 0.000000 -0.125062 0.000000
v 0.000000 -0.125062 0.000000
v -0.000000 -0.125062 0.000000
v -0.000000 -0.125062 0.000000
v -0.000000 -0.125062 0.000000
v -0.000000 -0.125062 -0.000000
v -0.000000 -0.125062 -0.000000
v 0.000000 -0.125062 -0.000000
v 0.000000 -0.125062 -0.000000
v 0.000000 -0.125062 -0.000000
vn 0.000000 0.000000 0.000000
vn -0.136818 -0.990210 -0.027642
vn -0.170815 -0.984970 0.025604
vn -0.043769 -0.998826 -0.020770
vn -0.033190 -0.999305 -0.016953
vn -0.184687 -0.950391 -0.250295
vn -0.188983 -0.972497 -0.136142
vn -0.269320 -0.963007 -0.009133
vn 0.075833 -0.987737 -0.136472
vn -0.223523 -0.945318 -0.237509
vn -0.136191 -0.985673 -0.099498
vn -0.060948 -0.998141 -0.000691
vn -0.164789 -0.967620 -0.191195
vn -0.197182 -0.937017 -0.288302
vn -0.097978 -0.964432 -0.245501
vn 0.100860 -0.967589 -0.231514
vn 0.095044 -0.962458 -0.254247
vn 0.107871 -0.979246 0.171584
vn 0.067804 -0.987013 0.145628
vn -0.108061 -0.990635 0.083453
vn -0.168757 -0.985172 -0.030948
vn -0.058163 -0.996816 -0.054534
vn -0.331930 -0.828818 -0.450426
vn -0.350786 -0.847888 -0.397536
vn -0.238669 -0.863452 -0.444395
vn 0.045287 -0.856058 -0.514891
vn 0.339009 -0.832340 -0.438500
vn 0.526428 -0.844670 -0.096987
vn 0.401942 -0.890262 0.214189
vn 0.154278 -0.893802 0.421089
vn -0.135966 -0.861598 0.489042
vn -0.206473 -0.939984 0.271661
vn -0.448307 -0.892450 0.050535
vn -0.684627 -0.605446 -0.405858
vn -0.623312 -0.592135 -0.510743
vn -0.292007 -0.606780 -0.739290
vn 0.156138 -0.647055 -0.746285
vn 0.553756 -0.645374 -0.526162
vn 0.777584 -0.619710 -0.106408
vn 0.616933 -0.701533 0.356715
vn 0.192313 -0.601295 0.775539
vn -0.129367 -0.675041 0.726350
vn -0.616681 -0.623354 0.480765
vn -0.928882 -0.358198 0.094191
vn -0.914084 -0.189520 -0.358515
vn -0.764379 -0.253096 -0.593015
vn -0.338077 -0.278599 -0.898936
vn 0.214353 -0.289750 -0.932790
vn 0.714343 -0.357092 -0.601829
vn 0.912718 -0.394156 -0.107648
vn 0.770005 -0.236151 0.592727
vn 0.273850 -0.192118 0.942389
vn -0.263841 -0.172032 0.949101
vn -0.858560 0.036019 0.511446
vn -0.975741 -0.020800 0.217936
vn -0.925928 0.067457 -0.371628
vn -0.772311 0.139738 -0.619684
vn -0.316816 0.125068 -0.940205
vn 0.195891 -0.028974 -0.980198
vn 0.783236 0.074285 -0.617271
vn 0.943911 0.329374 0.023341
vn 0.650563 0.455911 0.607382
vn 0.258273 0.343054 0.903111
vn -0.329751 0.415972 0.847486
vn -0.778559 0.345033 0.524211
vn -0.899247 0.251175 0.358142
vn -0.874850 0.416859 -0.246710
vn -0.757775 0.326441 -0.564989
vn -0.345717 0.240284 -0.907052
vn 0.249060 0.481860 -0.840107
vn 0.646522 0.672068 -0.361016
vn 0.749181 0.658267 0.073570
vn 0.661230 0.529765 0.531153
vn 0.197189 0.575165 0.793915
vn -0.294909 0.567995 0.768382
vn -0.714600 0.344969 0.608559
vn -0.896816 0.374475 0.235563
vn -0.834224 0.536742 -0.126404
vn -0.628618 0.623029 -0.465482
vn -0.259079 0.607314 -0.751031
vn 0.303119 0.712012 -0.633370
vn 0.645963 0.647392 -0.404493
vn 0.774080 0.631605 0.043307
vn 0.578956 0.653763 0.487241
vn 0.137516 0.645322 0.751431
vn -0.160662 0.358094 0.919759
vn -0.718660 0.431623 0.545187
vn -0.779707 0.626140 -0.002615
vn -0.576987 0.812857 -0.079680
vn -0.597204 0.746082 -0.294465
vn -0.102624 0.802803 -0.587347
vn 0.290600 0.859421 -0.420650
vn 0.479490 0.843000 -0.243805
vn 0.592003 0.805311 0.031725
vn 0.443341 0.794932 0.414164
vn 0.234761 0.706069 0.668097
vn -0.046008 0.780860 0.623009
vn -0.496780 0.853927 0.154976
vn -0.587440 0.787603 -0.186002
vn -0.429377 0.853535 0.295151
vn -0.092394 0.995700 -0.006656
vn 0.337157 0.939725 -0.056933
vn 0.038981 0.993864 -0.103515
vn 0.147645 0.984742 -0.092114
vn 0.252771 0.967390 -0.016213
vn -0.040896 0.969294 0.242481
vn 0.084269 0.988143 0.128343
vn 0.162854 0.981325 0.102374
vn -0.088390 0.991702 -0.093346
vn -0.033662 0.874438 -0.483968
vn 0.289803 0.753729 0.589836
vn 0.634349 0.768553 0.083236
vn 0.073498 0.932923 0.352496
vn -0.375697 0.908722 0.181870
vn -0.398179 0.905770 0.145032
vn -0.393454 0.895021 -0.210076
vn -0.478044 0.876038 -0.063493
vn 0.193415 0.927539 -0.319783
vn 0.551113 0.821537 -0.146121
vn 0.311149 0.809246 -0.498304
vn 0.355904 0.925647 -0.128489
usemtl asteroid_small
f 1//1 12//12 2//2
f 12//12 13//13 2//2
f 2//2 13//13 3//3
f 13//13 14//14 3//3
f 3//3 14//14 4//4
f 14//14 15//15 4//4
f 4//4 15//15 5//5
f 15//15 16//16 5//5
f 5//5 16//16 6//6
f 16//16 17//17 6//6
f 6//6 17//17 7//7
f 17//17 18//18 7//7
f 7//7 18//18 8//8
f 18//18 19//19 8//8
f 8//8 19//19 9//9
f 19//19 20//20 9//9
f 9//9 20//20 10//10
f 20//20 21//21 10//10
f 10//10 21//21 11//11
f 21//21 22//22 11//11
f 12//12 23//23 13//13
f 23//23 24//24 13//13
f 13//13 24//24 14//14
f 24//24 25//25 14//14
f 14//14 25//25 15//15
f 25//25 26//26 15//15
f 15//15 26//26 16//16
f 26//26 27//27 16//16
f 16//16 27//27 17//17
f 27//27 28//28 17//17
f 17//17 28//28 18//18
f 28//28 29//29 18//18
f 18//18 29//29 19//19
f 29//29 30//30 19//19
f 19//19 30//30 20//20
f 30//30 31//31 20//20
f 20//20 31//31 21//21
f 31//31 32//32 21//21
f 21//21 32//32 22//22
f 32//32 33//33 22//22
f 23//23 34//34 24//24
f 34//34 35//35 24//24
f 24//24 35//35 25//25
f 35//35 36//36 25//25
f 25//25 36//36 26//26
f 36//36 37//37 26//26
f 26//26 37//37 27//27
f 37//37 38//38 27//27
f 27//27 38//38 28//28
f 38//38 39//39 28//28
f 28//28 39//39 29//29
f 39//39 40//40 29//29
f 29//29 40//40 30//30
f 40//40 41//41 30//30
f 30//30 41//41 31//31
f 41//41 42//42 31//31
f 31//31 42//42 32//32
f 42//42 43//43 32//32
f 32//32 43//43 33//33
f 43//43 44//44 33//33
f 34//34 45//45 35//35
f 45//45 46//46 35//35
f 35//35 46//46 36//36
f 46//46 47//47 36//36
f 36//36 47//47 37//37
f 47//47 48//48 37//37
f 37//37 48//48 38//38
f 48//48 49//49 38//38
f 38//38 49//49 39//39
f 49//49 50//50 39//39
f 39//39 50//50 40//40
f 50//50 51//51 40//40
f 40//40 51//51 41//41
f 51//51 52//52 41//41
f 41//41 52//52 42//42
f 52//52 53//53 42//42
f 42//42 53//53 43//43
f 53//53 54//54 43//43
f 43//43 54//54 44//44
f 54//54 55//55 44//44
f 45//45 56//56 46//46
f 56//56 57//57 46//46
f 46//46 57//57 47//47
f 57//57 58//58 47//47
f 47//47 58//58 48//48
f 58//58 59//59 48//48
f 48//48 59//59 49//49
f 59//59 60//60 49//49
f 49//49 60//60 50//50
f 60//60 61//61 50//50
f 50//50 61//61 51//51
f 61//61 62//62 51//51
f 51//51 62//62 52//52
f 62//62 63//63 52//52
f 52//52 63//63 53//53
f 63//63 64//64 53//53
f 53//53 64//64 54//54
f 64//64 65//65 54//54
f 54//54 65//65 55//55
f 65//65 66//66 55//55
f 56//56 67//67 57//57
f 67//67 68//68 57//57
f 57//57 68//68 58//58
f 68//68 69//69 58//58
f 58//58 69//69 59//59
f 69//69 70//70 59//59
f 59//59 70//70 60//60
f 70//70 71//71 60//60
f 60//60 71//71 61//61
f 71//71 72//72 61//61
f 61//61 72//72 62//62
f 72//72 73//73 62//62
f 62//62 73//73 63//63
f 73//73 74//74 63//63
f 63//63 74//74 64//64
f 74//74 75//75 64//64
f 64//64 75//75 65//65
f 75//75 76//76 65//65
f 65//65 76//76 66//66
f 76//76 77//77 66//66
f 67//67 78//78 68//68
f 78//78 79//79 68//68
f 68//68 79//79 69//69
f 79//79 80//80 69//69
f 69//69 80//80 70//70
f 80//80 81//81 70//70
f 70//70 81//81 71//71
f 81//81 82//82 71//71
f 71//71 82//82 72//72
f 82//82 83//83 72//72
f 72//72 83//83 73//73
f 83//83 84//84 73//73
f 73//73 84//84 74//74
f 84//84 85//85 74//74
f 74//74 85//85 75//75
f 85//85 86//86 75//75
f 75//75 86//86 76//76
f 86//86 87//87 76//76
f 76//76 87//87 77//77
f 87//87 88//88 77//77
f 78//78 89//89 79//79
f 89//89 90//90 79//79
f 79//79 90//90 80//80
f 90//90 91//91 80//80
f 80//80 91//91 81//81
f 91//91 92//92 81//81
f 81//81 92//92 82//82
f 92//92 93//93 82//82
f 82//82 93//93 83//83
f 93//93 94//94 83//83
f 83//83 94//94 84//84
f 94//94 95//95 84//84
f 84//84 95//95 85//85
f 95//95 96//96 85//85
f 85//85 96//96 86//86
f 96//96 97//97 86//86
f 86//86 97//97 87//87
f 97//97 98//98 87//87
f 87//87 98//98 88//88
f 98//98 99//99 88//88
f 89//89 100//100 90//90
f 100//100 101//101 90//90
f 90//90 101//101 91//91
f 101//101 102//102 91//91
f 91//91 102//102 92//92
f 102//102 103//103 92//92
f 92//92 103//103 93//93
f 103//103 104//104 93//93
f 93//93 104//104 94//94
f 104//104 105//105 94//94
f 94//94 105//105 95//95
f 105//105 106//106 95//95
f 95//95 106//106 96//96
f 106//106 107//107 96//96
f 96//96 107//107 97//97
f 107//107 108//108 97//97
f 97//97 108//108 98//98
f 108//108 109//109 98//98
f 98//98 109//109 99//99
f 109//109 110//110 99//99
f 100//100 111//111 101//101
f 111//111 112//112 101//101
f 101//101 112//112 102//102
f 112//112 113//113 102//102
f 102//102 113//113 103//103
f 113//113 114//114 103//103
f 103//103 114//114 104//104
f 114//114 115//115 104//104
f 104//104 115//115 105//105
f 115//115 116//116 105//105
f 105//105 116//116 106//106
f 116//116 117//117 106//106
f 106//106 117//117 107//107
f 117//117 118//118 107//107
f 107//107 118//118 108//108
f 118//118 119//119 108//108
f 108//108 119//119 109//109
f 119//119 120//120 109//109
f 109//109 120//120 110//110
f 120//120 121//121 110//110
