# Gisement de deraumere — généré par generate_minerals.py
mtllib deraumere.mtl
o deraumere_deposit
v 0.017072 0.379758 0.225427
v 0.017072 0.438442 0.225427
v 0.017072 0.447897 0.225427
v 0.017072 0.402897 0.225427
v 0.017072 0.430290 0.225427
v 0.017072 0.460859 0.225427
v 0.017072 0.378036 0.225427
v 0.017072 0.386236 0.225427
v 0.017072 0.447688 0.225427
v -0.087017 0.389058 0.334831
v -0.124554 0.378220 0.228954
v -0.077903 0.365944 0.135068
v 0.013700 0.371036 0.089990
v 0.136090 0.414195 0.100331
v 0.152001 0.370447 0.222068
v 0.152526 0.430788 0.354301
v 0.021500 0.420310 0.403310
v -0.110113 0.427944 0.359107
v -0.179431 0.324091 0.431965
v -0.271438 0.325452 0.232611
v -0.175808 0.316798 0.041919
v 0.010788 0.311467 -0.026942
v 0.216729 0.325861 0.015574
v 0.272143 0.312512 0.219077
v 0.247934 0.337079 0.445073
v 0.023028 0.306386 0.464666
v -0.179240 0.323984 0.431764
v -0.212512 0.213811 0.466735
v -0.306871 0.213811 0.233493
v -0.208825 0.213811 0.010507
v 0.007801 0.213811 -0.146934
v 0.188136 0.213811 0.045628
v 0.293968 0.213811 0.218533
v 0.235660 0.213811 0.433395
v 0.024375 0.213811 0.518780
v -0.169906 0.213811 0.421953
v -0.162803 0.112863 0.414488
v -0.280848 0.098529 0.232845
v -0.204279 0.095622 0.014831
v 0.009361 0.093969 -0.084276
v 0.206821 0.107321 0.025988
v 0.344837 0.086979 0.217267
v 0.223970 0.103338 0.422273
v 0.023906 0.107584 0.499947
v -0.130488 0.130998 0.380522
v -0.083721 0.044112 0.331367
v -0.170487 -0.003920 0.230097
v -0.114707 0.002722 0.100051
v 0.012872 0.018024 0.056772
v 0.111391 0.055011 0.126292
v 0.179797 0.024908 0.221376
v 0.109759 0.065340 0.313612
v 0.020391 0.059029 0.358760
v -0.088899 0.035395 0.336810
v 0.017072 0.006957 0.225427
v 0.017072 0.012098 0.225427
v 0.017072 0.015431 0.225427
v 0.017072 0.038275 0.225427
v 0.017072 0.031890 0.225427
v 0.017072 -0.000885 0.225427
v 0.017072 0.019321 0.225427
v 0.017072 -0.031011 0.225427
v 0.017072 -0.033530 0.225427
v 0.007600 0.312692 -0.271937
v 0.007600 0.278959 -0.271937
v 0.007600 0.287796 -0.271937
v 0.007600 0.299706 -0.271937
v 0.007600 0.271918 -0.271937
v 0.007600 0.308217 -0.271937
v 0.007600 0.272233 -0.271937
v 0.007600 0.311023 -0.271937
v 0.007600 0.310110 -0.271937
v 0.114854 0.248774 -0.290216
v 0.097195 0.249743 -0.208434
v 0.028267 0.262320 -0.150666
v -0.070293 0.273449 -0.162041
v -0.144013 0.291642 -0.246099
v -0.086529 0.255038 -0.338655
v -0.011094 0.251129 -0.381628
v 0.065368 0.240293 -0.353439
v 0.118556 0.252352 -0.290847
v 0.196467 0.205965 -0.304124
v 0.218860 0.227354 -0.122199
v 0.038148 0.202868 -0.092685
v -0.138709 0.225470 -0.065515
v -0.219325 0.218225 -0.233265
v -0.171126 0.214691 -0.398617
v -0.025473 0.207640 -0.466005
v 0.125192 0.209701 -0.437843
v 0.194577 0.205356 -0.303802
v 0.269035 0.145126 -0.316491
v 0.224051 0.145126 -0.118520
v 0.046450 0.145126 -0.043970
v -0.112566 0.145126 -0.102399
v -0.297568 0.145126 -0.219931
v -0.171732 0.145126 -0.399046
v -0.043151 0.145126 -0.569734
v 0.123938 0.145126 -0.436075
v 0.283075 0.145126 -0.318884
v 0.198947 0.083488 -0.304547
v 0.196826 0.071475 -0.137817
v 0.045945 0.072647 -0.046935
v -0.116510 0.076972 -0.096835
v -0.164949 0.089543 -0.242532
v -0.173387 0.074681 -0.400219
v -0.030044 0.073971 -0.492828
v 0.123357 0.081559 -0.435255
v 0.182033 0.088936 -0.301665
v 0.110904 0.045295 -0.289543
v 0.129285 0.003038 -0.185689
v 0.031775 0.008041 -0.130083
v -0.081252 -0.001250 -0.146580
v -0.093935 0.047004 -0.254634
v -0.091067 0.029915 -0.341872
v -0.016784 0.006855 -0.415019
v 0.069498 0.043155 -0.359266
v 0.106937 0.049129 -0.288867
v 0.007600 -0.007162 -0.271937
v 0.007600 -0.019061 -0.271937
v 0.007600 0.031614 -0.271937
v 0.007600 0.033359 -0.271937
v 0.007600 0.011451 -0.271937
v 0.007600 -0.018359 -0.271937
v 0.007600 -0.006342 -0.271937
v 0.007600 0.017283 -0.271937
v 0.007600 -0.002675 -0.271937
v -0.019300 0.503440 0.052460
v -0.019300 0.493379 0.052460
v -0.019300 0.508074 0.052460
v -0.019300 0.419690 0.052460
v -0.019300 0.435122 0.052460
v -0.019300 0.472484 0.052460
v -0.019300 0.425206 0.052460
v -0.019300 0.426901 0.052460
v -0.019300 0.441718 0.052460
v -0.175203 0.471923 -0.043912
v -0.054890 0.433914 -0.098358
v 0.057243 0.421318 -0.071366
v 0.107911 0.401365 0.022441
v 0.111992 0.433096 0.133618
v 0.009752 0.395718 0.175575
v -0.083427 0.389630 0.156200
v -0.200117 0.475275 0.095129
v -0.134574 0.407826 -0.018797
v -0.268630 0.357084 -0.101664
v -0.079659 0.343525 -0.203321
v 0.141033 0.362367 -0.206914
v 0.252280 0.350786 -0.011627
v 0.214025 0.348668 0.196691
v 0.029067 0.320169 0.257423
v -0.163982 0.349052 0.286516
v -0.277205 0.344501 0.113320
v -0.259495 0.352281 -0.096017
v -0.320123 0.225971 -0.133494
v -0.088488 0.225971 -0.240735
v 0.164347 0.225971 -0.244630
v 0.318839 0.225971 -0.027333
v 0.295667 0.225971 0.247158
v 0.057949 0.225971 0.379817
v -0.199661 0.225971 0.344234
v -0.317159 0.225971 0.122748
v -0.236100 0.225971 -0.081555
v -0.243658 0.107988 -0.086227
v -0.079982 0.107786 -0.204692
v 0.138739 0.091526 -0.203204
v 0.280009 0.088411 -0.018170
v 0.223581 0.098248 0.202597
v 0.048781 0.093377 0.340966
v -0.136279 0.126456 0.241700
v -0.258550 0.116014 0.108918
v -0.278669 0.089577 -0.107869
v -0.145685 0.026586 -0.025665
v -0.056746 0.007180 -0.106225
v 0.065463 0.009647 -0.084662
v 0.104590 0.055156 0.023225
v 0.129399 -0.008616 0.144379
v 0.008948 0.060924 0.172166
v -0.097029 0.027597 0.178205
v -0.146284 0.050890 0.082426
v -0.164733 -0.003464 -0.037440
v -0.019300 -0.000273 0.052460
v -0.019300 -0.000857 0.052460
v -0.019300 0.028378 0.052460
v -0.019300 0.009504 0.052460
v -0.019300 0.040457 0.052460
v -0.019300 -0.021277 0.052460
v -0.019300 -0.013437 0.052460
v -0.019300 -0.025704 0.052460
v -0.019300 0.002350 0.052460
v 0.304246 0.415732 0.219791
v 0.304246 0.397509 0.219791
v 0.304246 0.434504 0.219791
v 0.304246 0.433217 0.219791
v 0.304246 0.357780 0.219791
v 0.304246 0.415731 0.219791
v 0.304246 0.357316 0.219791
v 0.304246 0.387206 0.219791
v 0.304246 0.436999 0.219791
v 0.156448 0.366385 0.329065
v 0.129749 0.359670 0.193642
v 0.189874 0.374207 0.065097
v 0.327918 0.344419 0.061831
v 0.483836 0.402446 0.087013
v 0.456776 0.339411 0.242649
v 0.434948 0.399259 0.396572
v 0.275084 0.378208 0.414389
v 0.171174 0.349681 0.318178
v 0.073202 0.286096 0.390613
v 0.022559 0.285335 0.177578
v 0.105872 0.300186 -0.048520
v 0.356357 0.305639 -0.127943
v 0.525574 0.282422 0.056154
v 0.583733 0.284659 0.261675
v 0.484543 0.290941 0.463651
v 0.251135 0.307691 0.574201
v 0.003720 0.312367 0.441984
v -0.063673 0.198739 0.491811
v -0.023741 0.198739 0.170640
v 0.108320 0.198739 -0.045208
v 0.353734 0.198739 -0.110439
v 0.548859 0.198739 0.038938
v 0.694538 0.198739 0.278280
v 0.539306 0.198739 0.537721
v 0.253111 0.198739 0.561014
v 0.011303 0.198739 0.436378
v 0.089557 0.117565 0.378521
v -0.047730 0.090534 0.167045
v 0.078199 0.083139 -0.085949
v 0.344392 0.116383 -0.048100
v 0.560063 0.102015 0.030654
v 0.597768 0.108504 0.263778
v 0.532226 0.082151 0.528145
v 0.258007 0.103883 0.528344
v 0.063347 0.107655 0.397899
v 0.118200 -0.012293 0.357344
v 0.084146 -0.004251 0.186808
v 0.174062 -0.000989 0.043711
v 0.329117 0.045678 0.053829
v 0.490527 -0.012559 0.082065
v 0.453642 0.060956 0.242180
v 0.424496 0.014254 0.382435
v 0.271341 -0.003770 0.439369
v 0.173232 0.050130 0.316656
v 0.304246 -0.000877 0.219791
v 0.304246 0.031475 0.219791
v 0.304246 0.002386 0.219791
v 0.304246 -0.034681 0.219791
v 0.304246 -0.021795 0.219791
v 0.304246 0.039323 0.219791
v 0.304246 0.032685 0.219791
v 0.304246 0.013004 0.219791
v 0.304246 -0.035123 0.219791
v 0.358288 0.294935 0.075912
v 0.358288 0.274055 0.075912
v 0.358288 0.288534 0.075912
v 0.358288 0.303139 0.075912
v 0.358288 0.293351 0.075912
v 0.358288 0.288321 0.075912
v 0.358288 0.313734 0.075912
v 0.358288 0.315776 0.075912
v 0.358288 0.311878 0.075912
v 0.446902 0.274478 0.152702
v 0.367067 0.280564 0.198723
v 0.283221 0.271748 0.162536
v 0.247884 0.267663 0.083803
v 0.271288 0.272265 0.000518
v 0.348288 0.298340 -0.063996
v 0.427873 0.263066 -0.004386
v 0.480867 0.280322 0.067150
v 0.430753 0.252316 0.138708
v 0.521917 0.227721 0.217709
v 0.372823 0.223347 0.279262
v 0.246728 0.211759 0.204648
v 0.170090 0.218096 0.089364
v 0.175026 0.236702 -0.082900
v 0.341386 0.234826 -0.160559
v 0.495101 0.225089 -0.081965
v 0.589204 0.232901 0.059406
v 0.487244 0.211859 0.187662
v 0.546054 0.152867 0.238626
v 0.378469 0.152867 0.358244
v 0.228912 0.152867 0.225207
v 0.147849 0.152867 0.090953
v 0.194966 0.152867 -0.065620
v 0.342119 0.152867 -0.150299
v 0.542074 0.152867 -0.136170
v 0.637461 0.152867 0.055957
v 0.550195 0.152867 0.242214
v 0.530753 0.073972 0.225367
v 0.374179 0.075811 0.298235
v 0.245309 0.093227 0.206285
v 0.153979 0.082055 0.090515
v 0.216390 0.087955 -0.047055
v 0.345302 0.089899 -0.105765
v 0.494310 0.081063 -0.081052
v 0.531452 0.092850 0.063534
v 0.491431 0.091960 0.191291
v 0.438531 0.042744 0.145448
v 0.367922 0.012723 0.210694
v 0.265997 0.006709 0.182412
v 0.249778 0.040041 0.083668
v 0.284058 0.050996 0.011585
v 0.351454 0.053457 -0.019696
v 0.448539 0.009941 -0.028234
v 0.477381 0.029037 0.067399
v 0.445197 0.033595 0.151225
v 0.358288 -0.014326 0.075912
v 0.358288 -0.009327 0.075912
v 0.358288 0.040027 0.075912
v 0.358288 0.028535 0.075912
v 0.358288 -0.014129 0.075912
v 0.358288 0.015196 0.075912
v 0.358288 -0.001590 0.075912
v 0.358288 0.018228 0.075912
v 0.358288 0.042165 0.075912
vn -0.724487 0.000000 -0.689288
vn -0.002283 -0.879797 -0.475344
vn 0.159960 -0.845181 0.509982
vn 0.121826 -0.864531 0.487591
vn 0.544333 -0.705275 0.454190
vn -0.349623 -0.757341 -0.551542
vn -0.118176 -0.987301 -0.106164
vn -0.329448 -0.916713 0.226057
vn -0.427192 -0.895178 -0.127140
vn 0.257567 -0.928117 -0.268808
vn 0.394028 -0.919068 0.007544
vn 0.241561 -0.922755 0.300285
vn 0.247802 -0.896022 0.368428
vn -0.169854 -0.919177 0.355335
vn -0.471706 -0.881724 -0.007482
vn -0.318168 -0.945057 0.075071
vn -0.069381 -0.847776 -0.525796
vn 0.103356 -0.759171 -0.642633
vn 0.588955 -0.770668 -0.243316
vn 0.698051 -0.715077 -0.037284
vn 0.524547 -0.698599 0.486630
vn 0.163541 -0.753747 0.636490
vn -0.637518 -0.532508 0.556782
vn -0.831376 -0.521439 0.192132
vn -0.651288 -0.436325 -0.620842
vn -0.015755 -0.413631 -0.910308
vn 0.216516 -0.364105 -0.905841
vn 0.920805 -0.020824 -0.389468
vn 0.999865 0.011420 -0.011799
vn 0.745311 -0.234702 0.624041
vn -0.008260 -0.103204 0.994626
vn -0.776505 0.097598 0.622506
vn -0.962486 -0.223285 0.154158
vn -0.698047 -0.066175 -0.712987
vn -0.019653 -0.070857 -0.997293
vn 0.489429 0.269653 -0.829305
vn 0.705240 0.575394 -0.414196
vn 0.850400 0.521473 -0.069896
vn 0.621798 0.523697 0.582331
vn -0.152127 0.621222 0.768727
vn -0.651611 0.448786 0.611551
vn -0.841700 0.539054 0.031007
vn -0.399134 0.681447 -0.613451
vn 0.146774 0.740618 -0.655700
vn 0.393744 0.714724 -0.578045
vn 0.303870 0.826662 -0.473596
vn 0.392306 0.916888 -0.073566
vn 0.148629 0.936606 0.317297
vn -0.258508 0.937115 0.234498
vn -0.239328 0.944165 0.226440
vn -0.192956 0.978782 -0.068950
vn -0.085233 0.931707 -0.353067
vn -0.045275 0.875736 -0.480662
vn -0.013238 0.685144 -0.728287
vn -0.062896 0.937208 -0.343054
vn -0.100582 0.992306 0.072197
vn -0.296354 0.954202 0.040905
vn -0.441426 0.895111 -0.062604
vn 0.082040 0.832728 0.547570
vn -0.040423 0.947582 -0.316945
vn -0.498525 0.795284 -0.344957
vn -0.422178 0.749556 -0.509834
vn -0.724487 0.000000 -0.689288
vn -0.167998 0.000000 -0.985787
vn -0.372008 -0.866159 -0.333733
vn -0.463484 -0.885088 -0.042450
vn 0.058135 -0.994369 -0.088609
vn -0.000789 -0.953261 -0.302146
vn -0.064473 -0.942022 0.329299
vn 0.225920 -0.879357 0.419155
vn 0.146182 -0.881466 0.449052
vn -0.356691 -0.819261 0.448980
vn -0.387180 -0.878770 -0.279024
vn -0.295038 -0.955250 0.021231
vn -0.144846 -0.911001 -0.386130
vn -0.018270 -0.932866 -0.359760
vn 0.335120 -0.940590 -0.054631
vn 0.261929 -0.877916 0.400820
vn 0.073322 -0.916791 0.392578
vn -0.202529 -0.895418 0.396496
vn -0.345036 -0.884436 0.314203
vn -0.446796 -0.886807 0.118092
vn -0.511189 -0.798496 -0.317948
vn -0.161607 -0.623139 -0.765233
vn 0.396347 -0.537306 -0.744454
vn 0.738572 -0.656301 -0.154210
vn 0.540558 -0.694672 0.474582
vn 0.168817 -0.827772 0.535065
vn -0.411441 -0.739393 0.532930
vn -0.604657 -0.645967 0.465957
vn -0.995357 -0.033800 -0.090126
vn -0.754346 0.171718 -0.633621
vn -0.145654 -0.062281 -0.987373
vn 0.525471 0.011692 -0.850731
vn 0.959587 0.253279 -0.122650
vn 0.819588 0.048522 0.570895
vn 0.159057 -0.133828 0.978157
vn -0.621918 -0.007761 0.783044
vn -0.703999 0.061554 0.707529
vn -0.687879 0.724923 -0.036179
vn -0.653561 0.633788 -0.413727
vn -0.067228 0.496108 -0.865654
vn 0.485344 0.594893 -0.640737
vn 0.616786 0.786066 0.040915
vn 0.662468 0.674333 0.326208
vn -0.001226 0.733072 0.680150
vn -0.494377 0.691261 0.527020
vn -0.447397 0.881587 0.150466
vn -0.513073 0.815770 0.266974
vn -0.411908 0.900010 -0.142527
vn 0.091104 0.903606 -0.418564
vn 0.362695 0.931223 -0.035725
vn 0.417313 0.908525 0.020787
vn 0.446796 0.887550 0.112379
vn -0.093849 0.926185 0.365203
vn -0.460299 0.881564 0.104737
vn -0.332051 0.910532 0.246321
vn -0.404260 0.779711 0.478147
vn 0.329209 0.931296 -0.155913
vn 0.340509 0.933942 0.108657
vn 0.183669 0.956399 0.227083
vn 0.375752 0.733595 -0.566258
vn 0.403731 0.909612 -0.098018
vn -0.661221 0.747932 0.058179
vn -0.466748 0.875022 0.128386
vn 0.167998 0.000000 0.985787
vn -0.525804 0.000000 0.850606
vn -0.056035 -0.901628 0.428867
vn -0.619120 -0.781956 0.072352
vn -0.651497 -0.684857 -0.326379
vn -0.285273 -0.757907 0.586682
vn 0.270722 -0.896464 -0.350803
vn 0.509459 -0.797854 -0.322306
vn -0.341671 -0.738085 -0.581800
vn -0.081670 -0.921832 0.378888
vn 0.014038 -0.760194 0.649545
vn 0.037871 -0.795486 0.604787
vn -0.284437 -0.914360 0.288169
vn -0.288955 -0.945179 0.152120
vn -0.328618 -0.935428 -0.130327
vn 0.092698 -0.776527 -0.623228
vn -0.191617 -0.862759 -0.467900
vn 0.270147 -0.945393 -0.182355
vn 0.427208 -0.824699 0.370628
vn 0.310825 -0.573841 0.757690
vn 0.214506 -0.592254 0.776674
vn -0.282041 -0.704541 0.651211
vn -0.696146 -0.685292 0.213905
vn -0.585745 -0.688689 -0.427329
vn -0.193105 -0.759370 -0.621343
vn 0.189350 -0.734486 -0.651672
vn 0.822161 -0.541117 -0.176756
vn 0.890312 -0.422126 0.170743
vn 0.430267 -0.019329 0.902495
vn 0.244358 0.046378 0.968575
vn -0.481333 -0.028629 0.876070
vn -0.957847 -0.122078 0.260051
vn -0.819189 -0.132433 -0.558024
vn -0.266896 -0.210635 -0.940425
vn 0.598122 0.144113 -0.788341
vn 0.961118 0.242193 -0.132646
vn 0.970053 0.101930 0.220473
vn 0.428610 0.561485 0.707833
vn 0.240376 0.525231 0.816304
vn -0.421837 0.590828 0.687732
vn -0.689359 0.722116 0.057732
vn -0.596857 0.675260 -0.433342
vn 0.025744 0.735406 -0.677138
vn 0.464141 0.730806 -0.500495
vn 0.830462 0.518620 -0.203387
vn 0.874952 0.435854 -0.210926
vn 0.397780 0.839443 0.370279
vn 0.133914 0.890654 0.434513
vn -0.295893 0.951423 0.085096
vn -0.357286 0.932683 0.049485
vn -0.158282 0.970067 -0.184163
vn 0.139649 0.907939 -0.395152
vn 0.288022 0.837035 -0.465205
vn 0.515459 0.822890 -0.239069
vn 0.546795 0.768693 -0.331854
vn 0.215075 0.976585 -0.004887
vn -0.233729 0.969455 -0.074349
vn -0.449350 0.849364 -0.276883
vn -0.015735 0.918497 0.395115
vn 0.187069 0.885822 -0.424647
vn -0.615311 0.726443 -0.306062
vn 0.479423 0.874433 -0.074299
vn 0.267368 0.904526 -0.332185
vn -0.525804 0.000000 0.850606
vn 0.594503 0.000000 0.804093
vn 0.322442 -0.935132 -0.146829
vn 0.403835 -0.900198 -0.162975
vn -0.569115 -0.748063 0.341334
vn 0.162571 -0.889938 0.426124
vn -0.053232 -0.921320 -0.385145
vn -0.315664 -0.937567 0.146028
vn -0.338979 -0.939461 0.050065
vn 0.063154 -0.957938 -0.279940
vn 0.452975 -0.890964 0.031569
vn 0.478765 -0.875848 -0.060625
vn 0.266080 -0.916432 0.298920
vn 0.024143 -0.953749 0.299634
vn -0.260629 -0.939396 0.222728
vn -0.482769 -0.872998 -0.069349
vn -0.343955 -0.934062 -0.096038
vn 0.045093 -0.922348 -0.383719
vn 0.266737 -0.938913 -0.217469
vn 0.548123 -0.828489 -0.114747
vn 0.658144 -0.750608 0.058595
vn 0.490182 -0.701384 0.517476
vn -0.096491 -0.596517 0.796779
vn -0.802190 -0.408046 0.435879
vn -0.647051 -0.760119 0.059533
vn -0.468854 -0.740598 -0.481342
vn 0.034424 -0.736634 -0.675415
vn 0.382287 -0.544122 -0.746852
vn 0.997338 -0.065171 0.032704
vn 0.980666 0.063916 0.184955
vn 0.612468 -0.153527 0.775443
vn -0.261589 0.145097 0.954211
vn -0.721326 -0.229521 0.653459
vn -0.975572 -0.213680 -0.050983
vn -0.616091 -0.081363 -0.783462
vn 0.206025 0.171794 -0.963349
vn 0.464685 0.306726 -0.830654
vn 0.797547 0.516718 -0.311322
vn 0.955368 0.293458 0.033982
vn 0.396245 0.561321 0.726573
vn -0.276527 0.639828 0.717045
vn -0.624922 0.503532 0.596598
vn -0.666609 0.731138 -0.145157
vn -0.388432 0.740180 -0.548865
vn 0.206919 0.624589 -0.753043
vn 0.493066 0.713916 -0.497203
vn 0.516086 0.824589 -0.231748
vn 0.275559 0.950563 0.143167
vn -0.068904 0.949063 0.307461
vn -0.035892 0.829399 0.557502
vn -0.349856 0.930643 0.107257
vn -0.354017 0.917601 -0.180779
vn -0.214021 0.961513 -0.172298
vn 0.185684 0.949287 -0.253723
vn 0.331516 0.942004 -0.052213
vn -0.050794 0.969498 0.239779
vn -0.033774 0.999133 0.024339
vn 0.117493 0.987807 0.102144
vn 0.361301 0.843650 0.397134
vn -0.319817 0.658962 -0.680798
vn -0.172119 0.980941 -0.090164
vn -0.220808 0.962784 0.155857
vn 0.030712 0.990126 -0.136776
vn -0.594503 0.000000 -0.804093
vn 0.654894 0.000000 -0.755721
vn -0.060501 -0.991894 -0.111740
vn -0.162942 -0.972383 -0.167095
vn 0.178837 -0.979812 -0.089366
vn 0.193073 -0.965861 0.172731
vn 0.474867 -0.877636 -0.065242
vn -0.196592 -0.971136 0.135076
vn -0.221441 -0.906601 0.359218
vn -0.246438 -0.809194 -0.533361
vn -0.071592 -0.969549 -0.234200
vn -0.074749 -0.941108 -0.329739
vn 0.352272 -0.857195 -0.375660
vn 0.455904 -0.882188 -0.117880
vn 0.348504 -0.937134 -0.018056
vn 0.044965 -0.961874 0.269773
vn -0.338885 -0.884014 0.321988
vn -0.314764 -0.948699 0.029906
vn -0.305113 -0.829683 -0.467474
vn -0.284471 -0.711891 -0.642097
vn -0.028873 -0.722519 -0.690748
vn 0.557076 -0.621626 -0.550679
vn 0.692955 -0.680730 -0.237531
vn 0.693379 -0.605089 0.391271
vn 0.014035 -0.490556 0.871297
vn -0.340490 -0.752557 0.563671
vn -0.622054 -0.782970 0.002570
vn -0.539718 -0.731937 -0.415899
vn -0.497075 -0.321183 -0.806076
vn 0.013298 -0.100839 -0.994814
vn 0.742759 0.061156 -0.666760
vn 0.987164 0.039602 -0.154722
vn 0.714853 0.268307 0.645753
vn 0.110346 0.154615 0.981793
vn -0.576177 -0.002142 0.817322
vn -0.969903 0.236865 -0.056427
vn -0.862191 0.349077 -0.367112
vn -0.355839 0.687768 -0.632735
vn 0.117617 0.764557 -0.633734
vn 0.626047 0.404303 -0.666787
vn 0.826505 0.562372 -0.025035
vn 0.446251 0.733750 0.512320
vn 0.060714 0.771926 0.632806
vn -0.395218 0.808297 0.436416
vn -0.631075 0.772158 -0.074279
vn -0.675657 0.701076 -0.227992
vn -0.363802 0.891121 -0.271204
vn -0.048073 0.865474 -0.498642
vn 0.457007 0.871009 -0.180242
vn 0.261954 0.937374 0.229588
vn 0.251601 0.921764 0.295039
vn 0.153769 0.834969 0.528376
vn -0.251566 0.902355 0.349956
vn -0.507527 0.841746 -0.184068
vn -0.238116 0.919485 -0.312805
vn -0.446971 0.882686 -0.145194
vn 0.387492 0.908517 0.156353
vn 0.388715 0.776466 0.495985
vn 0.404582 0.856368 -0.320854
vn 0.256800 0.939537 0.226550
vn 0.306489 0.834225 0.458403
vn -0.126600 0.974124 -0.187228
vn 0.062101 0.874859 -0.480380
vn 0.654894 0.000000 -0.755721
usemtl deraumere
f 1//1 10//10 2//2
f 10//10 11//11 2//2
f 2//2 11//11 3//3
f 11//11 12//12 3//3
f 3//3 12//12 4//4
f 12//12 13//13 4//4
f 4//4 13//13 5//5
f 13//13 14//14 5//5
f 5//5 14//14 6//6
f 14//14 15//15 6//6
f 6//6 15//15 7//7
f 15//15 16//16 7//7
f 7//7 16//16 8//8
f 16//16 17//17 8//8
f 8//8 17//17 9//9
f 17//17 18//18 9//9
f 10//10 19//19 11//11
f 19//19 20//20 11//11
f 11//11 20//20 12//12
f 20//20 21//21 12//12
f 12//12 21//21 13//13
f 21//21 22//22 13//13
f 13//13 22//22 14//14
f 22//22 23//23 14//14
f 14//14 23//23 15//15
f 23//23 24//24 15//15
f 15//15 24//24 16//16
f 24//24 25//25 16//16
f 16//16 25//25 17//17
f 25//25 26//26 17//17
f 17//17 26//26 18//18
f 26//26 27//27 18//18
f 19//19 28//28 20//20
f 28//28 29//29 20//20
f 20//20 29//29 21//21
f 29//29 30//30 21//21
f 21//21 30//30 22//22
f 30//30 31//31 22//22
f 22//22 31//31 23//23
f 31//31 32//32 23//23
f 23//23 32//32 24//24
f 32//32 33//33 24//24
f 24//24 33//33 25//25
f 33//33 34//34 25//25
f 25//25 34//34 26//26
f 34//34 35//35 26//26
f 26//26 35//35 27//27
f 35//35 36//36 27//27
f 28//28 37//37 29//29
f 37//37 38//38 29//29
f 29//29 38//38 30//30
f 38//38 39//39 30//30
f 30//30 39//39 31//31
f 39//39 40//40 31//31
f 31//31 40//40 32//32
f 40//40 41//41 32//32
f 32//32 41//41 33//33
f 41//41 42//42 33//33
f 33//33 42//42 34//34
f 42//42 43//43 34//34
f 34//34 43//43 35//35
f 43//43 44//44 35//35
f 35//35 44//44 36//36
f 44//44 45//45 36//36
f 37//37 46//46 38//38
f 46//46 47//47 38//38
f 38//38 47//47 39//39
f 47//47 48//48 39//39
f 39//39 48//48 40//40
f 48//48 49//49 40//40
f 40//40 49//49 41//41
f 49//49 50//50 41//41
f 41//41 50//50 42//42
f 50//50 51//51 42//42
f 42//42 51//51 43//43
f 51//51 52//52 43//43
f 43//43 52//52 44//44
f 52//52 53//53 44//44
f 44//44 53//53 45//45
f 53//53 54//54 45//45
f 46//46 55//55 47//47
f 55//55 56//56 47//47
f 47//47 56//56 48//48
f 56//56 57//57 48//48
f 48//48 57//57 49//49
f 57//57 58//58 49//49
f 49//49 58//58 50//50
f 58//58 59//59 50//50
f 50//50 59//59 51//51
f 59//59 60//60 51//51
f 51//51 60//60 52//52
f 60//60 61//61 52//52
f 52//52 61//61 53//53
f 61//61 62//62 53//53
f 53//53 62//62 54//54
f 62//62 63//63 54//54
f 64//64 73//73 65//65
f 73//73 74//74 65//65
f 65//65 74//74 66//66
f 74//74 75//75 66//66
f 66//66 75//75 67//67
f 75//75 76//76 67//67
f 67//67 76//76 68//68
f 76//76 77//77 68//68
f 68//68 77//77 69//69
f 77//77 78//78 69//69
f 69//69 78//78 70//70
f 78//78 79//79 70//70
f 70//70 79//79 71//71
f 79//79 80//80 71//71
f 71//71 80//80 72//72
f 80//80 81//81 72//72
f 73//73 82//82 74//74
f 82//82 83//83 74//74
f 74//74 83//83 75//75
f 83//83 84//84 75//75
f 75//75 84//84 76//76
f 84//84 85//85 76//76
f 76//76 85//85 77//77
f 85//85 86//86 77//77
f 77//77 86//86 78//78
f 86//86 87//87 78//78
f 78//78 87//87 79//79
f 87//87 88//88 79//79
f 79//79 88//88 80//80
f 88//88 89//89 80//80
f 80//80 89//89 81//81
f 89//89 90//90 81//81
f 82//82 91//91 83//83
f 91//91 92//92 83//83
f 83//83 92//92 84//84
f 92//92 93//93 84//84
f 84//84 93//93 85//85
f 93//93 94//94 85//85
f 85//85 94//94 86//86
f 94//94 95//95 86//86
f 86//86 95//95 87//87
f 95//95 96//96 87//87
f 87//87 96//96 88//88
f 96//96 97//97 88//88
f 88//88 97//97 89//89
f 97//97 98//98 89//89
f 89//89 98//98 90//90
f 98//98 99//99 90//90
f 91//91 100//100 92//92
f 100//100 101//101 92//92
f 92//92 101//101 93//93
f 101//101 102//102 93//93
f 93//93 102//102 94//94
f 102//102 103//103 94//94
f 94//94 103//103 95//95
f 103//103 104//104 95//95
f 95//95 104//104 96//96
f 104//104 105//105 96//96
f 96//96 105//105 97//97
f 105//105 106//106 97//97
f 97//97 106//106 98//98
f 106//106 107//107 98//98
f 98//98 107//107 99//99
f 107//107 108//108 99//99
f 100//100 109//109 101//101
f 109//109 110//110 101//101
f 101//101 110//110 102//102
f 110//110 111//111 102//102
f 102//102 111//111 103//103
f 111//111 112//112 103//103
f 103//103 112//112 104//104
f 112//112 113//113 104//104
f 104//104 113//113 105//105
f 113//113 114//114 105//105
f 105//105 114//114 106//106
f 114//114 115//115 106//106
f 106//106 115//115 107//107
f 115//115 116//116 107//107
f 107//107 116//116 108//108
f 116//116 117//117 108//108
f 109//109 118//118 110//110
f 118//118 119//119 110//110
f 110//110 119//119 111//111
f 119//119 120//120 111//111
f 111//111 120//120 112//112
f 120//120 121//121 112//112
f 112//112 121//121 113//113
f 121//121 122//122 113//113
f 113//113 122//122 114//114
f 122//122 123//123 114//114
f 114//114 123//123 115//115
f 123//123 124//124 115//115
f 115//115 124//124 116//116
f 124//124 125//125 116//116
f 116//116 125//125 117//117
f 125//125 126//126 117//117
f 127//127 136//136 128//128
f 136//136 137//137 128//128
f 128//128 137//137 129//129
f 137//137 138//138 129//129
f 129//129 138//138 130//130
f 138//138 139//139 130//130
f 130//130 139//139 131//131
f 139//139 140//140 131//131
f 131//131 140//140 132//132
f 140//140 141//141 132//132
f 132//132 141//141 133//133
f 141//141 142//142 133//133
f 133//133 142//142 134//134
f 142//142 143//143 134//134
f 134//134 143//143 135//135
f 143//143 144//144 135//135
f 136//136 145//145 137//137
f 145//145 146//146 137//137
f 137//137 146//146 138//138
f 146//146 147//147 138//138
f 138//138 147//147 139//139
f 147//147 148//148 139//139
f 139//139 148//148 140//140
f 148//148 149//149 140//140
f 140//140 149//149 141//141
f 149//149 150//150 141//141
f 141//141 150//150 142//142
f 150//150 151//151 142//142
f 142//142 151//151 143//143
f 151//151 152//152 143//143
f 143//143 152//152 144//144
f 152//152 153//153 144//144
f 145//145 154//154 146//146
f 154//154 155//155 146//146
f 146//146 155//155 147//147
f 155//155 156//156 147//147
f 147//147 156//156 148//148
f 156//156 157//157 148//148
f 148//148 157//157 149//149
f 157//157 158//158 149//149
f 149//149 158//158 150//150
f 158//158 159//159 150//150
f 150//150 159//159 151//151
f 159//159 160//160 151//151
f 151//151 160//160 152//152
f 160//160 161//161 152//152
f 152//152 161//161 153//153
f 161//161 162//162 153//153
f 154//154 163//163 155//155
f 163//163 164//164 155//155
f 155//155 164//164 156//156
f 164//164 165//165 156//156
f 156//156 165//165 157//157
f 165//165 166//166 157//157
f 157//157 166//166 158//158
f 166//166 167//167 158//158
f 158//158 167//167 159//159
f 167//167 168//168 159//159
f 159//159 168//168 160//160
f 168//168 169//169 160//160
f 160//160 169//169 161//161
f 169//169 170//170 161//161
f 161//161 170//170 162//162
f 170//170 171//171 162//162
f 163//163 172//172 164//164
f 172//172 173//173 164//164
f 164//164 173//173 165//165
f 173//173 174//174 165//165
f 165//165 174//174 166//166
f 174//174 175//175 166//166
f 166//166 175//175 167//167
f 175//175 176//176 167//167
f 167//167 176//176 168//168
f 176//176 177//177 168//168
f 168//168 177//177 169//169
f 177//177 178//178 169//169
f 169//169 178//178 170//170
f 178//178 179//179 170//170
f 170//170 179//179 171//171
f 179//179 180//180 171//171
f 172//172 181//181 173//173
f 181//181 182//182 173//173
f 173//173 182//182 174//174
f 182//182 183//183 174//174
f 174//174 183//183 175//175
f 183//183 184//184 175//175
f 175//175 184//184 176//176
f 184//184 185//185 176//176
f 176//176 185//185 177//177
f 185//185 186//186 177//177
f 177//177 186//186 178//178
f 186//186 187//187 178//178
f 178//178 187//187 179//179
f 187//187 188//188 179//179
f 179//179 188//188 180//180
f 188//188 189//189 180//180
f 190//190 199//199 191//191
f 199//199 200//200 191//191
f 191//191 200//200 192//192
f 200//200 201//201 192//192
f 192//192 201//201 193//193
f 201//201 202//202 193//193
f 193//193 202//202 194//194
f 202//202 203//203 194//194
f 194//194 203//203 195//195
f 203//203 204//204 195//195
f 195//195 204//204 196//196
f 204//204 205//205 196//196
f 196//196 205//205 197//197
f 205//205 206//206 197//197
f 197//197 206//206 198//198
f 206//206 207//207 198//198
f 199//199 208//208 200//200
f 208//208 209//209 200//200
f 200//200 209//209 201//201
f 209//209 210//210 201//201
f 201//201 210//210 202//202
f 210//210 211//211 202//202
f 202//202 211//211 203//203
f 211//211 212//212 203//203
f 203//203 212//212 204//204
f 212//212 213//213 204//204
f 204//204 213//213 205//205
f 213//213 214//214 205//205
f 205//205 214//214 206//206
f 214//214 215//215 206//206
f 206//206 215//215 207//207
f 215//215 216//216 207//207
f 208//208 217//217 209//209
f 217//217 218//218 209//209
f 209//209 218//218 210//210
f 218//218 219//219 210//210
f 210//210 219//219 211//211
f 219//219 220//220 211//211
f 211//211 220//220 212//212
f 220//220 221//221 212//212
f 212//212 221//221 213//213
f 221//221 222//222 213//213
f 213//213 222//222 214//214
f 222//222 223//223 214//214
f 214//214 223//223 215//215
f 223//223 224//224 215//215
f 215//215 224//224 216//216
f 224//224 225//225 216//216
f 217//217 226//226 218//218
f 226//226 227//227 218//218
f 218//218 227//227 219//219
f 227//227 228//228 219//219
f 219//219 228//228 220//220
f 228//228 229//229 220//220
f 220//220 229//229 221//221
f 229//229 230//230 221//221
f 221//221 230//230 222//222
f 230//230 231//231 222//222
f 222//222 231//231 223//223
f 231//231 232//232 223//223
f 223//223 232//232 224//224
f 232//232 233//233 224//224
f 224//224 233//233 225//225
f 233//233 234//234 225//225
f 226//226 235//235 227//227
f 235//235 236//236 227//227
f 227//227 236//236 228//228
f 236//236 237//237 228//228
f 228//228 237//237 229//229
f 237//237 238//238 229//229
f 229//229 238//238 230//230
f 238//238 239//239 230//230
f 230//230 239//239 231//231
f 239//239 240//240 231//231
f 231//231 240//240 232//232
f 240//240 241//241 232//232
f 232//232 241//241 233//233
f 241//241 242//242 233//233
f 233//233 242//242 234//234
f 242//242 243//243 234//234
f 235//235 244//244 236//236
f 244//244 245//245 236//236
f 236//236 245//245 237//237
f 245//245 246//246 237//237
f 237//237 246//246 238//238
f 246//246 247//247 238//238
f 238//238 247//247 239//239
f 247//247 248//248 239//239
f 239//239 248//248 240//240
f 248//248 249//249 240//240
f 240//240 249//249 241//241
f 249//249 250//250 241//241
f 241//241 250//250 242//242
f 250//250 251//251 242//242
f 242//242 251//251 243//243
f 251//251 252//252 243//243
f 253//253 262//262 254//254
f 262//262 263//263 254//254
f 254//254 263//263 255//255
f 263//263 264//264 255//255
f 255//255 264//264 256//256
f 264//264 265//265 256//256
f 256//256 265//265 257//257
f 265//265 266//266 257//257
f 257//257 266//266 258//258
f 266//266 267//267 258//258
f 258//258 267//267 259//259
f 267//267 268//268 259//259
f 259//259 268//268 260//260
f 268//268 269//269 260//260
f 260//260 269//269 261//261
f 269//269 270//270 261//261
f 262//262 271//271 263//263
f 271//271 272//272 263//263
f 263//263 272//272 264//264
f 272//272 273//273 264//264
f 264//264 273//273 265//265
f 273//273 274//274 265//265
f 265//265 274//274 266//266
f 274//274 275//275 266//266
f 266//266 275//275 267//267
f 275//275 276//276 267//267
f 267//267 276//276 268//268
f 276//276 277//277 268//268
f 268//268 277//277 269//269
f 277//277 278//278 269//269
f 269//269 278//278 270//270
f 278//278 279//279 270//270
f 271//271 280//280 272//272
f 280//280 281//281 272//272
f 272//272 281//281 273//273
f 281//281 282//282 273//273
f 273//273 282//282 274//274
f 282//282 283//283 274//274
f 274//274 283//283 275//275
f 283//283 284//284 275//275
f 275//275 284//284 276//276
f 284//284 285//285 276//276
f 276//276 285//285 277//277
f 285//285 286//286 277//277
f 277//277 286//286 278//278
f 286//286 287//287 278//278
f 278//278 287//287 279//279
f 287//287 288//288 279//279
f 280//280 289//289 281//281
f 289//289 290//290 281//281
f 281//281 290//290 282//282
f 290//290 291//291 282//282
f 282//282 291//291 283//283
f 291//291 292//292 283//283
f 283//283 292//292 284//284
f 292//292 293//293 284//284
f 284//284 293//293 285//285
f 293//293 294//294 285//285
f 285//285 294//294 286//286
f 294//294 295//295 286//286
f 286//286 295//295 287//287
f 295//295 296//296 287//287
f 287//287 296//296 288//288
f 296//296 297//297 288//288
f 289//289 298//298 290//290
f 298//298 299//299 290//290
f 290//290 299//299 291//291
f 299//299 300//300 291//291
f 291//291 300//300 292//292
f 300//300 301//301 292//292
f 292//292 301//301 293//293
f 301//301 302//302 293//293
f 293//293 302//302 294//294
f 302//302 303//303 294//294
f 294//294 303//303 295//295
f 303//303 304//304 295//295
f 295//295 304//304 296//296
f 304//304 305//305 296//296
f 296//296 305//305 297//297
f 305//305 306//306 297//297
f 298//298 307//307 299//299
f 307//307 308//308 299//299
f 299//299 308//308 300//300
f 308//308 309//309 300//300
f 300//300 309//309 301//301
f 309//309 310//310 301//301
f 301//301 310//310 302//302
f 310//310 311//311 302//302
f 302//302 311//311 303//303
f 311//311 312//312 303//303
f 303//303 312//312 304//304
f 312//312 313//313 304//304
f 304//304 313//313 305//305
f 313//313 314//314 305//305
f 305//305 314//314 306//306
f 314//314 315//315 306//306
