# Gisement de food — généré par generate_minerals.py
mtllib food.mtl
o food_deposit
v -0.228121 0.295595 -0.086458
v -0.228121 0.321637 -0.086458
v -0.228121 0.352035 -0.086458
v -0.228121 0.335532 -0.086458
v -0.228121 0.351846 -0.086458
v -0.228121 0.321040 -0.086458
v -0.228121 0.324760 -0.086458
v -0.228121 0.315044 -0.086458
v -0.228121 0.353488 -0.086458
v -0.100322 0.295693 -0.107579
v -0.121966 0.296734 -0.010414
v -0.208890 0.284183 0.029907
v -0.299922 0.289497 0.013773
v -0.369316 0.309177 -0.063124
v -0.355940 0.323201 -0.178021
v -0.252829 0.317542 -0.235962
v -0.161617 0.280464 -0.179296
v -0.086849 0.309255 -0.109806
v -0.036043 0.231495 -0.118202
v -0.048095 0.240357 0.042503
v -0.195177 0.233932 0.112884
v -0.361085 0.242632 0.099155
v -0.494890 0.256558 -0.042371
v -0.459379 0.261220 -0.252119
v -0.271549 0.255217 -0.349233
v -0.100664 0.239502 -0.264385
v 0.038328 0.256451 -0.130493
v 0.093055 0.167043 -0.139537
v -0.041978 0.167043 0.046885
v -0.175265 0.167043 0.233371
v -0.371380 0.167043 0.113527
v -0.530560 0.167043 -0.036476
v -0.507714 0.167043 -0.286744
v -0.280345 0.167043 -0.402457
v -0.094964 0.167043 -0.272341
v 0.023803 0.167043 -0.128092
v 0.037509 0.077911 -0.130358
v -0.005531 0.076396 0.072994
v -0.195074 0.099945 0.113507
v -0.374587 0.083779 0.118003
v -0.503344 0.074692 -0.040974
v -0.391475 0.100519 -0.203476
v -0.262490 0.097262 -0.294419
v -0.080517 0.083131 -0.292509
v -0.039089 0.103613 -0.117699
v -0.090988 0.028997 -0.109122
v -0.110823 0.023739 -0.002432
v -0.208519 0.047640 0.032156
v -0.300127 0.044239 0.014060
v -0.361364 0.032914 -0.064438
v -0.334492 0.037089 -0.162656
v -0.253902 0.010009 -0.242455
v -0.128942 -0.002105 -0.224910
v -0.070914 0.008790 -0.112439
v -0.228121 0.004355 -0.086458
v -0.228121 -0.016692 -0.086458
v -0.228121 -0.001007 -0.086458
v -0.228121 -0.030273 -0.086458
v -0.228121 -0.026908 -0.086458
v -0.228121 -0.007190 -0.086458
v -0.228121 -0.021765 -0.086458
v -0.228121 -0.007104 -0.086458
v -0.228121 0.025094 -0.086458
v -0.136237 0.439999 -0.365191
v -0.136237 0.414473 -0.365191
v -0.136237 0.450283 -0.365191
v -0.136237 0.449245 -0.365191
v -0.136237 0.465362 -0.365191
v -0.136237 0.469185 -0.365191
v -0.136237 0.477947 -0.365191
v -0.136237 0.417890 -0.365191
v -0.136237 0.462137 -0.365191
v -0.264575 0.399166 -0.341539
v -0.241244 0.395288 -0.437517
v -0.161658 0.411805 -0.503127
v -0.075344 0.369186 -0.453600
v -0.013824 0.391364 -0.387751
v -0.021786 0.410139 -0.286361
v -0.115641 0.377332 -0.253433
v -0.197331 0.369645 -0.276491
v -0.299345 0.444954 -0.335131
v -0.326352 0.313613 -0.330154
v -0.304496 0.318358 -0.481083
v -0.170257 0.311189 -0.549786
v 0.020180 0.349200 -0.592289
v 0.102866 0.335117 -0.409257
v 0.064650 0.335461 -0.226827
v -0.097935 0.321389 -0.157362
v -0.284236 0.342793 -0.150317
v -0.330049 0.315236 -0.329473
v -0.384004 0.230159 -0.319529
v -0.325090 0.230159 -0.495267
v -0.180619 0.230159 -0.606010
v 0.003337 0.230159 -0.567835
v 0.095960 0.230159 -0.407984
v 0.061512 0.230159 -0.228988
v -0.076881 0.230159 -0.043120
v -0.270768 0.230159 -0.169871
v -0.364243 0.230159 -0.323171
v -0.332625 0.143952 -0.328998
v -0.312835 0.137590 -0.486826
v -0.169831 0.150145 -0.547472
v 0.017703 0.113003 -0.588693
v 0.102173 0.125506 -0.409129
v 0.086194 0.113565 -0.211988
v -0.092915 0.126973 -0.130124
v -0.248262 0.144903 -0.202546
v -0.376282 0.124788 -0.320952
v -0.286969 0.031661 -0.337412
v -0.256313 0.041334 -0.447895
v -0.156657 0.084249 -0.475990
v -0.058197 0.051982 -0.478496
v 0.019365 0.025248 -0.393868
v -0.021849 0.050278 -0.286404
v -0.110677 0.047517 -0.226499
v -0.207522 0.067406 -0.261695
v -0.299690 0.014910 -0.335068
v -0.136237 0.014779 -0.365191
v -0.136237 -0.016250 -0.365191
v -0.136237 0.066512 -0.365191
v -0.136237 0.017565 -0.365191
v -0.136237 0.068433 -0.365191
v -0.136237 0.050305 -0.365191
v -0.136237 0.051412 -0.365191
v -0.136237 0.029753 -0.365191
v -0.136237 0.024118 -0.365191
v -0.024754 0.345667 0.163087
v -0.024754 0.333468 0.163087
v -0.024754 0.331562 0.163087
v -0.024754 0.295009 0.163087
v -0.024754 0.341701 0.163087
v -0.024754 0.345874 0.163087
v -0.024754 0.292927 0.163087
v -0.024754 0.287672 0.163087
v -0.024754 0.335055 0.163087
v 0.000479 0.310940 0.056499
v 0.056591 0.292637 0.112885
v 0.053262 0.272402 0.181557
v 0.036689 0.320731 0.262647
v -0.047803 0.298494 0.260448
v -0.118710 0.312088 0.221072
v -0.122728 0.299322 0.139893
v -0.086590 0.321712 0.062892
v 0.000747 0.312463 0.055371
v 0.011237 0.235526 0.011058
v 0.103672 0.233200 0.083829
v 0.148180 0.244925 0.204028
v 0.057696 0.235858 0.296684
v -0.064476 0.242610 0.330872
v -0.176110 0.244988 0.256497
v -0.217609 0.253881 0.117431
v -0.125404 0.251020 -0.000001
v 0.005766 0.225136 0.034168
v 0.023297 0.167173 -0.039882
v 0.154294 0.167173 0.052587
v 0.138127 0.167173 0.201648
v 0.058941 0.167173 0.298702
v -0.066117 0.167173 0.337805
v -0.216620 0.167173 0.281498
v -0.211606 0.167173 0.118852
v -0.123474 0.167173 0.003127
v 0.023950 0.167173 -0.042641
v 0.019400 0.083318 -0.023420
v 0.097967 0.104079 0.087349
v 0.141648 0.092358 0.202481
v 0.056290 0.099659 0.294407
v -0.056173 0.107504 0.295802
v -0.149722 0.102924 0.240211
v -0.161826 0.105545 0.130637
v -0.113771 0.093017 0.018850
v 0.012147 0.097092 0.007215
v 0.000243 0.024756 0.057500
v 0.051203 0.050019 0.116210
v 0.069182 0.040471 0.185326
v 0.030691 0.028607 0.252927
v -0.046334 0.044222 0.254242
v -0.097047 0.055671 0.207703
v -0.120807 0.037616 0.140348
v -0.078625 0.032541 0.075799
v -0.001575 0.035108 0.065175
v -0.024754 -0.004488 0.163087
v -0.024754 0.034855 0.163087
v -0.024754 0.012133 0.163087
v -0.024754 0.001809 0.163087
v -0.024754 0.034643 0.163087
v -0.024754 0.045478 0.163087
v -0.024754 0.036387 0.163087
v -0.024754 0.006409 0.163087
v -0.024754 0.011805 0.163087
v 0.072514 0.196177 -0.164199
v 0.072514 0.226204 -0.164199
v 0.072514 0.203365 -0.164199
v 0.072514 0.224147 -0.164199
v 0.072514 0.184244 -0.164199
v 0.072514 0.227917 -0.164199
v 0.072514 0.199060 -0.164199
v 0.072514 0.193616 -0.164199
v 0.072514 0.186652 -0.164199
v 0.025444 0.208890 -0.074111
v -0.020638 0.204626 -0.134983
v -0.008962 0.198579 -0.206769
v 0.049316 0.183285 -0.238162
v 0.107298 0.180736 -0.230773
v 0.154887 0.192639 -0.190034
v 0.160151 0.205956 -0.118409
v 0.100665 0.200852 -0.074441
v 0.036150 0.184355 -0.094602
v 0.002344 0.154624 -0.029899
v -0.087094 0.160194 -0.114139
v -0.055216 0.152001 -0.230936
v 0.030503 0.150681 -0.298146
v 0.132308 0.146698 -0.278639
v 0.192713 0.145584 -0.201898
v 0.220988 0.160281 -0.086622
v 0.118711 0.155629 -0.016905
v -0.009079 0.163350 -0.008037
v -0.010041 0.101022 -0.006196
v -0.113227 0.101022 -0.105943
v -0.054203 0.101022 -0.230407
v 0.018780 0.101022 -0.335524
v 0.164510 0.101022 -0.340272
v 0.257332 0.101022 -0.222165
v 0.222116 0.101022 -0.086033
v 0.119047 0.101022 -0.015832
v -0.005345 0.101022 -0.015184
v -0.001896 0.044181 -0.021785
v -0.056770 0.053091 -0.123650
v -0.074266 0.042439 -0.240889
v 0.032105 0.053256 -0.293039
v 0.150503 0.041446 -0.313464
v 0.233883 0.041196 -0.214810
v 0.228415 0.038798 -0.082742
v 0.123264 0.041032 -0.002386
v 0.007967 0.051715 -0.040662
v 0.037979 0.021880 -0.098103
v -0.011623 0.007443 -0.137810
v -0.011065 0.000947 -0.207867
v 0.044779 0.002669 -0.252628
v 0.118235 -0.003757 -0.251706
v 0.136431 0.029932 -0.184245
v 0.163489 -0.007909 -0.116665
v 0.096024 0.017649 -0.089238
v 0.035721 0.016706 -0.093781
v 0.072514 -0.017343 -0.164199
v 0.072514 0.004973 -0.164199
v 0.072514 -0.004875 -0.164199
v 0.072514 -0.018315 -0.164199
v 0.072514 -0.024362 -0.164199
v 0.072514 -0.020772 -0.164199
v 0.072514 -0.000029 -0.164199
v 0.072514 0.016341 -0.164199
v 0.072514 -0.021880 -0.164199
v 0.054042 0.225262 0.091381
v 0.054042 0.260675 0.091381
v 0.054042 0.265172 0.091381
v 0.054042 0.235197 0.091381
v 0.054042 0.247233 0.091381
v 0.054042 0.235197 0.091381
v 0.054042 0.241888 0.091381
v 0.054042 0.220165 0.091381
v 0.054042 0.234121 0.091381
v 0.123810 0.240714 0.183280
v 0.038256 0.241740 0.206700
v -0.023455 0.222382 0.150215
v -0.032504 0.212298 0.079534
v 0.004180 0.207338 0.025703
v 0.065052 0.206034 0.010957
v 0.153798 0.250715 0.015648
v 0.179098 0.251704 0.108500
v 0.105006 0.209187 0.158511
v 0.178148 0.193099 0.254855
v 0.034594 0.172196 0.233448
v -0.104126 0.190847 0.211459
v -0.121908 0.183753 0.067295
v -0.057097 0.185852 -0.055013
v 0.074700 0.175212 -0.059528
v 0.185815 0.179649 -0.008659
v 0.260084 0.194017 0.119587
v 0.161714 0.183914 0.233207
v 0.199732 0.123738 0.283286
v 0.029672 0.123738 0.269402
v -0.141824 0.123738 0.240078
v -0.187298 0.123738 0.058343
v -0.077895 0.123738 -0.082408
v 0.080167 0.123738 -0.099461
v 0.252522 0.123738 -0.059301
v 0.238910 0.123738 0.116688
v 0.188516 0.123738 0.268511
v 0.184138 0.051030 0.262746
v 0.031546 0.067686 0.255714
v -0.108890 0.054608 0.215076
v -0.094481 0.073079 0.071049
v -0.065821 0.056749 -0.066503
v 0.076602 0.067526 -0.073420
v 0.215374 0.055287 -0.031099
v 0.246684 0.058030 0.117753
v 0.182781 0.051789 0.260957
v 0.115616 0.020500 0.172488
v 0.042805 0.039743 0.173467
v -0.018555 0.031332 0.146495
v -0.059797 0.007251 0.075797
v 0.004805 0.041186 0.026526
v 0.068092 0.018713 -0.011256
v 0.143549 0.009807 0.023429
v 0.140450 0.035320 0.103210
v 0.125356 0.004170 0.185317
v 0.054042 -0.000720 0.091381
v 0.054042 0.006956 0.091381
v 0.054042 -0.011266 0.091381
v 0.054042 0.024853 0.091381
v 0.054042 -0.008828 0.091381
v 0.054042 0.017480 0.091381
v 0.054042 0.004800 0.091381
v 0.054042 -0.016015 0.091381
v 0.054042 -0.017573 0.091381
v -0.011729 0.277732 -0.121363
v -0.011729 0.262733 -0.121363
v -0.011729 0.254278 -0.121363
v -0.011729 0.289990 -0.121363
v -0.011729 0.247581 -0.121363
v -0.011729 0.252832 -0.121363
v -0.011729 0.273587 -0.121363
v -0.011729 0.252359 -0.121363
v -0.011729 0.290083 -0.121363
v -0.049574 0.257270 -0.044654
v -0.085327 0.247077 -0.096394
v -0.077704 0.241666 -0.153912
v -0.037451 0.250131 -0.197179
v 0.029976 0.268644 -0.205897
v 0.076537 0.267270 -0.151309
v 0.079068 0.277749 -0.076568
v 0.016926 0.262031 -0.036903
v -0.042664 0.236912 -0.058659
v -0.064001 0.197101 -0.015409
v -0.171784 0.219206 -0.067061
v -0.129225 0.202694 -0.179330
v -0.063772 0.216151 -0.274760
v 0.053980 0.210298 -0.254552
v 0.097813 0.196027 -0.158528
v 0.141311 0.219917 -0.045861
v 0.028314 0.199920 -0.003337
v -0.081593 0.214380 0.020249
v -0.090088 0.145761 0.037466
v -0.171145 0.145761 -0.067278
v -0.190912 0.145761 -0.209763
v -0.061410 0.145761 -0.267799
v 0.072757 0.145761 -0.292613
v 0.120683 0.145761 -0.166287
v 0.139660 0.145761 -0.046675
v 0.042101 0.145761 0.037299
v -0.079050 0.145761 0.015094
v -0.064121 0.094303 -0.015167
v -0.155432 0.079819 -0.072609
v -0.137274 0.084928 -0.183301
v -0.066786 0.071294 -0.283645
v 0.041806 0.093180 -0.229877
v 0.104110 0.092605 -0.160664
v 0.115978 0.083880 -0.058359
v 0.026513 0.094037 -0.008644
v -0.087296 0.071542 0.031807
v -0.046982 0.041889 -0.049908
v -0.107095 0.014477 -0.089008
v -0.089941 0.032067 -0.159949
v -0.044528 0.012673 -0.218040
v 0.032435 0.015631 -0.210882
v 0.082766 0.015676 -0.153423
v 0.061038 0.039982 -0.085464
v 0.017003 0.029178 -0.036676
v -0.044235 0.049981 -0.055474
v -0.011729 -0.002561 -0.121363
v -0.011729 -0.005240 -0.121363
v -0.011729 -0.005335 -0.121363
v -0.011729 0.030467 -0.121363
v -0.011729 -0.004415 -0.121363
v -0.011729 0.004145 -0.121363
v -0.011729 0.001788 -0.121363
v -0.011729 0.016965 -0.121363
v -0.011729 -0.002558 -0.121363
v -0.094456 0.295715 0.011155
v -0.094456 0.280977 0.011155
v -0.094456 0.257274 0.011155
v -0.094456 0.289815 0.011155
v -0.094456 0.279848 0.011155
v -0.094456 0.290865 0.011155
v -0.094456 0.284364 0.011155
v -0.094456 0.254986 0.011155
v -0.094456 0.286060 0.011155
v -0.173926 0.266875 -0.036860
v -0.116061 0.263533 -0.076406
v -0.056806 0.241712 -0.051160
v 0.006463 0.280806 -0.013745
v -0.019626 0.260069 0.056367
v -0.074463 0.255086 0.092184
v -0.141831 0.265321 0.089566
v -0.164218 0.240517 0.028368
v -0.176864 0.271185 -0.038635
v -0.247007 0.224895 -0.081014
v -0.134619 0.220471 -0.151624
v -0.034215 0.199057 -0.088549
v 0.073135 0.222545 -0.030195
v 0.018447 0.205510 0.079370
v -0.060428 0.209753 0.149069
v -0.161314 0.204412 0.121813
v -0.235409 0.211063 0.045933
v -0.196226 0.200066 -0.050333
v -0.234196 0.150307 -0.073274
v -0.137983 0.150307 -0.165255
v 0.003693 0.150307 -0.151293
v 0.064460 0.150307 -0.028055
v 0.050704 0.150307 0.098860
v -0.053840 0.150307 0.175771
v -0.193197 0.150307 0.174583
v -0.278047 0.150307 0.056454
v -0.256541 0.150307 -0.086775
v -0.205915 0.095810 -0.056187
v -0.137477 0.075151 -0.163207
v -0.018842 0.089117 -0.113994
v 0.062517 0.082646 -0.027575
v 0.008525 0.099956 0.073376
v -0.051252 0.074831 0.186259
v -0.183463 0.078279 0.158472
v -0.221237 0.095660 0.042437
v -0.235767 0.081215 -0.074223
v -0.169018 0.040939 -0.033894
v -0.115064 0.042305 -0.072366
v -0.043683 0.027045 -0.072879
v -0.007272 0.037569 -0.010356
v -0.006572 0.021398 0.064254
v -0.070772 0.026182 0.107145
v -0.144253 0.029414 0.093574
v -0.189487 0.027422 0.034603
v -0.167783 0.042749 -0.033148
v -0.094456 0.036724 0.011155
v -0.094456 0.038419 0.011155
v -0.094456 0.009817 0.011155
v -0.094456 -0.001742 0.011155
v -0.094456 0.018763 0.011155
v -0.094456 -0.000952 0.011155
v -0.094456 0.037819 0.011155
v -0.094456 0.039469 0.011155
v -0.094456 0.011701 0.011155
vn 0.163053 0.000000 0.986617
vn -0.302210 -0.848410 0.434591
vn -0.145156 -0.948571 -0.281324
vn 0.041455 -0.860743 -0.507350
vn 0.147961 -0.968789 -0.198888
vn 0.129506 -0.983428 0.126873
vn -0.090956 -0.995117 0.038320
vn -0.250018 -0.931210 0.265215
vn 0.076374 -0.756379 0.649660
vn -0.412679 -0.907391 0.079609
vn -0.424135 -0.885400 -0.190199
vn -0.059253 -0.861451 -0.504371
vn 0.057170 -0.887254 -0.457725
vn 0.248200 -0.942473 -0.223923
vn 0.263251 -0.962143 0.070571
vn -0.080819 -0.937981 0.337136
vn -0.240783 -0.888536 0.390547
vn -0.198183 -0.870304 0.450882
vn -0.553321 -0.832706 -0.020923
vn -0.547864 -0.718725 -0.428111
vn -0.218176 -0.810844 -0.543076
vn 0.291506 -0.752461 -0.590616
vn 0.645599 -0.711501 -0.277433
vn 0.581985 -0.735279 0.347359
vn 0.031784 -0.737682 0.674400
vn -0.415326 -0.660222 0.625788
vn -0.631986 -0.414151 0.655036
vn -0.848418 -0.274883 -0.452357
vn -0.782817 -0.303735 -0.543087
vn -0.164746 -0.122696 -0.978675
vn 0.549914 0.056108 -0.833335
vn 0.946548 -0.143142 -0.289062
vn 0.742086 0.271722 0.612760
vn -0.023333 0.439674 0.897854
vn -0.593337 0.086725 0.800268
vn -0.836028 0.214773 0.504906
vn -0.819636 0.470644 -0.326635
vn -0.563664 0.670289 -0.482696
vn 0.055396 0.780121 -0.623171
vn 0.361767 0.626778 -0.690126
vn 0.535352 0.844568 -0.010141
vn 0.320406 0.859233 0.398822
vn 0.137327 0.621075 0.771626
vn -0.526148 0.434706 0.730889
vn -0.806646 0.559582 0.190240
vn -0.333227 0.942032 -0.039197
vn -0.140394 0.937641 -0.317992
vn 0.029523 0.884049 -0.466460
vn 0.143708 0.930586 -0.336688
vn 0.390807 0.919215 0.048107
vn 0.492481 0.796226 0.351406
vn 0.246679 0.809083 0.533417
vn -0.419487 0.863407 0.280283
vn -0.508421 0.860717 -0.025986
vn -0.284154 0.941846 0.179396
vn 0.053513 0.935178 -0.350113
vn -0.048209 0.838479 -0.542797
vn 0.132891 0.851390 -0.507420
vn 0.321847 0.885949 0.333929
vn 0.394651 0.906615 0.149332
vn 0.082116 0.992060 0.095258
vn -0.233781 0.908650 -0.345978
vn -0.163053 0.000000 -0.986617
vn 0.181243 0.000000 0.983438
vn 0.374508 -0.926764 0.029188
vn 0.495969 -0.865123 -0.074671
vn -0.476499 -0.786375 0.393145
vn -0.217251 -0.717444 0.661873
vn -0.538462 -0.816033 0.210117
vn 0.386139 -0.676457 -0.627139
vn 0.373049 -0.704712 -0.603503
vn -0.239845 -0.584751 -0.774945
vn 0.489634 -0.819000 0.299160
vn 0.579570 -0.802728 0.140449
vn 0.042571 -0.765612 0.641892
vn -0.140301 -0.874010 0.465212
vn -0.332566 -0.915858 0.224953
vn -0.390662 -0.882097 -0.263227
vn 0.119374 -0.799260 -0.589010
vn -0.149003 -0.851615 -0.502544
vn 0.294335 -0.752998 -0.588524
vn 0.791723 -0.597866 0.125424
vn 0.716829 -0.507908 0.477688
vn 0.282666 -0.609112 0.741001
vn -0.258872 -0.685255 0.680743
vn -0.872624 -0.454854 0.177862
vn -0.706638 -0.466077 -0.532386
vn -0.268341 -0.765043 -0.585409
vn 0.442103 -0.603427 -0.663642
vn 0.940057 -0.138841 -0.311474
vn 0.959777 -0.098936 0.262755
vn 0.819760 -0.045291 0.570913
vn 0.234089 0.073355 0.969444
vn -0.558491 0.131809 0.818972
vn -0.986300 -0.030602 0.162096
vn -0.857986 -0.255520 -0.445611
vn -0.199306 -0.100061 -0.974815
vn 0.696788 0.270652 -0.664254
vn 0.797885 -0.021397 -0.602430
vn 0.923850 0.342667 0.170529
vn 0.722526 0.431090 0.540479
vn 0.154371 0.490942 0.857407
vn -0.433394 0.457945 0.776181
vn -0.918534 0.364411 0.153295
vn -0.708004 0.508306 -0.490261
vn 0.090848 0.703862 -0.704503
vn 0.551591 0.477159 -0.684154
vn 0.552301 0.349445 -0.756870
vn 0.694168 0.699208 0.170995
vn 0.267870 0.801526 0.534604
vn 0.005581 0.799154 0.601100
vn -0.097927 0.899199 0.426441
vn -0.394615 0.918709 -0.015913
vn -0.147064 0.940066 -0.307649
vn 0.141049 0.899088 -0.414423
vn 0.243809 0.774918 -0.583146
vn 0.142627 0.690402 -0.709227
vn 0.283505 0.953142 -0.105571
vn -0.504524 0.686607 0.523475
vn -0.000344 0.856768 0.515702
vn 0.263226 0.963847 0.041351
vn 0.059243 0.888546 -0.454946
vn -0.105498 0.980249 0.167279
vn 0.042130 0.990009 -0.134564
vn -0.276573 0.803806 -0.526692
vn -0.181243 0.000000 -0.983438
vn -0.973102 0.000000 -0.230373
vn -0.528767 -0.847877 0.038855
vn -0.395208 -0.688738 -0.607824
vn -0.668206 -0.661523 0.340423
vn -0.319646 -0.946615 -0.041790
vn 0.375894 -0.915817 0.141359
vn 0.201450 -0.742355 0.639005
vn 0.398547 -0.786432 -0.471895
vn 0.388781 -0.913710 -0.118252
vn -0.641378 -0.705110 0.302414
vn -0.627905 -0.748873 0.211955
vn -0.454198 -0.884411 0.107335
vn -0.426255 -0.873867 -0.233803
vn 0.052859 -0.784526 -0.617839
vn 0.386275 -0.893680 -0.228316
vn 0.341461 -0.936421 -0.080744
vn 0.342864 -0.918967 0.194793
vn -0.163661 -0.666436 0.727378
vn -0.558833 -0.569767 0.602554
vn -0.543718 -0.718547 0.433660
vn -0.815791 -0.565477 -0.121328
vn -0.482442 -0.292552 -0.825629
vn 0.079161 -0.467530 -0.880426
vn 0.593352 -0.609007 -0.526350
vn 0.825996 -0.549147 0.127152
vn 0.373811 -0.300768 0.877385
vn -0.108759 -0.388865 0.914852
vn -0.553716 -0.346007 0.757416
vn -0.894167 0.082214 0.440121
vn -0.931808 0.173696 -0.318691
vn -0.542784 -0.010238 -0.839810
vn 0.146896 0.082517 -0.985704
vn 0.816564 0.236538 -0.526567
vn 0.872221 0.375595 0.313304
vn 0.521880 0.032020 0.852418
vn 0.229056 -0.054648 0.971878
vn -0.651123 0.550155 0.522847
vn -0.748693 0.613289 0.251667
vn -0.863035 0.458706 -0.211566
vn -0.394185 0.476817 -0.785661
vn 0.210654 0.597295 -0.773862
vn 0.611581 0.737901 -0.285430
vn 0.811102 0.560739 0.166390
vn 0.478356 0.539388 0.692990
vn 0.057032 0.645687 0.761470
vn -0.623359 0.740423 0.251391
vn -0.575636 0.805522 0.140634
vn -0.497896 0.863855 -0.076509
vn -0.197672 0.804750 -0.559735
vn 0.395930 0.782655 -0.480302
vn 0.500342 0.843924 -0.193521
vn 0.555722 0.831363 -0.002875
vn 0.227236 0.877062 0.423233
vn 0.002599 0.864093 0.503326
vn -0.655716 0.720954 -0.224191
vn -0.435706 0.899838 0.021256
vn -0.424440 0.846712 0.320826
vn 0.431146 0.878197 -0.207082
vn 0.652646 0.739546 0.164696
vn 0.092456 0.959795 -0.265038
vn 0.363575 0.862423 -0.352192
vn 0.281214 0.958121 0.054061
vn -0.973102 0.000000 -0.230373
vn -0.886312 0.000000 -0.463088
vn -0.085157 -0.996229 0.016607
vn 0.247177 -0.957553 0.148307
vn -0.333716 -0.878040 0.343044
vn -0.049343 -0.848229 0.527326
vn 0.205086 -0.910962 0.357893
vn -0.097047 -0.957037 -0.273245
vn 0.243028 -0.968349 -0.056891
vn 0.328610 -0.943336 0.046175
vn 0.192307 -0.904172 -0.381433
vn 0.398734 -0.909401 -0.118323
vn 0.381086 -0.882429 0.275849
vn -0.007431 -0.876402 0.481523
vn -0.020393 -0.873702 0.486034
vn -0.410184 -0.863755 0.292706
vn -0.354310 -0.934631 0.030477
vn -0.009527 -0.932369 -0.361384
vn 0.108908 -0.951756 -0.286880
vn 0.533390 -0.652430 -0.538359
vn 0.706789 -0.661672 -0.250281
vn 0.707995 -0.504631 0.494055
vn 0.261743 -0.702589 0.661710
vn -0.247528 -0.782249 0.571679
vn -0.556894 -0.768869 0.314181
vn -0.693439 -0.659639 -0.289862
vn -0.271404 -0.566393 -0.778164
vn -0.068053 -0.486262 -0.871159
vn 0.676932 -0.177960 -0.714208
vn 0.956585 0.240849 -0.164123
vn 0.888300 -0.072133 0.453564
vn 0.362157 -0.220978 0.905545
vn -0.368293 -0.298190 0.880593
vn -0.935411 -0.183679 0.302106
vn -0.851072 0.019785 -0.524676
vn -0.317496 -0.083828 -0.944547
vn 0.098912 0.126405 -0.987035
vn 0.573387 0.730016 -0.371892
vn 0.709780 0.691674 -0.133416
vn 0.768899 0.520271 0.371636
vn 0.206442 0.644224 0.736449
vn -0.318424 0.635411 0.703462
vn -0.667569 0.740662 0.075974
vn -0.721893 0.577648 -0.381043
vn -0.078115 0.633574 -0.769728
vn 0.210287 0.809422 -0.548283
vn 0.296879 0.885203 -0.358159
vn 0.424812 0.878772 -0.217472
vn 0.275816 0.931472 0.237245
vn 0.204988 0.859371 0.468467
vn -0.278390 0.949732 0.143209
vn -0.407431 0.908903 0.088852
vn -0.223355 0.967916 -0.115109
vn 0.195737 0.930727 -0.308924
vn -0.296120 0.866099 -0.402723
vn 0.246629 0.961996 -0.117211
vn 0.170394 0.981698 0.085057
vn 0.278464 0.953871 -0.112199
vn 0.325098 0.928058 0.181713
vn -0.628052 0.756831 -0.180989
vn -0.322833 0.894892 0.308135
vn 0.461610 0.722287 -0.514993
vn -0.304415 0.878641 -0.367859
vn -0.886312 0.000000 -0.463088
vn -0.796477 0.000000 0.604669
vn -0.414149 -0.907281 0.072947
vn 0.510578 -0.851665 0.118219
vn 0.474479 -0.837429 0.271259
vn 0.218246 -0.946935 0.235971
vn 0.013679 -0.889172 0.457368
vn 0.300391 -0.931569 0.204803
vn 0.091091 -0.991091 -0.097168
vn 0.171559 -0.943202 -0.284497
vn -0.279541 -0.943526 -0.177809
vn 0.204880 -0.807749 -0.552780
vn 0.379480 -0.899983 -0.214535
vn 0.316059 -0.944161 0.093098
vn 0.166377 -0.957904 0.233961
vn 0.187484 -0.905221 0.381345
vn -0.067211 -0.918062 0.390697
vn -0.315600 -0.944891 -0.087048
vn -0.096747 -0.866614 -0.489510
vn 0.102381 -0.520318 -0.847813
vn 0.164838 -0.554911 -0.815415
vn 0.335996 -0.832499 -0.440514
vn 0.540470 -0.840203 0.044170
vn 0.331473 -0.824633 0.458373
vn -0.052701 -0.676740 0.734334
vn -0.442942 -0.707003 0.551316
vn -0.743670 -0.651392 -0.150475
vn -0.671987 -0.591116 -0.446111
vn 0.117854 -0.204464 -0.971753
vn 0.108446 -0.163442 -0.980574
vn 0.709970 -0.163080 -0.685089
vn 0.960289 0.163405 0.226152
vn 0.551887 0.069460 0.831021
vn -0.090523 -0.212522 0.972954
vn -0.757147 -0.073626 0.649082
vn -0.976326 0.070117 -0.204624
vn -0.922343 -0.180890 -0.341413
vn 0.102309 0.570221 -0.815095
vn 0.140397 0.705872 -0.694286
vn 0.418809 0.876993 -0.235549
vn 0.643265 0.751863 0.144609
vn 0.338201 0.748060 0.570987
vn -0.063855 0.700348 0.710940
vn -0.599449 0.684987 0.414070
vn -0.749644 0.645565 -0.145878
vn -0.644278 0.752209 -0.138159
vn 0.173793 0.911148 -0.373637
vn 0.105031 0.936588 -0.334323
vn 0.280278 0.915080 -0.289951
vn 0.340722 0.930185 0.136615
vn 0.098251 0.946610 0.307045
vn 0.063561 0.898603 0.434134
vn -0.224741 0.973759 0.035850
vn -0.373498 0.927359 -0.022447
vn -0.631800 0.754416 0.178002
vn 0.315552 0.867544 -0.384440
vn -0.028610 0.847260 -0.530407
vn 0.015754 0.995234 -0.096230
vn 0.026821 0.787116 0.616221
vn 0.428816 0.903380 0.004658
vn -0.115891 0.986248 0.117829
vn -0.213079 0.972966 0.089071
vn -0.517938 0.757040 0.398285
vn -0.796477 0.000000 0.604669
vn 0.896800 0.000000 0.442437
vn 0.443798 -0.859822 0.252488
vn 0.412937 -0.868239 -0.275036
vn 0.075021 -0.996758 0.029065
vn -0.250280 -0.960815 0.119141
vn 0.274921 -0.942359 0.190732
vn 0.205742 -0.970845 0.123003
vn -0.081320 -0.990822 -0.107974
vn -0.098288 -0.953928 -0.283481
vn 0.648105 -0.747902 -0.143538
vn 0.315282 -0.927403 -0.201297
vn 0.447320 -0.882451 0.145550
vn 0.302415 -0.923139 0.237402
vn -0.014363 -0.936863 0.349401
vn -0.545018 -0.782178 0.301916
vn -0.430667 -0.901770 -0.036560
vn -0.012153 -0.780737 -0.624742
vn 0.190107 -0.813069 -0.550253
vn 0.261358 -0.756925 -0.598964
vn 0.646475 -0.706328 -0.288395
vn 0.675739 -0.704397 0.217260
vn 0.312714 -0.604655 0.732531
vn -0.438753 -0.470347 0.765683
vn -0.841611 -0.427138 0.330522
vn -0.809027 -0.478963 -0.340692
vn -0.259397 -0.553456 -0.791454
vn -0.096280 -0.567287 -0.817873
vn 0.667820 0.001111 -0.744322
vn 0.936617 0.058976 -0.345355
vn 0.893862 0.006510 0.448295
vn 0.325301 -0.003958 0.945602
vn -0.548546 0.047161 0.834789
vn -0.935317 0.112863 0.335327
vn -0.902130 0.071070 -0.425570
vn -0.288414 0.104507 -0.951785
vn 0.001976 0.186353 -0.982481
vn 0.503921 0.544040 -0.670883
vn 0.762546 0.536011 -0.362237
vn 0.706575 0.556382 0.437255
vn 0.263993 0.526091 0.808415
vn -0.543729 0.567703 0.618119
vn -0.873236 0.296538 0.386684
vn -0.690706 0.590842 -0.416931
vn -0.300994 0.467505 -0.831169
vn -0.201042 0.448343 -0.870960
vn 0.226919 0.656447 -0.719434
vn 0.516626 0.844388 -0.141796
vn 0.545490 0.792755 0.271992
vn -0.041456 0.857213 0.513290
vn -0.325266 0.727882 0.603647
vn -0.641989 0.766618 0.012140
vn -0.414252 0.787008 -0.457180
vn -0.138303 0.843940 -0.518303
vn 0.255653 0.943660 -0.210112
vn -0.044620 0.823694 -0.565276
vn 0.280377 0.923802 0.260728
vn -0.083038 0.974443 0.208725
vn -0.067509 0.978312 0.195826
vn 0.227174 0.945473 0.233395
vn -0.281500 0.838557 -0.466454
vn -0.195844 0.956485 -0.216289
vn 0.355272 0.829309 -0.431310
vn -0.896800 0.000000 -0.442437
vn -0.517130 0.000000 0.855907
vn -0.342957 -0.851132 0.397434
vn -0.339162 -0.874699 0.346225
vn 0.320317 -0.709482 0.627720
vn -0.172948 -0.929634 -0.325375
vn -0.157082 -0.954634 -0.252979
vn 0.357372 -0.929899 -0.087025
vn 0.548483 -0.828597 0.112221
vn 0.276509 -0.680139 -0.678936
vn 0.096596 -0.913241 0.395802
vn -0.060138 -0.923100 0.379829
vn -0.193400 -0.795025 0.574919
vn -0.273958 -0.893134 0.356732
vn -0.449167 -0.784449 -0.427655
vn -0.251189 -0.828421 -0.500623
vn 0.378147 -0.844187 -0.379937
vn 0.413581 -0.841456 -0.347710
vn 0.651989 -0.745429 -0.138729
vn 0.415691 -0.586539 0.695107
vn 0.089342 -0.505182 0.858376
vn -0.265198 -0.663962 0.699159
vn -0.796836 -0.568583 0.204367
vn -0.723641 -0.508622 -0.466528
vn -0.232228 -0.599471 -0.765967
vn 0.334473 -0.681283 -0.651138
vn 0.656472 -0.724191 -0.211166
vn 0.760435 -0.592611 0.265614
vn 0.627764 0.164693 0.760781
vn 0.294898 -0.168175 0.940613
vn -0.506919 -0.138530 0.850789
vn -0.982302 0.067856 0.174581
vn -0.842658 0.008692 -0.538379
vn -0.337067 -0.220552 -0.915283
vn 0.426011 -0.318590 -0.846767
vn 0.985572 -0.035846 -0.165416
vn 0.998781 0.028157 0.040534
vn 0.759469 0.387492 0.522548
vn 0.190861 0.635083 0.748492
vn -0.500477 0.596092 0.627851
vn -0.812606 0.575551 0.091714
vn -0.784424 0.429497 -0.447449
vn -0.337472 0.399615 -0.852303
vn 0.514103 0.665977 -0.540530
vn 0.799478 0.585352 -0.134897
vn 0.841685 0.538420 -0.040872
vn 0.400753 0.875124 0.271209
vn 0.004719 0.935927 0.352163
vn -0.196967 0.881942 0.428233
vn -0.587903 0.808925 0.003308
vn -0.597258 0.755533 -0.269172
vn -0.007412 0.915741 -0.401701
vn 0.457456 0.857738 -0.234563
vn 0.466844 0.883439 -0.039905
vn 0.233074 0.968489 0.087780
vn -0.007706 0.997617 0.068566
vn 0.498969 0.842153 0.204469
vn 0.101993 0.920589 0.376979
vn -0.187081 0.977601 0.096424
vn -0.088807 0.962066 -0.257957
vn 0.282058 0.958266 0.046579
vn 0.342012 0.885444 0.314668
vn 0.134819 0.984337 -0.113597
vn 0.517130 0.000000 -0.855907
usemtl food
f 1//1 10//10 2//2
f 10//10 11//11 2//2
f 2//2 11//11 3//3
f 11//11 12//12 3//3
f 3//3 12//12 4//4
f 12//12 13//13 4//4
f 4//4 13//13 5//5
f 13//13 14//14 5//5
f 5//5 14//14 6//6
f 14//14 15//15 6//6
f 6//6 15//15 7//7
f 15//15 16//16 7//7
f 7//7 16//16 8//8
f 16//16 17//17 8//8
f 8//8 17//17 9//9
f 17//17 18//18 9//9
f 10//10 19//19 11//11
f 19//19 20//20 11//11
f 11//11 20//20 12//12
f 20//20 21//21 12//12
f 12//12 21//21 13//13
f 21//21 22//22 13//13
f 13//13 22//22 14//14
f 22//22 23//23 14//14
f 14//14 23//23 15//15
f 23//23 24//24 15//15
f 15//15 24//24 16//16
f 24//24 25//25 16//16
f 16//16 25//25 17//17
f 25//25 26//26 17//17
f 17//17 26//26 18//18
f 26//26 27//27 18//18
f 19//19 28//28 20//20
f 28//28 29//29 20//20
f 20//20 29//29 21//21
f 29//29 30//30 21//21
f 21//21 30//30 22//22
f 30//30 31//31 22//22
f 22//22 31//31 23//23
f 31//31 32//32 23//23
f 23//23 32//32 24//24
f 32//32 33//33 24//24
f 24//24 33//33 25//25
f 33//33 34//34 25//25
f 25//25 34//34 26//26
f 34//34 35//35 26//26
f 26//26 35//35 27//27
f 35//35 36//36 27//27
f 28//28 37//37 29//29
f 37//37 38//38 29//29
f 29//29 38//38 30//30
f 38//38 39//39 30//30
f 30//30 39//39 31//31
f 39//39 40//40 31//31
f 31//31 40//40 32//32
f 40//40 41//41 32//32
f 32//32 41//41 33//33
f 41//41 42//42 33//33
f 33//33 42//42 34//34
f 42//42 43//43 34//34
f 34//34 43//43 35//35
f 43//43 44//44 35//35
f 35//35 44//44 36//36
f 44//44 45//45 36//36
f 37//37 46//46 38//38
f 46//46 47//47 38//38
f 38//38 47//47 39//39
f 47//47 48//48 39//39
f 39//39 48//48 40//40
f 48//48 49//49 40//40
f 40//40 49//49 41//41
f 49//49 50//50 41//41
f 41//41 50//50 42//42
f 50//50 51//51 42//42
f 42//42 51//51 43//43
f 51//51 52//52 43//43
f 43//43 52//52 44//44
f 52//52 53//53 44//44
f 44//44 53//53 45//45
f 53//53 54//54 45//45
f 46//46 55//55 47//47
f 55//55 56//56 47//47
f 47//47 56//56 48//48
f 56//56 57//57 48//48
f 48//48 57//57 49//49
f 57//57 58//58 49//49
f 49//49 58//58 50//50
f 58//58 59//59 50//50
f 50//50 59//59 51//51
f 59//59 60//60 51//51
f 51//51 60//60 52//52
f 60//60 61//61 52//52
f 52//52 61//61 53//53
f 61//61 62//62 53//53
f 53//53 62//62 54//54
f 62//62 63//63 54//54
f 64//64 73//73 65//65
f 73//73 74//74 65//65
f 65//65 74//74 66//66
f 74//74 75//75 66//66
f 66//66 75//75 67//67
f 75//75 76//76 67//67
f 67//67 76//76 68//68
f 76//76 77//77 68//68
f 68//68 77//77 69//69
f 77//77 78//78 69//69
f 69//69 78//78 70//70
f 78//78 79//79 70//70
f 70//70 79//79 71//71
f 79//79 80//80 71//71
f 71//71 80//80 72//72
f 80//80 81//81 72//72
f 73//73 82//82 74//74
f 82//82 83//83 74//74
f 74//74 83//83 75//75
f 83//83 84//84 75//75
f 75//75 84//84 76//76
f 84//84 85//85 76//76
f 76//76 85//85 77//77
f 85//85 86//86 77//77
f 77//77 86//86 78//78
f 86//86 87//87 78//78
f 78//78 87//87 79//79
f 87//87 88//88 79//79
f 79//79 88//88 80//80
f 88//88 89//89 80//80
f 80//80 89//89 81//81
f 89//89 90//90 81//81
f 82//82 91//91 83//83
f 91//91 92//92 83//83
f 83//83 92//92 84//84
f 92//92 93//93 84//84
f 84//84 93//93 85//85
f 93//93 94//94 85//85
f 85//85 94//94 86//86
f 94//94 95//95 86//86
f 86//86 95//95 87//87
f 95//95 96//96 87//87
f 87//87 96//96 88//88
f 96//96 97//97 88//88
f 88//88 97//97 89//89
f 97//97 98//98 89//89
f 89//89 98//98 90//90
f 98//98 99//99 90//90
f 91//91 100//100 92//92
f 100//100 101//101 92//92
f 92//92 101//101 93//93
f 101//101 102//102 93//93
f 93//93 102//102 94//94
f 102//102 103//103 94//94
f 94//94 103//103 95//95
f 103//103 104//104 95//95
f 95//95 104//104 96//96
f 104//104 105//105 96//96
f 96//96 105//105 97//97
f 105//105 106//106 97//97
f 97//97 106//106 98//98
f 106//106 107//107 98//98
f 98//98 107//107 99//99
f 107//107 108//108 99//99
f 100//100 109//109 101//101
f 109//109 110//110 101//101
f 101//101 110//110 102//102
f 110//110 111//111 102//102
f 102//102 111//111 103//103
f 111//111 112//112 103//103
f 103//103 112//112 104//104
f 112//112 113//113 104//104
f 104//104 113//113 105//105
f 113//113 114//114 105//105
f 105//105 114//114 106//106
f 114//114 115//115 106//106
f 106//106 115//115 107//107
f 115//115 116//116 107//107
f 107//107 116//116 108//108
f 116//116 117//117 108//108
f 109//109 118//118 110//110
f 118//118 119//119 110//110
f 110//110 119//119 111//111
f 119//119 120//120 111//111
f 111//111 120//120 112//112
f 120//120 121//121 112//112
f 112//112 121//121 113//113
f 121//121 122//122 113//113
f 113//113 122//122 114//114
f 122//122 123//123 114//114
f 114//114 123//123 115//115
f 123//123 124//124 115//115
f 115//115 124//124 116//116
f 124//124 125//125 116//116
f 116//116 125//125 117//117
f 125//125 126//126 117//117
f 127//127 136//136 128//128
f 136//136 137//137 128//128
f 128//128 137//137 129//129
f 137//137 138//138 129//129
f 129//129 138//138 130//130
f 138//138 139//139 130//130
f 130//130 139//139 131//131
f 139//139 140//140 131//131
f 131//131 140//140 132//132
f 140//140 141//141 132//132
f 132//132 141//141 133//133
f 141//141 142//142 133//133
f 133//133 142//142 134//134
f 142//142 143//143 134//134
f 134//134 143//143 135//135
f 143//143 144//144 135//135
f 136//136 145//145 137//137
f 145//145 146//146 137//137
f 137//137 146//146 138//138
f 146//146 147//147 138//138
f 138//138 147//147 139//139
f 147//147 148//148 139//139
f 139//139 148//148 140//140
f 148//148 149//149 140//140
f 140//140 149//149 141//141
f 149//149 150//150 141//141
f 141//141 150//150 142//142
f 150//150 151//151 142//142
f 142//142 151//151 143//143
f 151//151 152//152 143//143
f 143//143 152//152 144//144
f 152//152 153//153 144//144
f 145//145 154//154 146//146
f 154//154 155//155 146//146
f 146//146 155//155 147//147
f 155//155 156//156 147//147
f 147//147 156//156 148//148
f 156//156 157//157 148//148
f 148//148 157//157 149//149
f 157//157 158//158 149//149
f 149//149 158//158 150//150
f 158//158 159//159 150//150
f 150//150 159//159 151//151
f 159//159 160//160 151//151
f 151//151 160//160 152//152
f 160//160 161//161 152//152
f 152//152 161//161 153//153
f 161//161 162//162 153//153
f 154//154 163//163 155//155
f 163//163 164//164 155//155
f 155//155 164//164 156//156
f 164//164 165//165 156//156
f 156//156 165//165 157//157
f 165//165 166//166 157//157
f 157//157 166//166 158//158
f 166//166 167//167 158//158
f 158//158 167//167 159//159
f 167//167 168//168 159//159
f 159//159 168//168 160//160
f 168//168 169//169 160//160
f 160//160 169//169 161//161
f 169//169 170//170 161//161
f 161//161 170//170 162//162
f 170//170 171//171 162//162
f 163//163 172//172 164//164
f 172//172 173//173 164//164
f 164//164 173//173 165//165
f 173//173 174//174 165//165
f 165//165 174//174 166//166
f 174//174 175//175 166//166
f 166//166 175//175 167//167
f 175//175 176//176 167//167
f 167//167 176//176 168//168
f 176//176 177//177 168//168
f 168//168 177//177 169//169
f 177//177 178//178 169//169
f 169//169 178//178 170//170
f 178//178 179//179 170//170
f 170//170 179//179 171//171
f 179//179 180//180 171//171
f 172//172 181//181 173//173
f 181//181 182//182 173//173
f 173//173 182//182 174//174
f 182//182 183//183 174//174
f 174//174 183//183 175//175
f 183//183 184//184 175//175
f 175//175 184//184 176//176
f 184//184 185//185 176//176
f 176//176 185//185 177//177
f 185//185 186//186 177//177
f 177//177 186//186 178//178
f 186//186 187//187 178//178
f 178//178 187//187 179//179
f 187//187 188//188 179//179
f 179//179 188//188 180//180
f 188//188 189//189 180//180
f 190//190 199//199 191//191
f 199//199 200//200 191//191
f 191//191 200//200 192//192
f 200//200 201//201 192//192
f 192//192 201//201 193//193
f 201//201 202//202 193//193
f 193//193 202//202 194//194
f 202//202 203//203 194//194
f 194//194 203//203 195//195
f 203//203 204//204 195//195
f 195//195 204//204 196//196
f 204//204 205//205 196//196
f 196//196 205//205 197//197
f 205//205 206//206 197//197
f 197//197 206//206 198//198
f 206//206 207//207 198//198
f 199//199 208//208 200//200
f 208//208 209//209 200//200
f 200//200 209//209 201//201
f 209//209 210//210 201//201
f 201//201 210//210 202//202
f 210//210 211//211 202//202
f 202//202 211//211 203//203
f 211//211 212//212 203//203
f 203//203 212//212 204//204
f 212//212 213//213 204//204
f 204//204 213//213 205//205
f 213//213 214//214 205//205
f 205//205 214//214 206//206
f 214//214 215//215 206//206
f 206//206 215//215 207//207
f 215//215 216//216 207//207
f 208//208 217//217 209//209
f 217//217 218//218 209//209
f 209//209 218//218 210//210
f 218//218 219//219 210//210
f 210//210 219//219 211//211
f 219//219 220//220 211//211
f 211//211 220//220 212//212
f 220//220 221//221 212//212
f 212//212 221//221 213//213
f 221//221 222//222 213//213
f 213//213 222//222 214//214
f 222//222 223//223 214//214
f 214//214 223//223 215//215
f 223//223 224//224 215//215
f 215//215 224//224 216//216
f 224//224 225//225 216//216
f 217//217 226//226 218//218
f 226//226 227//227 218//218
f 218//218 227//227 219//219
f 227//227 228//228 219//219
f 219//219 228//228 220//220
f 228//228 229//229 220//220
f 220//220 229//229 221//221
f 229//229 230//230 221//221
f 221//221 230//230 222//222
f 230//230 231//231 222//222
f 222//222 231//231 223//223
f 231//231 232//232 223//223
f 223//223 232//232 224//224
f 232//232 233//233 224//224
f 224//224 233//233 225//225
f 233//233 234//234 225//225
f 226//226 235//235 227//227
f 235//235 236//236 227//227
f 227//227 236//236 228//228
f 236//236 237//237 228//228
f 228//228 237//237 229//229
f 237//237 238//238 229//229
f 229//229 238//238 230//230
f 238//238 239//239 230//230
f 230//230 239//239 231//231
f 239//239 240//240 231//231
f 231//231 240//240 232//232
f 240//240 241//241 232//232
f 232//232 241//241 233//233
f 241//241 242//242 233//233
f 233//233 242//242 234//234
f 242//242 243//243 234//234
f 235//235 244//244 236//236
f 244//244 245//245 236//236
f 236//236 245//245 237//237
f 245//245 246//246 237//237
f 237//237 246//246 238//238
f 246//246 247//247 238//238
f 238//238 247//247 239//239
f 247//247 248//248 239//239
f 239//239 248//248 240//240
f 248//248 249//249 240//240
f 240//240 249//249 241//241
f 249//249 250//250 241//241
f 241//241 250//250 242//242
f 250//250 251//251 242//242
f 242//242 251//251 243//243
f 251//251 252//252 243//243
f 253//253 262//262 254//254
f 262//262 263//263 254//254
f 254//254 263//263 255//255
f 263//263 264//264 255//255
f 255//255 264//264 256//256
f 264//264 265//265 256//256
f 256//256 265//265 257//257
f 265//265 266//266 257//257
f 257//257 266//266 258//258
f 266//266 267//267 258//258
f 258//258 267//267 259//259
f 267//267 268//268 259//259
f 259//259 268//268 260//260
f 268//268 269//269 260//260
f 260//260 269//269 261//261
f 269//269 270//270 261//261
f 262//262 271//271 263//263
f 271//271 272//272 263//263
f 263//263 272//272 264//264
f 272//272 273//273 264//264
f 264//264 273//273 265//265
f 273//273 274//274 265//265
f 265//265 274//274 266//266
f 274//274 275//275 266//266
f 266//266 275//275 267//267
f 275//275 276//276 267//267
f 267//267 276//276 268//268
f 276//276 277//277 268//268
f 268//268 277//277 269//269
f 277//277 278//278 269//269
f 269//269 278//278 270//270
f 278//278 279//279 270//270
f 271//271 280//280 272//272
f 280//280 281//281 272//272
f 272//272 281//281 273//273
f 281//281 282//282 273//273
f 273//273 282//282 274//274
f 282//282 283//283 274//274
f 274//274 283//283 275//275
f 283//283 284//284 275//275
f 275//275 284//284 276//276
f 284//284 285//285 276//276
f 276//276 285//285 277//277
f 285//285 286//286 277//277
f 277//277 286//286 278//278
f 286//286 287//287 278//278
f 278//278 287//287 279//279
f 287//287 288//288 279//279
f 280//280 289//289 281//281
f 289//289 290//290 281//281
f 281//281 290//290 282//282
f 290//290 291//291 282//282
f 282//282 291//291 283//283
f 291//291 292//292 283//283
f 283//283 292//292 284//284
f 292//292 293//293 284//284
f 284//284 293//293 285//285
f 293//293 294//294 285//285
f 285//285 294//294 286//286
f 294//294 295//295 286//286
f 286//286 295//295 287//287
f 295//295 296//296 287//287
f 287//287 296//296 288//288
f 296//296 297//297 288//288
f 289//289 298//298 290//290
f 298//298 299//299 290//290
f 290//290 299//299 291//291
f 299//299 300//300 291//291
f 291//291 300//300 292//292
f 300//300 301//301 292//292
f 292//292 301//301 293//293
f 301//301 302//302 293//293
f 293//293 302//302 294//294
f 302//302 303//303 294//294
f 294//294 303//303 295//295
f 303//303 304//304 295//295
f 295//295 304//304 296//296
f 304//304 305//305 296//296
f 296//296 305//305 297//297
f 305//305 306//306 297//297
f 298//298 307//307 299//299
f 307//307 308//308 299//299
f 299//299 308//308 300//300
f 308//308 309//309 300//300
f 300//300 309//309 301//301
f 309//309 310//310 301//301
f 301//301 310//310 302//302
f 310//310 311//311 302//302
f 302//302 311//311 303//303
f 311//311 312//312 303//303
f 303//303 312//312 304//304
f 312//312 313//313 304//304
f 304//304 313//313 305//305
f 313//313 314//314 305//305
f 305//305 314//314 306//306
f 314//314 315//315 306//306
f 316//316 325//325 317//317
f 325//325 326//326 317//317
f 317//317 326//326 318//318
f 326//326 327//327 318//318
f 318//318 327//327 319//319
f 327//327 328//328 319//319
f 319//319 328//328 320//320
f 328//328 329//329 320//320
f 320//320 329//329 321//321
f 329//329 330//330 321//321
f 321//321 330//330 322//322
f 330//330 331//331 322//322
f 322//322 331//331 323//323
f 331//331 332//332 323//323
f 323//323 332//332 324//324
f 332//332 333//333 324//324
f 325//325 334//334 326//326
f 334//334 335//335 326//326
f 326//326 335//335 327//327
f 335//335 336//336 327//327
f 327//327 336//336 328//328
f 336//336 337//337 328//328
f 328//328 337//337 329//329
f 337//337 338//338 329//329
f 329//329 338//338 330//330
f 338//338 339//339 330//330
f 330//330 339//339 331//331
f 339//339 340//340 331//331
f 331//331 340//340 332//332
f 340//340 341//341 332//332
f 332//332 341//341 333//333
f 341//341 342//342 333//333
f 334//334 343//343 335//335
f 343//343 344//344 335//335
f 335//335 344//344 336//336
f 344//344 345//345 336//336
f 336//336 345//345 337//337
f 345//345 346//346 337//337
f 337//337 346//346 338//338
f 346//346 347//347 338//338
f 338//338 347//347 339//339
f 347//347 348//348 339//339
f 339//339 348//348 340//340
f 348//348 349//349 340//340
f 340//340 349//349 341//341
f 349//349 350//350 341//341
f 341//341 350//350 342//342
f 350//350 351//351 342//342
f 343//343 352//352 344//344
f 352//352 353//353 344//344
f 344//344 353//353 345//345
f 353//353 354//354 345//345
f 345//345 354//354 346//346
f 354//354 355//355 346//346
f 346//346 355//355 347//347
f 355//355 356//356 347//347
f 347//347 356//356 348//348
f 356//356 357//357 348//348
f 348//348 357//357 349//349
f 357//357 358//358 349//349
f 349//349 358//358 350//350
f 358//358 359//359 350//350
f 350//350 359//359 351//351
f 359//359 360//360 351//351
f 352//352 361//361 353//353
f 361//361 362//362 353//353
f 353//353 362//362 354//354
f 362//362 363//363 354//354
f 354//354 363//363 355//355
f 363//363 364//364 355//355
f 355//355 364//364 356//356
f 364//364 365//365 356//356
f 356//356 365//365 357//357
f 365//365 366//366 357//357
f 357//357 366//366 358//358
f 366//366 367//367 358//358
f 358//358 367//367 359//359
f 367//367 368//368 359//359
f 359//359 368//368 360//360
f 368//368 369//369 360//360
f 361//361 370//370 362//362
f 370//370 371//371 362//362
f 362//362 371//371 363//363
f 371//371 372//372 363//363
f 363//363 372//372 364//364
f 372//372 373//373 364//364
f 364//364 373//373 365//365
f 373//373 374//374 365//365
f 365//365 374//374 366//366
f 374//374 375//375 366//366
f 366//366 375//375 367//367
f 375//375 376//376 367//367
f 367//367 376//376 368//368
f 376//376 377//377 368//368
f 368//368 377//377 369//369
f 377//377 378//378 369//369
f 379//379 388//388 380//380
f 388//388 389//389 380//380
f 380//380 389//389 381//381
f 389//389 390//390 381//381
f 381//381 390//390 382//382
f 390//390 391//391 382//382
f 382//382 391//391 383//383
f 391//391 392//392 383//383
f 383//383 392//392 384//384
f 392//392 393//393 384//384
f 384//384 393//393 385//385
f 393//393 394//394 385//385
f 385//385 394//394 386//386
f 394//394 395//395 386//386
f 386//386 395//395 387//387
f 395//395 396//396 387//387
f 388//388 397//397 389//389
f 397//397 398//398 389//389
f 389//389 398//398 390//390
f 398//398 399//399 390//390
f 390//390 399//399 391//391
f 399//399 400//400 391//391
f 391//391 400//400 392//392
f 400//400 401//401 392//392
f 392//392 401//401 393//393
f 401//401 402//402 393//393
f 393//393 402//402 394//394
f 402//402 403//403 394//394
f 394//394 403//403 395//395
f 403//403 404//404 395//395
f 395//395 404//404 396//396
f 404//404 405//405 396//396
f 397//397 406//406 398//398
f 406//406 407//407 398//398
f 398//398 407//407 399//399
f 407//407 408//408 399//399
f 399//399 408//408 400//400
f 408//408 409//409 400//400
f 400//400 409//409 401//401
f 409//409 410//410 401//401
f 401//401 410//410 402//402
f 410//410 411//411 402//402
f 402//402 411//411 403//403
f 411//411 412//412 403//403
f 403//403 412//412 404//404
f 412//412 413//413 404//404
f 404//404 413//413 405//405
f 413//413 414//414 405//405
f 406//406 415//415 407//407
f 415//415 416//416 407//407
f 407//407 416//416 408//408
f 416//416 417//417 408//408
f 408//408 417//417 409//409
f 417//417 418//418 409//409
f 409//409 418//418 410//410
f 418//418 419//419 410//410
f 410//410 419//419 411//411
f 419//419 420//420 411//411
f 411//411 420//420 412//412
f 420//420 421//421 412//412
f 412//412 421//421 413//413
f 421//421 422//422 413//413
f 413//413 422//422 414//414
f 422//422 423//423 414//414
f 415//415 424//424 416//416
f 424//424 425//425 416//416
f 416//416 425//425 417//417
f 425//425 426//426 417//417
f 417//417 426//426 418//418
f 426//426 427//427 418//418
f 418//418 427//427 419//419
f 427//427 428//428 419//419
f 419//419 428//428 420//420
f 428//428 429//429 420//420
f 420//420 429//429 421//421
f 429//429 430//430 421//421
f 421//421 430//430 422//422
f 430//430 431//431 422//422
f 422//422 431//431 423//423
f 431//431 432//432 423//423
f 424//424 433//433 425//425
f 433//433 434//434 425//425
f 425//425 434//434 426//426
f 434//434 435//435 426//426
f 426//426 435//435 427//427
f 435//435 436//436 427//427
f 427//427 436//436 428//428
f 436//436 437//437 428//428
f 428//428 437//437 429//429
f 437//437 438//438 429//429
f 429//429 438//438 430//430
f 438//438 439//439 430//430
f 430//430 439//439 431//431
f 439//439 440//440 431//431
f 431//431 440//440 432//432
f 440//440 441//441 432//432
