# Gisement de linemate — généré par generate_minerals.py
mtllib linemate.mtl
o linemate_deposit
v -0.198902 0.584234 -0.126379
v -0.153979 0.639781 -0.002335
v -0.204922 -0.014502 -0.143002
v -0.157482 0.052251 -0.012006
v -0.256756 0.184676 -0.042025
v -0.301467 0.541810 -0.025833
v -0.078634 0.145917 -0.106532
v -0.075032 0.507535 -0.107837
v -0.094054 0.323526 -0.003377
v -0.205104 0.323526 0.056421
v -0.151383 0.323526 -0.200516
v -0.266338 0.323526 -0.139802
v -0.064101 1.291487 0.298981
v -0.049345 1.188523 0.003996
v -0.061916 0.026043 0.255305
v -0.049664 -0.043550 0.010368
v 0.131920 0.225428 0.149767
v 0.201890 1.013698 0.153268
v -0.311864 0.105967 0.127568
v -0.316137 1.017078 0.127355
v -0.144487 0.557749 -0.019938
v 0.078370 0.557749 -0.054800
v -0.220057 0.557749 0.378099
v 0.042115 0.557749 0.318736
v -0.263166 0.680341 0.178493
v -0.132936 0.632449 0.275305
v -0.272938 -0.025663 0.171229
v -0.137229 0.088347 0.272113
v -0.264503 0.177500 0.326929
v -0.275004 0.548477 0.341055
v -0.107164 0.143089 0.115277
v -0.108080 0.555311 0.116510
v -0.058123 0.350307 0.242267
v -0.140441 0.350307 0.362947
v -0.259574 0.350307 0.062909
v -0.323334 0.350307 0.219488
v 0.001611 0.697806 0.003734
v 0.048826 0.602695 0.197664
v 0.008250 -0.020441 0.031002
v 0.049356 -0.035434 0.199844
v -0.151931 0.030289 0.157301
v -0.117553 0.496025 0.148931
v 0.224278 0.007842 0.065708
v 0.219969 0.561414 0.066758
v 0.156139 0.287706 0.239467
v -0.036167 0.287706 0.311469
v 0.112442 0.287706 -0.144971
v -0.137443 0.287706 -0.050038
v 0.070221 0.920121 0.288801
v 0.178548 0.827028 0.042957
v 0.065753 -0.028432 0.298940
v 0.179826 0.088854 0.040057
v 0.283782 0.267155 0.219482
v 0.267733 0.637934 0.212411
v -0.065025 0.213177 0.065786
v -0.063747 0.710766 0.066349
v 0.098686 0.462788 -0.076380
v 0.353245 0.462788 -0.001138
v -0.014963 0.462788 0.251949
v 0.169667 0.462788 0.432708
v 0.228574 0.737674 0.090164
v 0.081113 0.633607 0.235555
v 0.197844 -0.015874 0.120462
v 0.096082 0.000503 0.220796
v 0.056589 0.083788 0.081913
v 0.032121 0.519779 0.057096
v 0.249791 0.050600 0.277864
v 0.263861 0.530553 0.292134
v 0.106939 0.275413 0.330380
v 0.016660 0.275413 0.201534
v 0.339250 0.275413 0.127783
v 0.179116 0.275413 0.034012
vn -0.279027 0.479172 -0.832189
vn 0.377541 0.501590 0.778377
vn -0.389189 -0.527020 -0.755501
vn 0.258630 -0.482183 0.837024
vn -0.915757 -0.232672 0.327496
vn -0.939749 0.198208 0.278543
vn 0.940556 -0.214820 -0.263074
vn 0.923442 0.220982 -0.313724
vn 0.786356 -0.012304 0.617650
vn -0.181949 -0.031499 0.982803
vn 0.182791 0.016690 -0.983010
vn -0.798759 -0.000770 -0.601651
vn 0.023796 0.460819 0.887175
vn 0.007958 0.405474 -0.914072
vn 0.116945 -0.478726 0.870141
vn 0.091251 -0.462530 -0.881895
vn 0.967642 -0.233026 0.096784
vn 0.982302 0.177726 0.059131
vn -0.962039 -0.237840 -0.133838
vn -0.965335 0.206165 -0.160074
vn -0.418851 -0.003776 -0.908047
vn 0.508301 -0.017786 -0.860996
vn -0.486495 -0.021276 0.873424
vn 0.499049 -0.033415 0.865930
vn -0.696661 0.575800 -0.427923
vn 0.683111 0.523097 0.509637
vn -0.710069 -0.592688 -0.380162
vn 0.665358 -0.506429 0.548477
vn -0.554758 -0.248010 0.794188
vn -0.576603 0.238984 0.781291
vn 0.659164 -0.258795 -0.706065
vn 0.639102 0.266649 -0.721420
vn 0.989460 -0.005232 0.144711
vn 0.400542 -0.012975 0.916187
vn -0.407410 0.011383 -0.913174
vn -0.999532 0.004305 -0.030277
vn -0.284341 0.676865 -0.678973
vn 0.144021 0.559826 0.815998
vn -0.234647 -0.662371 -0.711481
vn 0.193818 -0.598574 0.777266
vn -0.924858 -0.291043 0.244811
vn -0.913628 0.291143 0.283761
vn 0.936586 -0.323226 -0.135394
vn 0.948621 0.299370 -0.102451
vn 0.661471 0.003116 0.749965
vn -0.272343 0.013143 0.962110
vn 0.280437 -0.021805 -0.959625
vn -0.754343 -0.014270 -0.656326
vn -0.291400 0.652518 0.699504
vn 0.368522 0.643175 -0.671206
vn -0.319705 -0.643527 0.695458
vn 0.350629 -0.626384 -0.696206
vn 0.901536 -0.264824 0.342201
vn 0.893312 0.286116 0.346600
vn -0.885598 -0.280588 -0.370116
vn -0.885127 0.291610 -0.362648
vn -0.142492 0.002982 -0.989791
vn 0.859961 0.009211 -0.510277
vn -0.848238 0.007777 0.529557
vn 0.175964 0.015357 0.984277
vn 0.547346 0.532803 -0.645395
vn -0.661293 0.460043 0.592497
vn 0.481894 -0.594244 -0.643935
vn -0.654606 -0.548218 0.520527
vn -0.689968 -0.281458 -0.666878
vn -0.721027 0.194443 -0.665066
vn 0.629765 -0.302198 0.715592
vn 0.627809 0.227166 0.744480
vn -0.325118 -0.025903 0.945319
vn -0.969554 -0.031396 0.242856
vn 0.959848 -0.041513 -0.277431
vn 0.197730 -0.046118 -0.979171
usemtl linemate
f 1//1 12//12 6//6
f 1//1 6//6 2//2
f 1//1 2//2 8//8
f 1//1 8//8 11//11
f 1//1 11//11 12//12
f 2//2 6//6 10//10
f 6//6 12//12 5//5
f 12//12 11//11 3//3
f 11//11 8//8 7//7
f 8//8 2//2 9//9
f 4//4 10//10 5//5
f 4//4 5//5 3//3
f 4//4 3//3 7//7
f 4//4 7//7 9//9
f 4//4 9//9 10//10
f 5//5 10//10 6//6
f 3//3 5//5 12//12
f 7//7 3//3 11//11
f 9//9 7//7 8//8
f 10//10 9//9 2//2
f 13//13 24//24 18//18
f 13//13 18//18 14//14
f 13//13 14//14 20//20
f 13//13 20//20 23//23
f 13//13 23//23 24//24
f 14//14 18//18 22//22
f 18//18 24//24 17//17
f 24//24 23//23 15//15
f 23//23 20//20 19//19
f 20//20 14//14 21//21
f 16//16 22//22 17//17
f 16//16 17//17 15//15
f 16//16 15//15 19//19
f 16//16 19//19 21//21
f 16//16 21//21 22//22
f 17//17 22//22 18//18
f 15//15 17//17 24//24
f 19//19 15//15 23//23
f 21//21 19//19 20//20
f 22//22 21//21 14//14
f 25//25 36//36 30//30
f 25//25 30//30 26//26
f 25//25 26//26 32//32
f 25//25 32//32 35//35
f 25//25 35//35 36//36
f 26//26 30//30 34//34
f 30//30 36//36 29//29
f 36//36 35//35 27//27
f 35//35 32//32 31//31
f 32//32 26//26 33//33
f 28//28 34//34 29//29
f 28//28 29//29 27//27
f 28//28 27//27 31//31
f 28//28 31//31 33//33
f 28//28 33//33 34//34
f 29//29 34//34 30//30
f 27//27 29//29 36//36
f 31//31 27//27 35//35
f 33//33 31//31 32//32
f 34//34 33//33 26//26
f 37//37 48//48 42//42
f 37//37 42//42 38//38
f 37//37 38//38 44//44
f 37//37 44//44 47//47
f 37//37 47//47 48//48
f 38//38 42//42 46//46
f 42//42 48//48 41//41
f 48//48 47//47 39//39
f 47//47 44//44 43//43
f 44//44 38//38 45//45
f 40//40 46//46 41//41
f 40//40 41//41 39//39
f 40//40 39//39 43//43
f 40//40 43//43 45//45
f 40//40 45//45 46//46
f 41//41 46//46 42//42
f 39//39 41//41 48//48
f 43//43 39//39 47//47
f 45//45 43//43 44//44
f 46//46 45//45 38//38
f 49//49 60//60 54//54
f 49//49 54//54 50//50
f 49//49 50//50 56//56
f 49//49 56//56 59//59
f 49//49 59//59 60//60
f 50//50 54//54 58//58
f 54//54 60//60 53//53
f 60//60 59//59 51//51
f 59//59 56//56 55//55
f 56//56 50//50 57//57
f 52//52 58//58 53//53
f 52//52 53//53 51//51
f 52//52 51//51 55//55
f 52//52 55//55 57//57
f 52//52 57//57 58//58
f 53//53 58//58 54//54
f 51//51 53//53 60//60
f 55//55 51//51 59//59
f 57//57 55//55 56//56
f 58//58 57//57 50//50
f 61//61 72//72 66//66
f 61//61 66//66 62//62
f 61//61 62//62 68//68
f 61//61 68//68 71//71
f 61//61 71//71 72//72
f 62//62 66//66 70//70
f 66//66 72//72 65//65
f 72//72 71//71 63//63
f 71//71 68//68 67//67
f 68//68 62//62 69//69
f 64//64 70//70 65//65
f 64//64 65//65 63//63
f 64//64 63//63 67//67
f 64//64 67//67 69//69
f 64//64 69//69 70//70
f 65//65 70//70 66//66
f 63//63 65//65 72//72
f 67//67 63//63 71//71
f 69//69 67//67 68//68
f 70//70 69//69 62//62
