# Gisement de mendiane — généré par generate_minerals.py
mtllib mendiane.mtl
o mendiane_deposit
v 0.035153 0.592936 0.186182
v 0.176011 0.682074 0.197140
v 0.033717 0.066429 0.186071
v 0.172777 -0.002505 0.196888
v 0.086708 0.150673 0.301059
v 0.084574 0.560247 0.328495
v 0.102215 0.185484 0.101725
v 0.102764 0.491773 0.094658
v 0.240314 0.332790 0.116101
v 0.190837 0.332790 0.260708
v -0.022170 0.332790 0.105007
v -0.012248 0.332790 0.246287
v -0.337788 0.773817 0.182941
v -0.280622 0.785165 0.081161
v -0.355110 -0.031475 0.213781
v -0.277652 0.114518 0.075873
v -0.225423 0.267843 0.180321
v -0.183358 0.763340 0.203947
v -0.409656 0.231074 0.076844
v -0.392295 0.660336 0.086595
v -0.317178 0.466122 -0.045175
v -0.158419 0.466122 0.049237
v -0.422835 0.466122 0.195571
v -0.304692 0.466122 0.253192
v 0.095083 0.885974 0.283777
v 0.147726 0.877269 0.124730
v 0.087709 0.013698 0.306054
v 0.156907 -0.003600 0.096993
v 0.243401 0.281506 0.243619
v 0.265125 0.763784 0.250810
v -0.023108 0.239445 0.155407
v -0.006502 0.736116 0.160903
v 0.073425 0.502885 0.000726
v 0.297952 0.502885 0.055618
v 0.002741 0.502885 0.303053
v 0.165405 0.502885 0.386718
v -0.334477 0.940048 0.268334
v -0.313490 1.050386 0.080359
v -0.333243 0.194885 0.257285
v -0.312520 -0.010930 0.071662
v -0.210835 0.329422 0.198531
v -0.164217 0.838184 0.203735
v -0.451197 0.308151 0.171696
v -0.444858 0.761648 0.172404
v -0.387823 0.540753 0.053680
v -0.239958 0.540753 0.076921
v -0.434609 0.540753 0.325279
v -0.248188 0.540753 0.348451
v -0.118814 0.941779 0.411677
v -0.076263 1.020518 0.275425
v -0.120099 0.124853 0.415791
v -0.071605 -0.022811 0.260509
v 0.058948 0.160343 0.399193
v 0.058935 0.932510 0.399189
v -0.256666 0.163299 0.300627
v -0.235536 0.878086 0.307226
v -0.138324 0.546442 0.198091
v 0.027030 0.546442 0.239996
v -0.208117 0.546442 0.443967
v -0.066288 0.546442 0.479182
vn -0.861386 0.487826 -0.141561
vn 0.834380 0.550889 0.018182
vn -0.853009 -0.512774 -0.097154
vn 0.821262 -0.567011 0.063454
vn -0.098731 -0.240312 0.965662
vn -0.109704 0.216883 0.970014
vn 0.016623 -0.219860 -0.975390
vn 0.006785 0.211507 -0.977353
vn 0.863863 -0.006504 -0.503685
vn 0.790718 -0.012325 0.612057
vn -0.790462 -0.001561 -0.612509
vn -0.901943 -0.007720 0.431785
vn -0.544572 0.438300 0.715077
vn 0.284159 0.537936 -0.793649
vn -0.378390 -0.438066 0.815426
vn 0.481792 -0.475982 -0.735743
vn 0.837433 -0.194347 0.510818
vn 0.807610 0.196794 0.555912
vn -0.868895 -0.163846 -0.467094
vn -0.888721 0.213066 -0.405929
vn -0.107787 0.011237 -0.994110
vn 0.888942 -0.007124 -0.457964
vn -0.880261 0.034525 0.473233
vn 0.032317 0.012771 0.999396
vn -0.339178 0.516010 0.786570
vn 0.198626 0.585050 -0.786298
vn -0.259567 -0.467979 0.844761
vn 0.296028 -0.544381 -0.784867
vn 0.913971 -0.200954 0.352526
vn 0.910709 0.225109 0.346317
vn -0.951451 -0.183475 -0.247139
vn -0.940921 0.234004 -0.244765
vn -0.302068 0.025018 -0.952958
vn 0.806070 0.014448 -0.591644
vn -0.786115 0.021682 0.617700
vn 0.235540 0.009790 0.971815
vn -0.190255 0.463936 0.865197
vn 0.017642 0.445177 -0.895269
vn -0.072124 -0.469094 0.880198
vn 0.138493 -0.484322 -0.863859
vn 0.971786 -0.207855 0.111481
vn 0.980525 0.174966 0.089206
vn -0.979434 -0.183189 -0.084564
vn -0.976225 0.183265 -0.115754
vn -0.455944 0.007638 -0.889975
vn 0.625826 -0.009396 -0.779906
vn -0.652238 -0.007301 0.757979
vn 0.434549 -0.021697 0.900387
vn -0.311301 0.363584 0.878008
vn 0.201565 0.424149 -0.882875
vn -0.270807 -0.335821 0.902157
vn 0.254164 -0.409131 -0.876363
vn 0.909572 -0.177676 0.375646
vn 0.911571 0.193288 0.362875
vn -0.956827 -0.166955 -0.237925
vn -0.948280 0.193177 -0.251889
vn -0.221096 0.013537 -0.975158
vn 0.710183 0.008857 -0.703962
vn -0.682912 0.007546 0.730461
vn 0.133127 0.002902 0.991095
usemtl mendiane
f 1//1 12//12 6//6
f 1//1 6//6 2//2
f 1//1 2//2 8//8
f 1//1 8//8 11//11
f 1//1 11//11 12//12
f 2//2 6//6 10//10
f 6//6 12//12 5//5
f 12//12 11//11 3//3
f 11//11 8//8 7//7
f 8//8 2//2 9//9
f 4//4 10//10 5//5
f 4//4 5//5 3//3
f 4//4 3//3 7//7
f 4//4 7//7 9//9
f 4//4 9//9 10//10
f 5//5 10//10 6//6
f 3//3 5//5 12//12
f 7//7 3//3 11//11
f 9//9 7//7 8//8
f 10//10 9//9 2//2
f 13//13 24//24 18//18
f 13//13 18//18 14//14
f 13//13 14//14 20//20
f 13//13 20//20 23//23
f 13//13 23//23 24//24
f 14//14 18//18 22//22
f 18//18 24//24 17//17
f 24//24 23//23 15//15
f 23//23 20//20 19//19
f 20//20 14//14 21//21
f 16//16 22//22 17//17
f 16//16 17//17 15//15
f 16//16 15//15 19//19
f 16//16 19//19 21//21
f 16//16 21//21 22//22
f 17//17 22//22 18//18
f 15//15 17//17 24//24
f 19//19 15//15 23//23
f 21//21 19//19 20//20
f 22//22 21//21 14//14
f 25//25 36//36 30//30
f 25//25 30//30 26//26
f 25//25 26//26 32//32
f 25//25 32//32 35//35
f 25//25 35//35 36//36
f 26//26 30//30 34//34
f 30//30 36//36 29//29
f 36//36 35//35 27//27
f 35//35 32//32 31//31
f 32//32 26//26 33//33
f 28//28 34//34 29//29
f 28//28 29//29 27//27
f 28//28 27//27 31//31
f 28//28 31//31 33//33
f 28//28 33//33 34//34
f 29//29 34//34 30//30
f 27//27 29//29 36//36
f 31//31 27//27 35//35
f 33//33 31//31 32//32
f 34//34 33//33 26//26
f 37//37 48//48 42//42
f 37//37 42//42 38//38
f 37//37 38//38 44//44
f 37//37 44//44 47//47
f 37//37 47//47 48//48
f 38//38 42//42 46//46
f 42//42 48//48 41//41
f 48//48 47//47 39//39
f 47//47 44//44 43//43
f 44//44 38//38 45//45
f 40//40 46//46 41//41
f 40//40 41//41 39//39
f 40//40 39//39 43//43
f 40//40 43//43 45//45
f 40//40 45//45 46//46
f 41//41 46//46 42//42
f 39//39 41//41 48//48
f 43//43 39//39 47//47
f 45//45 43//43 44//44
f 46//46 45//45 38//38
f 49//49 60//60 54//54
f 49//49 54//54 50//50
f 49//49 50//50 56//56
f 49//49 56//56 59//59
f 49//49 59//59 60//60
f 50//50 54//54 58//58
f 54//54 60//60 53//53
f 60//60 59//59 51//51
f 59//59 56//56 55//55
f 56//56 50//50 57//57
f 52//52 58//58 53//53
f 52//52 53//53 51//51
f 52//52 51//51 55//55
f 52//52 55//55 57//57
f 52//52 57//57 58//58
f 53//53 58//58 54//54
f 51//51 53//53 60//60
f 55//55 51//51 59//59
f 57//57 55//55 56//56
f 58//58 57//57 50//50
