# Gisement de phiras — généré par generate_minerals.py
mtllib phiras.mtl
o phiras_deposit
v 0.088773 0.433061 -0.088401
v 0.088773 0.382600 -0.088401
v 0.088773 0.419464 -0.088401
v 0.088773 0.422856 -0.088401
v 0.088773 0.366612 -0.088401
v 0.088773 0.373544 -0.088401
v 0.088773 0.429016 -0.088401
v 0.088773 0.412096 -0.088401
v 0.088773 0.432130 -0.088401
v 0.016458 0.332985 -0.182014
v 0.107343 0.365265 -0.233079
v 0.198645 0.357037 -0.173276
v 0.243124 0.376683 -0.068590
v 0.182565 0.374112 0.033012
v 0.068108 0.384535 0.072603
v -0.039473 0.384221 0.010669
v -0.039903 0.346379 -0.104917
v -0.017610 0.398225 -0.226114
v -0.104259 0.317720 -0.338282
v 0.128055 0.314912 -0.394451
v 0.325612 0.311288 -0.271358
v 0.384434 0.310824 -0.050453
v 0.238338 0.289973 0.105211
v 0.062697 0.274431 0.114760
v -0.100382 0.287775 0.057721
v -0.150250 0.288541 -0.119080
v -0.043099 0.278679 -0.259110
v -0.081772 0.194500 -0.309172
v 0.120528 0.194500 -0.335807
v 0.299121 0.194500 -0.250894
v 0.440458 0.194500 -0.043262
v 0.276720 0.194500 0.154896
v 0.047997 0.194500 0.229289
v -0.190962 0.194500 0.127694
v -0.271425 0.194500 -0.134633
v -0.070945 0.194500 -0.295157
v -0.049387 0.106307 -0.267250
v 0.123651 0.087588 -0.360139
v 0.261709 0.109223 -0.221993
v 0.390019 0.075979 -0.049736
v 0.273984 0.076273 0.151355
v 0.051050 0.078865 0.205508
v -0.101534 0.100657 0.058611
v -0.145157 0.102463 -0.118426
v -0.093454 0.078178 -0.324295
v 0.014013 0.051333 -0.185179
v 0.108356 0.014418 -0.240973
v 0.213977 0.009282 -0.185120
v 0.263067 -0.011221 -0.066030
v 0.200814 -0.020059 0.056636
v 0.069445 0.016757 0.062189
v -0.045531 -0.004182 0.015349
v -0.065427 0.012495 -0.108193
v 0.013570 0.050484 -0.185752
v 0.088773 0.013854 -0.088401
v 0.088773 -0.027624 -0.088401
v 0.088773 0.015815 -0.088401
v 0.088773 -0.002485 -0.088401
v 0.088773 -0.041277 -0.088401
v 0.088773 -0.020457 -0.088401
v 0.088773 0.011902 -0.088401
v 0.088773 0.030836 -0.088401
v 0.088773 -0.036413 -0.088401
v -0.074563 0.387075 -0.077187
v -0.074563 0.408144 -0.077187
v -0.074563 0.372392 -0.077187
v -0.074563 0.446745 -0.077187
v -0.074563 0.463367 -0.077187
v -0.074563 0.418889 -0.077187
v -0.074563 0.422629 -0.077187
v -0.074563 0.455763 -0.077187
v -0.074563 0.412098 -0.077187
v 0.097455 0.410124 -0.199781
v 0.117466 0.394033 -0.044972
v 0.039986 0.396623 0.083543
v -0.100105 0.354751 0.075067
v -0.254565 0.419673 0.051096
v -0.250472 0.378113 -0.106698
v -0.198094 0.411697 -0.250520
v -0.047811 0.361876 -0.236655
v 0.052864 0.356792 -0.168002
v 0.163909 0.299459 -0.247142
v 0.185104 0.289868 -0.033625
v 0.132050 0.319966 0.212722
v -0.124520 0.302416 0.220598
v -0.338440 0.309587 0.110873
v -0.456999 0.330283 -0.141345
v -0.296034 0.328277 -0.387944
v -0.027061 0.297599 -0.360341
v 0.216546 0.320444 -0.284655
v 0.193066 0.204385 -0.267921
v 0.326452 0.204385 -0.009913
v 0.113967 0.204385 0.187350
v -0.130192 0.204385 0.254413
v -0.391587 0.204385 0.148750
v -0.482401 0.204385 -0.145606
v -0.333854 0.204385 -0.441012
v -0.024879 0.204385 -0.373348
v 0.259234 0.204385 -0.315078
v 0.183673 0.101431 -0.261227
v 0.210820 0.110436 -0.029311
v 0.130545 0.089645 0.210612
v -0.137484 0.080912 0.297879
v -0.394128 0.076981 0.150561
v -0.345712 0.115122 -0.122675
v -0.247380 0.107709 -0.319676
v -0.019294 0.095929 -0.406637
v 0.220725 0.086659 -0.287633
v 0.101045 -0.005649 -0.202339
v 0.120003 0.012231 -0.044547
v 0.012135 0.058886 0.044464
v -0.099278 0.058889 0.070135
v -0.196600 0.058424 0.009786
v -0.237496 0.043472 -0.104521
v -0.190360 0.010052 -0.239668
v -0.039227 -0.003637 -0.287819
v 0.103736 -0.008867 -0.204257
v -0.074563 -0.012167 -0.077187
v -0.074563 -0.015207 -0.077187
v -0.074563 -0.002485 -0.077187
v -0.074563 0.029886 -0.077187
v -0.074563 -0.048037 -0.077187
v -0.074563 -0.016105 -0.077187
v -0.074563 -0.029951 -0.077187
v -0.074563 -0.014167 -0.077187
v -0.074563 -0.019808 -0.077187
v -0.003309 0.513293 -0.126598
v -0.003309 0.518887 -0.126598
v -0.003309 0.461801 -0.126598
v -0.003309 0.439606 -0.126598
v -0.003309 0.527717 -0.126598
v -0.003309 0.505385 -0.126598
v -0.003309 0.451519 -0.126598
v -0.003309 0.500945 -0.126598
v -0.003309 0.457327 -0.126598
v -0.127121 0.483101 0.058981
v -0.217823 0.478757 -0.083773
v -0.153041 0.439989 -0.226495
v -0.034449 0.419044 -0.282582
v 0.080453 0.410902 -0.252145
v 0.167401 0.434067 -0.160678
v 0.157386 0.453174 -0.019387
v 0.028256 0.421213 0.031513
v -0.129907 0.488123 0.063156
v -0.197761 0.376751 0.164860
v -0.362497 0.382055 -0.054891
v -0.273485 0.368219 -0.306851
v -0.056600 0.350685 -0.393539
v 0.144273 0.348587 -0.347803
v 0.353599 0.381280 -0.197850
v 0.332048 0.394350 0.097143
v 0.055834 0.360653 0.169654
v -0.193622 0.374264 0.158656
v -0.238195 0.259905 0.225465
v -0.347086 0.259905 -0.057967
v -0.336060 0.259905 -0.348600
v -0.075408 0.259905 -0.487747
v 0.174381 0.259905 -0.392931
v 0.420457 0.259905 -0.211197
v 0.290266 0.259905 0.069267
v 0.081450 0.259905 0.297969
v -0.238531 0.259905 0.225969
v -0.226702 0.125668 0.208239
v -0.334867 0.147151 -0.060406
v -0.290899 0.144610 -0.318469
v -0.078825 0.131267 -0.504863
v 0.178662 0.150559 -0.399348
v 0.281900 0.162913 -0.183536
v 0.328370 0.126934 0.094689
v 0.050643 0.168001 0.143651
v -0.171605 0.158776 0.125656
v -0.133366 0.025452 0.068340
v -0.196712 0.062591 -0.087987
v -0.161354 0.069823 -0.232041
v -0.042224 0.061031 -0.321529
v 0.089507 0.092586 -0.265716
v 0.216908 0.035235 -0.170561
v 0.165651 0.056695 -0.013872
v 0.036060 0.058716 0.070603
v -0.090226 0.103220 0.003680
v -0.003309 0.037832 -0.126598
v -0.003309 0.081654 -0.126598
v -0.003309 0.026776 -0.126598
v -0.003309 0.029085 -0.126598
v -0.003309 0.019246 -0.126598
v -0.003309 -0.002333 -0.126598
v -0.003309 -0.002106 -0.126598
v -0.003309 0.043199 -0.126598
v -0.003309 0.036968 -0.126598
v -0.115929 0.394431 -0.002045
v -0.115929 0.402802 -0.002045
v -0.115929 0.351059 -0.002045
v -0.115929 0.357824 -0.002045
v -0.115929 0.398805 -0.002045
v -0.115929 0.378713 -0.002045
v -0.115929 0.396775 -0.002045
v -0.115929 0.399052 -0.002045
v -0.115929 0.346554 -0.002045
v -0.275769 0.359669 0.002783
v -0.238371 0.368777 -0.117307
v -0.119967 0.330755 -0.135722
v -0.009914 0.353875 -0.114664
v 0.020175 0.333437 -0.006156
v -0.015024 0.336105 0.092944
v -0.112279 0.316581 0.118807
v -0.216977 0.345871 0.105298
v -0.228195 0.307092 0.001346
v -0.376547 0.279030 0.005827
v -0.316339 0.284369 -0.190703
v -0.124957 0.293128 -0.300933
v 0.048316 0.271255 -0.176521
v 0.080313 0.255315 -0.007972
v 0.033043 0.258358 0.138192
v -0.107627 0.284270 0.272798
v -0.313087 0.288935 0.207394
v -0.410945 0.291701 0.006866
v -0.376402 0.183024 0.005823
v -0.322469 0.183024 -0.196474
v -0.123109 0.183024 -0.239762
v 0.054450 0.183024 -0.183037
v 0.227359 0.183024 -0.012414
v 0.103336 0.183024 0.204363
v -0.109102 0.183024 0.223984
v -0.340714 0.183024 0.236742
v -0.365778 0.183024 0.005502
v -0.321223 0.107398 0.004156
v -0.258329 0.111014 -0.136095
v -0.123732 0.087858 -0.260383
v 0.044982 0.096584 -0.172979
v 0.083162 0.109683 -0.008059
v 0.088026 0.079886 0.189950
v -0.109437 0.103843 0.212899
v -0.276995 0.096500 0.169054
v -0.379796 0.085821 0.005925
v -0.280106 0.001586 0.002914
v -0.220522 0.024349 -0.100505
v -0.120614 0.011613 -0.157149
v -0.009398 0.011341 -0.115212
v 0.026121 0.026040 -0.006336
v -0.031817 0.055419 0.077135
v -0.112462 0.056182 0.112730
v -0.202921 0.042830 0.090366
v -0.282568 -0.001134 0.002988
v -0.115929 0.024210 -0.002045
v -0.115929 0.010607 -0.002045
v -0.115929 0.014244 -0.002045
v -0.115929 0.027844 -0.002045
v -0.115929 -0.000901 -0.002045
v -0.115929 0.015592 -0.002045
v -0.115929 0.018403 -0.002045
v -0.115929 0.020451 -0.002045
v -0.115929 0.014089 -0.002045
v 0.255549 0.276315 0.247199
v 0.255549 0.264226 0.247199
v 0.255549 0.270433 0.247199
v 0.255549 0.269740 0.247199
v 0.255549 0.247523 0.247199
v 0.255549 0.272663 0.247199
v 0.255549 0.227894 0.247199
v 0.255549 0.252204 0.247199
v 0.255549 0.226273 0.247199
v 0.159767 0.255816 0.349386
v 0.127814 0.244562 0.251332
v 0.162492 0.244326 0.159975
v 0.252231 0.221439 0.144636
v 0.325682 0.221380 0.172376
v 0.383318 0.244593 0.243065
v 0.335870 0.228298 0.322485
v 0.259705 0.245226 0.375657
v 0.162356 0.252340 0.346624
v 0.118469 0.188567 0.393446
v 0.036167 0.194397 0.254297
v 0.077451 0.201928 0.080264
v 0.248156 0.197199 0.018669
v 0.376143 0.181189 0.118542
v 0.458388 0.189332 0.240637
v 0.429825 0.200325 0.410551
v 0.262734 0.195216 0.469256
v 0.135690 0.180860 0.375074
v 0.089512 0.127220 0.424339
v 0.003383 0.127220 0.255358
v 0.089474 0.127220 0.091533
v 0.246827 0.127220 -0.022408
v 0.447217 0.127220 0.042715
v 0.483463 0.127220 0.239825
v 0.425944 0.127220 0.406914
v 0.262581 0.127220 0.464526
v 0.120080 0.127220 0.391727
v 0.123933 0.068318 0.387616
v 0.015124 0.053599 0.254978
v 0.115118 0.068312 0.115570
v 0.248922 0.064498 0.042367
v 0.421968 0.052743 0.069652
v 0.470325 0.061453 0.240250
v 0.413029 0.061161 0.394808
v 0.263204 0.054774 0.483786
v 0.101421 0.058243 0.411634
v 0.158438 -0.003161 0.350805
v 0.117155 0.000086 0.251677
v 0.158989 0.005705 0.156691
v 0.252304 0.035079 0.146897
v 0.331121 0.025759 0.166574
v 0.356645 0.034350 0.243928
v 0.331042 0.032217 0.317960
v 0.258708 0.037519 0.344845
v 0.177114 0.021913 0.330880
v 0.255549 -0.021800 0.247199
v 0.255549 -0.018371 0.247199
v 0.255549 0.028144 0.247199
v 0.255549 0.025109 0.247199
v 0.255549 -0.009781 0.247199
v 0.255549 -0.014446 0.247199
v 0.255549 0.007217 0.247199
v 0.255549 0.012182 0.247199
v 0.255549 0.004787 0.247199
v -0.034490 0.364919 -0.078234
v -0.034490 0.331396 -0.078234
v -0.034490 0.345716 -0.078234
v -0.034490 0.371866 -0.078234
v -0.034490 0.348600 -0.078234
v -0.034490 0.385267 -0.078234
v -0.034490 0.345475 -0.078234
v -0.034490 0.387742 -0.078234
v -0.034490 0.367581 -0.078234
v -0.193894 0.358166 0.038833
v -0.229445 0.357674 -0.108089
v -0.122003 0.313117 -0.197397
v -0.004095 0.360892 -0.276715
v 0.082307 0.310468 -0.164010
v 0.129171 0.329108 -0.053171
v 0.074558 0.345943 0.070252
v -0.056059 0.308283 0.062613
v -0.189451 0.353192 0.035570
v -0.297439 0.277838 0.114876
v -0.393681 0.289008 -0.133239
v -0.223853 0.275935 -0.336081
v 0.013963 0.275989 -0.394639
v 0.199224 0.266929 -0.249873
v 0.290873 0.278715 -0.028409
v 0.151864 0.274405 0.175515
v -0.073492 0.257211 0.176456
v -0.241042 0.256793 0.073458
v -0.306042 0.179717 0.121194
v -0.309350 0.179717 -0.120325
v -0.216177 0.179717 -0.325629
v 0.010938 0.179717 -0.374880
v 0.222600 0.179717 -0.267041
v 0.326112 0.179717 -0.023012
v 0.136699 0.179717 0.154866
v -0.093255 0.179717 0.305512
v -0.326234 0.179717 0.136023
v -0.305968 0.078412 0.121140
v -0.358988 0.080981 -0.127926
v -0.201132 0.095043 -0.305143
v 0.010222 0.090877 -0.370209
v 0.198914 0.092620 -0.249645
v 0.285826 0.082254 -0.029182
v 0.142519 0.089776 0.162792
v -0.077524 0.094211 0.202783
v -0.241588 0.102436 0.073859
v -0.151664 0.048543 0.007819
v -0.180167 0.046741 -0.100542
v -0.143155 0.014073 -0.226199
v -0.010704 0.037938 -0.233555
v 0.130834 -0.005360 -0.199647
v 0.115604 0.042710 -0.055249
v 0.048663 0.052963 0.034992
v -0.058732 0.035214 0.080071
v -0.195519 -0.000552 0.040026
v -0.034490 -0.027252 -0.078234
v -0.034490 0.028707 -0.078234
v -0.034490 0.019211 -0.078234
v -0.034490 -0.040236 -0.078234
v -0.034490 0.024805 -0.078234
v -0.034490 0.027768 -0.078234
v -0.034490 0.032868 -0.078234
v -0.034490 0.028314 -0.078234
v -0.034490 -0.019166 -0.078234
vn -0.791373 0.000000 0.611334
vn 0.407188 -0.805852 0.429884
vn 0.076674 -0.922941 0.377229
vn -0.237696 -0.950427 -0.200473
vn 0.072202 -0.905052 -0.419128
vn -0.530154 -0.847494 0.026296
vn -0.228287 -0.954340 -0.192665
vn 0.500907 -0.829408 0.247336
vn 0.550325 -0.758647 -0.348709
vn 0.199230 -0.974916 0.099227
vn 0.101195 -0.972867 0.208063
vn -0.215739 -0.939578 0.265802
vn -0.273031 -0.961986 0.006088
vn -0.269207 -0.919046 -0.287892
vn -0.067502 -0.792649 -0.605930
vn 0.506794 -0.794108 -0.335489
vn 0.572710 -0.814979 -0.088388
vn 0.691772 -0.718148 0.075601
vn 0.239753 -0.767543 0.594471
vn -0.106420 -0.474827 0.873621
vn -0.636519 -0.495169 0.591314
vn -0.787982 -0.611800 -0.069177
vn -0.412194 -0.556400 -0.721468
vn 0.066679 -0.622651 -0.779654
vn 0.437730 -0.783185 -0.441604
vn 0.632594 -0.773772 0.033191
vn 0.610748 -0.532436 0.586087
vn 0.162028 0.374553 0.912939
vn -0.143390 0.238498 0.960499
vn -0.746439 0.141256 0.650288
vn -0.997033 -0.043524 -0.063495
vn -0.568181 -0.258698 -0.781183
vn 0.022626 -0.398798 -0.916760
vn 0.772933 -0.130598 -0.620902
vn 0.961047 0.119765 0.249087
vn 0.773118 0.085243 0.628508
vn 0.338186 0.467223 0.816904
vn -0.106709 0.553820 0.825770
vn -0.645141 0.509252 0.569610
vn -0.832095 0.553339 -0.037869
vn -0.501063 0.504838 -0.702905
vn 0.220041 0.687057 -0.692484
vn 0.577799 0.750698 -0.320314
vn 0.789757 0.595726 0.146270
vn 0.754583 0.582950 0.301287
vn 0.405853 0.854770 0.323500
vn 0.011162 0.888063 0.459587
vn -0.409502 0.824694 0.390112
vn -0.355539 0.934604 -0.010401
vn -0.113500 0.938952 -0.324788
vn 0.276452 0.872581 -0.402712
vn 0.461468 0.862315 -0.208469
vn 0.284570 0.933063 0.220029
vn 0.037788 0.984980 0.168485
vn 0.666981 0.739820 0.088339
vn 0.032669 0.999454 -0.004961
vn -0.093675 0.995603 -0.000135
vn -0.204387 0.901733 0.380925
vn 0.136666 0.984682 -0.108277
vn 0.268698 0.963218 0.003436
vn 0.128201 0.877497 0.462129
vn 0.279879 0.946774 0.159020
vn 0.791373 0.000000 -0.611334
vn 0.580372 0.000000 0.814351
vn 0.069469 -0.976684 -0.203131
vn -0.283125 -0.949717 0.133706
vn -0.317714 -0.934322 -0.161554
vn -0.153353 -0.901203 -0.405359
vn 0.329621 -0.833568 0.443299
vn 0.426331 -0.863957 -0.267993
vn -0.380097 -0.883762 0.272930
vn -0.523171 -0.834084 0.174917
vn -0.387687 -0.920702 0.044799
vn -0.486134 -0.865557 -0.120351
vn -0.285818 -0.932466 -0.220940
vn -0.018832 -0.875526 -0.482804
vn 0.228415 -0.932927 -0.278342
vn 0.340582 -0.939094 -0.045904
vn 0.157772 -0.965628 0.206568
vn -0.302378 -0.845184 0.440717
vn -0.121939 -0.942812 0.310219
vn -0.881578 -0.467588 0.064666
vn -0.687742 -0.725364 0.029294
vn -0.412861 -0.712889 -0.566865
vn 0.053881 -0.601036 -0.797403
vn 0.509691 -0.690760 -0.512899
vn 0.649977 -0.759502 -0.026205
vn 0.352599 -0.705291 0.615011
vn -0.173519 -0.658035 0.732722
vn -0.153008 -0.621516 0.768314
vn -0.835542 -0.443120 0.324829
vn -0.990440 -0.028880 -0.134887
vn -0.522313 0.136983 -0.841680
vn 0.056570 -0.345720 -0.936631
vn 0.715095 -0.271494 -0.644151
vn 0.952052 0.239081 0.190884
vn 0.397782 0.415670 0.817917
vn -0.137844 -0.022632 0.990195
vn -0.277503 -0.100757 0.955427
vn -0.809748 0.554602 0.191640
vn -0.767868 0.613518 -0.184321
vn -0.481023 0.583774 -0.654083
vn 0.115071 0.719954 -0.684415
vn 0.467909 0.867302 -0.169850
vn 0.462216 0.866705 0.187561
vn 0.391685 0.703061 0.593539
vn -0.037218 0.410487 0.911106
vn -0.327504 0.651515 0.684302
vn -0.559948 0.828490 -0.007857
vn -0.304563 0.924142 -0.230656
vn -0.004238 0.966236 -0.257623
vn 0.052429 0.990218 -0.129304
vn 0.211506 0.967878 -0.135932
vn 0.551555 0.834105 0.007475
vn 0.386374 0.862477 0.326876
vn -0.074244 0.910649 0.406456
vn -0.114503 0.948929 0.293976
vn -0.110825 0.990627 -0.079844
vn 0.021743 0.856471 -0.515737
vn 0.264046 0.878720 -0.397657
vn -0.016662 0.807861 -0.589138
vn 0.155807 0.847419 -0.507548
vn 0.405287 0.913411 0.037717
vn 0.101248 0.991977 0.075704
vn -0.071825 0.995338 0.064369
vn 0.580372 0.000000 0.814351
vn -0.831857 0.000000 -0.554991
vn 0.201316 -0.948851 0.243217
vn -0.014795 -0.773774 0.633289
vn 0.416018 -0.894771 0.162217
vn 0.320268 -0.854471 0.409033
vn -0.487079 -0.872311 -0.042756
vn -0.351329 -0.933480 0.071991
vn 0.114328 -0.971213 -0.208984
vn -0.179290 -0.966263 -0.184909
vn 0.345820 -0.913403 -0.214719
vn 0.396059 -0.918061 0.017322
vn 0.220978 -0.914790 0.338125
vn 0.100283 -0.883703 0.457178
vn -0.227583 -0.843773 0.486059
vn -0.210569 -0.945357 0.248921
vn -0.202456 -0.977363 -0.061428
vn -0.095700 -0.922051 -0.375052
vn -0.264055 -0.843583 -0.467593
vn 0.577354 -0.698342 -0.423061
vn 0.807176 -0.580713 -0.106018
vn 0.586071 -0.680181 0.440312
vn 0.094074 -0.757824 0.645641
vn -0.240717 -0.752044 0.613584
vn -0.495883 -0.801052 0.335286
vn -0.588317 -0.643626 -0.489518
vn -0.225149 -0.700880 -0.676813
vn 0.061960 -0.665144 -0.744140
vn 0.897254 -0.082683 -0.433703
vn 0.990950 0.009354 -0.133906
vn 0.823058 -0.185748 0.536724
vn 0.166543 -0.324030 0.931272
vn -0.456609 -0.276483 0.845615
vn -0.944696 0.266184 0.191563
vn -0.832301 0.026412 -0.553695
vn -0.218819 -0.068144 -0.973383
vn 0.155210 0.452332 -0.878240
vn 0.852256 0.423761 -0.306736
vn 0.801346 0.595417 -0.057652
vn 0.620547 0.646453 0.443869
vn 0.074367 0.614295 0.785564
vn -0.476636 0.712571 0.514841
vn -0.763378 0.621276 0.176835
vn -0.631016 0.639357 -0.439365
vn 0.011190 0.780875 -0.624587
vn 0.142433 0.758075 -0.636423
vn 0.457009 0.888892 -0.031832
vn 0.339612 0.929424 0.144341
vn 0.275076 0.950616 0.143741
vn -0.095495 0.956109 0.277014
vn -0.296396 0.871991 0.389592
vn -0.443657 0.860363 0.250887
vn -0.180545 0.900083 -0.396553
vn 0.134656 0.864780 -0.483760
vn 0.382863 0.909609 -0.161328
vn 0.192905 0.901041 0.388475
vn 0.185821 0.982389 0.019533
vn 0.349244 0.921983 -0.167262
vn -0.276608 0.926836 0.253896
vn 0.098706 0.790121 0.604951
vn -0.178327 0.982200 -0.059016
vn 0.137095 0.938189 -0.317815
vn 0.613761 0.761990 -0.206566
vn -0.831857 0.000000 -0.554991
vn -0.030191 0.000000 -0.999544
vn -0.044046 -0.964226 0.261397
vn -0.472782 -0.769645 0.429097
vn 0.442290 -0.804598 0.396235
vn -0.174594 -0.983240 0.052498
vn -0.421097 -0.895544 -0.143802
vn -0.127202 -0.883682 -0.450473
vn 0.220076 -0.945225 -0.241072
vn 0.552199 -0.655119 0.515650
vn 0.429502 -0.902671 0.026702
vn 0.235459 -0.910071 0.341072
vn 0.063707 -0.949055 0.308602
vn -0.235798 -0.921181 0.309556
vn -0.631294 -0.772670 -0.066699
vn -0.459008 -0.801849 -0.382558
vn -0.206004 -0.883651 -0.420384
vn 0.202854 -0.968731 -0.142864
vn 0.274300 -0.958342 0.079620
vn 0.800291 -0.557547 0.220624
vn 0.643128 -0.584202 0.495070
vn 0.006375 -0.488537 0.872520
vn -0.743887 -0.316928 0.588378
vn -0.688557 -0.721272 0.075210
vn -0.485994 -0.818799 -0.305578
vn -0.166729 -0.660905 -0.731714
vn 0.378953 -0.711974 -0.591176
vn 0.790370 -0.562370 -0.243014
vn 0.949542 0.165867 0.266193
vn 0.607884 0.446839 0.656363
vn -0.033610 0.280668 0.959216
vn -0.593021 -0.260001 0.762053
vn -0.985020 -0.150899 0.083452
vn -0.702377 0.053242 -0.709811
vn -0.008610 0.176554 -0.984253
vn 0.649921 0.278020 -0.707324
vn 0.905092 0.364700 -0.218638
vn 0.767417 0.566664 0.299937
vn 0.632894 0.493523 0.596557
vn 0.096262 0.400446 0.911250
vn -0.571928 0.632130 0.522790
vn -0.719009 0.694991 -0.003584
vn -0.436269 0.713737 -0.547950
vn 0.026889 0.708434 -0.705264
vn 0.485119 0.737254 -0.470230
vn 0.633778 0.538997 -0.554804
vn 0.541795 0.740878 0.396935
vn 0.384253 0.846754 0.367911
vn -0.051341 0.917502 0.394404
vn -0.433923 0.887511 0.155031
vn -0.395546 0.915982 -0.067235
vn -0.008362 0.934738 -0.355239
vn -0.031369 0.909371 -0.414801
vn 0.179921 0.876007 -0.447481
vn 0.176776 0.785815 -0.592659
vn -0.053035 0.996922 0.057739
vn 0.174739 0.980943 -0.084951
vn -0.113072 0.988538 -0.100033
vn -0.081793 0.996174 0.030766
vn -0.078559 0.964423 -0.252422
vn 0.025872 0.894765 -0.445787
vn -0.016272 0.954815 -0.296754
vn -0.118735 0.910938 -0.395088
vn -0.030191 0.000000 -0.999544
vn 0.729602 0.000000 0.683872
vn 0.243001 -0.965878 0.089605
vn 0.193886 -0.980878 0.016933
vn -0.357353 -0.838200 0.411971
vn -0.134026 -0.884814 0.446252
vn -0.020692 -0.997508 0.067446
vn -0.067607 -0.889444 -0.452017
vn -0.102892 -0.985314 0.136270
vn 0.147599 -0.979134 0.139684
vn 0.494238 -0.869220 0.013585
vn 0.410117 -0.909708 -0.065083
vn 0.206243 -0.948782 0.239326
vn -0.094178 -0.947432 0.305783
vn -0.162382 -0.915531 0.368014
vn -0.312856 -0.948222 0.054735
vn -0.278023 -0.958193 -0.067601
vn -0.088116 -0.974591 -0.205932
vn 0.211220 -0.899939 -0.381439
vn 0.630760 -0.704403 -0.325514
vn 0.658854 -0.740442 -0.132879
vn 0.527931 -0.703733 0.475446
vn 0.004801 -0.770324 0.637635
vn -0.363828 -0.813696 0.453351
vn -0.616547 -0.781091 0.098826
vn -0.568326 -0.721723 -0.395121
vn 0.058492 -0.470294 -0.880569
vn 0.547493 -0.285024 -0.786774
vn 0.875178 -0.095115 -0.474359
vn 0.996573 0.061172 -0.055685
vn 0.691802 0.182187 0.698726
vn 0.069836 -0.052148 0.996194
vn -0.652124 -0.240430 0.718976
vn -0.999391 0.028277 -0.020428
vn -0.695513 0.153897 -0.701839
vn 0.024646 -0.084910 -0.996084
vn 0.412415 -0.315475 -0.854628
vn 0.704909 0.471390 -0.529995
vn 0.773073 0.634097 0.016699
vn 0.497297 0.665289 0.556854
vn 0.017556 0.784146 0.620328
vn -0.433570 0.821949 0.369345
vn -0.634244 0.768655 -0.083089
vn -0.469629 0.733042 -0.492035
vn 0.048557 0.711717 -0.700786
vn 0.185846 0.797264 -0.574310
vn 0.431010 0.858330 -0.278388
vn 0.363731 0.919018 0.152004
vn 0.046183 0.913335 0.404582
vn -0.068249 0.972921 0.220832
vn -0.128661 0.983869 0.124287
vn -0.300650 0.952350 -0.051374
vn -0.140521 0.970063 -0.198071
vn 0.004690 0.975285 -0.220901
vn -0.148141 0.907500 -0.393063
vn 0.156248 0.987717 0.001449
vn -0.164329 0.881266 0.443132
vn -0.533795 0.738980 0.411061
vn 0.411522 0.836870 0.360969
vn -0.071235 0.917693 0.390851
vn -0.257502 0.926303 -0.275057
vn 0.207222 0.860819 -0.464812
vn -0.154415 0.938272 -0.309519
vn -0.729602 0.000000 -0.683872
vn 0.591922 0.000000 0.805995
vn 0.017130 -0.991526 0.128776
vn 0.055126 -0.992210 0.111716
vn 0.388503 -0.921382 -0.010957
vn -0.440103 -0.896929 0.042752
vn -0.145673 -0.969459 0.197303
vn -0.337025 -0.941494 -0.001827
vn 0.128470 -0.963527 -0.234757
vn -0.088708 -0.913086 -0.398000
vn 0.252079 -0.964743 0.075682
vn 0.225869 -0.971458 0.072475
vn 0.232936 -0.947150 0.220560
vn -0.035535 -0.971078 0.236104
vn -0.347016 -0.909583 0.228558
vn -0.256466 -0.961126 0.102285
vn -0.173727 -0.956642 -0.233783
vn 0.064086 -0.881342 -0.468112
vn 0.026184 -0.819605 -0.572330
vn 0.649553 -0.717093 -0.252702
vn 0.835078 -0.520785 0.177281
vn 0.545876 -0.568653 0.615347
vn -0.181532 -0.524451 0.831864
vn -0.498789 -0.717907 0.485612
vn -0.663112 -0.748499 0.005679
vn -0.383259 -0.558804 -0.735426
vn 0.030730 -0.750366 -0.660308
vn 0.362901 -0.752080 -0.550162
vn 0.965191 0.226089 -0.131490
vn 0.968696 0.135867 0.207769
vn 0.584180 0.086148 0.807039
vn -0.154369 0.082892 0.984530
vn -0.756009 -0.049532 0.652685
vn -0.976628 0.119895 -0.178392
vn -0.576129 -0.089892 -0.812400
vn 0.065285 -0.295355 -0.953154
vn 0.581178 0.285717 -0.761970
vn 0.863244 0.493827 -0.104618
vn 0.669363 0.715728 0.199216
vn 0.403160 0.652982 0.641153
vn -0.156359 0.642867 0.749850
vn -0.613421 0.590402 0.524538
vn -0.667408 0.712504 -0.216573
vn -0.333882 0.773894 -0.538154
vn 0.157590 0.864430 -0.477417
vn 0.332284 0.757161 -0.562400
vn 0.242117 0.968381 -0.060154
vn 0.306048 0.947750 0.090028
vn 0.177039 0.956723 0.230951
vn -0.008270 0.896966 0.442022
vn -0.307133 0.945678 0.106595
vn -0.136142 0.959626 -0.246135
vn -0.117296 0.965377 -0.232998
vn -0.026763 0.917592 -0.396621
vn -0.205618 0.739872 -0.640555
vn 0.387204 0.861420 0.328677
vn 0.160598 0.974880 0.154331
vn 0.325642 0.939566 0.105705
vn 0.229413 0.966292 0.116833
vn -0.306780 0.725764 -0.615754
vn -0.030193 0.974967 -0.220292
vn -0.188301 0.979252 -0.074894
vn -0.430658 0.831254 -0.351497
vn -0.591922 0.000000 -0.805995
usemtl phiras
f 1//1 10//10 2//2
f 10//10 11//11 2//2
f 2//2 11//11 3//3
f 11//11 12//12 3//3
f 3//3 12//12 4//4
f 12//12 13//13 4//4
f 4//4 13//13 5//5
f 13//13 14//14 5//5
f 5//5 14//14 6//6
f 14//14 15//15 6//6
f 6//6 15//15 7//7
f 15//15 16//16 7//7
f 7//7 16//16 8//8
f 16//16 17//17 8//8
f 8//8 17//17 9//9
f 17//17 18//18 9//9
f 10//10 19//19 11//11
f 19//19 20//20 11//11
f 11//11 20//20 12//12
f 20//20 21//21 12//12
f 12//12 21//21 13//13
f 21//21 22//22 13//13
f 13//13 22//22 14//14
f 22//22 23//23 14//14
f 14//14 23//23 15//15
f 23//23 24//24 15//15
f 15//15 24//24 16//16
f 24//24 25//25 16//16
f 16//16 25//25 17//17
f 25//25 26//26 17//17
f 17//17 26//26 18//18
f 26//26 27//27 18//18
f 19//19 28//28 20//20
f 28//28 29//29 20//20
f 20//20 29//29 21//21
f 29//29 30//30 21//21
f 21//21 30//30 22//22
f 30//30 31//31 22//22
f 22//22 31//31 23//23
f 31//31 32//32 23//23
f 23//23 32//32 24//24
f 32//32 33//33 24//24
f 24//24 33//33 25//25
f 33//33 34//34 25//25
f 25//25 34//34 26//26
f 34//34 35//35 26//26
f 26//26 35//35 27//27
f 35//35 36//36 27//27
f 28//28 37//37 29//29
f 37//37 38//38 29//29
f 29//29 38//38 30//30
f 38//38 39//39 30//30
f 30//30 39//39 31//31
f 39//39 40//40 31//31
f 31//31 40//40 32//32
f 40//40 41//41 32//32
f 32//32 41//41 33//33
f 41//41 42//42 33//33
f 33//33 42//42 34//34
f 42//42 43//43 34//34
f 34//34 43//43 35//35
f 43//43 44//44 35//35
f 35//35 44//44 36//36
f 44//44 45//45 36//36
f 37//37 46//46 38//38
f 46//46 47//47 38//38
f 38//38 47//47 39//39
f 47//47 48//48 39//39
f 39//39 48//48 40//40
f 48//48 49//49 40//40
f 40//40 49//49 41//41
f 49//49 50//50 41//41
f 41//41 50//50 42//42
f 50//50 51//51 42//42
f 42//42 51//51 43//43
f 51//51 52//52 43//43
f 43//43 52//52 44//44
f 52//52 53//53 44//44
f 44//44 53//53 45//45
f 53//53 54//54 45//45
f 46//46 55//55 47//47
f 55//55 56//56 47//47
f 47//47 56//56 48//48
f 56//56 57//57 48//48
f 48//48 57//57 49//49
f 57//57 58//58 49//49
f 49//49 58//58 50//50
f 58//58 59//59 50//50
f 50//50 59//59 51//51
f 59//59 60//60 51//51
f 51//51 60//60 52//52
f 60//60 61//61 52//52
f 52//52 61//61 53//53
f 61//61 62//62 53//53
f 53//53 62//62 54//54
f 62//62 63//63 54//54
f 64//64 73//73 65//65
f 73//73 74//74 65//65
f 65//65 74//74 66//66
f 74//74 75//75 66//66
f 66//66 75//75 67//67
f 75//75 76//76 67//67
f 67//67 76//76 68//68
f 76//76 77//77 68//68
f 68//68 77//77 69//69
f 77//77 78//78 69//69
f 69//69 78//78 70//70
f 78//78 79//79 70//70
f 70//70 79//79 71//71
f 79//79 80//80 71//71
f 71//71 80//80 72//72
f 80//80 81//81 72//72
f 73//73 82//82 74//74
f 82//82 83//83 74//74
f 74//74 83//83 75//75
f 83//83 84//84 75//75
f 75//75 84//84 76//76
f 84//84 85//85 76//76
f 76//76 85//85 77//77
f 85//85 86//86 77//77
f 77//77 86//86 78//78
f 86//86 87//87 78//78
f 78//78 87//87 79//79
f 87//87 88//88 79//79
f 79//79 88//88 80//80
f 88//88 89//89 80//80
f 80//80 89//89 81//81
f 89//89 90//90 81//81
f 82//82 91//91 83//83
f 91//91 92//92 83//83
f 83//83 92//92 84//84
f 92//92 93//93 84//84
f 84//84 93//93 85//85
f 93//93 94//94 85//85
f 85//85 94//94 86//86
f 94//94 95//95 86//86
f 86//86 95//95 87//87
f 95//95 96//96 87//87
f 87//87 96//96 88//88
f 96//96 97//97 88//88
f 88//88 97//97 89//89
f 97//97 98//98 89//89
f 89//89 98//98 90//90
f 98//98 99//99 90//90
f 91//91 100//100 92//92
f 100//100 101//101 92//92
f 92//92 101//101 93//93
f 101//101 102//102 93//93
f 93//93 102//102 94//94
f 102//102 103//103 94//94
f 94//94 103//103 95//95
f 103//103 104//104 95//95
f 95//95 104//104 96//96
f 104//104 105//105 96//96
f 96//96 105//105 97//97
f 105//105 106//106 97//97
f 97//97 106//106 98//98
f 106//106 107//107 98//98
f 98//98 107//107 99//99
f 107//107 108//108 99//99
f 100//100 109//109 101//101
f 109//109 110//110 101//101
f 101//101 110//110 102//102
f 110//110 111//111 102//102
f 102//102 111//111 103//103
f 111//111 112//112 103//103
f 103//103 112//112 104//104
f 112//112 113//113 104//104
f 104//104 113//113 105//105
f 113//113 114//114 105//105
f 105//105 114//114 106//106
f 114//114 115//115 106//106
f 106//106 115//115 107//107
f 115//115 116//116 107//107
f 107//107 116//116 108//108
f 116//116 117//117 108//108
f 109//109 118//118 110//110
f 118//118 119//119 110//110
f 110//110 119//119 111//111
f 119//119 120//120 111//111
f 111//111 120//120 112//112
f 120//120 121//121 112//112
f 112//112 121//121 113//113
f 121//121 122//122 113//113
f 113//113 122//122 114//114
f 122//122 123//123 114//114
f 114//114 123//123 115//115
f 123//123 124//124 115//115
f 115//115 124//124 116//116
f 124//124 125//125 116//116
f 116//116 125//125 117//117
f 125//125 126//126 117//117
f 127//127 136//136 128//128
f 136//136 137//137 128//128
f 128//128 137//137 129//129
f 137//137 138//138 129//129
f 129//129 138//138 130//130
f 138//138 139//139 130//130
f 130//130 139//139 131//131
f 139//139 140//140 131//131
f 131//131 140//140 132//132
f 140//140 141//141 132//132
f 132//132 141//141 133//133
f 141//141 142//142 133//133
f 133//133 142//142 134//134
f 142//142 143//143 134//134
f 134//134 143//143 135//135
f 143//143 144//144 135//135
f 136//136 145//145 137//137
f 145//145 146//146 137//137
f 137//137 146//146 138//138
f 146//146 147//147 138//138
f 138//138 147//147 139//139
f 147//147 148//148 139//139
f 139//139 148//148 140//140
f 148//148 149//149 140//140
f 140//140 149//149 141//141
f 149//149 150//150 141//141
f 141//141 150//150 142//142
f 150//150 151//151 142//142
f 142//142 151//151 143//143
f 151//151 152//152 143//143
f 143//143 152//152 144//144
f 152//152 153//153 144//144
f 145//145 154//154 146//146
f 154//154 155//155 146//146
f 146//146 155//155 147//147
f 155//155 156//156 147//147
f 147//147 156//156 148//148
f 156//156 157//157 148//148
f 148//148 157//157 149//149
f 157//157 158//158 149//149
f 149//149 158//158 150//150
f 158//158 159//159 150//150
f 150//150 159//159 151//151
f 159//159 160//160 151//151
f 151//151 160//160 152//152
f 160//160 161//161 152//152
f 152//152 161//161 153//153
f 161//161 162//162 153//153
f 154//154 163//163 155//155
f 163//163 164//164 155//155
f 155//155 164//164 156//156
f 164//164 165//165 156//156
f 156//156 165//165 157//157
f 165//165 166//166 157//157
f 157//157 166//166 158//158
f 166//166 167//167 158//158
f 158//158 167//167 159//159
f 167//167 168//168 159//159
f 159//159 168//168 160//160
f 168//168 169//169 160//160
f 160//160 169//169 161//161
f 169//169 170//170 161//161
f 161//161 170//170 162//162
f 170//170 171//171 162//162
f 163//163 172//172 164//164
f 172//172 173//173 164//164
f 164//164 173//173 165//165
f 173//173 174//174 165//165
f 165//165 174//174 166//166
f 174//174 175//175 166//166
f 166//166 175//175 167//167
f 175//175 176//176 167//167
f 167//167 176//176 168//168
f 176//176 177//177 168//168
f 168//168 177//177 169//169
f 177//177 178//178 169//169
f 169//169 178//178 170//170
f 178//178 179//179 170//170
f 170//170 179//179 171//171
f 179//179 180//180 171//171
f 172//172 181//181 173//173
f 181//181 182//182 173//173
f 173//173 182//182 174//174
f 182//182 183//183 174//174
f 174//174 183//183 175//175
f 183//183 184//184 175//175
f 175//175 184//184 176//176
f 184//184 185//185 176//176
f 176//176 185//185 177//177
f 185//185 186//186 177//177
f 177//177 186//186 178//178
f 186//186 187//187 178//178
f 178//178 187//187 179//179
f 187//187 188//188 179//179
f 179//179 188//188 180//180
f 188//188 189//189 180//180
f 190//190 199//199 191//191
f 199//199 200//200 191//191
f 191//191 200//200 192//192
f 200//200 201//201 192//192
f 192//192 201//201 193//193
f 201//201 202//202 193//193
f 193//193 202//202 194//194
f 202//202 203//203 194//194
f 194//194 203//203 195//195
f 203//203 204//204 195//195
f 195//195 204//204 196//196
f 204//204 205//205 196//196
f 196//196 205//205 197//197
f 205//205 206//206 197//197
f 197//197 206//206 198//198
f 206//206 207//207 198//198
f 199//199 208//208 200//200
f 208//208 209//209 200//200
f 200//200 209//209 201//201
f 209//209 210//210 201//201
f 201//201 210//210 202//202
f 210//210 211//211 202//202
f 202//202 211//211 203//203
f 211//211 212//212 203//203
f 203//203 212//212 204//204
f 212//212 213//213 204//204
f 204//204 213//213 205//205
f 213//213 214//214 205//205
f 205//205 214//214 206//206
f 214//214 215//215 206//206
f 206//206 215//215 207//207
f 215//215 216//216 207//207
f 208//208 217//217 209//209
f 217//217 218//218 209//209
f 209//209 218//218 210//210
f 218//218 219//219 210//210
f 210//210 219//219 211//211
f 219//219 220//220 211//211
f 211//211 220//220 212//212
f 220//220 221//221 212//212
f 212//212 221//221 213//213
f 221//221 222//222 213//213
f 213//213 222//222 214//214
f 222//222 223//223 214//214
f 214//214 223//223 215//215
f 223//223 224//224 215//215
f 215//215 224//224 216//216
f 224//224 225//225 216//216
f 217//217 226//226 218//218
f 226//226 227//227 218//218
f 218//218 227//227 219//219
f 227//227 228//228 219//219
f 219//219 228//228 220//220
f 228//228 229//229 220//220
f 220//220 229//229 221//221
f 229//229 230//230 221//221
f 221//221 230//230 222//222
f 230//230 231//231 222//222
f 222//222 231//231 223//223
f 231//231 232//232 223//223
f 223//223 232//232 224//224
f 232//232 233//233 224//224
f 224//224 233//233 225//225
f 233//233 234//234 225//225
f 226//226 235//235 227//227
f 235//235 236//236 227//227
f 227//227 236//236 228//228
f 236//236 237//237 228//228
f 228//228 237//237 229//229
f 237//237 238//238 229//229
f 229//229 238//238 230//230
f 238//238 239//239 230//230
f 230//230 239//239 231//231
f 239//239 240//240 231//231
f 231//231 240//240 232//232
f 240//240 241//241 232//232
f 232//232 241//241 233//233
f 241//241 242//242 233//233
f 233//233 242//242 234//234
f 242//242 243//243 234//234
f 235//235 244//244 236//236
f 244//244 245//245 236//236
f 236//236 245//245 237//237
f 245//245 246//246 237//237
f 237//237 246//246 238//238
f 246//246 247//247 238//238
f 238//238 247//247 239//239
f 247//247 248//248 239//239
f 239//239 248//248 240//240
f 248//248 249//249 240//240
f 240//240 249//249 241//241
f 249//249 250//250 241//241
f 241//241 250//250 242//242
f 250//250 251//251 242//242
f 242//242 251//251 243//243
f 251//251 252//252 243//243
f 253//253 262//262 254//254
f 262//262 263//263 254//254
f 254//254 263//263 255//255
f 263//263 264//264 255//255
f 255//255 264//264 256//256
f 264//264 265//265 256//256
f 256//256 265//265 257//257
f 265//265 266//266 257//257
f 257//257 266//266 258//258
f 266//266 267//267 258//258
f 258//258 267//267 259//259
f 267//267 268//268 259//259
f 259//259 268//268 260//260
f 268//268 269//269 260//260
f 260//260 269//269 261//261
f 269//269 270//270 261//261
f 262//262 271//271 263//263
f 271//271 272//272 263//263
f 263//263 272//272 264//264
f 272//272 273//273 264//264
f 264//264 273//273 265//265
f 273//273 274//274 265//265
f 265//265 274//274 266//266
f 274//274 275//275 266//266
f 266//266 275//275 267//267
f 275//275 276//276 267//267
f 267//267 276//276 268//268
f 276//276 277//277 268//268
f 268//268 277//277 269//269
f 277//277 278//278 269//269
f 269//269 278//278 270//270
f 278//278 279//279 270//270
f 271//271 280//280 272//272
f 280//280 281//281 272//272
f 272//272 281//281 273//273
f 281//281 282//282 273//273
f 273//273 282//282 274//274
f 282//282 283//283 274//274
f 274//274 283//283 275//275
f 283//283 284//284 275//275
f 275//275 284//284 276//276
f 284//284 285//285 276//276
f 276//276 285//285 277//277
f 285//285 286//286 277//277
f 277//277 286//286 278//278
f 286//286 287//287 278//278
f 278//278 287//287 279//279
f 287//287 288//288 279//279
f 280//280 289//289 281//281
f 289//289 290//290 281//281
f 281//281 290//290 282//282
f 290//290 291//291 282//282
f 282//282 291//291 283//283
f 291//291 292//292 283//283
f 283//283 292//292 284//284
f 292//292 293//293 284//284
f 284//284 293//293 285//285
f 293//293 294//294 285//285
f 285//285 294//294 286//286
f 294//294 295//295 286//286
f 286//286 295//295 287//287
f 295//295 296//296 287//287
f 287//287 296//296 288//288
f 296//296 297//297 288//288
f 289//289 298//298 290//290
f 298//298 299//299 290//290
f 290//290 299//299 291//291
f 299//299 300//300 291//291
f 291//291 300//300 292//292
f 300//300 301//301 292//292
f 292//292 301//301 293//293
f 301//301 302//302 293//293
f 293//293 302//302 294//294
f 302//302 303//303 294//294
f 294//294 303//303 295//295
f 303//303 304//304 295//295
f 295//295 304//304 296//296
f 304//304 305//305 296//296
f 296//296 305//305 297//297
f 305//305 306//306 297//297
f 298//298 307//307 299//299
f 307//307 308//308 299//299
f 299//299 308//308 300//300
f 308//308 309//309 300//300
f 300//300 309//309 301//301
f 309//309 310//310 301//301
f 301//301 310//310 302//302
f 310//310 311//311 302//302
f 302//302 311//311 303//303
f 311//311 312//312 303//303
f 303//303 312//312 304//304
f 312//312 313//313 304//304
f 304//304 313//313 305//305
f 313//313 314//314 305//305
f 305//305 314//314 306//306
f 314//314 315//315 306//306
f 316//316 325//325 317//317
f 325//325 326//326 317//317
f 317//317 326//326 318//318
f 326//326 327//327 318//318
f 318//318 327//327 319//319
f 327//327 328//328 319//319
f 319//319 328//328 320//320
f 328//328 329//329 320//320
f 320//320 329//329 321//321
f 329//329 330//330 321//321
f 321//321 330//330 322//322
f 330//330 331//331 322//322
f 322//322 331//331 323//323
f 331//331 332//332 323//323
f 323//323 332//332 324//324
f 332//332 333//333 324//324
f 325//325 334//334 326//326
f 334//334 335//335 326//326
f 326//326 335//335 327//327
f 335//335 336//336 327//327
f 327//327 336//336 328//328
f 336//336 337//337 328//328
f 328//328 337//337 329//329
f 337//337 338//338 329//329
f 329//329 338//338 330//330
f 338//338 339//339 330//330
f 330//330 339//339 331//331
f 339//339 340//340 331//331
f 331//331 340//340 332//332
f 340//340 341//341 332//332
f 332//332 341//341 333//333
f 341//341 342//342 333//333
f 334//334 343//343 335//335
f 343//343 344//344 335//335
f 335//335 344//344 336//336
f 344//344 345//345 336//336
f 336//336 345//345 337//337
f 345//345 346//346 337//337
f 337//337 346//346 338//338
f 346//346 347//347 338//338
f 338//338 347//347 339//339
f 347//347 348//348 339//339
f 339//339 348//348 340//340
f 348//348 349//349 340//340
f 340//340 349//349 341//341
f 349//349 350//350 341//341
f 341//341 350//350 342//342
f 350//350 351//351 342//342
f 343//343 352//352 344//344
f 352//352 353//353 344//344
f 344//344 353//353 345//345
f 353//353 354//354 345//345
f 345//345 354//354 346//346
f 354//354 355//355 346//346
f 346//346 355//355 347//347
f 355//355 356//356 347//347
f 347//347 356//356 348//348
f 356//356 357//357 348//348
f 348//348 357//357 349//349
f 357//357 358//358 349//349
f 349//349 358//358 350//350
f 358//358 359//359 350//350
f 350//350 359//359 351//351
f 359//359 360//360 351//351
f 352//352 361//361 353//353
f 361//361 362//362 353//353
f 353//353 362//362 354//354
f 362//362 363//363 354//354
f 354//354 363//363 355//355
f 363//363 364//364 355//355
f 355//355 364//364 356//356
f 364//364 365//365 356//356
f 356//356 365//365 357//357
f 365//365 366//366 357//357
f 357//357 366//366 358//358
f 366//366 367//367 358//358
f 358//358 367//367 359//359
f 367//367 368//368 359//359
f 359//359 368//368 360//360
f 368//368 369//369 360//360
f 361//361 370//370 362//362
f 370//370 371//371 362//362
f 362//362 371//371 363//363
f 371//371 372//372 363//363
f 363//363 372//372 364//364
f 372//372 373//373 364//364
f 364//364 373//373 365//365
f 373//373 374//374 365//365
f 365//365 374//374 366//366
f 374//374 375//375 366//366
f 366//366 375//375 367//367
f 375//375 376//376 367//367
f 367//367 376//376 368//368
f 376//376 377//377 368//368
f 368//368 377//377 369//369
f 377//377 378//378 369//369
