# Gisement de sibur — généré par generate_minerals.py
mtllib sibur.mtl
o sibur_deposit
v -0.246229 0.400089 0.119188
v -0.246229 0.435366 0.119188
v -0.246229 0.393718 0.119188
v -0.246229 0.469333 0.119188
v -0.246229 0.471505 0.119188
v -0.246229 0.465759 0.119188
v -0.246229 0.430932 0.119188
v -0.246229 0.428229 0.119188
v -0.246229 0.449560 0.119188
v -0.150762 0.398479 -0.001469
v -0.069021 0.425357 0.098534
v -0.115421 0.412650 0.222687
v -0.230339 0.380304 0.255521
v -0.324834 0.368729 0.218535
v -0.408096 0.408448 0.138054
v -0.389059 0.429434 0.006177
v -0.260906 0.368829 -0.006734
v -0.168557 0.367081 0.021022
v -0.080432 0.327548 -0.090356
v 0.010105 0.324215 0.089312
v -0.031478 0.329971 0.289105
v -0.218925 0.316105 0.353448
v -0.425023 0.335192 0.345159
v -0.537448 0.337031 0.153131
v -0.461874 0.330387 -0.051436
v -0.276512 0.325496 -0.140634
v -0.078708 0.328562 -0.092535
v -0.015565 0.230037 -0.172339
v 0.091436 0.230037 0.079832
v -0.045762 0.230037 0.277803
v -0.214858 0.230037 0.388337
v -0.401693 0.230037 0.315674
v -0.511342 0.230037 0.150088
v -0.447416 0.230037 -0.039996
v -0.281008 0.230037 -0.179205
v -0.019709 0.230037 -0.167102
v -0.098762 0.143307 -0.067190
v 0.024628 0.130524 0.087619
v -0.039164 0.133681 0.283023
v -0.212837 0.124778 0.405684
v -0.396253 0.141803 0.308798
v -0.500301 0.136691 0.148801
v -0.464750 0.128350 -0.053711
v -0.277393 0.131802 -0.148192
v -0.108045 0.148767 -0.055457
v -0.162611 0.082502 0.013506
v -0.103459 0.072676 0.102548
v -0.150000 0.095699 0.195327
v -0.224665 0.026121 0.304196
v -0.325606 0.089984 0.219510
v -0.369084 0.094626 0.133507
v -0.378404 0.045516 0.014608
v -0.260716 0.093035 -0.005110
v -0.156691 0.072057 0.006025
v -0.246229 0.066683 0.119188
v -0.246229 0.026521 0.119188
v -0.246229 -0.002830 0.119188
v -0.246229 0.042920 0.119188
v -0.246229 0.004159 0.119188
v -0.246229 0.060365 0.119188
v -0.246229 0.013280 0.119188
v -0.246229 0.006298 0.119188
v -0.246229 0.060651 0.119188
v 0.126279 0.640017 0.308103
v -0.047131 0.645676 0.225571
v 0.122307 -0.003027 0.306213
v -0.027416 0.051585 0.234954
v 0.080207 0.188310 0.183366
v 0.100341 0.495337 0.141063
v -0.022805 0.116952 0.399808
v -0.021684 0.501386 0.397452
v -0.086095 0.310891 0.281069
v -0.026934 0.310891 0.162966
v 0.144286 0.310891 0.428332
v 0.166314 0.310891 0.253354
v -0.203831 0.422564 0.020611
v -0.203831 0.478379 0.020611
v -0.203831 0.482326 0.020611
v -0.203831 0.506689 0.020611
v -0.203831 0.441359 0.020611
v -0.203831 0.520793 0.020611
v -0.203831 0.474554 0.020611
v -0.203831 0.516535 0.020611
v -0.203831 0.440631 0.020611
v -0.391173 0.442981 -0.006765
v -0.310257 0.430718 -0.122243
v -0.180365 0.413347 -0.139970
v -0.037847 0.462324 -0.103047
v -0.021382 0.437563 0.047273
v -0.070315 0.480403 0.199827
v -0.227894 0.417870 0.185277
v -0.374722 0.469029 0.147925
v -0.423103 0.478340 -0.011431
v -0.483162 0.338630 -0.020208
v -0.384559 0.346012 -0.221977
v -0.156371 0.355405 -0.304166
v 0.097742 0.372878 -0.204061
v 0.088640 0.343480 0.063350
v -0.033618 0.339583 0.249084
v -0.252278 0.357899 0.352143
v -0.509099 0.374561 0.248035
v -0.477466 0.336527 -0.019376
v -0.550881 0.235520 -0.030104
v -0.379222 0.235520 -0.214813
v -0.151872 0.235520 -0.334952
v 0.128640 0.235520 -0.227080
v 0.167228 0.235520 0.074835
v 0.039326 0.235520 0.346997
v -0.267331 0.235520 0.455148
v -0.564366 0.235520 0.289210
v -0.600728 0.235520 -0.037388
v -0.457538 0.141868 -0.016463
v -0.433123 0.095337 -0.287163
v -0.163260 0.133035 -0.257026
v 0.101923 0.096256 -0.207176
v 0.067499 0.135363 0.060261
v -0.027132 0.127491 0.257791
v -0.255509 0.104980 0.374249
v -0.485288 0.107324 0.230296
v -0.510118 0.122459 -0.024147
v -0.393013 0.026020 -0.007034
v -0.323214 0.016557 -0.139635
v -0.180587 0.059371 -0.138454
v -0.077569 0.062993 -0.073454
v -0.056989 0.072906 0.042069
v -0.100543 0.046077 0.159252
v -0.226399 0.064498 0.175046
v -0.328099 0.065718 0.113191
v -0.427556 -0.012232 -0.012082
v -0.203831 0.024680 0.020611
v -0.203831 0.026135 0.020611
v -0.203831 0.003425 0.020611
v -0.203831 0.002022 0.020611
v -0.203831 0.025776 0.020611
v -0.203831 0.043426 0.020611
v -0.203831 0.026117 0.020611
v -0.203831 0.013568 0.020611
v -0.203831 0.016580 0.020611
v -0.246290 0.306488 -0.120030
v -0.246290 0.304104 -0.120030
v -0.246290 0.285321 -0.120030
v -0.246290 0.313129 -0.120030
v -0.246290 0.310169 -0.120030
v -0.246290 0.336225 -0.120030
v -0.246290 0.324841 -0.120030
v -0.246290 0.301990 -0.120030
v -0.246290 0.314562 -0.120030
v -0.308610 0.323542 -0.240658
v -0.210539 0.303290 -0.232204
v -0.149663 0.293218 -0.169950
v -0.144313 0.291277 -0.087528
v -0.194047 0.298899 -0.018906
v -0.282695 0.305702 -0.005809
v -0.362947 0.318525 -0.059762
v -0.366164 0.312361 -0.158236
v -0.303018 0.309867 -0.229835
v -0.333288 0.242054 -0.288425
v -0.181370 0.251126 -0.323722
v -0.092523 0.235893 -0.199470
v -0.086827 0.233757 -0.069206
v -0.172745 0.231087 0.022326
v -0.313528 0.253982 0.090934
v -0.453104 0.258234 -0.013185
v -0.423963 0.240908 -0.176657
v -0.321765 0.232661 -0.266122
v -0.333216 0.171134 -0.288286
v -0.185617 0.171134 -0.310397
v -0.014699 0.171134 -0.239676
v -0.012617 0.171134 -0.045555
v -0.132398 0.171134 0.100425
v -0.320981 0.171134 0.114320
v -0.435199 0.171134 -0.022435
v -0.434062 0.171134 -0.179876
v -0.371181 0.171134 -0.361773
v -0.350763 0.085969 -0.322252
v -0.195670 0.108762 -0.278854
v -0.071223 0.097405 -0.210475
v -0.068587 0.101348 -0.063393
v -0.170277 0.109168 0.027105
v -0.315192 0.086236 0.096156
v -0.382093 0.113941 -0.049871
v -0.403704 0.109316 -0.170201
v -0.322433 0.109063 -0.267414
v -0.298795 0.042729 -0.221661
v -0.204930 0.018247 -0.249801
v -0.148776 0.047930 -0.170409
v -0.135387 0.040476 -0.084684
v -0.204230 0.068272 -0.038616
v -0.275758 0.062206 -0.027572
v -0.342047 0.050150 -0.070560
v -0.376665 0.017535 -0.161583
v -0.299013 0.042196 -0.222083
v -0.246290 0.011321 -0.120030
v -0.246290 0.037275 -0.120030
v -0.246290 -0.003850 -0.120030
v -0.246290 0.014490 -0.120030
v -0.246290 0.025688 -0.120030
v -0.246290 0.051776 -0.120030
v -0.246290 0.049815 -0.120030
v -0.246290 0.042830 -0.120030
v -0.246290 0.015472 -0.120030
v 0.044006 0.701365 -0.118746
v -0.105546 0.565995 -0.196284
v 0.027605 0.001790 -0.127250
v -0.123386 -0.007930 -0.205533
v 0.014015 0.127156 -0.282986
v 0.007167 0.485121 -0.269777
v -0.115622 0.101807 -0.032946
v -0.104431 0.496913 -0.054531
v -0.177667 0.316828 -0.155924
v -0.112481 0.316828 -0.275735
v 0.043718 0.316828 -0.014511
v 0.106314 0.316828 -0.177338
v -0.136552 0.500981 -0.322553
v -0.049431 0.564322 -0.435621
v -0.144319 0.078563 -0.312472
v -0.033704 -0.025529 -0.456032
v 0.004477 0.153481 -0.291190
v -0.003352 0.454032 -0.297222
v -0.190079 0.172696 -0.441098
v -0.204222 0.467919 -0.451995
v -0.086476 0.309653 -0.494029
v 0.046151 0.309653 -0.425880
v -0.253959 0.309653 -0.312670
v -0.112733 0.309653 -0.239824
vn 0.784214 0.000000 0.620490
vn 0.149806 -0.985502 0.079646
vn -0.231346 -0.969612 0.079572
vn -0.378846 -0.924276 -0.046784
vn 0.332100 -0.781316 -0.528445
vn 0.312644 -0.896490 -0.313942
vn 0.136431 -0.980321 0.142678
vn -0.236254 -0.860267 0.451801
vn 0.016909 -0.842620 0.538244
vn -0.023761 -0.896469 0.442469
vn -0.385027 -0.917878 0.096198
vn -0.380364 -0.887279 -0.260883
vn 0.075354 -0.797590 -0.598475
vn 0.092003 -0.887480 -0.451569
vn 0.264023 -0.934460 -0.238905
vn 0.247249 -0.910812 0.330589
vn -0.081487 -0.852072 0.517043
vn -0.100328 -0.927398 0.360372
vn -0.597723 -0.711213 0.370004
vn -0.728539 -0.677008 0.104355
vn -0.608270 -0.534572 -0.586719
vn -0.169157 -0.632948 -0.755488
vn 0.357054 -0.617247 -0.701084
vn 0.904977 -0.397261 -0.152315
vn 0.671529 -0.396182 0.626170
vn 0.168888 -0.709251 0.684427
vn -0.094418 -0.716268 0.691409
vn -0.908353 -0.119894 0.400650
vn -0.982257 0.187030 0.013836
vn -0.713825 0.083822 -0.695289
vn -0.162052 -0.131497 -0.977981
vn 0.644378 0.168434 -0.745927
vn 0.979592 0.174002 -0.100609
vn 0.810201 -0.059037 0.583172
vn 0.233264 -0.197018 0.952246
vn -0.177708 0.225070 0.958000
vn -0.543113 0.755516 0.366365
vn -0.709408 0.704503 0.020389
vn -0.594981 0.597186 -0.537928
vn -0.084958 0.511815 -0.854885
vn 0.626156 0.542426 -0.560092
vn 0.778719 0.623401 -0.070486
vn 0.702944 0.520756 0.484441
vn -0.044586 0.770156 0.636296
vn -0.230818 0.871791 0.432093
vn -0.274734 0.915240 0.294716
vn -0.277620 0.960462 -0.020953
vn -0.497737 0.842472 -0.206150
vn 0.080783 0.937305 -0.339018
vn 0.423965 0.890921 -0.162828
vn 0.449951 0.886950 -0.104232
vn 0.231674 0.957996 0.169028
vn -0.157171 0.870526 0.466349
vn -0.170599 0.825318 0.538280
vn 0.019096 0.877189 0.479766
vn -0.436175 0.872904 0.218608
vn -0.517316 0.853536 0.062142
vn 0.655172 0.737485 -0.163908
vn 0.391418 0.919418 0.038247
vn 0.499203 0.808704 -0.311118
vn 0.094390 0.965482 0.242763
vn -0.263894 0.925445 0.271867
vn -0.784214 0.000000 -0.620490
vn 0.772388 0.568512 0.283215
vn -0.767253 0.517404 -0.378967
vn 0.770208 -0.621174 0.144645
vn -0.700288 -0.534653 -0.473015
vn 0.388914 -0.265892 -0.882070
vn 0.419709 0.198005 -0.885798
vn -0.509491 -0.285072 0.811882
vn -0.486631 0.260798 0.833771
vn -0.998895 -0.021371 0.041854
vn -0.533905 -0.046818 -0.844247
vn 0.586450 -0.003151 0.809979
vn 0.977738 -0.024192 -0.208431
vn 0.144596 0.000000 -0.989491
vn 0.231800 -0.945983 -0.226685
vn 0.129840 -0.912284 0.388432
vn 0.010447 -0.984810 0.173319
vn -0.350587 -0.936112 -0.027968
vn -0.236338 -0.897780 0.371665
vn 0.383587 -0.807271 -0.448525
vn -0.078161 -0.985938 -0.147705
vn 0.109912 -0.928520 0.354641
vn 0.432196 -0.895327 0.107685
vn 0.295107 -0.870732 0.393366
vn 0.140520 -0.886675 0.440525
vn -0.147014 -0.963270 0.224719
vn -0.495066 -0.867127 0.054774
vn -0.273899 -0.841168 -0.466278
vn -0.078783 -0.850149 -0.520616
vn 0.096679 -0.952658 -0.288263
vn 0.525938 -0.850503 0.005878
vn 0.658092 -0.665709 0.351777
vn 0.519931 -0.595202 0.612704
vn 0.098096 -0.645526 0.757412
vn -0.609069 -0.638897 0.469942
vn -0.811234 -0.559130 -0.171095
vn -0.477471 -0.689773 -0.544274
vn -0.094312 -0.793874 -0.600723
vn 0.613867 -0.664232 -0.426571
vn 0.847424 -0.525917 0.072695
vn 0.791221 0.096691 0.603837
vn 0.662486 -0.128726 0.737931
vn -0.065642 -0.016180 0.997712
vn -0.788022 -0.014189 0.615483
vn -0.977564 -0.036824 -0.207395
vn -0.668390 -0.035688 -0.742954
vn 0.064879 -0.008209 -0.997859
vn 0.846520 0.021058 -0.531940
vn 0.989940 0.106180 -0.093516
vn 0.940474 0.235151 0.245381
vn 0.583947 0.440357 0.681977
vn -0.173671 0.665501 0.725911
vn -0.510689 0.810783 0.286054
vn -0.546964 0.809085 -0.214972
vn -0.450106 0.741312 -0.497856
vn 0.096005 0.799324 -0.593181
vn 0.490930 0.845430 -0.210323
vn 0.604626 0.769661 -0.205059
vn 0.534884 0.844342 0.031401
vn -0.058550 0.948883 0.310149
vn -0.117702 0.931326 0.344643
vn -0.292448 0.956272 0.004265
vn -0.456396 0.886064 -0.081204
vn -0.198216 0.953378 -0.227554
vn 0.106678 0.977910 -0.179753
vn 0.263082 0.904625 -0.335322
vn 0.334104 0.665361 -0.667585
vn 0.007620 0.998386 -0.056286
vn -0.148276 0.970523 0.189999
vn -0.024636 0.941583 0.335878
vn -0.399108 0.899062 -0.180000
vn -0.167761 0.968722 -0.182847
vn 0.115887 0.967302 -0.225602
vn -0.070258 0.944245 -0.321661
vn -0.066058 0.841926 -0.535534
vn -0.144596 0.000000 0.989491
vn -0.888441 0.000000 0.458991
vn -0.380345 -0.919954 -0.094991
vn -0.080212 -0.994866 0.061703
vn -0.029655 -0.962559 0.269446
vn -0.426400 -0.899670 0.093690
vn -0.250152 -0.961074 -0.117307
vn 0.196867 -0.975869 0.094461
vn 0.050669 -0.985346 0.162870
vn 0.049054 -0.994108 -0.096660
vn -0.232179 -0.867637 0.439658
vn -0.155021 -0.925802 0.344758
vn -0.387553 -0.901201 0.194007
vn -0.497122 -0.865211 -0.065413
vn -0.418749 -0.815673 -0.399158
vn -0.110704 -0.888003 -0.446313
vn 0.226219 -0.954784 -0.192903
vn 0.418365 -0.896006 0.148810
vn 0.420209 -0.776062 0.470269
vn 0.107707 -0.530577 0.840766
vn -0.268251 -0.486753 0.831332
vn -0.658026 -0.663571 0.355915
vn -0.638702 -0.744647 -0.193805
vn -0.424708 -0.748319 -0.509550
vn 0.041031 -0.723871 -0.688714
vn 0.817262 -0.460442 -0.346519
vn 0.856153 -0.328495 0.398864
vn 0.639533 -0.575784 0.509382
vn 0.171615 -0.097740 0.980304
vn -0.282665 -0.042196 0.958290
vn -0.816952 -0.209124 0.537454
vn -0.937762 -0.136220 -0.319446
vn -0.488171 0.034138 -0.872080
vn 0.311493 0.191565 -0.930739
vn 0.901269 0.342603 -0.265211
vn 0.971722 0.001293 0.236123
vn 0.906540 0.112461 0.406864
vn -0.171982 0.399624 0.900402
vn -0.266691 0.538307 0.799438
vn -0.652710 0.697357 0.296078
vn -0.598703 0.749448 -0.282634
vn -0.295257 0.722977 -0.624602
vn 0.263946 0.806799 -0.528591
vn 0.687445 0.705983 -0.170315
vn 0.826327 0.541877 0.153469
vn 0.544632 0.628673 0.555110
vn 0.075590 0.824098 0.561381
vn -0.236714 0.864183 0.444021
vn -0.441714 0.892196 0.094209
vn -0.345272 0.870402 -0.350980
vn -0.126524 0.896859 -0.423835
vn 0.221179 0.943535 -0.246622
vn 0.456017 0.790012 -0.409792
vn 0.454621 0.873523 0.174002
vn 0.183070 0.928615 0.322737
vn 0.000352 0.998573 0.053408
vn -0.324842 0.944036 0.057219
vn -0.137848 0.927098 0.348550
vn 0.126493 0.709177 -0.693590
vn 0.329362 0.877733 -0.348003
vn 0.217191 0.974200 -0.061332
vn -0.122543 0.919588 -0.373283
vn 0.047143 0.994013 -0.098567
vn 0.888441 0.000000 -0.458991
vn 0.708476 0.633230 0.311580
vn -0.761187 0.494512 -0.419585
vn 0.755981 -0.570163 0.321569
vn -0.742324 -0.513641 -0.430265
vn 0.418364 -0.230733 -0.878484
vn 0.361309 0.246157 -0.899368
vn -0.496916 -0.243388 0.832969
vn -0.544384 0.264303 0.796109
vn -0.999398 0.030468 0.016568
vn -0.532438 0.027752 -0.846014
vn 0.511270 -0.007310 0.859389
vn 0.990792 -0.010975 -0.134950
vn -0.421278 0.632684 0.649796
vn 0.443214 0.663573 -0.602687
vn -0.494884 -0.589625 0.638304
vn 0.409991 -0.634630 -0.655097
vn 0.710693 -0.268898 0.650084
vn 0.703339 0.324863 0.632280
vn -0.753120 -0.282438 -0.594171
vn -0.737395 0.311194 -0.599506
vn 0.063849 0.019082 -0.997777
vn 0.930540 0.033253 -0.364677
vn -0.923090 0.009231 0.384473
vn -0.098326 0.022392 0.994902
usemtl sibur
f 1//1 10//10 2//2
f 10//10 11//11 2//2
f 2//2 11//11 3//3
f 11//11 12//12 3//3
f 3//3 12//12 4//4
f 12//12 13//13 4//4
f 4//4 13//13 5//5
f 13//13 14//14 5//5
f 5//5 14//14 6//6
f 14//14 15//15 6//6
f 6//6 15//15 7//7
f 15//15 16//16 7//7
f 7//7 16//16 8//8
f 16//16 17//17 8//8
f 8//8 17//17 9//9
f 17//17 18//18 9//9
f 10//10 19//19 11//11
f 19//19 20//20 11//11
f 11//11 20//20 12//12
f 20//20 21//21 12//12
f 12//12 21//21 13//13
f 21//21 22//22 13//13
f 13//13 22//22 14//14
f 22//22 23//23 14//14
f 14//14 23//23 15//15
f 23//23 24//24 15//15
f 15//15 24//24 16//16
f 24//24 25//25 16//16
f 16//16 25//25 17//17
f 25//25 26//26 17//17
f 17//17 26//26 18//18
f 26//26 27//27 18//18
f 19//19 28//28 20//20
f 28//28 29//29 20//20
f 20//20 29//29 21//21
f 29//29 30//30 21//21
f 21//21 30//30 22//22
f 30//30 31//31 22//22
f 22//22 31//31 23//23
f 31//31 32//32 23//23
f 23//23 32//32 24//24
f 32//32 33//33 24//24
f 24//24 33//33 25//25
f 33//33 34//34 25//25
f 25//25 34//34 26//26
f 34//34 35//35 26//26
f 26//26 35//35 27//27
f 35//35 36//36 27//27
f 28//28 37//37 29//29
f 37//37 38//38 29//29
f 29//29 38//38 30//30
f 38//38 39//39 30//30
f 30//30 39//39 31//31
f 39//39 40//40 31//31
f 31//31 40//40 32//32
f 40//40 41//41 32//32
f 32//32 41//41 33//33
f 41//41 42//42 33//33
f 33//33 42//42 34//34
f 42//42 43//43 34//34
f 34//34 43//43 35//35
f 43//43 44//44 35//35
f 35//35 44//44 36//36
f 44//44 45//45 36//36
f 37//37 46//46 38//38
f 46//46 47//47 38//38
f 38//38 47//47 39//39
f 47//47 48//48 39//39
f 39//39 48//48 40//40
f 48//48 49//49 40//40
f 40//40 49//49 41//41
f 49//49 50//50 41//41
f 41//41 50//50 42//42
f 50//50 51//51 42//42
f 42//42 51//51 43//43
f 51//51 52//52 43//43
f 43//43 52//52 44//44
f 52//52 53//53 44//44
f 44//44 53//53 45//45
f 53//53 54//54 45//45
f 46//46 55//55 47//47
f 55//55 56//56 47//47
f 47//47 56//56 48//48
f 56//56 57//57 48//48
f 48//48 57//57 49//49
f 57//57 58//58 49//49
f 49//49 58//58 50//50
f 58//58 59//59 50//50
f 50//50 59//59 51//51
f 59//59 60//60 51//51
f 51//51 60//60 52//52
f 60//60 61//61 52//52
f 52//52 61//61 53//53
f 61//61 62//62 53//53
f 53//53 62//62 54//54
f 62//62 63//63 54//54
f 64//64 75//75 69//69
f 64//64 69//69 65//65
f 64//64 65//65 71//71
f 64//64 71//71 74//74
f 64//64 74//74 75//75
f 65//65 69//69 73//73
f 69//69 75//75 68//68
f 75//75 74//74 66//66
f 74//74 71//71 70//70
f 71//71 65//65 72//72
f 67//67 73//73 68//68
f 67//67 68//68 66//66
f 67//67 66//66 70//70
f 67//67 70//70 72//72
f 67//67 72//72 73//73
f 68//68 73//73 69//69
f 66//66 68//68 75//75
f 70//70 66//66 74//74
f 72//72 70//70 71//71
f 73//73 72//72 65//65
f 76//76 85//85 77//77
f 85//85 86//86 77//77
f 77//77 86//86 78//78
f 86//86 87//87 78//78
f 78//78 87//87 79//79
f 87//87 88//88 79//79
f 79//79 88//88 80//80
f 88//88 89//89 80//80
f 80//80 89//89 81//81
f 89//89 90//90 81//81
f 81//81 90//90 82//82
f 90//90 91//91 82//82
f 82//82 91//91 83//83
f 91//91 92//92 83//83
f 83//83 92//92 84//84
f 92//92 93//93 84//84
f 85//85 94//94 86//86
f 94//94 95//95 86//86
f 86//86 95//95 87//87
f 95//95 96//96 87//87
f 87//87 96//96 88//88
f 96//96 97//97 88//88
f 88//88 97//97 89//89
f 97//97 98//98 89//89
f 89//89 98//98 90//90
f 98//98 99//99 90//90
f 90//90 99//99 91//91
f 99//99 100//100 91//91
f 91//91 100//100 92//92
f 100//100 101//101 92//92
f 92//92 101//101 93//93
f 101//101 102//102 93//93
f 94//94 103//103 95//95
f 103//103 104//104 95//95
f 95//95 104//104 96//96
f 104//104 105//105 96//96
f 96//96 105//105 97//97
f 105//105 106//106 97//97
f 97//97 106//106 98//98
f 106//106 107//107 98//98
f 98//98 107//107 99//99
f 107//107 108//108 99//99
f 99//99 108//108 100//100
f 108//108 109//109 100//100
f 100//100 109//109 101//101
f 109//109 110//110 101//101
f 101//101 110//110 102//102
f 110//110 111//111 102//102
f 103//103 112//112 104//104
f 112//112 113//113 104//104
f 104//104 113//113 105//105
f 113//113 114//114 105//105
f 105//105 114//114 106//106
f 114//114 115//115 106//106
f 106//106 115//115 107//107
f 115//115 116//116 107//107
f 107//107 116//116 108//108
f 116//116 117//117 108//108
f 108//108 117//117 109//109
f 117//117 118//118 109//109
f 109//109 118//118 110//110
f 118//118 119//119 110//110
f 110//110 119//119 111//111
f 119//119 120//120 111//111
f 112//112 121//121 113//113
f 121//121 122//122 113//113
f 113//113 122//122 114//114
f 122//122 123//123 114//114
f 114//114 123//123 115//115
f 123//123 124//124 115//115
f 115//115 124//124 116//116
f 124//124 125//125 116//116
f 116//116 125//125 117//117
f 125//125 126//126 117//117
f 117//117 126//126 118//118
f 126//126 127//127 118//118
f 118//118 127//127 119//119
f 127//127 128//128 119//119
f 119//119 128//128 120//120
f 128//128 129//129 120//120
f 121//121 130//130 122//122
f 130//130 131//131 122//122
f 122//122 131//131 123//123
f 131//131 132//132 123//123
f 123//123 132//132 124//124
f 132//132 133//133 124//124
f 124//124 133//133 125//125
f 133//133 134//134 125//125
f 125//125 134//134 126//126
f 134//134 135//135 126//126
f 126//126 135//135 127//127
f 135//135 136//136 127//127
f 127//127 136//136 128//128
f 136//136 137//137 128//128
f 128//128 137//137 129//129
f 137//137 138//138 129//129
f 139//139 148//148 140//140
f 148//148 149//149 140//140
f 140//140 149//149 141//141
f 149//149 150//150 141//141
f 141//141 150//150 142//142
f 150//150 151//151 142//142
f 142//142 151//151 143//143
f 151//151 152//152 143//143
f 143//143 152//152 144//144
f 152//152 153//153 144//144
f 144//144 153//153 145//145
f 153//153 154//154 145//145
f 145//145 154//154 146//146
f 154//154 155//155 146//146
f 146//146 155//155 147//147
f 155//155 156//156 147//147
f 148//148 157//157 149//149
f 157//157 158//158 149//149
f 149//149 158//158 150//150
f 158//158 159//159 150//150
f 150//150 159//159 151//151
f 159//159 160//160 151//151
f 151//151 160//160 152//152
f 160//160 161//161 152//152
f 152//152 161//161 153//153
f 161//161 162//162 153//153
f 153//153 162//162 154//154
f 162//162 163//163 154//154
f 154//154 163//163 155//155
f 163//163 164//164 155//155
f 155//155 164//164 156//156
f 164//164 165//165 156//156
f 157//157 166//166 158//158
f 166//166 167//167 158//158
f 158//158 167//167 159//159
f 167//167 168//168 159//159
f 159//159 168//168 160//160
f 168//168 169//169 160//160
f 160//160 169//169 161//161
f 169//169 170//170 161//161
f 161//161 170//170 162//162
f 170//170 171//171 162//162
f 162//162 171//171 163//163
f 171//171 172//172 163//163
f 163//163 172//172 164//164
f 172//172 173//173 164//164
f 164//164 173//173 165//165
f 173//173 174//174 165//165
f 166//166 175//175 167//167
f 175//175 176//176 167//167
f 167//167 176//176 168//168
f 176//176 177//177 168//168
f 168//168 177//177 169//169
f 177//177 178//178 169//169
f 169//169 178//178 170//170
f 178//178 179//179 170//170
f 170//170 179//179 171//171
f 179//179 180//180 171//171
f 171//171 180//180 172//172
f 180//180 181//181 172//172
f 172//172 181//181 173//173
f 181//181 182//182 173//173
f 173//173 182//182 174//174
f 182//182 183//183 174//174
f 175//175 184//184 176//176
f 184//184 185//185 176//176
f 176//176 185//185 177//177
f 185//185 186//186 177//177
f 177//177 186//186 178//178
f 186//186 187//187 178//178
f 178//178 187//187 179//179
f 187//187 188//188 179//179
f 179//179 188//188 180//180
f 188//188 189//189 180//180
f 180//180 189//189 181//181
f 189//189 190//190 181//181
f 181//181 190//190 182//182
f 190//190 191//191 182//182
f 182//182 191//191 183//183
f 191//191 192//192 183//183
f 184//184 193//193 185//185
f 193//193 194//194 185//185
f 185//185 194//194 186//186
f 194//194 195//195 186//186
f 186//186 195//195 187//187
f 195//195 196//196 187//187
f 187//187 196//196 188//188
f 196//196 197//197 188//188
f 188//188 197//197 189//189
f 197//197 198//198 189//189
f 189//189 198//198 190//190
f 198//198 199//199 190//190
f 190//190 199//199 191//191
f 199//199 200//200 191//191
f 191//191 200//200 192//192
f 200//200 201//201 192//192
f 202//202 213//213 207//207
f 202//202 207//207 203//203
f 202//202 203//203 209//209
f 202//202 209//209 212//212
f 202//202 212//212 213//213
f 203//203 207//207 211//211
f 207//207 213//213 206//206
f 213//213 212//212 204//204
f 212//212 209//209 208//208
f 209//209 203//203 210//210
f 205//205 211//211 206//206
f 205//205 206//206 204//204
f 205//205 204//204 208//208
f 205//205 208//208 210//210
f 205//205 210//210 211//211
f 206//206 211//211 207//207
f 204//204 206//206 213//213
f 208//208 204//204 212//212
f 210//210 208//208 209//209
f 211//211 210//210 203//203
f 214//214 225//225 219//219
f 214//214 219//219 215//215
f 214//214 215//215 221//221
f 214//214 221//221 224//224
f 214//214 224//224 225//225
f 215//215 219//219 223//223
f 219//219 225//225 218//218
f 225//225 224//224 216//216
f 224//224 221//221 220//220
f 221//221 215//215 222//222
f 217//217 223//223 218//218
f 217//217 218//218 216//216
f 217//217 216//216 220//220
f 217//217 220//220 222//222
f 217//217 222//222 223//223
f 218//218 223//223 219//219
f 216//216 218//218 225//225
f 220//220 216//216 224//224
f 222//222 220//220 221//221
f 223//223 222//222 215//215
