# Gisement de thystame — généré par generate_minerals.py
mtllib thystame.mtl
o thystame_deposit
v -0.023842 0.950953 -0.427888
v 0.220473 1.051768 -0.312071
v -0.032443 0.039227 -0.431965
v 0.225140 -0.045840 -0.309858
v -0.004824 0.220214 -0.184936
v 0.012639 0.748065 -0.221776
v 0.185952 0.188994 -0.587376
v 0.159462 0.750169 -0.531496
v 0.322753 0.512307 -0.402343
v 0.240024 0.512307 -0.137612
v -0.089664 0.512307 -0.646857
v -0.129246 0.512307 -0.352009
v -0.022009 1.369960 0.264280
v -0.141138 1.104441 0.116601
v -0.027349 0.021311 0.257660
v -0.169852 -0.037323 0.081006
v 0.006385 0.371338 0.090947
v 0.044632 1.081280 0.060094
v -0.230749 0.273601 0.282237
v -0.213272 1.015579 0.268138
v -0.221621 0.670221 0.128768
v -0.114170 0.670221 0.025001
v -0.069186 0.670221 0.382352
v 0.048470 0.670221 0.223830
v -0.278614 1.498604 0.191039
v -0.083740 1.517796 0.351378
v -0.265690 0.133464 0.201673
v -0.075022 -0.050390 0.358551
v -0.320967 0.277574 0.438537
v -0.284787 1.128370 0.394564
v -0.084593 0.421269 0.151250
v -0.063443 1.187167 0.125545
v 0.078703 0.766868 0.305615
v -0.093976 0.766868 0.529500
v -0.269327 0.766868 0.015457
v -0.397468 0.766868 0.240985
v 0.064573 0.883290 -0.173872
v -0.047899 0.857639 -0.033139
v 0.055498 0.049180 -0.162517
v -0.049224 -0.006481 -0.031482
v -0.148862 0.059464 -0.225775
v -0.092913 0.668509 -0.181060
v 0.102177 0.202861 -0.025146
v 0.143645 0.757630 0.007994
v -0.012516 0.430758 0.056989
v -0.175743 0.430758 -0.036306
v 0.217229 0.430758 -0.176632
v 0.033517 0.430758 -0.322629
vn -0.746773 0.604846 -0.276570
vn 0.708691 0.637329 0.302603
vn -0.779620 -0.568533 -0.262607
vn 0.728374 -0.593348 0.342652
vn -0.486585 -0.229017 0.843081
vn -0.488534 0.260010 0.832904
vn 0.451917 -0.238800 -0.859503
vn 0.446242 0.281078 -0.849625
vn 0.985424 0.018377 -0.169121
vn 0.507984 0.014472 0.861245
vn -0.557108 0.023141 -0.830117
vn -0.981193 0.016059 0.192362
vn 0.578218 0.433039 0.691477
vn -0.646574 0.317249 -0.693754
vn 0.688091 -0.366528 0.626249
vn -0.538921 -0.330138 -0.774967
vn 0.773832 -0.146677 -0.616174
vn 0.724749 0.148171 -0.672893
vn -0.817725 -0.141332 0.557989
vn -0.855337 0.170896 0.489074
vn -0.923390 0.029018 -0.382765
vn -0.179681 0.013791 -0.983628
vn 0.153522 0.000908 0.988145
vn 0.958508 -0.013738 0.284735
vn -0.755110 0.421687 -0.501985
vn 0.659633 0.456320 0.597207
vn -0.661054 -0.401069 -0.634154
vn 0.756383 -0.469049 0.455936
vn -0.692700 -0.154484 0.704487
vn -0.667359 0.173370 0.724275
vn 0.601378 -0.169245 -0.780833
vn 0.628465 0.152867 -0.762668
vn 0.999030 -0.001144 0.044017
vn 0.274037 0.013795 0.961620
vn -0.296351 -0.013878 -0.954978
vn -0.995594 0.001468 -0.093762
vn 0.436119 0.546216 -0.715156
vn -0.598965 0.469342 0.648813
vn 0.642994 -0.530678 -0.552212
vn -0.378317 -0.484934 0.788489
vn -0.771678 -0.208953 -0.600710
vn -0.783015 0.238896 -0.574296
vn 0.720287 -0.233558 0.653175
vn 0.712715 0.190968 0.674958
vn -0.100375 -0.011815 0.994879
vn -0.924819 0.019437 0.379910
vn 0.955116 -0.022884 -0.295347
vn 0.103052 0.005250 -0.994662
usemtl thystame
f 1//1 12//12 6//6
f 1//1 6//6 2//2
f 1//1 2//2 8//8
f 1//1 8//8 11//11
f 1//1 11//11 12//12
f 2//2 6//6 10//10
f 6//6 12//12 5//5
f 12//12 11//11 3//3
f 11//11 8//8 7//7
f 8//8 2//2 9//9
f 4//4 10//10 5//5
f 4//4 5//5 3//3
f 4//4 3//3 7//7
f 4//4 7//7 9//9
f 4//4 9//9 10//10
f 5//5 10//10 6//6
f 3//3 5//5 12//12
f 7//7 3//3 11//11
f 9//9 7//7 8//8
f 10//10 9//9 2//2
f 13//13 24//24 18//18
f 13//13 18//18 14//14
f 13//13 14//14 20//20
f 13//13 20//20 23//23
f 13//13 23//23 24//24
f 14//14 18//18 22//22
f 18//18 24//24 17//17
f 24//24 23//23 15//15
f 23//23 20//20 19//19
f 20//20 14//14 21//21
f 16//16 22//22 17//17
f 16//16 17//17 15//15
f 16//16 15//15 19//19
f 16//16 19//19 21//21
f 16//16 21//21 22//22
f 17//17 22//22 18//18
f 15//15 17//17 24//24
f 19//19 15//15 23//23
f 21//21 19//19 20//20
f 22//22 21//21 14//14
f 25//25 36//36 30//30
f 25//25 30//30 26//26
f 25//25 26//26 32//32
f 25//25 32//32 35//35
f 25//25 35//35 36//36
f 26//26 30//30 34//34
f 30//30 36//36 29//29
f 36//36 35//35 27//27
f 35//35 32//32 31//31
f 32//32 26//26 33//33
f 28//28 34//34 29//29
f 28//28 29//29 27//27
f 28//28 27//27 31//31
f 28//28 31//31 33//33
f 28//28 33//33 34//34
f 29//29 34//34 30//30
f 27//27 29//29 36//36
f 31//31 27//27 35//35
f 33//33 31//31 32//32
f 34//34 33//33 26//26
f 37//37 48//48 42//42
f 37//37 42//42 38//38
f 37//37 38//38 44//44
f 37//37 44//44 47//47
f 37//37 47//47 48//48
f 38//38 42//42 46//46
f 42//42 48//48 41//41
f 48//48 47//47 39//39
f 47//47 44//44 43//43
f 44//44 38//38 45//45
f 40//40 46//46 41//41
f 40//40 41//41 39//39
f 40//40 39//39 43//43
f 40//40 43//43 45//45
f 40//40 45//45 46//46
f 41//41 46//46 42//42
f 39//39 41//41 48//48
f 43//43 39//39 47//47
f 45//45 43//43 44//44
f 46//46 45//45 38//38
