# ruin_tatooine
mtllib ruin_tatooine.mtl
o ruin_tatooine
v 0.247999 0.000000 -0.042350
v 0.171584 0.470705 -0.042350
v 0.165729 0.000000 0.092619
v 0.131583 0.489495 0.044597
v 0.012093 0.000000 0.088787
v 0.037525 0.464304 0.034189
v -0.044119 0.000000 -0.042350
v -0.006168 0.491635 -0.042350
v 0.013370 0.000000 -0.171275
v 0.031340 0.440565 -0.130141
v 0.156221 0.000000 -0.160851
v 0.131048 0.467691 -0.127875
v 0.016306 0.000000 -0.039311
v -0.024953 0.370815 -0.039311
v -0.026136 0.000000 0.057996
v -0.063979 0.390066 0.021571
v -0.132788 0.000000 0.087979
v -0.132302 0.360424 0.050245
v -0.222669 0.000000 0.017965
v -0.185402 0.394143 -0.004262
v -0.229214 0.000000 -0.099738
v -0.196826 0.377745 -0.080039
v -0.133332 0.000000 -0.168982
v -0.130756 0.377024 -0.120450
v -0.028741 0.000000 -0.133351
v -0.057172 0.388513 -0.108684
vn 0.985278 0.146842 0.087548
vn 0.941770 0.132291 -0.309142
vn 0.340868 0.124669 0.931808
vn 0.687540 0.132232 0.714005
vn -0.637340 0.113077 0.762241
vn -0.287685 0.115948 0.950681
vn -0.990965 0.078284 -0.108903
vn -0.976976 0.087166 0.194729
vn -0.356771 0.094023 -0.929448
vn -0.743701 0.089723 -0.662464
vn 0.611155 0.106473 -0.784317
vn 0.325131 0.091177 -0.941263
vn 0.982974 0.119728 0.139384
vn 0.979127 0.105708 -0.173598
vn 0.575034 0.125151 0.808500
vn 0.766972 0.122848 0.629812
vn -0.351575 0.106456 0.930087
vn 0.029533 0.111860 0.993285
vn -0.920863 0.102344 0.376215
vn -0.789316 0.100634 0.605684
vn -0.820887 0.106417 -0.561088
vn -0.974185 0.101503 -0.201645
vn -0.079468 0.113402 -0.990366
vn -0.386187 0.113169 -0.915452
vn 0.735499 0.098964 -0.670259
vn 0.486692 0.106819 -0.867018
usemtl ruin_tatooine
f 1//1 2//2 4//4
f 1//1 4//4 3//3
f 3//3 4//4 6//6
f 3//3 6//6 5//5
f 5//5 6//6 8//8
f 5//5 8//8 7//7
f 7//7 8//8 10//10
f 7//7 10//10 9//9
f 9//9 10//10 12//12
f 9//9 12//12 11//11
f 11//11 12//12 2//2
f 11//11 2//2 1//1
f 13//13 14//14 16//16
f 13//13 16//16 15//15
f 15//15 16//16 18//18
f 15//15 18//18 17//17
f 17//17 18//18 20//20
f 17//17 20//20 19//19
f 19//19 20//20 22//22
f 19//19 22//22 21//21
f 21//21 22//22 24//24
f 21//21 24//24 23//23
f 23//23 24//24 26//26
f 23//23 26//26 25//25
f 25//25 26//26 14//14
f 25//25 14//14 13//13
