# ruin_jedha
mtllib ruin_jedha.mtl
o ruin_jedha
v 0.104090 0.000000 0.000000
v 0.078933 1.165243 0.000000
v 0.062205 0.000000 0.107742
v 0.042596 1.252994 0.073779
v -0.059214 0.000000 0.102561
v -0.046765 1.221966 0.081000
v -0.113774 0.000000 0.000000
v -0.092845 1.201244 0.000000
v -0.046945 0.000000 -0.081312
v -0.048203 1.212635 -0.083490
v 0.051008 0.000000 -0.088349
v 0.045183 1.256951 -0.078260
vn 0.995248 0.023394 0.094517
vn 0.976369 0.016515 -0.215480
vn 0.399534 0.027464 0.916307
vn 0.744419 0.027856 0.667131
vn -0.646695 0.019293 0.762505
vn -0.294624 0.023690 0.955320
vn -0.977826 0.011069 -0.209127
vn -0.978259 0.017861 0.206615
vn -0.303195 0.001508 -0.952927
vn -0.613495 0.004152 -0.789688
vn 0.648685 0.013304 -0.760941
vn 0.328771 0.005249 -0.944395
usemtl ruin_jedha
f 1//1 2//2 4//4
f 1//1 4//4 3//3
f 3//3 4//4 6//6
f 3//3 6//6 5//5
f 5//5 6//6 8//8
f 5//5 8//8 7//7
f 7//7 8//8 10//10
f 7//7 10//10 9//9
f 9//9 10//10 12//12
f 9//9 12//12 11//11
f 11//11 12//12 2//2
f 11//11 2//2 1//1
