# ruin_yavin
mtllib ruin_yavin.mtl
o ruin_yavin
v 0.120556 0.000000 0.000000
v 0.101819 1.114549 0.000000
v 0.071986 0.000000 0.090267
v 0.052079 1.089623 0.065305
v -0.030369 0.000000 0.133057
v -0.021903 1.138766 0.095964
v -0.111048 0.000000 0.053478
v -0.076553 1.051863 0.036866
v -0.100046 0.000000 -0.048180
v -0.083257 0.996674 -0.040095
v -0.026842 0.000000 -0.117604
v -0.020957 1.021129 -0.091819
v 0.077336 0.000000 -0.096976
v 0.061534 1.123664 -0.077161
vn 0.976990 0.021168 0.212233
vn 0.990217 0.018707 -0.138279
vn 0.589077 0.028854 0.807562
vn 0.737237 0.023968 0.675209
vn -0.372171 0.035444 0.927487
vn 0.049735 0.032613 0.998230
vn -0.958368 0.031051 0.283841
vn -0.841143 0.033415 0.539780
vn -0.835149 0.020375 -0.549647
vn -0.960836 0.024268 -0.276052
vn -0.127389 0.024217 -0.991557
vn -0.448021 0.023186 -0.893723
vn 0.719692 0.020537 -0.693989
vn 0.445575 0.023477 -0.894937
usemtl ruin_yavin
f 1//1 2//2 4//4
f 1//1 4//4 3//3
f 3//3 4//4 6//6
f 3//3 6//6 5//5
f 5//5 6//6 8//8
f 5//5 8//8 7//7
f 7//7 8//8 10//10
f 7//7 10//10 9//9
f 9//9 10//10 12//12
f 9//9 12//12 11//11
f 11//11 12//12 14//14
f 11//11 14//14 13//13
f 13//13 14//14 2//2
f 13//13 2//2 1//1
