# Ilot flottant - style jedha
mtllib jedha.mtl
o jedha_island
v 0.000000 0.593064 0.000000
v 0.068796 0.522207 0.000000
v 0.067042 0.527474 0.017964
v 0.059534 0.524189 0.034372
v 0.047522 0.525497 0.047522
v 0.034548 0.529957 0.059839
v 0.018177 0.528582 0.067837
v 0.000000 0.525411 0.068672
v -0.017628 0.523746 0.065788
v -0.034261 0.521897 0.059341
v -0.047945 0.521777 0.047945
v -0.058585 0.518972 0.033824
v -0.065699 0.520632 0.017604
v -0.067858 0.530356 0.000000
v -0.066050 0.529598 -0.017698
v -0.059088 0.531249 -0.034114
v -0.047759 0.527084 -0.047759
v -0.034075 0.525938 -0.059019
v -0.017786 0.522891 -0.066378
v -0.000000 0.518666 -0.069505
v 0.017709 0.518146 -0.066091
v 0.034398 0.523676 -0.059579
v 0.048537 0.532391 -0.048537
v 0.059309 0.529165 -0.034242
v 0.066711 0.521531 -0.017875
v 0.137684 0.537346 0.000000
v 0.135354 0.538433 0.036268
v 0.119057 0.528837 0.068737
v 0.092862 0.528737 0.092862
v 0.069443 0.530477 0.120279
v 0.037120 0.517996 0.138533
v 0.000000 0.515457 0.137187
v -0.034923 0.529635 0.130336
v -0.068293 0.525058 0.118287
v -0.094552 0.520866 0.094552
v -0.115262 0.518461 0.066546
v -0.129980 0.516555 0.034828
v -0.133932 0.525538 0.000000
v -0.131386 0.533532 -0.035205
v -0.117273 0.537988 -0.067707
v -0.093810 0.534341 -0.093810
v -0.067548 0.523927 -0.116997
v -0.035556 0.515490 -0.132698
v -0.000000 0.510079 -0.140518
v 0.035249 0.520787 -0.131550
v 0.068841 0.538386 -0.119237
v 0.096920 0.534928 -0.096920
v 0.118158 0.520758 -0.068218
v 0.134027 0.520035 -0.035912
v 0.206664 0.540144 0.000000
v 0.204937 0.545119 0.054913
v 0.178569 0.532740 0.103097
v 0.136020 0.529438 0.136020
v 0.104685 0.532953 0.181319
v 0.056829 0.536713 0.212088
v 0.000000 0.513192 0.205545
v -0.051887 0.512769 0.193644
v -0.102097 0.530960 0.176837
v -0.139821 0.529765 0.139821
v -0.170030 0.517088 0.098167
v -0.192843 0.522576 0.051672
v -0.198221 0.524113 0.000000
v -0.196008 0.529356 -0.052520
v -0.174555 0.545384 -0.100779
v -0.138153 0.537267 -0.138153
v -0.100421 0.514152 -0.173935
v -0.053311 0.505719 -0.198960
v -0.000000 0.512927 -0.213041
v 0.052619 0.539163 -0.196376
v 0.103330 0.536680 -0.178973
v 0.145149 0.519505 -0.145149
v 0.176546 0.519550 -0.101929
v 0.201950 0.535691 -0.054112
v 0.275736 0.544010 0.000000
v 0.275788 0.532761 0.073897
v 0.238070 0.524113 0.137450
v 0.176995 0.514607 0.176995
v 0.140273 0.525982 0.242959
v 0.077304 0.521343 0.288501
v 0.000000 0.515566 0.273746
v -0.068518 0.506190 0.255713
v -0.135672 0.505638 0.234991
v -0.183752 0.530739 0.183752
v -0.222890 0.524553 0.128686
v -0.254289 0.516476 0.068136
v -0.260727 0.526792 0.000000
v -0.259915 0.516562 -0.069644
v -0.230934 0.528192 -0.133330
v -0.180787 0.539502 -0.180787
v -0.132693 0.524497 -0.229832
v -0.071050 0.529283 -0.265163
v -0.000000 0.512284 -0.287074
v 0.069820 0.519789 -0.260570
v 0.137865 0.516092 -0.238789
v 0.193224 0.516326 -0.193224
v 0.234473 0.529855 -0.135373
v 0.270479 0.533100 -0.072475
v 0.344899 0.501992 0.000000
v 0.347910 0.507047 0.093222
v 0.297560 0.506240 0.171796
v 0.215788 0.504283 0.215788
v 0.176207 0.535284 0.305200
v 0.098545 0.503011 0.367774
v 0.000000 0.503499 0.341791
v -0.084817 0.506627 0.316542
v -0.169019 0.498761 0.292750
v -0.226346 0.509248 0.226346
v -0.273842 0.534997 0.158103
v -0.314317 0.518424 0.084221
v -0.321448 0.506619 0.000000
v -0.323108 0.519023 -0.086576
v -0.286411 0.509264 -0.165359
v -0.221713 0.524476 -0.221713
v -0.164365 0.519561 -0.284688
v -0.088774 0.509260 -0.331308
v -0.000000 0.494339 -0.362615
v 0.086851 0.512257 -0.324131
v 0.172446 0.516499 -0.298684
v 0.241145 0.525312 -0.241145
v 0.291941 0.530336 -0.168552
v 0.339615 0.550721 -0.091000
v 0.414155 0.498182 0.000000
v 0.421302 0.518977 0.112887
v 0.357039 0.528200 0.206137
v 0.252398 0.519076 0.252398
v 0.212488 0.534968 0.368041
v 0.120552 0.560777 0.449906
v 0.000000 0.504260 0.409679
v -0.100784 0.514050 0.376131
v -0.202138 0.489983 0.350113
v -0.267602 0.497659 0.267602
v -0.322885 0.494428 0.186418
v -0.372928 0.534627 0.099926
v -0.380385 0.525205 0.000000
v -0.385586 0.494141 -0.103318
v -0.340984 0.501432 -0.196867
v -0.260930 0.518588 -0.260930
v -0.195435 0.538130 -0.338503
v -0.106481 0.513254 -0.397394
v -0.000000 0.497090 -0.439666
v 0.103712 0.523688 -0.387060
v 0.207072 0.534929 -0.358658
v 0.288912 0.530277 -0.288912
v 0.348947 0.557527 -0.201465
v 0.409356 0.503779 -0.109687
v 0.483503 0.520956 0.000000
v 0.495963 0.520038 0.132893
v 0.416507 0.500540 0.240471
v 0.286826 0.512703 0.286826
v 0.249116 0.536844 0.431482
v 0.143325 0.551664 0.534897
v 0.000000 0.552185 0.477411
v -0.116419 0.534561 0.434481
v -0.235028 0.516535 0.407080
v -0.307520 0.485886 0.307520
v -0.370020 0.490566 0.213631
v -0.430121 0.489878 0.115250
v -0.437538 0.508808 0.000000
v -0.447350 0.540833 -0.119867
v -0.394655 0.531189 -0.227854
v -0.298439 0.516969 -0.298439
v -0.225905 0.519786 -0.391278
v -0.124174 0.522899 -0.463423
v -0.000000 0.550389 -0.518225
v 0.120405 0.548917 -0.449357
v 0.241743 0.531745 -0.418712
v 0.336526 0.555419 -0.336526
v 0.405494 0.517146 -0.234112
v 0.479704 0.510601 -0.128536
v 0.552942 0.499046 0.000000
v 0.571894 0.519006 0.153239
v 0.475965 0.527650 0.274798
v 0.319071 0.526545 0.319071
v 0.286090 0.532506 0.495523
v 0.166864 0.539261 0.622746
v 0.000000 0.558539 0.544986
v -0.131721 0.553532 0.491591
v -0.267689 0.539287 0.463652
v -0.346101 0.517329 0.346101
v -0.415246 0.481520 0.239743
v -0.485896 0.490198 0.130195
v -0.492906 0.474122 0.000000
v -0.508400 0.532876 -0.136225
v -0.447423 0.576245 -0.258320
v -0.334240 0.527597 -0.334240
v -0.255773 0.517082 -0.443013
v -0.141850 0.547718 -0.529392
v -0.000000 0.563598 -0.598294
v 0.136928 0.540242 -0.511021
v 0.276461 0.566436 -0.478844
v 0.383986 0.523911 -0.383986
v 0.461579 0.538247 -0.266493
v 0.550658 0.551093 -0.147548
v 0.596570 0.401067 0.000000
v 0.601843 0.404891 0.161263
v 0.463148 0.392156 0.267399
v 0.339352 0.384238 0.339352
v 0.239964 0.384240 0.415631
v 0.142753 0.394573 0.532761
v 0.000000 0.391230 0.528384
v -0.149392 0.398274 0.557540
v -0.246820 0.386218 0.427504
v -0.314461 0.379159 0.314461
v -0.396369 0.381031 0.228844
v -0.525197 0.393443 0.140726
v -0.467732 0.382480 0.000000
v -0.430021 0.379228 -0.115224
v -0.428241 0.386340 -0.247245
v -0.378681 0.392262 -0.378681
v -0.293412 0.399661 -0.508205
v -0.170801 0.410208 -0.637438
v -0.000000 0.400997 -0.596084
v 0.117742 0.380631 -0.439418
v 0.286768 0.397744 -0.496697
v 0.361120 0.388679 -0.361120
v 0.400456 0.381712 -0.231203
v 0.488658 0.387986 -0.130935
v 0.503314 0.258699 0.000000
v 0.431915 0.250336 0.115731
v 0.418021 0.255628 0.241344
v 0.357877 0.259116 0.357877
v 0.264983 0.262668 0.458964
v 0.121982 0.253932 0.455243
v 0.000000 0.252896 0.464345
v -0.128827 0.257870 0.480790
v -0.278915 0.266817 0.483096
v -0.330665 0.253385 0.330665
v -0.385119 0.249970 0.222349
v -0.426136 0.249445 0.114183
v -0.468148 0.253462 0.000000
v -0.552871 0.268983 -0.148141
v -0.454876 0.261965 -0.262623
v -0.342997 0.255982 -0.342997
v -0.234279 0.253523 -0.405784
v -0.132936 0.260234 -0.496123
v -0.000000 0.256238 -0.486787
v 0.142703 0.265854 -0.532576
v 0.256986 0.260286 -0.445112
v 0.319563 0.251047 -0.319563
v 0.410447 0.254325 -0.236971
v 0.524802 0.264655 -0.140620
v 0.380836 0.113072 0.000000
v 0.387688 0.116337 0.103881
v 0.517321 0.147508 0.298675
v 0.332822 0.127361 0.332822
v 0.228384 0.125149 0.395572
v 0.120663 0.126650 0.450322
v 0.000000 0.127098 0.469028
v -0.094472 0.110555 0.352573
v -0.191757 0.113498 0.332133
v -0.369008 0.135501 0.369008
v -0.384524 0.123119 0.222005
v -0.424965 0.122475 0.113869
v -0.376167 0.112329 0.000000
v -0.366253 0.112807 -0.098137
v -0.435863 0.132548 -0.251645
v -0.297888 0.119504 -0.297888
v -0.197897 0.115451 -0.342767
v -0.110747 0.120556 -0.413314
v -0.000000 0.122495 -0.440086
v 0.129037 0.131795 -0.481571
v 0.205863 0.117985 -0.356565
v 0.307879 0.121751 -0.307879
v 0.416134 0.128925 -0.240255
v 0.385880 0.116039 -0.103396
v 0.375928 -0.011790 0.000000
v 0.421112 -0.001096 0.112837
v 0.434935 0.010705 0.251110
v 0.326463 0.003486 0.326463
v 0.177879 -0.015383 0.308095
v 0.093579 -0.014349 0.349242
v 0.000000 -0.008736 0.393076
v -0.096326 -0.012458 0.359495
v -0.173271 -0.017024 0.300114
v -0.238509 -0.018670 0.238509
v -0.425201 0.008703 0.245490
v -0.439551 0.002304 0.117777
v -0.481994 0.007102 0.000000
v -0.430289 0.000596 -0.115296
v -0.438460 0.011430 -0.253145
v -0.268230 -0.011183 -0.268230
v -0.205346 -0.005598 -0.355670
v -0.103162 -0.007754 -0.385004
v -0.000000 0.003184 -0.459993
v 0.109459 -0.003420 -0.408506
v 0.189840 -0.011122 -0.328813
v 0.308335 -0.001081 -0.308335
v 0.340570 -0.008704 -0.196628
v 0.331233 -0.017670 -0.088754
v 0.363991 -0.132054 0.000000
v 0.386731 -0.124263 0.103624
v 0.310056 -0.133332 0.179011
v 0.292857 -0.121310 0.292857
v 0.196950 -0.125649 0.341128
v 0.096538 -0.130126 0.360283
v 0.000000 -0.131093 0.368477
v -0.065230 -0.156030 0.243440
v -0.153261 -0.144360 0.265457
v -0.219754 -0.143449 0.219754
v -0.257634 -0.146294 0.148745
v -0.414703 -0.118061 0.111119
v -0.359852 -0.132940 0.000000
v -0.366386 -0.128773 -0.098173
v -0.328461 -0.128781 -0.189637
v -0.213808 -0.145249 -0.213808
v -0.177103 -0.134149 -0.306751
v -0.111764 -0.117528 -0.417109
v -0.000000 -0.127582 -0.384873
v 0.078246 -0.145260 -0.292018
v 0.180771 -0.132578 -0.313105
v 0.232017 -0.139735 -0.232017
v 0.261256 -0.145399 -0.150836
v 0.318410 -0.139409 -0.085318
v 0.314544 -0.249596 0.000000
v 0.261544 -0.262351 0.070080
v 0.217957 -0.267915 0.125837
v 0.187672 -0.263914 0.187672
v 0.156924 -0.249798 0.271801
v 0.068221 -0.264445 0.254603
v 0.000000 -0.253308 0.301806
v -0.068902 -0.263678 0.257145
v -0.104383 -0.280418 0.180797
v -0.151519 -0.278811 0.151519
v -0.190571 -0.277130 0.110026
v -0.205439 -0.279276 0.055047
v -0.261611 -0.265020 0.000000
v -0.217241 -0.275716 -0.058210
v -0.197233 -0.274888 -0.113872
v -0.147019 -0.280666 -0.147019
v -0.108202 -0.278193 -0.187411
v -0.069329 -0.263197 -0.258740
v -0.000000 -0.255183 -0.295371
v 0.066579 -0.266293 -0.248476
v 0.120127 -0.271243 -0.208065
v 0.161436 -0.274725 -0.161436
v 0.211364 -0.270133 -0.122031
v 0.259376 -0.263005 -0.069500
v 0.178949 -0.377368 0.000000
v 0.165174 -0.381593 0.044258
v 0.115515 -0.401590 0.066693
v 0.099480 -0.397709 0.099480
v 0.068549 -0.399617 0.118730
v 0.032831 -0.405065 0.122527
v 0.000000 -0.388623 0.157777
v -0.039061 -0.392268 0.145778
v -0.079727 -0.387732 0.138091
v -0.091796 -0.403486 0.091796
v -0.104771 -0.408186 0.060490
v -0.105957 -0.414185 0.028391
v -0.130068 -0.403354 0.000000
v -0.144014 -0.393239 -0.038588
v -0.114653 -0.402120 -0.066195
v -0.103177 -0.394930 -0.103177
v -0.072128 -0.395812 -0.124929
v -0.044045 -0.382031 -0.164379
v -0.000000 -0.397551 -0.140984
v 0.028717 -0.413516 -0.107172
v 0.063376 -0.405117 -0.109770
v 0.097816 -0.398960 -0.097816
v 0.135556 -0.389288 -0.078263
v 0.166739 -0.380732 -0.044678
v 0.000000 -0.525000 0.000000
vn 0.003674 -0.999991 0.001881
vn -0.210690 -0.969928 0.121859
vn -0.191798 -0.976757 -0.095707
vn -0.224832 -0.955979 -0.188560
vn -0.302817 -0.943646 -0.133543
vn -0.120040 -0.953304 -0.277130
vn 0.018612 -0.925420 -0.378485
vn -0.017023 -0.932504 -0.360759
vn 0.170898 -0.955961 -0.238607
vn 0.220794 -0.947064 -0.233064
vn 0.297146 -0.937352 -0.181869
vn 0.333932 -0.930453 -0.150822
vn 0.297921 -0.886598 -0.353819
vn 0.311059 -0.922360 -0.229118
vn 0.268286 -0.963316 0.006772
vn 0.155517 -0.971442 0.179206
vn 0.055121 -0.945549 0.320779
vn 0.045997 -0.932951 0.357053
vn -0.057882 -0.916374 0.396116
vn 0.004229 -0.925905 0.377732
vn 0.148453 -0.924441 0.351242
vn 0.081135 -0.946066 0.313650
vn -0.219346 -0.959884 0.174670
vn -0.381136 -0.924519 0.000752
vn -0.283736 -0.951936 0.115375
vn 0.100921 -0.976683 0.189488
vn 0.156593 -0.985131 -0.070683
vn 0.108823 -0.991367 -0.073141
vn -0.002063 -0.998776 0.049420
vn 0.102902 -0.993850 0.040917
vn 0.245865 -0.969239 -0.011274
vn -0.070849 -0.988311 -0.134987
vn -0.142476 -0.983695 -0.109752
vn 0.036291 -0.992434 0.117297
vn 0.045668 -0.991297 0.123470
vn 0.012021 -0.999630 0.024401
vn -0.025180 -0.996603 -0.078411
vn 0.046175 -0.973092 -0.225742
vn 0.049587 -0.981628 -0.184248
vn -0.092664 -0.995022 -0.036681
vn -0.213342 -0.965722 0.147873
vn -0.150055 -0.973248 0.173988
vn -0.074191 -0.991254 0.109138
vn 0.163584 -0.986507 0.006655
vn 0.257480 -0.966072 -0.020229
vn 0.079711 -0.996814 0.002897
vn -0.118160 -0.990937 -0.063893
vn -0.045944 -0.997156 -0.059745
vn 0.087772 -0.988336 0.124453
vn 0.039544 -0.996753 0.070145
vn -0.019642 -0.996240 -0.084376
vn 0.041599 -0.981216 -0.188374
vn -0.109990 -0.993156 -0.039283
vn -0.070777 -0.996873 -0.035131
vn 0.168915 -0.985317 -0.024871
vn 0.183650 -0.982860 0.016086
vn -0.091276 -0.970708 -0.222249
vn -0.075757 -0.975126 -0.208304
vn 0.017422 -0.989548 0.143146
vn 0.014077 -0.996038 0.087804
vn -0.015511 -0.997270 -0.072187
vn 0.011242 -0.999262 -0.036721
vn 0.187466 -0.971983 -0.141794
vn 0.096560 -0.993675 -0.057320
vn -0.236896 -0.964415 0.117406
vn -0.221228 -0.974371 0.040736
vn -0.101412 -0.994346 -0.031493
vn 0.195680 -0.978016 0.072071
vn 0.142389 -0.985299 0.094404
vn -0.102829 -0.994347 0.026481
vn -0.104692 -0.994505 -0.000020
vn 0.031402 -0.997661 0.060720
vn 0.101073 -0.985356 0.137327
vn -0.256167 -0.966203 0.028807
vn -0.175190 -0.972793 -0.151599
vn -0.077272 -0.967736 -0.239824
vn -0.158562 -0.985859 -0.054223
vn 0.000676 -0.998467 -0.055350
vn 0.012118 -0.981735 -0.189865
vn 0.135716 -0.986413 -0.092578
vn 0.076254 -0.996757 -0.025702
vn -0.020299 -0.961358 -0.274551
vn 0.003166 -0.979463 -0.201598
vn -0.023189 -0.983926 0.177066
vn 0.065345 -0.997862 0.000956
vn 0.104353 -0.993763 -0.039311
vn 0.091496 -0.995067 0.038341
vn 0.289812 -0.957075 -0.003991
vn 0.053945 -0.990836 0.123832
vn -0.089773 -0.990996 0.099332
vn -0.104063 -0.993561 0.044805
vn -0.016432 -0.997375 0.070521
vn 0.046942 -0.989702 0.135230
vn -0.045552 -0.993686 0.102537
vn 0.013898 -0.998893 0.044935
vn 0.137762 -0.988607 0.060641
vn -0.007782 -0.999244 -0.038097
vn -0.153011 -0.984075 -0.090470
vn -0.097895 -0.994780 0.028800
vn 0.007015 -0.999963 -0.004884
vn -0.098485 -0.993692 0.053645
vn 0.075871 -0.981840 0.173879
vn 0.243483 -0.960664 0.133568
vn -0.000435 -0.996732 -0.080774
vn 0.079368 -0.996703 0.016833
vn 0.053698 -0.993157 -0.103712
vn 0.116206 -0.944853 -0.306186
vn 0.105968 -0.975957 -0.190468
vn -0.136186 -0.973670 0.182811
vn 0.065086 -0.997230 0.036000
vn 0.185146 -0.982212 0.031304
vn 0.158383 -0.986770 0.034651
vn 0.140616 -0.990035 0.007568
vn -0.150450 -0.988466 0.017311
vn -0.080343 -0.992659 0.090405
vn 0.049033 -0.994505 0.092495
vn 0.118311 -0.992964 -0.005018
vn 0.078484 -0.995107 -0.060023
vn 0.177508 -0.984046 -0.012016
vn 0.046915 -0.998820 -0.012530
vn -0.163505 -0.984244 -0.067305
vn -0.017069 -0.999440 -0.028772
vn -0.024246 -0.998682 0.045230
vn -0.013723 -0.999707 -0.019925
vn 0.018640 -0.992205 0.123213
vn -0.145773 -0.985148 0.090738
vn 0.112777 -0.959300 0.258891
vn 0.027637 -0.919860 0.391272
vn 0.002168 -0.969438 0.245325
vn 0.067616 -0.988844 0.132721
vn 0.104592 -0.986279 -0.127729
vn 0.259047 -0.904265 -0.339411
vn 0.264332 -0.944143 -0.196782
vn -0.182200 -0.977163 0.109345
vn -0.257472 -0.966247 0.008668
vn -0.014948 -0.996174 -0.086104
vn 0.193003 -0.980922 -0.023263
vn -0.024253 -0.999690 -0.005650
vn -0.193472 -0.962136 -0.191999
vn 0.054604 -0.953040 -0.297883
vn 0.179475 -0.972161 -0.150637
vn 0.137471 -0.985123 -0.103124
vn 0.072136 -0.995747 -0.057301
vn -0.067324 -0.996179 -0.055623
vn -0.099856 -0.988587 -0.112801
vn 0.005499 -0.999042 0.043404
vn 0.111046 -0.993551 0.022925
vn 0.020691 -0.998979 0.040159
vn -0.079675 -0.996789 0.007976
vn -0.160942 -0.986608 0.026497
vn -0.105327 -0.993726 -0.037617
vn 0.023875 -0.965022 0.261080
vn -0.015690 -0.922022 0.386820
vn -0.056880 -0.920923 0.385571
vn -0.063105 -0.981408 0.181260
vn 0.085812 -0.993177 -0.078967
vn 0.306934 -0.938660 -0.157190
vn 0.409498 -0.884908 -0.221920
vn -0.232272 -0.957619 -0.170340
vn -0.451104 -0.864666 -0.221039
vn -0.103649 -0.990422 -0.091215
vn 0.112666 -0.993504 -0.016001
vn -0.003912 -0.987413 -0.158117
vn 0.023665 -0.960923 -0.275801
vn 0.129875 -0.955678 -0.264221
vn 0.014669 -0.989229 -0.145640
vn -0.002443 -0.999760 -0.021781
vn 0.032519 -0.994097 -0.103502
vn 0.046806 -0.989672 -0.135495
vn -0.715097 -0.699018 0.003133
vn -0.740873 -0.566667 -0.360550
vn -0.457652 -0.463016 -0.759059
vn -0.710361 -0.314753 -0.629537
vn -0.848825 0.151604 -0.506471
vn -0.121054 -0.108917 -0.986652
vn 0.193475 -0.431261 -0.881239
vn 0.475713 -0.523708 -0.706701
vn 0.709410 -0.150836 -0.688467
vn 0.825194 -0.189084 -0.532262
vn 0.677703 -0.431449 -0.595459
vn 0.805055 -0.591083 -0.050068
vn 0.995667 -0.092737 0.006902
vn 0.994369 0.008513 0.105632
vn 0.751073 -0.405049 0.521369
vn 0.459365 -0.715432 0.526442
vn 0.533236 -0.712838 0.455546
vn 0.233239 -0.712468 0.661807
vn -0.400378 -0.294431 0.867761
vn -0.125346 -0.120424 0.984777
vn -0.589351 -0.439890 0.677615
vn -0.825828 -0.143146 0.545451
vn -0.824338 0.018825 0.565785
vn -0.858219 -0.327704 0.395057
vn -0.910116 0.379731 0.165813
vn -0.888312 0.356168 -0.289906
vn -0.657391 0.096570 -0.747336
vn -0.521989 -0.173795 -0.835059
vn -0.695134 0.162358 -0.700306
vn -0.377576 0.510352 -0.772643
vn 0.027062 0.330793 -0.943315
vn 0.316907 -0.026164 -0.948096
vn 0.775500 -0.158955 -0.611009
vn 0.810822 0.118479 -0.573176
vn 0.704511 0.265770 -0.658050
vn 0.920700 0.200271 -0.334966
vn 0.980927 -0.162533 0.106608
vn 0.962389 -0.131860 0.237532
vn 0.923384 0.128154 0.361854
vn 0.789456 0.116634 0.602624
vn 0.743807 0.179065 0.643962
vn 0.298045 0.117733 0.947263
vn -0.307702 0.020673 0.951258
vn -0.414533 0.015950 0.909894
vn -0.404611 0.236641 0.883341
vn -0.836658 0.171116 0.520310
vn -0.829644 0.136943 0.541237
vn -0.821633 0.240482 0.516806
vn -0.884194 0.460625 -0.077622
vn -0.887438 0.458262 -0.049495
vn -0.794023 0.140244 -0.591489
vn -0.717828 0.171249 -0.674831
vn -0.432299 0.033140 -0.901121
vn -0.192084 0.141956 -0.971057
vn 0.081072 0.383358 -0.920035
vn -0.018028 0.581924 -0.813043
vn 0.478919 0.293644 -0.827291
vn 0.909868 -0.256227 -0.326325
vn 0.894402 0.007153 -0.447207
vn 0.872093 0.364694 -0.326270
vn 0.870250 0.452942 -0.193673
vn 0.983683 0.179887 0.002936
vn 0.704133 -0.102783 0.702590
vn 0.589623 0.311287 0.745282
vn 0.545681 0.515819 0.660426
vn 0.319687 0.599141 0.734051
vn 0.067892 0.513635 0.855319
vn -0.449470 0.140487 0.882179
vn -0.531772 0.281339 0.798791
vn -0.757707 0.244207 0.605180
vn -0.815014 0.199967 0.543843
vn -0.870532 0.358798 0.336805
vn -0.906572 0.420361 0.037724
vn -0.946239 0.238183 0.218862
vn -0.943752 0.028438 -0.329430
vn -0.350846 0.086166 -0.932460
vn -0.456834 0.501305 -0.734844
vn -0.237514 0.401056 -0.884727
vn 0.306927 0.170317 -0.936370
vn 0.435897 0.327079 -0.838459
vn 0.073015 0.615532 -0.784722
vn 0.473154 0.418726 -0.775109
vn 0.952838 -0.208067 -0.220926
vn 0.978003 -0.185094 -0.096177
vn 0.972562 -0.135194 0.189331
vn 0.905174 0.365268 -0.217345
vn 0.743457 0.374467 0.554117
vn 0.468611 0.259616 0.844395
vn 0.468421 0.260625 0.844190
vn 0.475055 0.332009 0.814919
vn 0.096997 0.267291 0.958722
vn -0.271168 0.396387 0.877123
vn -0.560931 0.369017 0.741069
vn -0.650010 0.269077 0.710693
vn -0.888194 0.285127 0.360298
vn -0.890417 0.436496 0.128952
vn -0.943013 0.153160 0.295414
vn -0.981658 0.181284 0.059015
vn -0.863230 0.489417 -0.123713
vn -0.253816 0.195573 -0.947274
vn -0.195493 0.156174 -0.968190
vn -0.349825 0.382888 -0.854997
vn 0.113489 0.490495 -0.864023
vn 0.424163 0.369706 -0.826682
vn 0.549929 0.219008 -0.805986
vn 0.215814 0.556861 -0.802079
vn 0.549660 0.489107 -0.677236
vn 0.982444 0.123086 -0.140194
vn 0.990734 0.100761 0.091067
vn 0.980382 0.023825 0.195664
vn 0.762353 0.310256 0.567943
vn 0.458972 0.325520 0.826669
vn 0.609422 0.123054 0.783238
vn 0.374842 0.073184 0.924196
vn -0.025040 0.324106 0.945689
vn -0.275875 0.438031 0.855583
vn -0.572747 0.324202 0.752897
vn -0.620988 0.392497 0.678469
vn -0.847327 0.417858 0.327768
vn -0.947578 0.288291 0.137782
vn -0.921250 0.327880 0.209271
vn -0.851202 0.495180 -0.173932
vn -0.725737 0.627280 -0.282535
vn -0.623841 0.602142 -0.498244
vn -0.172334 0.274133 -0.946125
vn -0.236160 0.282952 -0.929606
vn 0.403035 0.193476 -0.894500
vn 0.513353 0.377948 -0.770470
vn 0.280829 0.511224 -0.812272
vn 0.665065 0.413352 -0.621955
vn 0.389886 0.614777 -0.685593
vn 0.664711 0.667243 -0.336075
vn 0.796956 0.594551 0.106630
vn 0.747740 0.637296 0.186384
vn 0.595354 0.651423 0.470321
vn 0.435676 0.553259 0.709994
vn 0.703744 0.544269 0.456635
vn 0.330873 0.454552 0.826986
vn -0.308567 0.389700 0.867710
vn -0.327221 0.537873 0.776929
vn -0.422740 0.527075 0.737212
vn -0.639475 0.523563 0.562987
vn -0.754376 0.506943 0.417044
vn -0.842128 0.343544 0.415690
vn -0.809529 0.582841 0.070426
vn -0.708247 0.624989 -0.328292
vn -0.632221 0.645953 -0.427834
vn -0.647392 0.684845 -0.334471
vn -0.339509 0.692565 -0.636465
vn -0.176767 0.644480 -0.743908
vn -0.008073 0.636293 -0.771405
vn 0.691295 0.334537 -0.640465
vn 0.555043 0.439479 -0.706247
vn 0.537028 0.579384 -0.613119
vn 0.729977 0.567257 -0.381251
vn 0.559515 0.670839 -0.486743
vn 0.729353 0.683270 0.034443
vn 0.719887 0.642408 0.262821
vn 0.633499 0.674013 0.379981
vn 0.451354 0.562792 0.692492
vn 0.640394 0.591859 0.489488
vn 0.435780 0.693693 0.573486
vn -0.098336 0.687441 0.719552
vn -0.462391 0.545342 0.699140
vn -0.361132 0.605225 0.709427
vn -0.573715 0.598269 0.559397
vn -0.667250 0.532827 0.520455
vn -0.702526 0.533584 0.470899
vn -0.674364 0.731032 0.104043
vn -0.627513 0.699300 -0.342354
vn -0.580257 0.675666 -0.454728
vn -0.556643 0.699726 -0.447807
vn -0.425505 0.738722 -0.522719
vn -0.156588 0.715613 -0.680719
vn -0.171378 0.728040 -0.663768
vn 0.221101 0.708124 -0.670578
vn 0.554543 0.620376 -0.554631
vn 0.637810 0.606993 -0.474086
vn 0.683829 0.636849 -0.356093
vn 0.732984 0.635526 -0.242569
vn 0.686925 0.667217 -0.288020
vn 0.705692 0.661092 0.254866
vn 0.673879 0.643988 0.362169
vn 0.561366 0.627237 0.539853
vn 0.503610 0.620239 0.601399
vn 0.331883 0.679272 0.654555
vn -0.062822 0.716589 0.694661
vn -0.278027 0.700397 0.657378
vn -0.296861 0.685474 0.664830
vn -0.458945 0.658483 0.596464
vn -0.547372 0.661532 0.512600
vn -0.653361 0.688357 0.315095
vn -0.039206 0.999231 0.000922
usemtl jedha
f 1//1 2//2 3//3
f 1//1 3//3 4//4
f 1//1 4//4 5//5
f 1//1 5//5 6//6
f 1//1 6//6 7//7
f 1//1 7//7 8//8
f 1//1 8//8 9//9
f 1//1 9//9 10//10
f 1//1 10//10 11//11
f 1//1 11//11 12//12
f 1//1 12//12 13//13
f 1//1 13//13 14//14
f 1//1 14//14 15//15
f 1//1 15//15 16//16
f 1//1 16//16 17//17
f 1//1 17//17 18//18
f 1//1 18//18 19//19
f 1//1 19//19 20//20
f 1//1 20//20 21//21
f 1//1 21//21 22//22
f 1//1 22//22 23//23
f 1//1 23//23 24//24
f 1//1 24//24 25//25
f 1//1 25//25 2//2
f 2//2 26//26 27//27
f 2//2 27//27 3//3
f 3//3 27//27 28//28
f 3//3 28//28 4//4
f 4//4 28//28 29//29
f 4//4 29//29 5//5
f 5//5 29//29 30//30
f 5//5 30//30 6//6
f 6//6 30//30 31//31
f 6//6 31//31 7//7
f 7//7 31//31 32//32
f 7//7 32//32 8//8
f 8//8 32//32 33//33
f 8//8 33//33 9//9
f 9//9 33//33 34//34
f 9//9 34//34 10//10
f 10//10 34//34 35//35
f 10//10 35//35 11//11
f 11//11 35//35 36//36
f 11//11 36//36 12//12
f 12//12 36//36 37//37
f 12//12 37//37 13//13
f 13//13 37//37 38//38
f 13//13 38//38 14//14
f 14//14 38//38 39//39
f 14//14 39//39 15//15
f 15//15 39//39 40//40
f 15//15 40//40 16//16
f 16//16 40//40 41//41
f 16//16 41//41 17//17
f 17//17 41//41 42//42
f 17//17 42//42 18//18
f 18//18 42//42 43//43
f 18//18 43//43 19//19
f 19//19 43//43 44//44
f 19//19 44//44 20//20
f 20//20 44//44 45//45
f 20//20 45//45 21//21
f 21//21 45//45 46//46
f 21//21 46//46 22//22
f 22//22 46//46 47//47
f 22//22 47//47 23//23
f 23//23 47//47 48//48
f 23//23 48//48 24//24
f 24//24 48//48 49//49
f 24//24 49//49 25//25
f 25//25 49//49 26//26
f 25//25 26//26 2//2
f 26//26 50//50 51//51
f 26//26 51//51 27//27
f 27//27 51//51 52//52
f 27//27 52//52 28//28
f 28//28 52//52 53//53
f 28//28 53//53 29//29
f 29//29 53//53 54//54
f 29//29 54//54 30//30
f 30//30 54//54 55//55
f 30//30 55//55 31//31
f 31//31 55//55 56//56
f 31//31 56//56 32//32
f 32//32 56//56 57//57
f 32//32 57//57 33//33
f 33//33 57//57 58//58
f 33//33 58//58 34//34
f 34//34 58//58 59//59
f 34//34 59//59 35//35
f 35//35 59//59 60//60
f 35//35 60//60 36//36
f 36//36 60//60 61//61
f 36//36 61//61 37//37
f 37//37 61//61 62//62
f 37//37 62//62 38//38
f 38//38 62//62 63//63
f 38//38 63//63 39//39
f 39//39 63//63 64//64
f 39//39 64//64 40//40
f 40//40 64//64 65//65
f 40//40 65//65 41//41
f 41//41 65//65 66//66
f 41//41 66//66 42//42
f 42//42 66//66 67//67
f 42//42 67//67 43//43
f 43//43 67//67 68//68
f 43//43 68//68 44//44
f 44//44 68//68 69//69
f 44//44 69//69 45//45
f 45//45 69//69 70//70
f 45//45 70//70 46//46
f 46//46 70//70 71//71
f 46//46 71//71 47//47
f 47//47 71//71 72//72
f 47//47 72//72 48//48
f 48//48 72//72 73//73
f 48//48 73//73 49//49
f 49//49 73//73 50//50
f 49//49 50//50 26//26
f 50//50 74//74 75//75
f 50//50 75//75 51//51
f 51//51 75//75 76//76
f 51//51 76//76 52//52
f 52//52 76//76 77//77
f 52//52 77//77 53//53
f 53//53 77//77 78//78
f 53//53 78//78 54//54
f 54//54 78//78 79//79
f 54//54 79//79 55//55
f 55//55 79//79 80//80
f 55//55 80//80 56//56
f 56//56 80//80 81//81
f 56//56 81//81 57//57
f 57//57 81//81 82//82
f 57//57 82//82 58//58
f 58//58 82//82 83//83
f 58//58 83//83 59//59
f 59//59 83//83 84//84
f 59//59 84//84 60//60
f 60//60 84//84 85//85
f 60//60 85//85 61//61
f 61//61 85//85 86//86
f 61//61 86//86 62//62
f 62//62 86//86 87//87
f 62//62 87//87 63//63
f 63//63 87//87 88//88
f 63//63 88//88 64//64
f 64//64 88//88 89//89
f 64//64 89//89 65//65
f 65//65 89//89 90//90
f 65//65 90//90 66//66
f 66//66 90//90 91//91
f 66//66 91//91 67//67
f 67//67 91//91 92//92
f 67//67 92//92 68//68
f 68//68 92//92 93//93
f 68//68 93//93 69//69
f 69//69 93//93 94//94
f 69//69 94//94 70//70
f 70//70 94//94 95//95
f 70//70 95//95 71//71
f 71//71 95//95 96//96
f 71//71 96//96 72//72
f 72//72 96//96 97//97
f 72//72 97//97 73//73
f 73//73 97//97 74//74
f 73//73 74//74 50//50
f 74//74 98//98 99//99
f 74//74 99//99 75//75
f 75//75 99//99 100//100
f 75//75 100//100 76//76
f 76//76 100//100 101//101
f 76//76 101//101 77//77
f 77//77 101//101 102//102
f 77//77 102//102 78//78
f 78//78 102//102 103//103
f 78//78 103//103 79//79
f 79//79 103//103 104//104
f 79//79 104//104 80//80
f 80//80 104//104 105//105
f 80//80 105//105 81//81
f 81//81 105//105 106//106
f 81//81 106//106 82//82
f 82//82 106//106 107//107
f 82//82 107//107 83//83
f 83//83 107//107 108//108
f 83//83 108//108 84//84
f 84//84 108//108 109//109
f 84//84 109//109 85//85
f 85//85 109//109 110//110
f 85//85 110//110 86//86
f 86//86 110//110 111//111
f 86//86 111//111 87//87
f 87//87 111//111 112//112
f 87//87 112//112 88//88
f 88//88 112//112 113//113
f 88//88 113//113 89//89
f 89//89 113//113 114//114
f 89//89 114//114 90//90
f 90//90 114//114 115//115
f 90//90 115//115 91//91
f 91//91 115//115 116//116
f 91//91 116//116 92//92
f 92//92 116//116 117//117
f 92//92 117//117 93//93
f 93//93 117//117 118//118
f 93//93 118//118 94//94
f 94//94 118//118 119//119
f 94//94 119//119 95//95
f 95//95 119//119 120//120
f 95//95 120//120 96//96
f 96//96 120//120 121//121
f 96//96 121//121 97//97
f 97//97 121//121 98//98
f 97//97 98//98 74//74
f 98//98 122//122 123//123
f 98//98 123//123 99//99
f 99//99 123//123 124//124
f 99//99 124//124 100//100
f 100//100 124//124 125//125
f 100//100 125//125 101//101
f 101//101 125//125 126//126
f 101//101 126//126 102//102
f 102//102 126//126 127//127
f 102//102 127//127 103//103
f 103//103 127//127 128//128
f 103//103 128//128 104//104
f 104//104 128//128 129//129
f 104//104 129//129 105//105
f 105//105 129//129 130//130
f 105//105 130//130 106//106
f 106//106 130//130 131//131
f 106//106 131//131 107//107
f 107//107 131//131 132//132
f 107//107 132//132 108//108
f 108//108 132//132 133//133
f 108//108 133//133 109//109
f 109//109 133//133 134//134
f 109//109 134//134 110//110
f 110//110 134//134 135//135
f 110//110 135//135 111//111
f 111//111 135//135 136//136
f 111//111 136//136 112//112
f 112//112 136//136 137//137
f 112//112 137//137 113//113
f 113//113 137//137 138//138
f 113//113 138//138 114//114
f 114//114 138//138 139//139
f 114//114 139//139 115//115
f 115//115 139//139 140//140
f 115//115 140//140 116//116
f 116//116 140//140 141//141
f 116//116 141//141 117//117
f 117//117 141//141 142//142
f 117//117 142//142 118//118
f 118//118 142//142 143//143
f 118//118 143//143 119//119
f 119//119 143//143 144//144
f 119//119 144//144 120//120
f 120//120 144//144 145//145
f 120//120 145//145 121//121
f 121//121 145//145 122//122
f 121//121 122//122 98//98
f 122//122 146//146 147//147
f 122//122 147//147 123//123
f 123//123 147//147 148//148
f 123//123 148//148 124//124
f 124//124 148//148 149//149
f 124//124 149//149 125//125
f 125//125 149//149 150//150
f 125//125 150//150 126//126
f 126//126 150//150 151//151
f 126//126 151//151 127//127
f 127//127 151//151 152//152
f 127//127 152//152 128//128
f 128//128 152//152 153//153
f 128//128 153//153 129//129
f 129//129 153//153 154//154
f 129//129 154//154 130//130
f 130//130 154//154 155//155
f 130//130 155//155 131//131
f 131//131 155//155 156//156
f 131//131 156//156 132//132
f 132//132 156//156 157//157
f 132//132 157//157 133//133
f 133//133 157//157 158//158
f 133//133 158//158 134//134
f 134//134 158//158 159//159
f 134//134 159//159 135//135
f 135//135 159//159 160//160
f 135//135 160//160 136//136
f 136//136 160//160 161//161
f 136//136 161//161 137//137
f 137//137 161//161 162//162
f 137//137 162//162 138//138
f 138//138 162//162 163//163
f 138//138 163//163 139//139
f 139//139 163//163 164//164
f 139//139 164//164 140//140
f 140//140 164//164 165//165
f 140//140 165//165 141//141
f 141//141 165//165 166//166
f 141//141 166//166 142//142
f 142//142 166//166 167//167
f 142//142 167//167 143//143
f 143//143 167//167 168//168
f 143//143 168//168 144//144
f 144//144 168//168 169//169
f 144//144 169//169 145//145
f 145//145 169//169 146//146
f 145//145 146//146 122//122
f 146//146 170//170 171//171
f 146//146 171//171 147//147
f 147//147 171//171 172//172
f 147//147 172//172 148//148
f 148//148 172//172 173//173
f 148//148 173//173 149//149
f 149//149 173//173 174//174
f 149//149 174//174 150//150
f 150//150 174//174 175//175
f 150//150 175//175 151//151
f 151//151 175//175 176//176
f 151//151 176//176 152//152
f 152//152 176//176 177//177
f 152//152 177//177 153//153
f 153//153 177//177 178//178
f 153//153 178//178 154//154
f 154//154 178//178 179//179
f 154//154 179//179 155//155
f 155//155 179//179 180//180
f 155//155 180//180 156//156
f 156//156 180//180 181//181
f 156//156 181//181 157//157
f 157//157 181//181 182//182
f 157//157 182//182 158//158
f 158//158 182//182 183//183
f 158//158 183//183 159//159
f 159//159 183//183 184//184
f 159//159 184//184 160//160
f 160//160 184//184 185//185
f 160//160 185//185 161//161
f 161//161 185//185 186//186
f 161//161 186//186 162//162
f 162//162 186//186 187//187
f 162//162 187//187 163//163
f 163//163 187//187 188//188
f 163//163 188//188 164//164
f 164//164 188//188 189//189
f 164//164 189//189 165//165
f 165//165 189//189 190//190
f 165//165 190//190 166//166
f 166//166 190//190 191//191
f 166//166 191//191 167//167
f 167//167 191//191 192//192
f 167//167 192//192 168//168
f 168//168 192//192 193//193
f 168//168 193//193 169//169
f 169//169 193//193 170//170
f 169//169 170//170 146//146
f 170//170 194//194 195//195
f 170//170 195//195 171//171
f 171//171 195//195 196//196
f 171//171 196//196 172//172
f 172//172 196//196 197//197
f 172//172 197//197 173//173
f 173//173 197//197 198//198
f 173//173 198//198 174//174
f 174//174 198//198 199//199
f 174//174 199//199 175//175
f 175//175 199//199 200//200
f 175//175 200//200 176//176
f 176//176 200//200 201//201
f 176//176 201//201 177//177
f 177//177 201//201 202//202
f 177//177 202//202 178//178
f 178//178 202//202 203//203
f 178//178 203//203 179//179
f 179//179 203//203 204//204
f 179//179 204//204 180//180
f 180//180 204//204 205//205
f 180//180 205//205 181//181
f 181//181 205//205 206//206
f 181//181 206//206 182//182
f 182//182 206//206 207//207
f 182//182 207//207 183//183
f 183//183 207//207 208//208
f 183//183 208//208 184//184
f 184//184 208//208 209//209
f 184//184 209//209 185//185
f 185//185 209//209 210//210
f 185//185 210//210 186//186
f 186//186 210//210 211//211
f 186//186 211//211 187//187
f 187//187 211//211 212//212
f 187//187 212//212 188//188
f 188//188 212//212 213//213
f 188//188 213//213 189//189
f 189//189 213//213 214//214
f 189//189 214//214 190//190
f 190//190 214//214 215//215
f 190//190 215//215 191//191
f 191//191 215//215 216//216
f 191//191 216//216 192//192
f 192//192 216//216 217//217
f 192//192 217//217 193//193
f 193//193 217//217 194//194
f 193//193 194//194 170//170
f 194//194 218//218 219//219
f 194//194 219//219 195//195
f 195//195 219//219 220//220
f 195//195 220//220 196//196
f 196//196 220//220 221//221
f 196//196 221//221 197//197
f 197//197 221//221 222//222
f 197//197 222//222 198//198
f 198//198 222//222 223//223
f 198//198 223//223 199//199
f 199//199 223//223 224//224
f 199//199 224//224 200//200
f 200//200 224//224 225//225
f 200//200 225//225 201//201
f 201//201 225//225 226//226
f 201//201 226//226 202//202
f 202//202 226//226 227//227
f 202//202 227//227 203//203
f 203//203 227//227 228//228
f 203//203 228//228 204//204
f 204//204 228//228 229//229
f 204//204 229//229 205//205
f 205//205 229//229 230//230
f 205//205 230//230 206//206
f 206//206 230//230 231//231
f 206//206 231//231 207//207
f 207//207 231//231 232//232
f 207//207 232//232 208//208
f 208//208 232//232 233//233
f 208//208 233//233 209//209
f 209//209 233//233 234//234
f 209//209 234//234 210//210
f 210//210 234//234 235//235
f 210//210 235//235 211//211
f 211//211 235//235 236//236
f 211//211 236//236 212//212
f 212//212 236//236 237//237
f 212//212 237//237 213//213
f 213//213 237//237 238//238
f 213//213 238//238 214//214
f 214//214 238//238 239//239
f 214//214 239//239 215//215
f 215//215 239//239 240//240
f 215//215 240//240 216//216
f 216//216 240//240 241//241
f 216//216 241//241 217//217
f 217//217 241//241 218//218
f 217//217 218//218 194//194
f 218//218 242//242 243//243
f 218//218 243//243 219//219
f 219//219 243//243 244//244
f 219//219 244//244 220//220
f 220//220 244//244 245//245
f 220//220 245//245 221//221
f 221//221 245//245 246//246
f 221//221 246//246 222//222
f 222//222 246//246 247//247
f 222//222 247//247 223//223
f 223//223 247//247 248//248
f 223//223 248//248 224//224
f 224//224 248//248 249//249
f 224//224 249//249 225//225
f 225//225 249//249 250//250
f 225//225 250//250 226//226
f 226//226 250//250 251//251
f 226//226 251//251 227//227
f 227//227 251//251 252//252
f 227//227 252//252 228//228
f 228//228 252//252 253//253
f 228//228 253//253 229//229
f 229//229 253//253 254//254
f 229//229 254//254 230//230
f 230//230 254//254 255//255
f 230//230 255//255 231//231
f 231//231 255//255 256//256
f 231//231 256//256 232//232
f 232//232 256//256 257//257
f 232//232 257//257 233//233
f 233//233 257//257 258//258
f 233//233 258//258 234//234
f 234//234 258//258 259//259
f 234//234 259//259 235//235
f 235//235 259//259 260//260
f 235//235 260//260 236//236
f 236//236 260//260 261//261
f 236//236 261//261 237//237
f 237//237 261//261 262//262
f 237//237 262//262 238//238
f 238//238 262//262 263//263
f 238//238 263//263 239//239
f 239//239 263//263 264//264
f 239//239 264//264 240//240
f 240//240 264//264 265//265
f 240//240 265//265 241//241
f 241//241 265//265 242//242
f 241//241 242//242 218//218
f 242//242 266//266 267//267
f 242//242 267//267 243//243
f 243//243 267//267 268//268
f 243//243 268//268 244//244
f 244//244 268//268 269//269
f 244//244 269//269 245//245
f 245//245 269//269 270//270
f 245//245 270//270 246//246
f 246//246 270//270 271//271
f 246//246 271//271 247//247
f 247//247 271//271 272//272
f 247//247 272//272 248//248
f 248//248 272//272 273//273
f 248//248 273//273 249//249
f 249//249 273//273 274//274
f 249//249 274//274 250//250
f 250//250 274//274 275//275
f 250//250 275//275 251//251
f 251//251 275//275 276//276
f 251//251 276//276 252//252
f 252//252 276//276 277//277
f 252//252 277//277 253//253
f 253//253 277//277 278//278
f 253//253 278//278 254//254
f 254//254 278//278 279//279
f 254//254 279//279 255//255
f 255//255 279//279 280//280
f 255//255 280//280 256//256
f 256//256 280//280 281//281
f 256//256 281//281 257//257
f 257//257 281//281 282//282
f 257//257 282//282 258//258
f 258//258 282//282 283//283
f 258//258 283//283 259//259
f 259//259 283//283 284//284
f 259//259 284//284 260//260
f 260//260 284//284 285//285
f 260//260 285//285 261//261
f 261//261 285//285 286//286
f 261//261 286//286 262//262
f 262//262 286//286 287//287
f 262//262 287//287 263//263
f 263//263 287//287 288//288
f 263//263 288//288 264//264
f 264//264 288//288 289//289
f 264//264 289//289 265//265
f 265//265 289//289 266//266
f 265//265 266//266 242//242
f 266//266 290//290 291//291
f 266//266 291//291 267//267
f 267//267 291//291 292//292
f 267//267 292//292 268//268
f 268//268 292//292 293//293
f 268//268 293//293 269//269
f 269//269 293//293 294//294
f 269//269 294//294 270//270
f 270//270 294//294 295//295
f 270//270 295//295 271//271
f 271//271 295//295 296//296
f 271//271 296//296 272//272
f 272//272 296//296 297//297
f 272//272 297//297 273//273
f 273//273 297//297 298//298
f 273//273 298//298 274//274
f 274//274 298//298 299//299
f 274//274 299//299 275//275
f 275//275 299//299 300//300
f 275//275 300//300 276//276
f 276//276 300//300 301//301
f 276//276 301//301 277//277
f 277//277 301//301 302//302
f 277//277 302//302 278//278
f 278//278 302//302 303//303
f 278//278 303//303 279//279
f 279//279 303//303 304//304
f 279//279 304//304 280//280
f 280//280 304//304 305//305
f 280//280 305//305 281//281
f 281//281 305//305 306//306
f 281//281 306//306 282//282
f 282//282 306//306 307//307
f 282//282 307//307 283//283
f 283//283 307//307 308//308
f 283//283 308//308 284//284
f 284//284 308//308 309//309
f 284//284 309//309 285//285
f 285//285 309//309 310//310
f 285//285 310//310 286//286
f 286//286 310//310 311//311
f 286//286 311//311 287//287
f 287//287 311//311 312//312
f 287//287 312//312 288//288
f 288//288 312//312 313//313
f 288//288 313//313 289//289
f 289//289 313//313 290//290
f 289//289 290//290 266//266
f 290//290 314//314 315//315
f 290//290 315//315 291//291
f 291//291 315//315 316//316
f 291//291 316//316 292//292
f 292//292 316//316 317//317
f 292//292 317//317 293//293
f 293//293 317//317 318//318
f 293//293 318//318 294//294
f 294//294 318//318 319//319
f 294//294 319//319 295//295
f 295//295 319//319 320//320
f 295//295 320//320 296//296
f 296//296 320//320 321//321
f 296//296 321//321 297//297
f 297//297 321//321 322//322
f 297//297 322//322 298//298
f 298//298 322//322 323//323
f 298//298 323//323 299//299
f 299//299 323//323 324//324
f 299//299 324//324 300//300
f 300//300 324//324 325//325
f 300//300 325//325 301//301
f 301//301 325//325 326//326
f 301//301 326//326 302//302
f 302//302 326//326 327//327
f 302//302 327//327 303//303
f 303//303 327//327 328//328
f 303//303 328//328 304//304
f 304//304 328//328 329//329
f 304//304 329//329 305//305
f 305//305 329//329 330//330
f 305//305 330//330 306//306
f 306//306 330//330 331//331
f 306//306 331//331 307//307
f 307//307 331//331 332//332
f 307//307 332//332 308//308
f 308//308 332//332 333//333
f 308//308 333//333 309//309
f 309//309 333//333 334//334
f 309//309 334//334 310//310
f 310//310 334//334 335//335
f 310//310 335//335 311//311
f 311//311 335//335 336//336
f 311//311 336//336 312//312
f 312//312 336//336 337//337
f 312//312 337//337 313//313
f 313//313 337//337 314//314
f 313//313 314//314 290//290
f 314//314 338//338 339//339
f 314//314 339//339 315//315
f 315//315 339//339 340//340
f 315//315 340//340 316//316
f 316//316 340//340 341//341
f 316//316 341//341 317//317
f 317//317 341//341 342//342
f 317//317 342//342 318//318
f 318//318 342//342 343//343
f 318//318 343//343 319//319
f 319//319 343//343 344//344
f 319//319 344//344 320//320
f 320//320 344//344 345//345
f 320//320 345//345 321//321
f 321//321 345//345 346//346
f 321//321 346//346 322//322
f 322//322 346//346 347//347
f 322//322 347//347 323//323
f 323//323 347//347 348//348
f 323//323 348//348 324//324
f 324//324 348//348 349//349
f 324//324 349//349 325//325
f 325//325 349//349 350//350
f 325//325 350//350 326//326
f 326//326 350//350 351//351
f 326//326 351//351 327//327
f 327//327 351//351 352//352
f 327//327 352//352 328//328
f 328//328 352//352 353//353
f 328//328 353//353 329//329
f 329//329 353//353 354//354
f 329//329 354//354 330//330
f 330//330 354//354 355//355
f 330//330 355//355 331//331
f 331//331 355//355 356//356
f 331//331 356//356 332//332
f 332//332 356//356 357//357
f 332//332 357//357 333//333
f 333//333 357//357 358//358
f 333//333 358//358 334//334
f 334//334 358//358 359//359
f 334//334 359//359 335//335
f 335//335 359//359 360//360
f 335//335 360//360 336//336
f 336//336 360//360 361//361
f 336//336 361//361 337//337
f 337//337 361//361 338//338
f 337//337 338//338 314//314
f 338//338 362//362 339//339
f 339//339 362//362 340//340
f 340//340 362//362 341//341
f 341//341 362//362 342//342
f 342//342 362//362 343//343
f 343//343 362//362 344//344
f 344//344 362//362 345//345
f 345//345 362//362 346//346
f 346//346 362//362 347//347
f 347//347 362//362 348//348
f 348//348 362//362 349//349
f 349//349 362//362 350//350
f 350//350 362//362 351//351
f 351//351 362//362 352//352
f 352//352 362//362 353//353
f 353//353 362//362 354//354
f 354//354 362//362 355//355
f 355//355 362//362 356//356
f 356//356 362//362 357//357
f 357//357 362//362 358//358
f 358//358 362//362 359//359
f 359//359 362//362 360//360
f 360//360 362//362 361//361
f 361//361 362//362 338//338
