# Ilot flottant - style tatooine
mtllib tatooine.mtl
o tatooine_island
v 0.000000 0.323930 0.000000
v 0.085583 0.300558 0.000000
v 0.082144 0.301584 0.022010
v 0.073761 0.301964 0.042586
v 0.060217 0.299426 0.060217
v 0.042473 0.299493 0.073566
v 0.021849 0.299936 0.081542
v 0.000000 0.300716 0.085269
v -0.021838 0.299943 0.081500
v -0.042348 0.300456 0.073350
v -0.060579 0.300660 0.060579
v -0.073687 0.298053 0.042543
v -0.081765 0.299358 0.021909
v -0.084521 0.300482 0.000000
v -0.082041 0.301169 -0.021983
v -0.073748 0.298064 -0.042579
v -0.059803 0.297689 -0.059803
v -0.042520 0.298696 -0.073648
v -0.022101 0.299073 -0.082484
v -0.000000 0.300249 -0.084501
v 0.021948 0.300559 -0.081911
v 0.042615 0.300918 -0.073811
v 0.060199 0.301378 -0.060199
v 0.074223 0.301210 -0.042853
v 0.082562 0.301531 -0.022122
v 0.172330 0.301038 0.000000
v 0.164369 0.301326 0.044043
v 0.147820 0.300579 0.085344
v 0.120660 0.300590 0.120660
v 0.084894 0.300307 0.147040
v 0.043397 0.303559 0.161960
v 0.000000 0.302902 0.171077
v -0.043352 0.299106 0.161791
v -0.084394 0.300631 0.146174
v -0.122107 0.301331 0.122107
v -0.147524 0.301395 0.085173
v -0.162854 0.295209 0.043637
v -0.168084 0.295799 0.000000
v -0.163956 0.299823 -0.043932
v -0.147769 0.298931 -0.085314
v -0.119002 0.296762 -0.119002
v -0.085082 0.297037 -0.147366
v -0.044406 0.296690 -0.165727
v -0.000000 0.300104 -0.168003
v 0.043793 0.301598 -0.163437
v 0.085460 0.302245 -0.148021
v 0.120587 0.302783 -0.120587
v 0.149669 0.299958 -0.086412
v 0.166039 0.297266 -0.044490
v 0.260243 0.301147 0.000000
v 0.246675 0.304222 0.066096
v 0.222177 0.304717 0.128274
v 0.181329 0.301990 0.181329
v 0.127261 0.303801 0.220422
v 0.064644 0.302108 0.241255
v 0.000000 0.306960 0.257424
v -0.064542 0.304612 0.240874
v -0.126135 0.297484 0.218473
v -0.184584 0.301547 0.184584
v -0.221512 0.301616 0.127890
v -0.243267 0.298947 0.065183
v -0.250690 0.292446 0.000000
v -0.245747 0.294397 -0.065848
v -0.222062 0.299861 -0.128208
v -0.177599 0.298871 -0.177599
v -0.127684 0.296233 -0.221155
v -0.066915 0.300824 -0.249730
v -0.000000 0.302928 -0.250506
v 0.065534 0.303942 -0.244577
v 0.128536 0.303869 -0.222630
v 0.181164 0.298900 -0.181164
v 0.226338 0.292701 -0.130676
v 0.250432 0.298084 -0.067103
v 0.349321 0.302317 0.000000
v 0.329061 0.301600 0.088172
v 0.296832 0.303937 0.171376
v 0.242223 0.306848 0.242223
v 0.169575 0.304733 0.293712
v 0.085590 0.297425 0.319425
v 0.000000 0.298530 0.344310
v -0.085409 0.300737 0.318749
v -0.167574 0.306465 0.290247
v -0.248011 0.296018 0.248011
v -0.295649 0.300896 0.170693
v -0.323003 0.300956 0.086548
v -0.332337 0.299954 0.000000
v -0.327411 0.298389 -0.087730
v -0.296627 0.300408 -0.171258
v -0.235592 0.308218 -0.235592
v -0.170327 0.305335 -0.295016
v -0.089627 0.304375 -0.334493
v -0.000000 0.305946 -0.332011
v 0.087172 0.305081 -0.325332
v 0.171841 0.299284 -0.297637
v 0.241931 0.289396 -0.241931
v 0.304229 0.293361 -0.175647
v 0.335740 0.303159 -0.089961
v 0.439564 0.298584 0.000000
v 0.411528 0.297323 0.110269
v 0.371785 0.306162 0.214650
v 0.303344 0.306024 0.303344
v 0.211835 0.297797 0.366909
v 0.106235 0.293631 0.396473
v 0.000000 0.291919 0.431734
v -0.105951 0.292639 0.395416
v -0.208710 0.292093 0.361496
v -0.312387 0.307254 0.312387
v -0.369937 0.295934 0.213583
v -0.402063 0.297101 0.107732
v -0.413027 0.299276 0.000000
v -0.408950 0.299466 -0.109578
v -0.371465 0.299943 -0.214466
v -0.292983 0.309770 -0.292983
v -0.213011 0.309430 -0.368947
v -0.112543 0.298418 -0.420015
v -0.000000 0.306360 -0.412517
v 0.108707 0.303598 -0.405702
v 0.215376 0.287418 -0.373043
v 0.302887 0.291240 -0.302887
v 0.383342 0.303062 -0.221323
v 0.421964 0.302314 -0.113065
v 0.530972 0.294520 0.000000
v 0.494077 0.308546 0.132387
v 0.447036 0.305689 0.258096
v 0.364691 0.304483 0.364691
v 0.254043 0.291341 0.440015
v 0.126578 0.291294 0.472396
v 0.000000 0.290303 0.519697
v -0.126170 0.287826 0.470875
v -0.249542 0.291129 0.432219
v -0.377713 0.288403 0.377713
v -0.444374 0.309286 0.256559
v -0.480446 0.298074 0.128735
v -0.492759 0.302935 0.000000
v -0.490364 0.295325 -0.131393
v -0.446575 0.310431 -0.257830
v -0.349770 0.309248 -0.349770
v -0.255736 0.310698 -0.442949
v -0.135662 0.311034 -0.506297
v -0.000000 0.310641 -0.492024
v 0.130139 0.289123 -0.485686
v 0.259142 0.291106 -0.448847
v 0.364032 0.303024 -0.364032
v 0.463678 0.307123 -0.267705
v 0.509104 0.299254 -0.136414
v 0.623546 0.308757 0.000000
v 0.576706 0.310761 0.154528
v 0.522585 0.295916 0.301715
v 0.426263 0.295453 0.426263
v 0.296197 0.302231 0.513028
v 0.146621 0.300082 0.547196
v 0.000000 0.302456 0.608198
v -0.146066 0.291918 0.545125
v -0.290071 0.294172 0.502417
v -0.443988 0.288861 0.443988
v -0.518962 0.287535 0.299623
v -0.558153 0.314220 0.149557
v -0.571533 0.303167 0.000000
v -0.571652 0.297667 -0.153174
v -0.521958 0.297027 -0.301352
v -0.405955 0.314303 -0.405955
v -0.298502 0.313429 -0.517021
v -0.158985 0.312850 -0.593339
v -0.000000 0.299584 -0.570533
v 0.151468 0.300498 -0.565285
v 0.303138 0.304368 -0.525050
v 0.425367 0.311001 -0.425367
v 0.545237 0.304456 -0.314793
v 0.597160 0.303791 -0.160009
v 0.717284 0.318650 0.000000
v 0.659415 0.299590 0.176690
v 0.598432 0.286785 0.345505
v 0.488061 0.298503 0.488061
v 0.338298 0.299779 0.585949
v 0.166362 0.303768 0.620872
v 0.000000 0.301171 0.697239
v -0.165637 0.303984 0.618167
v -0.330297 0.297815 0.572090
v -0.511212 0.295099 0.511212
v -0.593699 0.288725 0.342772
v -0.635183 0.294290 0.170197
v -0.649350 0.320456 0.000000
v -0.652815 0.302263 -0.174921
v -0.597613 0.293655 -0.345032
v -0.461537 0.304276 -0.461537
v -0.341309 0.316742 -0.591165
v -0.182511 0.315171 -0.681140
v -0.000000 0.306265 -0.648043
v 0.172693 0.305412 -0.644498
v 0.347364 0.309848 -0.601652
v 0.486890 0.305316 -0.486890
v 0.628018 0.303177 -0.362586
v 0.686131 0.304963 -0.183848
v 0.657867 0.224389 0.000000
v 0.682467 0.227673 0.182866
v 0.599817 0.226733 0.346304
v 0.477530 0.225567 0.477530
v 0.348842 0.227076 0.604212
v 0.178122 0.226437 0.664760
v 0.000000 0.224931 0.665889
v -0.163787 0.222699 0.611260
v -0.318793 0.223021 0.552165
v -0.452688 0.223197 0.452688
v -0.563276 0.223886 0.325208
v -0.654661 0.225731 0.175416
v -0.664310 0.224824 0.000000
v -0.659540 0.226072 -0.176723
v -0.566417 0.224131 -0.327021
v -0.438826 0.221874 -0.438826
v -0.317844 0.222893 -0.550522
v -0.159495 0.221580 -0.595242
v -0.000000 0.225145 -0.669072
v 0.183742 0.227902 -0.685733
v 0.369208 0.229824 -0.639488
v 0.501895 0.227892 -0.501895
v 0.547523 0.222659 -0.316113
v 0.590281 0.221234 -0.158165
v 0.625401 0.149588 0.000000
v 0.622278 0.150930 0.166739
v 0.567260 0.151699 0.327508
v 0.482651 0.153664 0.482651
v 0.317605 0.150287 0.550108
v 0.168825 0.151505 0.630062
v 0.000000 0.152103 0.660683
v -0.158792 0.148741 0.592621
v -0.301576 0.148002 0.522346
v -0.427844 0.148138 0.427844
v -0.512478 0.147189 0.295879
v -0.584637 0.148152 0.156653
v -0.667276 0.152573 0.000000
v -0.633800 0.151781 -0.169826
v -0.553608 0.150575 -0.319626
v -0.436025 0.148963 -0.436025
v -0.304073 0.148358 -0.526670
v -0.160207 0.149131 -0.597901
v -0.000000 0.152941 -0.672429
v 0.180016 0.154588 -0.671827
v 0.335723 0.152871 -0.581489
v 0.414480 0.146790 -0.414480
v 0.507024 0.146740 -0.292730
v 0.589828 0.148535 -0.158044
v 0.572844 0.074869 0.000000
v 0.566190 0.075912 0.151710
v 0.511910 0.076299 0.295551
v 0.423184 0.076876 0.423184
v 0.281591 0.074112 0.487730
v 0.150669 0.075597 0.562306
v 0.000000 0.077508 0.606537
v -0.158429 0.077945 0.591266
v -0.276242 0.073274 0.478465
v -0.384367 0.072576 0.384367
v -0.476676 0.073112 0.275209
v -0.507173 0.071126 0.135897
v -0.562963 0.074095 0.000000
v -0.574896 0.076618 -0.154043
v -0.523103 0.077311 -0.302014
v -0.415503 0.076025 -0.415503
v -0.290849 0.075562 -0.503766
v -0.163112 0.079363 -0.608744
v -0.000000 0.077538 -0.606928
v 0.158364 0.077926 -0.591022
v 0.271304 0.072500 -0.469912
v 0.381295 0.072236 -0.381295
v 0.483334 0.073714 -0.279053
v 0.510823 0.071422 -0.136875
v 0.498944 0.000104 0.000000
v 0.510023 0.002731 0.136660
v 0.432322 0.000127 0.249601
v 0.331603 -0.002607 0.331603
v 0.238612 -0.001860 0.413289
v 0.122448 -0.002232 0.456982
v 0.000000 0.001906 0.518887
v -0.128809 -0.000011 0.480721
v -0.267919 0.003439 0.464049
v -0.343515 -0.001084 0.343515
v -0.414283 -0.001756 0.239187
v -0.463612 -0.001612 0.124224
v -0.487994 -0.000886 0.000000
v -0.480583 -0.000024 -0.128772
v -0.452254 0.002207 -0.261109
v -0.376885 0.003182 -0.376885
v -0.252483 0.000648 -0.437314
v -0.129635 0.000278 -0.483806
v -0.000000 0.001956 -0.519439
v 0.125792 -0.001064 -0.469463
v 0.227541 -0.003861 -0.394112
v 0.346440 -0.000710 -0.346440
v 0.411282 -0.002069 -0.237454
v 0.482001 0.000109 -0.129152
v 0.396169 -0.075608 0.000000
v 0.420767 -0.071188 0.112744
v 0.368976 -0.072259 0.213028
v 0.273647 -0.076636 0.273647
v 0.194477 -0.076416 0.336844
v 0.107688 -0.073377 0.401898
v 0.000000 -0.074071 0.409881
v -0.103999 -0.074974 0.388130
v -0.198505 -0.075514 0.343820
v -0.299162 -0.072592 0.299162
v -0.338752 -0.076169 0.195579
v -0.384380 -0.075409 0.102994
v -0.389503 -0.076355 0.000000
v -0.385970 -0.075225 -0.103420
v -0.361576 -0.073216 -0.208756
v -0.293058 -0.073560 -0.293058
v -0.205222 -0.074008 -0.355455
v -0.109554 -0.072569 -0.408861
v -0.000000 -0.075655 -0.395751
v 0.092645 -0.079890 -0.345756
v 0.197363 -0.075769 -0.341843
v 0.273642 -0.076637 -0.273642
v 0.357295 -0.073770 -0.206284
v 0.368842 -0.077212 -0.098831
v 0.298683 -0.148060 0.000000
v 0.282679 -0.149008 0.075744
v 0.263066 -0.147261 0.151881
v 0.202685 -0.149952 0.202685
v 0.140174 -0.150941 0.242788
v 0.072364 -0.151060 0.270067
v 0.000000 -0.149281 0.290914
v -0.074467 -0.149783 0.277913
v -0.142142 -0.150323 0.246197
v -0.199858 -0.150581 0.199858
v -0.263770 -0.147134 0.152288
v -0.273500 -0.150501 0.073284
v -0.285894 -0.150069 0.000000
v -0.271640 -0.150804 -0.072786
v -0.250269 -0.149584 -0.144493
v -0.215695 -0.147061 -0.215695
v -0.151981 -0.147230 -0.263239
v -0.077900 -0.147698 -0.290727
v -0.000000 -0.150611 -0.282450
v 0.071638 -0.151501 -0.267356
v 0.135298 -0.152474 -0.234344
v 0.211420 -0.148011 -0.211420
v 0.237777 -0.151851 -0.137280
v 0.273090 -0.150568 -0.073174
v 0.157535 -0.223477 0.000000
v 0.152525 -0.223367 0.040869
v 0.140164 -0.222203 0.080924
v 0.110832 -0.223711 0.110832
v 0.080230 -0.222613 0.138962
v 0.041768 -0.222342 0.155879
v 0.000000 -0.224729 0.153293
v -0.037874 -0.226784 0.141348
v -0.074845 -0.225794 0.129635
v -0.105799 -0.225813 0.105799
v -0.130065 -0.225647 0.075093
v -0.156798 -0.222061 0.042014
v -0.159499 -0.222897 0.000000
v -0.150240 -0.224066 -0.040257
v -0.135056 -0.223945 -0.077975
v -0.105685 -0.225861 -0.105685
v -0.082042 -0.221542 -0.142101
v -0.042114 -0.221946 -0.157173
v -0.000000 -0.225412 -0.150981
v 0.036623 -0.228212 -0.136680
v 0.078285 -0.223762 -0.135593
v 0.103561 -0.226748 -0.103561
v 0.135262 -0.223875 -0.078094
v 0.146624 -0.225171 -0.039288
v 0.000000 -0.300000 0.000000
vn 0.011251 -0.999935 0.001656
vn -0.089793 -0.995959 0.001850
vn -0.092608 -0.995652 -0.010083
vn -0.058854 -0.995780 -0.070413
vn -0.033836 -0.995421 -0.089396
vn -0.070473 -0.995849 -0.057600
vn -0.032330 -0.997401 -0.064389
vn 0.027895 -0.996562 -0.078019
vn 0.020262 -0.994873 -0.099078
vn 0.028678 -0.995797 -0.086981
vn 0.075496 -0.996717 -0.029257
vn 0.114225 -0.993363 0.013526
vn 0.118372 -0.990501 -0.069974
vn 0.123730 -0.990681 -0.056945
vn 0.075134 -0.995190 0.062860
vn 0.048957 -0.992861 0.108768
vn 0.088119 -0.993427 0.073054
vn 0.072984 -0.993431 0.088135
vn 0.074071 -0.992545 0.096785
vn 0.032584 -0.995115 0.093185
vn -0.005424 -0.996372 0.084928
vn -0.024574 -0.996660 0.077878
vn -0.068716 -0.996571 0.046091
vn -0.098491 -0.994524 0.034947
vn -0.099596 -0.994013 0.044921
vn 0.002580 -0.999181 0.040375
vn 0.021664 -0.999719 0.009598
vn 0.022035 -0.999753 -0.002998
vn 0.012340 -0.999889 0.008289
vn -0.006445 -0.999742 0.021791
vn -0.033648 -0.999071 0.026916
vn 0.036422 -0.998239 0.046829
vn 0.040801 -0.998733 0.029462
vn -0.022380 -0.999273 -0.030851
vn -0.007878 -0.999967 -0.001784
vn 0.009502 -0.997696 0.067178
vn 0.016914 -0.997995 0.060988
vn 0.053347 -0.997512 -0.046080
vn 0.044434 -0.998292 -0.037935
vn -0.026802 -0.999277 0.026952
vn -0.022025 -0.999654 0.014348
vn 0.019675 -0.999764 -0.009222
vn 0.030603 -0.999326 -0.020273
vn 0.046352 -0.998805 -0.015520
vn 0.021187 -0.999686 -0.013388
vn -0.005356 -0.999932 -0.010363
vn -0.044253 -0.998952 -0.011676
vn -0.040362 -0.999183 -0.002045
vn -0.010869 -0.999651 0.024069
vn 0.002180 -0.999324 0.036702
vn -0.008259 -0.999711 0.022570
vn 0.025781 -0.999625 0.009234
vn 0.030444 -0.999394 0.016856
vn 0.022766 -0.999741 0.000391
vn -0.037148 -0.998759 -0.033159
vn -0.014026 -0.999431 -0.030668
vn 0.032407 -0.998688 0.039649
vn 0.024053 -0.998871 0.040956
vn -0.004775 -0.998978 -0.044942
vn 0.002940 -0.999923 0.012019
vn -0.022577 -0.997364 0.068965
vn -0.034053 -0.999086 0.025832
vn 0.020848 -0.998554 -0.049552
vn 0.008227 -0.998786 -0.048576
vn -0.071629 -0.996977 -0.030118
vn -0.016964 -0.998957 -0.042383
vn 0.030252 -0.998560 -0.044307
vn 0.023128 -0.999112 -0.035217
vn -0.005313 -0.999916 -0.011860
vn -0.058009 -0.998311 -0.003260
vn -0.065373 -0.997846 0.005391
vn -0.013179 -0.999560 0.026580
vn 0.023421 -0.999289 0.029556
vn -0.010288 -0.999926 -0.006493
vn -0.028826 -0.999373 0.020543
vn -0.010243 -0.999787 0.017944
vn 0.013908 -0.999814 -0.013329
vn 0.027428 -0.998736 -0.042119
vn 0.013729 -0.998351 -0.055740
vn -0.017710 -0.996439 -0.082437
vn 0.006818 -0.994809 -0.101528
vn 0.003854 -0.999954 -0.008781
vn 0.008687 -0.998713 0.049975
vn 0.026126 -0.999050 -0.034867
vn 0.013684 -0.999905 0.001884
vn -0.030359 -0.999286 0.022490
vn -0.028693 -0.999532 -0.010584
vn 0.025681 -0.997842 -0.060424
vn -0.027166 -0.998351 -0.050565
vn -0.067771 -0.997426 -0.023417
vn 0.020115 -0.999756 -0.009094
vn 0.002066 -0.999831 -0.018285
vn -0.058840 -0.998263 0.003069
vn -0.073089 -0.996992 0.025790
vn -0.018935 -0.999770 0.010118
vn 0.038321 -0.998954 0.024966
vn 0.020971 -0.999315 0.030492
vn -0.010949 -0.999903 0.008656
vn 0.015395 -0.999612 0.023206
vn -0.015877 -0.999599 0.023458
vn 0.020448 -0.998960 -0.040743
vn 0.010600 -0.997037 -0.076188
vn 0.016243 -0.998654 -0.049259
vn 0.007744 -0.998844 -0.047451
vn 0.012574 -0.997671 -0.067042
vn 0.003529 -0.991078 -0.133239
vn -0.008998 -0.998588 -0.052354
vn -0.033577 -0.997663 0.059510
vn 0.007876 -0.999742 -0.021321
vn 0.001622 -0.999981 0.005958
vn 0.001348 -0.999657 -0.026159
vn -0.018116 -0.998588 -0.049935
vn 0.023643 -0.999050 -0.036615
vn -0.059825 -0.997878 -0.025715
vn -0.017872 -0.999132 -0.037616
vn -0.014883 -0.999754 0.016458
vn -0.062926 -0.997212 0.040116
vn -0.025947 -0.999663 0.000048
vn 0.053260 -0.998580 -0.000897
vn 0.055303 -0.998458 -0.004750
vn -0.005642 -0.999960 -0.006990
vn 0.035319 -0.999056 0.025283
vn 0.024810 -0.999570 0.015630
vn -0.030910 -0.999236 -0.023919
vn 0.003692 -0.999509 -0.031116
vn 0.050074 -0.998708 0.008704
vn 0.020713 -0.998997 0.039694
vn 0.017811 -0.998659 0.048607
vn -0.005697 -0.999984 -0.000603
vn 0.003884 -0.999972 0.006334
vn 0.041498 -0.992701 -0.113241
vn 0.012835 -0.998147 -0.059485
vn -0.088668 -0.994911 0.047854
vn -0.026306 -0.999579 0.012213
vn 0.035540 -0.999345 -0.006847
vn 0.040812 -0.998076 -0.046685
vn -0.024390 -0.998819 -0.042019
vn -0.007810 -0.999816 -0.017499
vn -0.042038 -0.998849 -0.023078
vn -0.042170 -0.998831 -0.023611
vn -0.040041 -0.998555 -0.035832
vn 0.052170 -0.998170 -0.030568
vn 0.076354 -0.996498 -0.034088
vn 0.031049 -0.999361 -0.017707
vn 0.032964 -0.998933 -0.032347
vn 0.074999 -0.997125 -0.010848
vn -0.014964 -0.999335 -0.033254
vn -0.045941 -0.997595 -0.051906
vn -0.041656 -0.998888 -0.022087
vn 0.004068 -0.999754 0.021808
vn 0.022374 -0.997542 0.066403
vn 0.009928 -0.996624 0.081499
vn -0.008378 -0.994643 0.103032
vn -0.011157 -0.998564 0.052398
vn -0.004371 -0.999146 0.041077
vn 0.070947 -0.991635 -0.107825
vn 0.011045 -0.998156 -0.059684
vn -0.119894 -0.991138 0.057191
vn -0.028525 -0.999223 0.027209
vn 0.095622 -0.995411 -0.003696
vn 0.061223 -0.998118 -0.003573
vn -0.026293 -0.999249 -0.028470
vn -0.040469 -0.998825 -0.026669
vn -0.028610 -0.999585 0.003455
vn 0.004171 -0.998554 -0.053599
vn 0.047725 -0.996868 -0.063063
vn 0.026837 -0.999501 -0.016679
vn -0.005149 -0.999929 -0.010752
vn 0.034600 -0.999364 0.008579
vn -0.810295 -0.586012 -0.003420
vn -0.532029 -0.806191 -0.258847
vn -0.558761 -0.731266 -0.391199
vn -0.477506 -0.738172 -0.476541
vn -0.218001 -0.827039 -0.518153
vn -0.131684 -0.782566 -0.608482
vn 0.095428 -0.611236 -0.785674
vn 0.286032 -0.664653 -0.690234
vn 0.366327 -0.452645 -0.812968
vn 0.667946 -0.327012 -0.668515
vn 0.625563 -0.730893 -0.272885
vn 0.659719 -0.734472 -0.159127
vn 0.696556 -0.717255 -0.018824
vn 0.630537 -0.733077 0.254991
vn 0.644805 -0.553245 0.527396
vn 0.659436 -0.413033 0.628130
vn 0.516605 -0.224098 0.826377
vn 0.226296 -0.364983 0.903093
vn -0.049122 -0.807330 0.588053
vn -0.086607 -0.846228 0.525735
vn -0.293779 -0.847608 0.441875
vn -0.602430 -0.645433 0.469568
vn -0.886864 0.025094 0.461348
vn -0.955989 -0.068646 0.285258
vn -0.812020 0.563897 0.150478
vn -0.917479 0.345706 -0.196772
vn -0.850069 0.099432 -0.517200
vn -0.667886 0.175860 -0.723189
vn -0.501665 0.282653 -0.817582
vn -0.179001 -0.075416 -0.980954
vn 0.091946 0.099558 -0.990775
vn 0.358511 0.242319 -0.901527
vn 0.438218 0.324835 -0.838121
vn 0.529490 0.582143 -0.617049
vn 0.660449 0.616291 -0.428942
vn 0.905305 0.300990 -0.299712
vn 0.998128 -0.061124 0.001923
vn 0.962873 0.082714 0.256972
vn 0.780948 0.218937 0.584968
vn 0.620881 0.282961 0.731054
vn 0.494783 0.343258 0.798351
vn 0.356517 0.396335 0.846058
vn 0.138444 0.107751 0.984491
vn -0.139139 -0.022794 0.990011
vn -0.520104 0.258409 0.814074
vn -0.762225 0.391727 0.515328
vn -0.802883 0.483929 0.348125
vn -0.781142 0.572115 0.250002
vn -0.885888 0.450262 0.111658
vn -0.794400 0.594879 -0.122667
vn -0.714839 0.603924 -0.352536
vn -0.558262 0.503281 -0.659585
vn -0.395694 0.584777 -0.708139
vn -0.259389 0.583860 -0.769302
vn 0.081238 0.333382 -0.939285
vn 0.435631 0.212171 -0.874762
vn 0.450859 0.484970 -0.749353
vn 0.613281 0.511722 -0.601687
vn 0.716152 0.569788 -0.403074
vn 0.640685 0.697611 -0.320719
vn 0.803317 0.588251 -0.092964
vn 0.870343 0.420891 0.255644
vn 0.757556 0.329756 0.563356
vn 0.616614 0.233973 0.751694
vn 0.544707 0.224649 0.807977
vn 0.334015 0.144521 0.931422
vn 0.177766 0.409364 0.894886
vn -0.230966 0.577630 0.782942
vn -0.459145 0.693639 0.555023
vn -0.592078 0.681914 0.429462
vn -0.706643 0.609346 0.359656
vn -0.811346 0.495527 0.310114
vn -0.746034 0.653875 0.126017
vn -0.743841 0.645261 -0.174179
vn -0.591473 0.734291 -0.333130
vn -0.438415 0.778913 -0.448426
vn -0.293346 0.734950 -0.611390
vn -0.269000 0.740852 -0.615449
vn -0.035567 0.715867 -0.697330
vn 0.303487 0.559283 -0.771426
vn 0.608903 0.399222 -0.685462
vn 0.554224 0.626186 -0.548385
vn 0.712407 0.598115 -0.367062
vn 0.738642 0.629454 -0.241238
vn 0.641373 0.753867 -0.142567
vn 0.666750 0.737107 0.110081
vn 0.675818 0.615717 0.405170
vn 0.541435 0.530132 0.652539
vn 0.441888 0.618252 0.649999
vn 0.267987 0.609034 0.746499
vn -0.008392 0.676965 0.735967
vn -0.237214 0.776648 0.583564
vn -0.383171 0.770399 0.509574
vn -0.565317 0.661035 0.493406
vn -0.716007 0.556985 0.420833
vn -0.768076 0.586345 0.257408
vn -0.685612 0.719256 0.112279
vn -0.677961 0.714648 -0.172187
vn -0.534094 0.723747 -0.436960
vn -0.414704 0.797011 -0.439084
vn -0.326638 0.764720 -0.555438
vn -0.240089 0.758589 -0.605723
vn -0.050534 0.798173 -0.600305
vn 0.126057 0.811139 -0.571107
vn 0.374243 0.732569 -0.568581
vn 0.648967 0.609852 -0.454887
vn 0.603147 0.713857 -0.355840
vn 0.705287 0.685684 -0.180020
vn 0.676850 0.732703 -0.070854
vn 0.623249 0.778168 0.077565
vn 0.556784 0.789687 0.257654
vn 0.438422 0.755491 0.486848
vn 0.310305 0.725208 0.614642
vn 0.190710 0.804217 0.562908
vn -0.049591 0.825929 0.561589
vn -0.196257 0.815841 0.543955
vn -0.370360 0.751379 0.546134
vn -0.454585 0.712024 0.535139
vn -0.600659 0.714477 0.358790
vn -0.659796 0.722100 0.207945
vn -0.565808 0.820646 0.080007
vn -0.546636 0.834609 -0.067943
vn -0.470478 0.790334 -0.392456
vn -0.386560 0.767568 -0.511284
vn -0.350159 0.799219 -0.488506
vn -0.201068 0.792672 -0.575538
vn -0.019404 0.811883 -0.583498
vn 0.179810 0.815641 -0.549908
vn 0.211921 0.846689 -0.488065
vn 0.430389 0.812250 -0.393721
vn 0.588879 0.761976 -0.269469
vn 0.586763 0.792748 -0.165106
vn 0.598890 0.800734 -0.012484
vn 0.565973 0.819633 0.088752
vn 0.511023 0.828458 0.229156
vn 0.397592 0.829998 0.391182
vn 0.284596 0.817259 0.501091
vn 0.121702 0.805087 0.580537
vn -0.081437 0.813668 0.575597
vn -0.171374 0.822195 0.542795
vn -0.260717 0.790279 0.554514
vn -0.398500 0.790500 0.465089
vn -0.524031 0.799605 0.293297
vn -0.581008 0.796236 0.168636
vn -0.533684 0.844670 0.041409
vn -0.492539 0.866859 -0.077211
vn -0.420405 0.871247 -0.253355
vn -0.334602 0.839878 -0.427372
vn -0.273670 0.836708 -0.474368
vn -0.178602 0.859023 -0.479771
vn -0.013887 0.865265 -0.501123
vn 0.139800 0.856538 -0.496788
vn 0.264885 0.851593 -0.452356
vn 0.304324 0.867212 -0.394120
vn 0.458321 0.852727 -0.250596
vn 0.530980 0.838347 -0.123428
vn 0.537504 0.843251 0.004185
vn 0.516784 0.848705 0.112403
vn 0.461348 0.864827 0.198070
vn 0.379885 0.865111 0.327521
vn 0.258711 0.854306 0.450810
vn 0.113625 0.860799 0.496099
vn -0.061277 0.850420 0.522524
vn -0.189578 0.821949 0.537085
vn -0.198473 0.840306 0.504474
vn -0.363672 0.847696 0.386205
vn -0.451668 0.851684 0.265763
vn -0.503892 0.848773 0.160240
vn -0.460973 0.885964 0.050714
vn -0.452813 0.885638 -0.102981
vn -0.411228 0.889225 -0.200424
vn -0.327903 0.882955 -0.335963
vn -0.254713 0.877982 -0.405302
vn -0.130437 0.875819 -0.464680
vn -0.010582 0.881019 -0.472963
vn 0.112212 0.882939 -0.455880
vn 0.217307 0.881960 -0.418240
vn 0.322456 0.880005 -0.348730
vn 0.360133 0.888034 -0.285832
vn 0.451224 0.883428 -0.126303
vn 0.476454 0.879123 -0.011552
vn 0.464318 0.877830 0.117572
vn 0.419040 0.881415 0.217976
vn 0.358252 0.888908 0.285479
vn 0.257029 0.892273 0.371195
vn 0.114816 0.889053 0.443173
vn -0.041251 0.879443 0.474214
vn -0.104185 0.876483 0.470024
vn -0.225125 0.874123 0.430382
vn -0.288468 0.882934 0.370424
vn -0.416026 0.878976 0.233074
vn -0.454609 0.876891 0.156181
vn -0.000526 0.999999 -0.001218
usemtl tatooine
f 1//1 2//2 3//3
f 1//1 3//3 4//4
f 1//1 4//4 5//5
f 1//1 5//5 6//6
f 1//1 6//6 7//7
f 1//1 7//7 8//8
f 1//1 8//8 9//9
f 1//1 9//9 10//10
f 1//1 10//10 11//11
f 1//1 11//11 12//12
f 1//1 12//12 13//13
f 1//1 13//13 14//14
f 1//1 14//14 15//15
f 1//1 15//15 16//16
f 1//1 16//16 17//17
f 1//1 17//17 18//18
f 1//1 18//18 19//19
f 1//1 19//19 20//20
f 1//1 20//20 21//21
f 1//1 21//21 22//22
f 1//1 22//22 23//23
f 1//1 23//23 24//24
f 1//1 24//24 25//25
f 1//1 25//25 2//2
f 2//2 26//26 27//27
f 2//2 27//27 3//3
f 3//3 27//27 28//28
f 3//3 28//28 4//4
f 4//4 28//28 29//29
f 4//4 29//29 5//5
f 5//5 29//29 30//30
f 5//5 30//30 6//6
f 6//6 30//30 31//31
f 6//6 31//31 7//7
f 7//7 31//31 32//32
f 7//7 32//32 8//8
f 8//8 32//32 33//33
f 8//8 33//33 9//9
f 9//9 33//33 34//34
f 9//9 34//34 10//10
f 10//10 34//34 35//35
f 10//10 35//35 11//11
f 11//11 35//35 36//36
f 11//11 36//36 12//12
f 12//12 36//36 37//37
f 12//12 37//37 13//13
f 13//13 37//37 38//38
f 13//13 38//38 14//14
f 14//14 38//38 39//39
f 14//14 39//39 15//15
f 15//15 39//39 40//40
f 15//15 40//40 16//16
f 16//16 40//40 41//41
f 16//16 41//41 17//17
f 17//17 41//41 42//42
f 17//17 42//42 18//18
f 18//18 42//42 43//43
f 18//18 43//43 19//19
f 19//19 43//43 44//44
f 19//19 44//44 20//20
f 20//20 44//44 45//45
f 20//20 45//45 21//21
f 21//21 45//45 46//46
f 21//21 46//46 22//22
f 22//22 46//46 47//47
f 22//22 47//47 23//23
f 23//23 47//47 48//48
f 23//23 48//48 24//24
f 24//24 48//48 49//49
f 24//24 49//49 25//25
f 25//25 49//49 26//26
f 25//25 26//26 2//2
f 26//26 50//50 51//51
f 26//26 51//51 27//27
f 27//27 51//51 52//52
f 27//27 52//52 28//28
f 28//28 52//52 53//53
f 28//28 53//53 29//29
f 29//29 53//53 54//54
f 29//29 54//54 30//30
f 30//30 54//54 55//55
f 30//30 55//55 31//31
f 31//31 55//55 56//56
f 31//31 56//56 32//32
f 32//32 56//56 57//57
f 32//32 57//57 33//33
f 33//33 57//57 58//58
f 33//33 58//58 34//34
f 34//34 58//58 59//59
f 34//34 59//59 35//35
f 35//35 59//59 60//60
f 35//35 60//60 36//36
f 36//36 60//60 61//61
f 36//36 61//61 37//37
f 37//37 61//61 62//62
f 37//37 62//62 38//38
f 38//38 62//62 63//63
f 38//38 63//63 39//39
f 39//39 63//63 64//64
f 39//39 64//64 40//40
f 40//40 64//64 65//65
f 40//40 65//65 41//41
f 41//41 65//65 66//66
f 41//41 66//66 42//42
f 42//42 66//66 67//67
f 42//42 67//67 43//43
f 43//43 67//67 68//68
f 43//43 68//68 44//44
f 44//44 68//68 69//69
f 44//44 69//69 45//45
f 45//45 69//69 70//70
f 45//45 70//70 46//46
f 46//46 70//70 71//71
f 46//46 71//71 47//47
f 47//47 71//71 72//72
f 47//47 72//72 48//48
f 48//48 72//72 73//73
f 48//48 73//73 49//49
f 49//49 73//73 50//50
f 49//49 50//50 26//26
f 50//50 74//74 75//75
f 50//50 75//75 51//51
f 51//51 75//75 76//76
f 51//51 76//76 52//52
f 52//52 76//76 77//77
f 52//52 77//77 53//53
f 53//53 77//77 78//78
f 53//53 78//78 54//54
f 54//54 78//78 79//79
f 54//54 79//79 55//55
f 55//55 79//79 80//80
f 55//55 80//80 56//56
f 56//56 80//80 81//81
f 56//56 81//81 57//57
f 57//57 81//81 82//82
f 57//57 82//82 58//58
f 58//58 82//82 83//83
f 58//58 83//83 59//59
f 59//59 83//83 84//84
f 59//59 84//84 60//60
f 60//60 84//84 85//85
f 60//60 85//85 61//61
f 61//61 85//85 86//86
f 61//61 86//86 62//62
f 62//62 86//86 87//87
f 62//62 87//87 63//63
f 63//63 87//87 88//88
f 63//63 88//88 64//64
f 64//64 88//88 89//89
f 64//64 89//89 65//65
f 65//65 89//89 90//90
f 65//65 90//90 66//66
f 66//66 90//90 91//91
f 66//66 91//91 67//67
f 67//67 91//91 92//92
f 67//67 92//92 68//68
f 68//68 92//92 93//93
f 68//68 93//93 69//69
f 69//69 93//93 94//94
f 69//69 94//94 70//70
f 70//70 94//94 95//95
f 70//70 95//95 71//71
f 71//71 95//95 96//96
f 71//71 96//96 72//72
f 72//72 96//96 97//97
f 72//72 97//97 73//73
f 73//73 97//97 74//74
f 73//73 74//74 50//50
f 74//74 98//98 99//99
f 74//74 99//99 75//75
f 75//75 99//99 100//100
f 75//75 100//100 76//76
f 76//76 100//100 101//101
f 76//76 101//101 77//77
f 77//77 101//101 102//102
f 77//77 102//102 78//78
f 78//78 102//102 103//103
f 78//78 103//103 79//79
f 79//79 103//103 104//104
f 79//79 104//104 80//80
f 80//80 104//104 105//105
f 80//80 105//105 81//81
f 81//81 105//105 106//106
f 81//81 106//106 82//82
f 82//82 106//106 107//107
f 82//82 107//107 83//83
f 83//83 107//107 108//108
f 83//83 108//108 84//84
f 84//84 108//108 109//109
f 84//84 109//109 85//85
f 85//85 109//109 110//110
f 85//85 110//110 86//86
f 86//86 110//110 111//111
f 86//86 111//111 87//87
f 87//87 111//111 112//112
f 87//87 112//112 88//88
f 88//88 112//112 113//113
f 88//88 113//113 89//89
f 89//89 113//113 114//114
f 89//89 114//114 90//90
f 90//90 114//114 115//115
f 90//90 115//115 91//91
f 91//91 115//115 116//116
f 91//91 116//116 92//92
f 92//92 116//116 117//117
f 92//92 117//117 93//93
f 93//93 117//117 118//118
f 93//93 118//118 94//94
f 94//94 118//118 119//119
f 94//94 119//119 95//95
f 95//95 119//119 120//120
f 95//95 120//120 96//96
f 96//96 120//120 121//121
f 96//96 121//121 97//97
f 97//97 121//121 98//98
f 97//97 98//98 74//74
f 98//98 122//122 123//123
f 98//98 123//123 99//99
f 99//99 123//123 124//124
f 99//99 124//124 100//100
f 100//100 124//124 125//125
f 100//100 125//125 101//101
f 101//101 125//125 126//126
f 101//101 126//126 102//102
f 102//102 126//126 127//127
f 102//102 127//127 103//103
f 103//103 127//127 128//128
f 103//103 128//128 104//104
f 104//104 128//128 129//129
f 104//104 129//129 105//105
f 105//105 129//129 130//130
f 105//105 130//130 106//106
f 106//106 130//130 131//131
f 106//106 131//131 107//107
f 107//107 131//131 132//132
f 107//107 132//132 108//108
f 108//108 132//132 133//133
f 108//108 133//133 109//109
f 109//109 133//133 134//134
f 109//109 134//134 110//110
f 110//110 134//134 135//135
f 110//110 135//135 111//111
f 111//111 135//135 136//136
f 111//111 136//136 112//112
f 112//112 136//136 137//137
f 112//112 137//137 113//113
f 113//113 137//137 138//138
f 113//113 138//138 114//114
f 114//114 138//138 139//139
f 114//114 139//139 115//115
f 115//115 139//139 140//140
f 115//115 140//140 116//116
f 116//116 140//140 141//141
f 116//116 141//141 117//117
f 117//117 141//141 142//142
f 117//117 142//142 118//118
f 118//118 142//142 143//143
f 118//118 143//143 119//119
f 119//119 143//143 144//144
f 119//119 144//144 120//120
f 120//120 144//144 145//145
f 120//120 145//145 121//121
f 121//121 145//145 122//122
f 121//121 122//122 98//98
f 122//122 146//146 147//147
f 122//122 147//147 123//123
f 123//123 147//147 148//148
f 123//123 148//148 124//124
f 124//124 148//148 149//149
f 124//124 149//149 125//125
f 125//125 149//149 150//150
f 125//125 150//150 126//126
f 126//126 150//150 151//151
f 126//126 151//151 127//127
f 127//127 151//151 152//152
f 127//127 152//152 128//128
f 128//128 152//152 153//153
f 128//128 153//153 129//129
f 129//129 153//153 154//154
f 129//129 154//154 130//130
f 130//130 154//154 155//155
f 130//130 155//155 131//131
f 131//131 155//155 156//156
f 131//131 156//156 132//132
f 132//132 156//156 157//157
f 132//132 157//157 133//133
f 133//133 157//157 158//158
f 133//133 158//158 134//134
f 134//134 158//158 159//159
f 134//134 159//159 135//135
f 135//135 159//159 160//160
f 135//135 160//160 136//136
f 136//136 160//160 161//161
f 136//136 161//161 137//137
f 137//137 161//161 162//162
f 137//137 162//162 138//138
f 138//138 162//162 163//163
f 138//138 163//163 139//139
f 139//139 163//163 164//164
f 139//139 164//164 140//140
f 140//140 164//164 165//165
f 140//140 165//165 141//141
f 141//141 165//165 166//166
f 141//141 166//166 142//142
f 142//142 166//166 167//167
f 142//142 167//167 143//143
f 143//143 167//167 168//168
f 143//143 168//168 144//144
f 144//144 168//168 169//169
f 144//144 169//169 145//145
f 145//145 169//169 146//146
f 145//145 146//146 122//122
f 146//146 170//170 171//171
f 146//146 171//171 147//147
f 147//147 171//171 172//172
f 147//147 172//172 148//148
f 148//148 172//172 173//173
f 148//148 173//173 149//149
f 149//149 173//173 174//174
f 149//149 174//174 150//150
f 150//150 174//174 175//175
f 150//150 175//175 151//151
f 151//151 175//175 176//176
f 151//151 176//176 152//152
f 152//152 176//176 177//177
f 152//152 177//177 153//153
f 153//153 177//177 178//178
f 153//153 178//178 154//154
f 154//154 178//178 179//179
f 154//154 179//179 155//155
f 155//155 179//179 180//180
f 155//155 180//180 156//156
f 156//156 180//180 181//181
f 156//156 181//181 157//157
f 157//157 181//181 182//182
f 157//157 182//182 158//158
f 158//158 182//182 183//183
f 158//158 183//183 159//159
f 159//159 183//183 184//184
f 159//159 184//184 160//160
f 160//160 184//184 185//185
f 160//160 185//185 161//161
f 161//161 185//185 186//186
f 161//161 186//186 162//162
f 162//162 186//186 187//187
f 162//162 187//187 163//163
f 163//163 187//187 188//188
f 163//163 188//188 164//164
f 164//164 188//188 189//189
f 164//164 189//189 165//165
f 165//165 189//189 190//190
f 165//165 190//190 166//166
f 166//166 190//190 191//191
f 166//166 191//191 167//167
f 167//167 191//191 192//192
f 167//167 192//192 168//168
f 168//168 192//192 193//193
f 168//168 193//193 169//169
f 169//169 193//193 170//170
f 169//169 170//170 146//146
f 170//170 194//194 195//195
f 170//170 195//195 171//171
f 171//171 195//195 196//196
f 171//171 196//196 172//172
f 172//172 196//196 197//197
f 172//172 197//197 173//173
f 173//173 197//197 198//198
f 173//173 198//198 174//174
f 174//174 198//198 199//199
f 174//174 199//199 175//175
f 175//175 199//199 200//200
f 175//175 200//200 176//176
f 176//176 200//200 201//201
f 176//176 201//201 177//177
f 177//177 201//201 202//202
f 177//177 202//202 178//178
f 178//178 202//202 203//203
f 178//178 203//203 179//179
f 179//179 203//203 204//204
f 179//179 204//204 180//180
f 180//180 204//204 205//205
f 180//180 205//205 181//181
f 181//181 205//205 206//206
f 181//181 206//206 182//182
f 182//182 206//206 207//207
f 182//182 207//207 183//183
f 183//183 207//207 208//208
f 183//183 208//208 184//184
f 184//184 208//208 209//209
f 184//184 209//209 185//185
f 185//185 209//209 210//210
f 185//185 210//210 186//186
f 186//186 210//210 211//211
f 186//186 211//211 187//187
f 187//187 211//211 212//212
f 187//187 212//212 188//188
f 188//188 212//212 213//213
f 188//188 213//213 189//189
f 189//189 213//213 214//214
f 189//189 214//214 190//190
f 190//190 214//214 215//215
f 190//190 215//215 191//191
f 191//191 215//215 216//216
f 191//191 216//216 192//192
f 192//192 216//216 217//217
f 192//192 217//217 193//193
f 193//193 217//217 194//194
f 193//193 194//194 170//170
f 194//194 218//218 219//219
f 194//194 219//219 195//195
f 195//195 219//219 220//220
f 195//195 220//220 196//196
f 196//196 220//220 221//221
f 196//196 221//221 197//197
f 197//197 221//221 222//222
f 197//197 222//222 198//198
f 198//198 222//222 223//223
f 198//198 223//223 199//199
f 199//199 223//223 224//224
f 199//199 224//224 200//200
f 200//200 224//224 225//225
f 200//200 225//225 201//201
f 201//201 225//225 226//226
f 201//201 226//226 202//202
f 202//202 226//226 227//227
f 202//202 227//227 203//203
f 203//203 227//227 228//228
f 203//203 228//228 204//204
f 204//204 228//228 229//229
f 204//204 229//229 205//205
f 205//205 229//229 230//230
f 205//205 230//230 206//206
f 206//206 230//230 231//231
f 206//206 231//231 207//207
f 207//207 231//231 232//232
f 207//207 232//232 208//208
f 208//208 232//232 233//233
f 208//208 233//233 209//209
f 209//209 233//233 234//234
f 209//209 234//234 210//210
f 210//210 234//234 235//235
f 210//210 235//235 211//211
f 211//211 235//235 236//236
f 211//211 236//236 212//212
f 212//212 236//236 237//237
f 212//212 237//237 213//213
f 213//213 237//237 238//238
f 213//213 238//238 214//214
f 214//214 238//238 239//239
f 214//214 239//239 215//215
f 215//215 239//239 240//240
f 215//215 240//240 216//216
f 216//216 240//240 241//241
f 216//216 241//241 217//217
f 217//217 241//241 218//218
f 217//217 218//218 194//194
f 218//218 242//242 243//243
f 218//218 243//243 219//219
f 219//219 243//243 244//244
f 219//219 244//244 220//220
f 220//220 244//244 245//245
f 220//220 245//245 221//221
f 221//221 245//245 246//246
f 221//221 246//246 222//222
f 222//222 246//246 247//247
f 222//222 247//247 223//223
f 223//223 247//247 248//248
f 223//223 248//248 224//224
f 224//224 248//248 249//249
f 224//224 249//249 225//225
f 225//225 249//249 250//250
f 225//225 250//250 226//226
f 226//226 250//250 251//251
f 226//226 251//251 227//227
f 227//227 251//251 252//252
f 227//227 252//252 228//228
f 228//228 252//252 253//253
f 228//228 253//253 229//229
f 229//229 253//253 254//254
f 229//229 254//254 230//230
f 230//230 254//254 255//255
f 230//230 255//255 231//231
f 231//231 255//255 256//256
f 231//231 256//256 232//232
f 232//232 256//256 257//257
f 232//232 257//257 233//233
f 233//233 257//257 258//258
f 233//233 258//258 234//234
f 234//234 258//258 259//259
f 234//234 259//259 235//235
f 235//235 259//259 260//260
f 235//235 260//260 236//236
f 236//236 260//260 261//261
f 236//236 261//261 237//237
f 237//237 261//261 262//262
f 237//237 262//262 238//238
f 238//238 262//262 263//263
f 238//238 263//263 239//239
f 239//239 263//263 264//264
f 239//239 264//264 240//240
f 240//240 264//264 265//265
f 240//240 265//265 241//241
f 241//241 265//265 242//242
f 241//241 242//242 218//218
f 242//242 266//266 267//267
f 242//242 267//267 243//243
f 243//243 267//267 268//268
f 243//243 268//268 244//244
f 244//244 268//268 269//269
f 244//244 269//269 245//245
f 245//245 269//269 270//270
f 245//245 270//270 246//246
f 246//246 270//270 271//271
f 246//246 271//271 247//247
f 247//247 271//271 272//272
f 247//247 272//272 248//248
f 248//248 272//272 273//273
f 248//248 273//273 249//249
f 249//249 273//273 274//274
f 249//249 274//274 250//250
f 250//250 274//274 275//275
f 250//250 275//275 251//251
f 251//251 275//275 276//276
f 251//251 276//276 252//252
f 252//252 276//276 277//277
f 252//252 277//277 253//253
f 253//253 277//277 278//278
f 253//253 278//278 254//254
f 254//254 278//278 279//279
f 254//254 279//279 255//255
f 255//255 279//279 280//280
f 255//255 280//280 256//256
f 256//256 280//280 281//281
f 256//256 281//281 257//257
f 257//257 281//281 282//282
f 257//257 282//282 258//258
f 258//258 282//282 283//283
f 258//258 283//283 259//259
f 259//259 283//283 284//284
f 259//259 284//284 260//260
f 260//260 284//284 285//285
f 260//260 285//285 261//261
f 261//261 285//285 286//286
f 261//261 286//286 262//262
f 262//262 286//286 287//287
f 262//262 287//287 263//263
f 263//263 287//287 288//288
f 263//263 288//288 264//264
f 264//264 288//288 289//289
f 264//264 289//289 265//265
f 265//265 289//289 266//266
f 265//265 266//266 242//242
f 266//266 290//290 291//291
f 266//266 291//291 267//267
f 267//267 291//291 292//292
f 267//267 292//292 268//268
f 268//268 292//292 293//293
f 268//268 293//293 269//269
f 269//269 293//293 294//294
f 269//269 294//294 270//270
f 270//270 294//294 295//295
f 270//270 295//295 271//271
f 271//271 295//295 296//296
f 271//271 296//296 272//272
f 272//272 296//296 297//297
f 272//272 297//297 273//273
f 273//273 297//297 298//298
f 273//273 298//298 274//274
f 274//274 298//298 299//299
f 274//274 299//299 275//275
f 275//275 299//299 300//300
f 275//275 300//300 276//276
f 276//276 300//300 301//301
f 276//276 301//301 277//277
f 277//277 301//301 302//302
f 277//277 302//302 278//278
f 278//278 302//302 303//303
f 278//278 303//303 279//279
f 279//279 303//303 304//304
f 279//279 304//304 280//280
f 280//280 304//304 305//305
f 280//280 305//305 281//281
f 281//281 305//305 306//306
f 281//281 306//306 282//282
f 282//282 306//306 307//307
f 282//282 307//307 283//283
f 283//283 307//307 308//308
f 283//283 308//308 284//284
f 284//284 308//308 309//309
f 284//284 309//309 285//285
f 285//285 309//309 310//310
f 285//285 310//310 286//286
f 286//286 310//310 311//311
f 286//286 311//311 287//287
f 287//287 311//311 312//312
f 287//287 312//312 288//288
f 288//288 312//312 313//313
f 288//288 313//313 289//289
f 289//289 313//313 290//290
f 289//289 290//290 266//266
f 290//290 314//314 315//315
f 290//290 315//315 291//291
f 291//291 315//315 316//316
f 291//291 316//316 292//292
f 292//292 316//316 317//317
f 292//292 317//317 293//293
f 293//293 317//317 318//318
f 293//293 318//318 294//294
f 294//294 318//318 319//319
f 294//294 319//319 295//295
f 295//295 319//319 320//320
f 295//295 320//320 296//296
f 296//296 320//320 321//321
f 296//296 321//321 297//297
f 297//297 321//321 322//322
f 297//297 322//322 298//298
f 298//298 322//322 323//323
f 298//298 323//323 299//299
f 299//299 323//323 324//324
f 299//299 324//324 300//300
f 300//300 324//324 325//325
f 300//300 325//325 301//301
f 301//301 325//325 326//326
f 301//301 326//326 302//302
f 302//302 326//326 327//327
f 302//302 327//327 303//303
f 303//303 327//327 328//328
f 303//303 328//328 304//304
f 304//304 328//328 329//329
f 304//304 329//329 305//305
f 305//305 329//329 330//330
f 305//305 330//330 306//306
f 306//306 330//330 331//331
f 306//306 331//331 307//307
f 307//307 331//331 332//332
f 307//307 332//332 308//308
f 308//308 332//332 333//333
f 308//308 333//333 309//309
f 309//309 333//333 334//334
f 309//309 334//334 310//310
f 310//310 334//334 335//335
f 310//310 335//335 311//311
f 311//311 335//335 336//336
f 311//311 336//336 312//312
f 312//312 336//336 337//337
f 312//312 337//337 313//313
f 313//313 337//337 314//314
f 313//313 314//314 290//290
f 314//314 338//338 339//339
f 314//314 339//339 315//315
f 315//315 339//339 340//340
f 315//315 340//340 316//316
f 316//316 340//340 341//341
f 316//316 341//341 317//317
f 317//317 341//341 342//342
f 317//317 342//342 318//318
f 318//318 342//342 343//343
f 318//318 343//343 319//319
f 319//319 343//343 344//344
f 319//319 344//344 320//320
f 320//320 344//344 345//345
f 320//320 345//345 321//321
f 321//321 345//345 346//346
f 321//321 346//346 322//322
f 322//322 346//346 347//347
f 322//322 347//347 323//323
f 323//323 347//347 348//348
f 323//323 348//348 324//324
f 324//324 348//348 349//349
f 324//324 349//349 325//325
f 325//325 349//349 350//350
f 325//325 350//350 326//326
f 326//326 350//350 351//351
f 326//326 351//351 327//327
f 327//327 351//351 352//352
f 327//327 352//352 328//328
f 328//328 352//352 353//353
f 328//328 353//353 329//329
f 329//329 353//353 354//354
f 329//329 354//354 330//330
f 330//330 354//354 355//355
f 330//330 355//355 331//331
f 331//331 355//355 356//356
f 331//331 356//356 332//332
f 332//332 356//356 357//357
f 332//332 357//357 333//333
f 333//333 357//357 358//358
f 333//333 358//358 334//334
f 334//334 358//358 359//359
f 334//334 359//359 335//335
f 335//335 359//359 360//360
f 335//335 360//360 336//336
f 336//336 360//360 361//361
f 336//336 361//361 337//337
f 337//337 361//361 338//338
f 337//337 338//338 314//314
f 338//338 362//362 339//339
f 339//339 362//362 340//340
f 340//340 362//362 341//341
f 341//341 362//362 342//342
f 342//342 362//362 343//343
f 343//343 362//362 344//344
f 344//344 362//362 345//345
f 345//345 362//362 346//346
f 346//346 362//362 347//347
f 347//347 362//362 348//348
f 348//348 362//362 349//349
f 349//349 362//362 350//350
f 350//350 362//362 351//351
f 351//351 362//362 352//352
f 352//352 362//362 353//353
f 353//353 362//362 354//354
f 354//354 362//362 355//355
f 355//355 362//362 356//356
f 356//356 362//362 357//357
f 357//357 362//362 358//358
f 358//358 362//362 359//359
f 359//359 362//362 360//360
f 360//360 362//362 361//361
f 361//361 362//362 338//338
