# Ilot flottant - style yavin
mtllib yavin.mtl
o yavin_island
v 0.000000 0.427772 0.000000
v 0.076933 0.427895 0.000000
v 0.074941 0.427555 0.020080
v 0.067355 0.427565 0.038888
v 0.054938 0.421882 0.054938
v 0.038794 0.424816 0.067193
v 0.019985 0.423820 0.074583
v 0.000000 0.424436 0.077582
v -0.019895 0.422161 0.074250
v -0.038797 0.424492 0.067198
v -0.054266 0.426973 0.054266
v -0.067366 0.422540 0.038894
v -0.075742 0.421968 0.020295
v -0.076889 0.421490 0.000000
v -0.074821 0.422748 -0.020048
v -0.066897 0.425431 -0.038623
v -0.054987 0.429063 -0.054987
v -0.038916 0.426490 -0.067405
v -0.019963 0.426732 -0.074502
v -0.000000 0.428220 -0.077523
v 0.020227 0.424796 -0.075489
v 0.038805 0.426095 -0.067211
v 0.054666 0.421544 -0.054666
v 0.066571 0.423260 -0.038435
v 0.074112 0.427623 -0.019858
v 0.152731 0.424799 0.000000
v 0.150044 0.420879 0.040204
v 0.135187 0.419712 0.078050
v 0.110150 0.417579 0.110150
v 0.077676 0.424924 0.134538
v 0.039821 0.423741 0.148614
v 0.000000 0.427756 0.155329
v -0.039464 0.423730 0.147282
v -0.077686 0.424343 0.134557
v -0.107461 0.424676 0.107461
v -0.135230 0.428499 0.078075
v -0.153248 0.418881 0.041063
v -0.152555 0.417829 0.000000
v -0.149565 0.418860 -0.040076
v -0.133355 0.421025 -0.076993
v -0.110346 0.429170 -0.110346
v -0.078166 0.432571 -0.135387
v -0.039734 0.432030 -0.148291
v -0.000000 0.427920 -0.155092
v 0.040792 0.426239 -0.152236
v 0.077718 0.418087 -0.134612
v 0.109063 0.422015 -0.109063
v 0.132049 0.426962 -0.076239
v 0.146731 0.429870 -0.039317
v 0.227394 0.413655 0.000000
v 0.225310 0.415204 0.060372
v 0.203496 0.420344 0.117488
v 0.165637 0.424067 0.165637
v 0.116645 0.434491 0.202035
v 0.059510 0.433522 0.222093
v 0.000000 0.429683 0.233240
v -0.058706 0.419033 0.219095
v -0.116669 0.420985 0.202077
v -0.159587 0.425475 0.159587
v -0.203592 0.423195 0.117544
v -0.232520 0.427906 0.062304
v -0.227000 0.415603 0.000000
v -0.224232 0.415435 -0.060083
v -0.199374 0.412688 -0.115109
v -0.166078 0.422531 -0.166078
v -0.117748 0.434704 -0.203946
v -0.059315 0.427361 -0.221366
v -0.000000 0.425041 -0.232706
v 0.061693 0.417680 -0.230242
v 0.116741 0.420568 -0.202201
v 0.163190 0.427446 -0.163190
v 0.196435 0.429674 -0.113412
v 0.217857 0.420325 -0.058374
v 0.300922 0.424294 0.000000
v 0.300738 0.420216 0.080583
v 0.272281 0.417287 0.157202
v 0.221399 0.406367 0.221399
v 0.155702 0.422151 0.269684
v 0.079050 0.437465 0.295020
v 0.000000 0.429380 0.311316
v -0.077622 0.424872 0.289690
v -0.155745 0.415268 0.269758
v -0.210642 0.418335 0.210642
v -0.272451 0.423188 0.157300
v -0.313556 0.415756 0.084017
v -0.300222 0.423821 0.000000
v -0.298822 0.430666 -0.080069
v -0.264954 0.424157 -0.152971
v -0.222182 0.405564 -0.222182
v -0.157663 0.429184 -0.273081
v -0.078704 0.430981 -0.293727
v -0.000000 0.424972 -0.310366
v 0.082932 0.429059 -0.309507
v 0.155873 0.428923 -0.269980
v 0.217049 0.429687 -0.217049
v 0.259728 0.424228 -0.149954
v 0.287488 0.414601 -0.077032
v 0.373316 0.433273 0.000000
v 0.376329 0.433008 0.100837
v 0.341543 0.422457 0.197190
v 0.277434 0.408648 0.277434
v 0.194847 0.438317 0.337486
v 0.098443 0.433967 0.367394
v 0.000000 0.431825 0.389556
v -0.096212 0.418576 0.359066
v -0.194914 0.415223 0.337601
v -0.260627 0.412678 0.260627
v -0.341809 0.418978 0.197343
v -0.396358 0.410884 0.106204
v -0.372222 0.409125 0.000000
v -0.373335 0.430413 -0.100035
v -0.330094 0.436414 -0.190580
v -0.278659 0.417055 -0.278659
v -0.197912 0.450493 -0.342793
v -0.097902 0.446498 -0.365375
v -0.000000 0.439349 -0.388072
v 0.104509 0.441798 -0.390031
v 0.195114 0.434162 -0.337947
v 0.270638 0.425054 -0.270638
v 0.321929 0.424120 -0.185866
v 0.355626 0.430998 -0.095290
v 0.444575 0.434753 0.000000
v 0.452083 0.432103 0.121135
v 0.411282 0.427215 0.237454
v 0.333744 0.419879 0.333744
v 0.234080 0.449305 0.405439
v 0.117688 0.451073 0.439217
v 0.000000 0.423999 0.467961
v -0.114475 0.427117 0.427225
v -0.234176 0.413907 0.405605
v -0.309542 0.413183 0.309542
v -0.411664 0.410334 0.237674
v -0.480924 0.427839 0.128863
v -0.442999 0.416710 0.000000
v -0.447771 0.414579 -0.119980
v -0.394795 0.427239 -0.227935
v -0.335508 0.402740 -0.335508
v -0.238493 0.426189 -0.413081
v -0.116908 0.442023 -0.436308
v -0.000000 0.444862 -0.465824
v 0.126422 0.436498 -0.471814
v 0.234464 0.423191 -0.406103
v 0.323957 0.425313 -0.323957
v 0.383038 0.431102 -0.221147
v 0.422271 0.434055 -0.113147
v 0.514700 0.440227 0.000000
v 0.527999 0.442572 0.141477
v 0.481497 0.410742 0.277992
v 0.390329 0.405864 0.390329
v 0.273401 0.410383 0.473544
v 0.136785 0.422276 0.510487
v 0.000000 0.429285 0.546530
v -0.132411 0.407301 0.494164
v -0.273532 0.420630 0.473770
v -0.357387 0.411667 0.357387
v -0.482018 0.412705 0.278293
v -0.567255 0.418367 0.151996
v -0.512555 0.425925 0.000000
v -0.522131 0.421645 -0.139905
v -0.459057 0.432180 -0.265037
v -0.392730 0.408290 -0.392730
v -0.279407 0.432195 -0.483946
v -0.135724 0.454638 -0.506529
v -0.000000 0.436940 -0.543621
v 0.148673 0.406568 -0.554855
v 0.273923 0.423709 -0.474449
v 0.377008 0.434025 -0.377008
v 0.443054 0.442169 -0.255797
v 0.487422 0.444834 -0.130604
v 0.583689 0.431500 0.000000
v 0.604078 0.429119 0.161862
v 0.552189 0.414101 0.318806
v 0.447188 0.390597 0.447188
v 0.312809 0.390661 0.541802
v 0.155733 0.411302 0.581205
v 0.000000 0.394240 0.625264
v -0.150021 0.393876 0.559886
v -0.312980 0.406253 0.542097
v -0.404161 0.415844 0.404161
v -0.552869 0.411140 0.319199
v -0.655351 0.421373 0.175601
v -0.580888 0.435348 0.000000
v -0.596413 0.423448 -0.159809
v -0.522880 0.440138 -0.301885
v -0.450323 0.420889 -0.450323
v -0.320654 0.449874 -0.555388
v -0.154348 0.437440 -0.576035
v -0.000000 0.399988 -0.621464
v 0.171261 0.411130 -0.639156
v 0.313491 0.431680 -0.542983
v 0.429789 0.444896 -0.429789
v 0.501977 0.449112 -0.289817
v 0.551079 0.438893 -0.147661
v 0.534459 0.310625 0.000000
v 0.511478 0.310111 0.137050
v 0.535484 0.319353 0.309162
v 0.434165 0.318903 0.434165
v 0.301418 0.317741 0.522071
v 0.179007 0.326983 0.668064
v 0.000000 0.317762 0.603039
v -0.147495 0.314311 0.550457
v -0.273244 0.311877 0.473273
v -0.396793 0.313403 0.396793
v -0.566363 0.323064 0.326990
v -0.664471 0.326595 0.178045
v -0.700118 0.327866 0.000000
v -0.673305 0.327547 -0.180411
v -0.586860 0.325527 -0.338824
v -0.488008 0.326828 -0.488008
v -0.324427 0.322530 -0.561923
v -0.167868 0.322503 -0.626491
v -0.000000 0.321712 -0.640989
v 0.138639 0.310750 -0.517409
v 0.308372 0.319189 -0.534116
v 0.475626 0.325006 -0.475626
v 0.519792 0.317467 -0.300102
v 0.501137 0.308997 -0.134279
v 0.596734 0.213511 0.000000
v 0.584308 0.214400 0.156565
v 0.491876 0.210390 0.283985
v 0.406471 0.211135 0.406471
v 0.322196 0.218683 0.558060
v 0.161923 0.216646 0.604304
v 0.000000 0.215083 0.611219
v -0.142769 0.208615 0.532822
v -0.271275 0.207631 0.469863
v -0.370615 0.205632 0.370615
v -0.468357 0.207442 0.270406
v -0.603149 0.216517 0.161613
v -0.676777 0.222198 0.000000
v -0.647373 0.221485 -0.173463
v -0.538444 0.216225 -0.310871
v -0.459173 0.219224 -0.459173
v -0.303192 0.214559 -0.525144
v -0.158287 0.215122 -0.590734
v -0.000000 0.210927 -0.572925
v 0.150890 0.212020 -0.563129
v 0.321769 0.218591 -0.557321
v 0.402211 0.210481 -0.402211
v 0.447881 0.204876 -0.258584
v 0.516948 0.206831 -0.138516
v 0.589898 0.111772 0.000000
v 0.591414 0.114400 0.158469
v 0.463924 0.105407 0.267847
v 0.411658 0.110865 0.411658
v 0.249112 0.101007 0.431475
v 0.164045 0.116930 0.612224
v 0.000000 0.108296 0.560292
v -0.143538 0.107626 0.535689
v -0.242093 0.099358 0.419317
v -0.359528 0.102208 0.359528
v -0.409615 0.098043 0.236491
v -0.492551 0.102381 0.131979
v -0.537833 0.105658 0.000000
v -0.588354 0.114028 -0.157649
v -0.519862 0.112992 -0.300142
v -0.429946 0.113902 -0.429946
v -0.272964 0.106609 -0.472787
v -0.137147 0.104726 -0.511841
v -0.000000 0.108013 -0.557889
v 0.149704 0.110424 -0.558705
v 0.257656 0.103013 -0.446273
v 0.343867 0.099607 -0.343867
v 0.425312 0.100171 -0.245554
v 0.549271 0.109277 -0.147177
v 0.499972 0.002949 0.000000
v 0.462395 0.000112 0.123898
v 0.399029 -0.002282 0.230379
v 0.366718 0.005437 0.366718
v 0.229933 -0.002401 0.398256
v 0.126265 0.001332 0.471226
v 0.000000 0.008912 0.544668
v -0.131532 0.004047 0.490886
v -0.237448 -0.000396 0.411271
v -0.304678 -0.006268 0.304678
v -0.399256 -0.002247 0.230511
v -0.415166 -0.006411 0.111243
v -0.508882 0.004138 0.000000
v -0.454844 -0.000931 -0.121875
v -0.446188 0.004983 -0.257607
v -0.388716 0.009587 -0.388716
v -0.279393 0.010795 -0.483922
v -0.129622 0.003063 -0.483756
v -0.000000 0.007893 -0.537030
v 0.117478 -0.003197 -0.438435
v 0.210564 -0.007569 -0.364708
v 0.309613 -0.005337 -0.309613
v 0.434903 0.003244 -0.251091
v 0.457604 -0.000549 -0.122615
v 0.383286 -0.107608 0.000000
v 0.379016 -0.106127 0.101557
v 0.374551 -0.099598 0.216247
v 0.299196 -0.101123 0.299196
v 0.217474 -0.099199 0.376677
v 0.097750 -0.108522 0.364807
v 0.000000 -0.099450 0.433403
v -0.108126 -0.101995 0.403533
v -0.208010 -0.102280 0.360285
v -0.263947 -0.109238 0.263947
v -0.296258 -0.114314 0.171045
v -0.362396 -0.108928 0.097104
v -0.383518 -0.107571 0.000000
v -0.407936 -0.101253 -0.109306
v -0.362765 -0.101814 -0.209443
v -0.294765 -0.102143 -0.294765
v -0.205606 -0.103062 -0.356121
v -0.115295 -0.097487 -0.430286
v -0.000000 -0.107775 -0.382260
v 0.088958 -0.114051 -0.331997
v 0.180125 -0.111358 -0.311985
v 0.287284 -0.103865 -0.287284
v 0.314029 -0.110974 -0.181305
v 0.407407 -0.101343 -0.109164
v 0.265504 -0.216561 0.000000
v 0.299972 -0.206433 0.080377
v 0.252965 -0.210582 0.146049
v 0.200751 -0.212424 0.200751
v 0.143713 -0.211633 0.248919
v 0.080654 -0.206193 0.301003
v 0.000000 -0.204602 0.318700
v -0.081417 -0.205530 0.303852
v -0.153255 -0.207342 0.265446
v -0.210127 -0.209443 0.210127
v -0.242300 -0.213351 0.139892
v -0.259381 -0.215881 0.069501
v -0.279175 -0.213488 0.000000
v -0.306700 -0.204867 -0.082180
v -0.284364 -0.202431 -0.164178
v -0.207245 -0.210360 -0.207245
v -0.138508 -0.213973 -0.239902
v -0.067273 -0.217816 -0.251065
v -0.000000 -0.220625 -0.247426
v 0.073764 -0.212178 -0.275291
v 0.153801 -0.207097 -0.266392
v 0.186103 -0.217081 -0.186103
v 0.260737 -0.208565 -0.150537
v 0.259667 -0.215814 -0.069578
v 0.125636 -0.330210 0.000000
v 0.157133 -0.314793 0.042104
v 0.152023 -0.309439 0.087771
v 0.104178 -0.321180 0.104178
v 0.076090 -0.319162 0.131792
v 0.036341 -0.324060 0.135627
v 0.000000 -0.321887 0.145632
v -0.041476 -0.315802 0.154791
v -0.084215 -0.312399 0.145865
v -0.117151 -0.313545 0.117151
v -0.143684 -0.313447 0.082956
v -0.143215 -0.320791 0.038374
v -0.159377 -0.316167 0.000000
v -0.165690 -0.311106 -0.044397
v -0.142826 -0.313859 -0.082461
v -0.113441 -0.315729 -0.113441
v -0.072014 -0.322555 -0.124731
v -0.033148 -0.329195 -0.123711
v -0.000000 -0.317739 -0.155600
v 0.041273 -0.316129 -0.154035
v 0.070747 -0.323610 -0.122537
v 0.108470 -0.318655 -0.108470
v 0.129669 -0.320182 -0.074864
v 0.131127 -0.325999 -0.035136
v 0.000000 -0.425000 0.000000
vn 0.010581 -0.999848 -0.013855
vn -0.033562 -0.998828 -0.034879
vn -0.053937 -0.997994 -0.033155
vn 0.014900 -0.992486 -0.121449
vn -0.050737 -0.998187 -0.032372
vn -0.024712 -0.999691 0.002636
vn -0.029667 -0.999551 -0.004233
vn 0.058267 -0.998186 0.015143
vn -0.000611 -0.999790 -0.020501
vn -0.057857 -0.996364 -0.062548
vn -0.002995 -0.999991 0.002970
vn 0.070560 -0.987144 0.143414
vn 0.056910 -0.998239 0.016727
vn 0.062577 -0.997860 -0.018989
vn 0.080411 -0.994857 -0.061600
vn 0.123717 -0.984675 -0.122917
vn 0.016463 -0.998545 -0.051349
vn -0.055214 -0.998292 -0.019069
vn -0.011160 -0.999649 -0.024037
vn -0.045082 -0.998928 -0.010536
vn -0.107736 -0.994166 -0.005091
vn -0.044186 -0.998577 0.029875
vn -0.018107 -0.999789 0.009737
vn 0.063034 -0.992009 0.109297
vn 0.015625 -0.999353 0.032386
vn -0.080258 -0.994623 -0.065445
vn -0.052645 -0.998015 -0.034566
vn -0.013981 -0.999747 -0.017633
vn -0.037567 -0.997626 0.057713
vn -0.021685 -0.995174 0.095704
vn 0.009326 -0.998654 0.051013
vn 0.042423 -0.998912 0.019349
vn 0.035750 -0.999211 -0.017326
vn -0.023949 -0.999295 -0.028916
vn -0.011292 -0.999194 -0.038512
vn 0.004421 -0.998857 0.047596
vn 0.001798 -0.989583 0.143951
vn 0.041051 -0.999147 0.004386
vn 0.060773 -0.998150 -0.001965
vn 0.143476 -0.986993 -0.072526
vn 0.136722 -0.986676 -0.088187
vn -0.027627 -0.999531 -0.013175
vn -0.047133 -0.998841 0.009751
vn -0.073226 -0.996973 0.026116
vn -0.086323 -0.996245 0.006595
vn -0.006005 -0.999942 0.008945
vn 0.061189 -0.997501 0.035330
vn 0.024444 -0.999440 0.022862
vn -0.059863 -0.998068 -0.016653
vn -0.001712 -0.998683 -0.051278
vn -0.032539 -0.999378 0.013567
vn -0.058222 -0.998078 -0.021245
vn -0.141359 -0.989912 0.009556
vn -0.095883 -0.993640 0.059047
vn 0.071231 -0.995560 0.061526
vn 0.080639 -0.995790 0.043594
vn 0.083762 -0.996334 0.017372
vn -0.001828 -0.996841 -0.079404
vn 0.006832 -0.998937 -0.045580
vn 0.039800 -0.998831 -0.027446
vn 0.019782 -0.999214 0.034362
vn -0.078899 -0.995690 0.048746
vn -0.089961 -0.995941 0.002818
vn 0.018317 -0.999638 0.019713
vn 0.239143 -0.969711 -0.049706
vn 0.044441 -0.998949 -0.011220
vn -0.069099 -0.997479 0.016136
vn -0.049617 -0.998734 -0.008227
vn -0.014839 -0.999290 -0.034616
vn 0.050037 -0.998696 -0.010097
vn 0.052605 -0.998539 0.012315
vn -0.036918 -0.998381 -0.043278
vn -0.050752 -0.997856 -0.041317
vn 0.112173 -0.993685 0.002596
vn 0.123194 -0.992054 -0.025546
vn 0.065595 -0.996672 -0.048402
vn -0.093697 -0.994955 0.035861
vn -0.131012 -0.989557 0.060109
vn -0.027097 -0.999624 -0.004135
vn 0.093067 -0.995653 0.003727
vn 0.085877 -0.996178 0.015929
vn 0.046564 -0.998900 -0.005531
vn 0.016659 -0.995017 -0.098302
vn 0.045753 -0.998947 0.003321
vn 0.101107 -0.994820 -0.010546
vn 0.069770 -0.995014 -0.071275
vn -0.100548 -0.994065 -0.041521
vn -0.218643 -0.974653 0.047396
vn 0.051087 -0.993129 -0.105282
vn 0.079944 -0.986046 -0.146023
vn -0.071091 -0.992525 -0.099196
vn -0.014694 -0.995030 -0.098486
vn 0.019748 -0.993808 -0.109342
vn 0.028569 -0.997482 -0.064915
vn -0.001175 -0.999928 -0.011926
vn -0.000834 -0.998971 -0.045349
vn 0.054396 -0.998156 -0.026935
vn 0.080211 -0.996750 0.007434
vn 0.090671 -0.995223 -0.036205
vn 0.127202 -0.991195 -0.036759
vn -0.006775 -0.993512 0.113528
vn -0.027569 -0.977912 0.207190
vn 0.063704 -0.995328 0.072549
vn 0.053684 -0.998481 -0.012403
vn 0.077218 -0.996349 0.036418
vn 0.038720 -0.999250 -0.000020
vn 0.020213 -0.998812 -0.044341
vn -0.001088 -0.998806 -0.048847
vn -0.045935 -0.997331 0.056756
vn 0.078648 -0.994471 -0.069578
vn 0.149334 -0.984485 -0.092133
vn -0.032889 -0.995342 0.090623
vn 0.082732 -0.996410 0.017962
vn 0.131201 -0.988458 -0.075748
vn -0.051409 -0.994509 -0.091156
vn -0.053458 -0.993856 -0.096920
vn -0.035113 -0.998420 -0.043870
vn -0.048731 -0.998495 -0.025147
vn -0.010973 -0.999749 -0.019541
vn 0.033944 -0.999419 0.003155
vn 0.092437 -0.995682 -0.008484
vn 0.067381 -0.997704 -0.006886
vn 0.031468 -0.997154 -0.068512
vn -0.045212 -0.994670 -0.092668
vn -0.094854 -0.994152 -0.051611
vn -0.176390 -0.980900 -0.081989
vn 0.057880 -0.997583 -0.038450
vn 0.126098 -0.991780 -0.021714
vn 0.044216 -0.997765 -0.050095
vn 0.036303 -0.997306 0.063740
vn 0.010866 -0.999911 0.007803
vn 0.011328 -0.996803 -0.079097
vn -0.038472 -0.998832 -0.029232
vn -0.129806 -0.991187 0.026447
vn 0.026797 -0.997329 -0.067943
vn -0.008944 -0.998222 0.058936
vn 0.046804 -0.998549 0.026628
vn 0.194926 -0.980121 -0.036972
vn 0.025678 -0.999493 0.018832
vn -0.058390 -0.994616 0.085617
vn -0.069387 -0.990481 0.118880
vn -0.044523 -0.998812 0.019796
vn 0.052259 -0.998621 -0.004975
vn 0.118166 -0.992747 -0.022131
vn 0.100712 -0.994819 -0.013858
vn -0.030974 -0.999508 -0.004944
vn 0.033150 -0.995673 -0.086817
vn 0.005958 -0.989980 -0.141084
vn -0.126408 -0.980399 -0.151129
vn -0.201811 -0.955895 -0.213392
vn -0.108409 -0.947348 -0.301296
vn 0.075684 -0.973115 -0.217529
vn 0.041415 -0.982571 -0.181215
vn 0.012162 -0.997455 -0.070260
vn -0.000699 -0.999464 0.032736
vn -0.016391 -0.999666 -0.019976
vn -0.019853 -0.997210 -0.071963
vn -0.072115 -0.997282 0.015090
vn -0.060213 -0.997111 -0.046299
vn -0.120457 -0.992576 -0.016810
vn -0.075467 -0.993983 -0.079389
vn 0.062765 -0.989955 -0.126686
vn 0.010814 -0.996234 0.086031
vn -0.067976 -0.985217 0.157247
vn -0.032968 -0.994760 0.096775
vn 0.060626 -0.997427 0.038252
vn 0.122408 -0.992151 -0.025556
vn 0.096407 -0.995081 -0.022814
vn 0.022058 -0.999553 -0.020182
vn -0.997338 -0.028443 0.067147
vn -0.999282 -0.028599 -0.024868
vn -0.666330 -0.545549 -0.508311
vn -0.496115 -0.579880 -0.646227
vn -0.437633 -0.675437 -0.593517
vn -0.070316 -0.792500 -0.605804
vn 0.121834 -0.480367 -0.868564
vn 0.339558 -0.336423 -0.878362
vn 0.488982 -0.161484 -0.857216
vn 0.513509 -0.526348 -0.677692
vn 0.537822 -0.675482 -0.504451
vn 0.585690 -0.802223 -0.115778
vn 0.483443 -0.872587 0.069817
vn 0.530546 -0.828921 0.177229
vn 0.528736 -0.799172 0.285942
vn 0.398962 -0.759897 0.513211
vn 0.316778 -0.687130 0.653838
vn 0.065807 -0.714712 0.696316
vn -0.118320 -0.356060 0.926942
vn -0.160836 0.043119 0.986039
vn -0.350496 -0.641015 0.682826
vn -0.595109 -0.726122 0.344372
vn -0.868820 -0.455090 0.195053
vn -0.959542 -0.114906 0.257052
vn -0.995008 -0.078697 0.061359
vn -0.974221 0.214172 -0.070880
vn -0.871842 0.397870 -0.285640
vn -0.730888 0.168157 -0.661457
vn -0.590910 0.086286 -0.802110
vn -0.212217 -0.058760 -0.975454
vn 0.293381 -0.077398 -0.952857
vn 0.420195 0.145064 -0.895764
vn 0.472058 0.345442 -0.811068
vn 0.528234 0.391306 -0.753557
vn 0.578492 0.369516 -0.727190
vn 0.894654 0.184825 -0.406735
vn 0.960877 -0.268119 0.069476
vn 0.914873 -0.255819 0.312354
vn 0.865109 -0.108064 0.489804
vn 0.651728 -0.088751 0.753242
vn 0.444062 0.079368 0.892474
vn 0.163787 0.040255 0.985674
vn -0.190067 -0.005854 0.981754
vn -0.207448 0.189921 0.959633
vn -0.353093 0.302441 0.885356
vn -0.753238 0.235340 0.614205
vn -0.977377 0.064274 0.201501
vn -0.984525 -0.012438 0.174802
vn -0.958255 -0.214438 0.189114
vn -0.868271 -0.306155 -0.390352
vn -0.896512 0.128568 -0.423954
vn -0.696621 0.376462 -0.610734
vn -0.636846 0.341518 -0.691225
vn -0.207921 0.194557 -0.958601
vn 0.229438 0.221634 -0.947753
vn 0.490536 0.123238 -0.862663
vn 0.533551 0.240154 -0.810956
vn 0.698660 0.267451 -0.663584
vn 0.534412 0.583564 -0.611439
vn 0.643282 0.646463 -0.410212
vn 0.823158 0.552219 -0.132152
vn 0.881244 0.326422 0.341844
vn 0.795673 0.327371 0.509641
vn 0.597146 0.406437 0.691539
vn 0.350967 0.441612 0.825712
vn 0.205552 0.415238 0.886186
vn -0.038106 0.310802 0.949711
vn -0.284543 0.154593 0.946116
vn -0.446371 0.343532 0.826280
vn -0.722968 0.483817 0.493192
vn -0.816005 0.407660 0.409816
vn -0.932536 -0.024300 0.360259
vn -0.904127 0.409403 0.122247
vn -0.825388 0.457112 -0.331334
vn -0.781349 0.383353 -0.492477
vn -0.574606 0.286091 -0.766799
vn -0.531130 0.592645 -0.605535
vn -0.349864 0.559349 -0.751481
vn 0.200888 0.260399 -0.944371
vn 0.494223 0.225113 -0.839683
vn 0.603152 0.310147 -0.734858
vn 0.660422 0.376421 -0.649730
vn 0.808169 0.373209 -0.455607
vn 0.680743 0.578467 -0.449405
vn 0.731566 0.662384 -0.161428
vn 0.733004 0.676258 0.073351
vn 0.765093 0.455923 0.454717
vn 0.622760 0.319632 0.714146
vn 0.250264 0.253970 0.934274
vn 0.296912 0.432019 0.851589
vn -0.022430 0.406133 0.913539
vn -0.320211 0.488884 0.811453
vn -0.471280 0.598931 0.647439
vn -0.643851 0.506926 0.573133
vn -0.774541 0.306825 0.553123
vn -0.813620 0.336070 0.474425
vn -0.737973 0.673546 0.041607
vn -0.726857 0.657125 -0.199663
vn -0.715709 0.560919 -0.416090
vn -0.630065 0.560671 -0.537276
vn -0.262230 0.416103 -0.870686
vn -0.443812 0.678439 -0.585450
vn 0.037843 0.607036 -0.793773
vn 0.360129 0.479818 -0.800051
vn 0.702610 0.344720 -0.622500
vn 0.624286 0.524142 -0.579260
vn 0.739902 0.520340 -0.426370
vn 0.772456 0.522878 -0.360432
vn 0.812039 0.562280 -0.156313
vn 0.779523 0.613053 0.128493
vn 0.677487 0.689416 0.256353
vn 0.568788 0.677766 0.465954
vn 0.327808 0.510140 0.795172
vn 0.115934 0.432320 0.894236
vn -0.092373 0.600723 0.794102
vn -0.354364 0.632990 0.688295
vn -0.442253 0.585326 0.679563
vn -0.529471 0.521123 0.669396
vn -0.671484 0.482674 0.562259
vn -0.805757 0.532667 0.258887
vn -0.732690 0.680322 0.018082
vn -0.724847 0.676793 -0.128641
vn -0.675809 0.653081 -0.341712
vn -0.552574 0.697257 -0.456611
vn -0.278904 0.618364 -0.734737
vn -0.241664 0.613764 -0.751593
vn -0.128969 0.721688 -0.680098
vn 0.248921 0.687363 -0.682328
vn 0.498359 0.622760 -0.603165
vn 0.753181 0.517593 -0.405976
vn 0.648230 0.637906 -0.415780
vn 0.716775 0.643071 -0.269616
vn 0.705374 0.677352 -0.208906
vn 0.753329 0.639940 0.151566
vn 0.656905 0.658420 0.367367
vn 0.477456 0.749946 0.457839
vn 0.345843 0.787847 0.509598
vn 0.074847 0.744588 0.663315
vn -0.105416 0.721919 0.683901
vn -0.295969 0.648785 0.701056
vn -0.341952 0.604352 0.719602
vn -0.509184 0.597704 0.619258
vn -0.601194 0.671687 0.432900
vn -0.672632 0.712985 0.198036
vn -0.644034 0.761112 0.077004
vn -0.669657 0.738013 -0.083044
vn -0.556887 0.758379 -0.338731
vn -0.440043 0.780746 -0.443619
vn -0.362401 0.791424 -0.492254
vn -0.183330 0.754129 -0.630618
vn -0.085107 0.764204 -0.639335
vn 0.189861 0.762078 -0.619023
vn 0.351763 0.752851 -0.556308
vn 0.567302 0.707483 -0.421470
vn 0.709784 0.653882 -0.262003
vn 0.665456 0.704575 -0.246460
vn 0.670960 0.728820 -0.136507
vn 0.650478 0.759152 0.023787
vn 0.543475 0.756822 0.363118
vn 0.389248 0.747634 0.538080
vn 0.255547 0.765871 0.590032
vn 0.172872 0.794354 0.582338
vn -0.006655 0.760857 0.648885
vn -0.093938 0.710127 0.697779
vn -0.372135 0.687766 0.623292
vn -0.443024 0.735178 0.513072
vn -0.610638 0.731782 0.302683
vn -0.630387 0.757977 0.167576
vn -0.622812 0.777898 0.083548
vn -0.600254 0.798492 0.045891
vn -0.498385 0.801769 -0.329817
vn -0.406139 0.788045 -0.462641
vn -0.317861 0.797001 -0.513569
vn -0.204684 0.811283 -0.547654
vn -0.072134 0.822208 -0.564598
vn 0.091313 0.820672 -0.564056
vn 0.272231 0.813005 -0.514698
vn 0.418001 0.803578 -0.423718
vn 0.552860 0.788788 -0.268626
vn 0.611954 0.776298 -0.151240
vn 0.613344 0.784093 -0.094907
vn 0.585171 0.808926 0.056689
vn 0.501778 0.823647 0.264242
vn 0.366262 0.804097 0.468273
vn 0.238626 0.785104 0.571549
vn 0.182171 0.775012 0.605120
vn 0.082805 0.762420 0.641762
vn -0.095041 0.781271 0.616914
vn -0.249523 0.806613 0.535829
vn -0.465472 0.785174 0.408457
vn -0.488746 0.797974 0.352654
vn -0.618387 0.782898 0.068322
vn 0.019002 0.999763 -0.010603
usemtl yavin
f 1//1 2//2 3//3
f 1//1 3//3 4//4
f 1//1 4//4 5//5
f 1//1 5//5 6//6
f 1//1 6//6 7//7
f 1//1 7//7 8//8
f 1//1 8//8 9//9
f 1//1 9//9 10//10
f 1//1 10//10 11//11
f 1//1 11//11 12//12
f 1//1 12//12 13//13
f 1//1 13//13 14//14
f 1//1 14//14 15//15
f 1//1 15//15 16//16
f 1//1 16//16 17//17
f 1//1 17//17 18//18
f 1//1 18//18 19//19
f 1//1 19//19 20//20
f 1//1 20//20 21//21
f 1//1 21//21 22//22
f 1//1 22//22 23//23
f 1//1 23//23 24//24
f 1//1 24//24 25//25
f 1//1 25//25 2//2
f 2//2 26//26 27//27
f 2//2 27//27 3//3
f 3//3 27//27 28//28
f 3//3 28//28 4//4
f 4//4 28//28 29//29
f 4//4 29//29 5//5
f 5//5 29//29 30//30
f 5//5 30//30 6//6
f 6//6 30//30 31//31
f 6//6 31//31 7//7
f 7//7 31//31 32//32
f 7//7 32//32 8//8
f 8//8 32//32 33//33
f 8//8 33//33 9//9
f 9//9 33//33 34//34
f 9//9 34//34 10//10
f 10//10 34//34 35//35
f 10//10 35//35 11//11
f 11//11 35//35 36//36
f 11//11 36//36 12//12
f 12//12 36//36 37//37
f 12//12 37//37 13//13
f 13//13 37//37 38//38
f 13//13 38//38 14//14
f 14//14 38//38 39//39
f 14//14 39//39 15//15
f 15//15 39//39 40//40
f 15//15 40//40 16//16
f 16//16 40//40 41//41
f 16//16 41//41 17//17
f 17//17 41//41 42//42
f 17//17 42//42 18//18
f 18//18 42//42 43//43
f 18//18 43//43 19//19
f 19//19 43//43 44//44
f 19//19 44//44 20//20
f 20//20 44//44 45//45
f 20//20 45//45 21//21
f 21//21 45//45 46//46
f 21//21 46//46 22//22
f 22//22 46//46 47//47
f 22//22 47//47 23//23
f 23//23 47//47 48//48
f 23//23 48//48 24//24
f 24//24 48//48 49//49
f 24//24 49//49 25//25
f 25//25 49//49 26//26
f 25//25 26//26 2//2
f 26//26 50//50 51//51
f 26//26 51//51 27//27
f 27//27 51//51 52//52
f 27//27 52//52 28//28
f 28//28 52//52 53//53
f 28//28 53//53 29//29
f 29//29 53//53 54//54
f 29//29 54//54 30//30
f 30//30 54//54 55//55
f 30//30 55//55 31//31
f 31//31 55//55 56//56
f 31//31 56//56 32//32
f 32//32 56//56 57//57
f 32//32 57//57 33//33
f 33//33 57//57 58//58
f 33//33 58//58 34//34
f 34//34 58//58 59//59
f 34//34 59//59 35//35
f 35//35 59//59 60//60
f 35//35 60//60 36//36
f 36//36 60//60 61//61
f 36//36 61//61 37//37
f 37//37 61//61 62//62
f 37//37 62//62 38//38
f 38//38 62//62 63//63
f 38//38 63//63 39//39
f 39//39 63//63 64//64
f 39//39 64//64 40//40
f 40//40 64//64 65//65
f 40//40 65//65 41//41
f 41//41 65//65 66//66
f 41//41 66//66 42//42
f 42//42 66//66 67//67
f 42//42 67//67 43//43
f 43//43 67//67 68//68
f 43//43 68//68 44//44
f 44//44 68//68 69//69
f 44//44 69//69 45//45
f 45//45 69//69 70//70
f 45//45 70//70 46//46
f 46//46 70//70 71//71
f 46//46 71//71 47//47
f 47//47 71//71 72//72
f 47//47 72//72 48//48
f 48//48 72//72 73//73
f 48//48 73//73 49//49
f 49//49 73//73 50//50
f 49//49 50//50 26//26
f 50//50 74//74 75//75
f 50//50 75//75 51//51
f 51//51 75//75 76//76
f 51//51 76//76 52//52
f 52//52 76//76 77//77
f 52//52 77//77 53//53
f 53//53 77//77 78//78
f 53//53 78//78 54//54
f 54//54 78//78 79//79
f 54//54 79//79 55//55
f 55//55 79//79 80//80
f 55//55 80//80 56//56
f 56//56 80//80 81//81
f 56//56 81//81 57//57
f 57//57 81//81 82//82
f 57//57 82//82 58//58
f 58//58 82//82 83//83
f 58//58 83//83 59//59
f 59//59 83//83 84//84
f 59//59 84//84 60//60
f 60//60 84//84 85//85
f 60//60 85//85 61//61
f 61//61 85//85 86//86
f 61//61 86//86 62//62
f 62//62 86//86 87//87
f 62//62 87//87 63//63
f 63//63 87//87 88//88
f 63//63 88//88 64//64
f 64//64 88//88 89//89
f 64//64 89//89 65//65
f 65//65 89//89 90//90
f 65//65 90//90 66//66
f 66//66 90//90 91//91
f 66//66 91//91 67//67
f 67//67 91//91 92//92
f 67//67 92//92 68//68
f 68//68 92//92 93//93
f 68//68 93//93 69//69
f 69//69 93//93 94//94
f 69//69 94//94 70//70
f 70//70 94//94 95//95
f 70//70 95//95 71//71
f 71//71 95//95 96//96
f 71//71 96//96 72//72
f 72//72 96//96 97//97
f 72//72 97//97 73//73
f 73//73 97//97 74//74
f 73//73 74//74 50//50
f 74//74 98//98 99//99
f 74//74 99//99 75//75
f 75//75 99//99 100//100
f 75//75 100//100 76//76
f 76//76 100//100 101//101
f 76//76 101//101 77//77
f 77//77 101//101 102//102
f 77//77 102//102 78//78
f 78//78 102//102 103//103
f 78//78 103//103 79//79
f 79//79 103//103 104//104
f 79//79 104//104 80//80
f 80//80 104//104 105//105
f 80//80 105//105 81//81
f 81//81 105//105 106//106
f 81//81 106//106 82//82
f 82//82 106//106 107//107
f 82//82 107//107 83//83
f 83//83 107//107 108//108
f 83//83 108//108 84//84
f 84//84 108//108 109//109
f 84//84 109//109 85//85
f 85//85 109//109 110//110
f 85//85 110//110 86//86
f 86//86 110//110 111//111
f 86//86 111//111 87//87
f 87//87 111//111 112//112
f 87//87 112//112 88//88
f 88//88 112//112 113//113
f 88//88 113//113 89//89
f 89//89 113//113 114//114
f 89//89 114//114 90//90
f 90//90 114//114 115//115
f 90//90 115//115 91//91
f 91//91 115//115 116//116
f 91//91 116//116 92//92
f 92//92 116//116 117//117
f 92//92 117//117 93//93
f 93//93 117//117 118//118
f 93//93 118//118 94//94
f 94//94 118//118 119//119
f 94//94 119//119 95//95
f 95//95 119//119 120//120
f 95//95 120//120 96//96
f 96//96 120//120 121//121
f 96//96 121//121 97//97
f 97//97 121//121 98//98
f 97//97 98//98 74//74
f 98//98 122//122 123//123
f 98//98 123//123 99//99
f 99//99 123//123 124//124
f 99//99 124//124 100//100
f 100//100 124//124 125//125
f 100//100 125//125 101//101
f 101//101 125//125 126//126
f 101//101 126//126 102//102
f 102//102 126//126 127//127
f 102//102 127//127 103//103
f 103//103 127//127 128//128
f 103//103 128//128 104//104
f 104//104 128//128 129//129
f 104//104 129//129 105//105
f 105//105 129//129 130//130
f 105//105 130//130 106//106
f 106//106 130//130 131//131
f 106//106 131//131 107//107
f 107//107 131//131 132//132
f 107//107 132//132 108//108
f 108//108 132//132 133//133
f 108//108 133//133 109//109
f 109//109 133//133 134//134
f 109//109 134//134 110//110
f 110//110 134//134 135//135
f 110//110 135//135 111//111
f 111//111 135//135 136//136
f 111//111 136//136 112//112
f 112//112 136//136 137//137
f 112//112 137//137 113//113
f 113//113 137//137 138//138
f 113//113 138//138 114//114
f 114//114 138//138 139//139
f 114//114 139//139 115//115
f 115//115 139//139 140//140
f 115//115 140//140 116//116
f 116//116 140//140 141//141
f 116//116 141//141 117//117
f 117//117 141//141 142//142
f 117//117 142//142 118//118
f 118//118 142//142 143//143
f 118//118 143//143 119//119
f 119//119 143//143 144//144
f 119//119 144//144 120//120
f 120//120 144//144 145//145
f 120//120 145//145 121//121
f 121//121 145//145 122//122
f 121//121 122//122 98//98
f 122//122 146//146 147//147
f 122//122 147//147 123//123
f 123//123 147//147 148//148
f 123//123 148//148 124//124
f 124//124 148//148 149//149
f 124//124 149//149 125//125
f 125//125 149//149 150//150
f 125//125 150//150 126//126
f 126//126 150//150 151//151
f 126//126 151//151 127//127
f 127//127 151//151 152//152
f 127//127 152//152 128//128
f 128//128 152//152 153//153
f 128//128 153//153 129//129
f 129//129 153//153 154//154
f 129//129 154//154 130//130
f 130//130 154//154 155//155
f 130//130 155//155 131//131
f 131//131 155//155 156//156
f 131//131 156//156 132//132
f 132//132 156//156 157//157
f 132//132 157//157 133//133
f 133//133 157//157 158//158
f 133//133 158//158 134//134
f 134//134 158//158 159//159
f 134//134 159//159 135//135
f 135//135 159//159 160//160
f 135//135 160//160 136//136
f 136//136 160//160 161//161
f 136//136 161//161 137//137
f 137//137 161//161 162//162
f 137//137 162//162 138//138
f 138//138 162//162 163//163
f 138//138 163//163 139//139
f 139//139 163//163 164//164
f 139//139 164//164 140//140
f 140//140 164//164 165//165
f 140//140 165//165 141//141
f 141//141 165//165 166//166
f 141//141 166//166 142//142
f 142//142 166//166 167//167
f 142//142 167//167 143//143
f 143//143 167//167 168//168
f 143//143 168//168 144//144
f 144//144 168//168 169//169
f 144//144 169//169 145//145
f 145//145 169//169 146//146
f 145//145 146//146 122//122
f 146//146 170//170 171//171
f 146//146 171//171 147//147
f 147//147 171//171 172//172
f 147//147 172//172 148//148
f 148//148 172//172 173//173
f 148//148 173//173 149//149
f 149//149 173//173 174//174
f 149//149 174//174 150//150
f 150//150 174//174 175//175
f 150//150 175//175 151//151
f 151//151 175//175 176//176
f 151//151 176//176 152//152
f 152//152 176//176 177//177
f 152//152 177//177 153//153
f 153//153 177//177 178//178
f 153//153 178//178 154//154
f 154//154 178//178 179//179
f 154//154 179//179 155//155
f 155//155 179//179 180//180
f 155//155 180//180 156//156
f 156//156 180//180 181//181
f 156//156 181//181 157//157
f 157//157 181//181 182//182
f 157//157 182//182 158//158
f 158//158 182//182 183//183
f 158//158 183//183 159//159
f 159//159 183//183 184//184
f 159//159 184//184 160//160
f 160//160 184//184 185//185
f 160//160 185//185 161//161
f 161//161 185//185 186//186
f 161//161 186//186 162//162
f 162//162 186//186 187//187
f 162//162 187//187 163//163
f 163//163 187//187 188//188
f 163//163 188//188 164//164
f 164//164 188//188 189//189
f 164//164 189//189 165//165
f 165//165 189//189 190//190
f 165//165 190//190 166//166
f 166//166 190//190 191//191
f 166//166 191//191 167//167
f 167//167 191//191 192//192
f 167//167 192//192 168//168
f 168//168 192//192 193//193
f 168//168 193//193 169//169
f 169//169 193//193 170//170
f 169//169 170//170 146//146
f 170//170 194//194 195//195
f 170//170 195//195 171//171
f 171//171 195//195 196//196
f 171//171 196//196 172//172
f 172//172 196//196 197//197
f 172//172 197//197 173//173
f 173//173 197//197 198//198
f 173//173 198//198 174//174
f 174//174 198//198 199//199
f 174//174 199//199 175//175
f 175//175 199//199 200//200
f 175//175 200//200 176//176
f 176//176 200//200 201//201
f 176//176 201//201 177//177
f 177//177 201//201 202//202
f 177//177 202//202 178//178
f 178//178 202//202 203//203
f 178//178 203//203 179//179
f 179//179 203//203 204//204
f 179//179 204//204 180//180
f 180//180 204//204 205//205
f 180//180 205//205 181//181
f 181//181 205//205 206//206
f 181//181 206//206 182//182
f 182//182 206//206 207//207
f 182//182 207//207 183//183
f 183//183 207//207 208//208
f 183//183 208//208 184//184
f 184//184 208//208 209//209
f 184//184 209//209 185//185
f 185//185 209//209 210//210
f 185//185 210//210 186//186
f 186//186 210//210 211//211
f 186//186 211//211 187//187
f 187//187 211//211 212//212
f 187//187 212//212 188//188
f 188//188 212//212 213//213
f 188//188 213//213 189//189
f 189//189 213//213 214//214
f 189//189 214//214 190//190
f 190//190 214//214 215//215
f 190//190 215//215 191//191
f 191//191 215//215 216//216
f 191//191 216//216 192//192
f 192//192 216//216 217//217
f 192//192 217//217 193//193
f 193//193 217//217 194//194
f 193//193 194//194 170//170
f 194//194 218//218 219//219
f 194//194 219//219 195//195
f 195//195 219//219 220//220
f 195//195 220//220 196//196
f 196//196 220//220 221//221
f 196//196 221//221 197//197
f 197//197 221//221 222//222
f 197//197 222//222 198//198
f 198//198 222//222 223//223
f 198//198 223//223 199//199
f 199//199 223//223 224//224
f 199//199 224//224 200//200
f 200//200 224//224 225//225
f 200//200 225//225 201//201
f 201//201 225//225 226//226
f 201//201 226//226 202//202
f 202//202 226//226 227//227
f 202//202 227//227 203//203
f 203//203 227//227 228//228
f 203//203 228//228 204//204
f 204//204 228//228 229//229
f 204//204 229//229 205//205
f 205//205 229//229 230//230
f 205//205 230//230 206//206
f 206//206 230//230 231//231
f 206//206 231//231 207//207
f 207//207 231//231 232//232
f 207//207 232//232 208//208
f 208//208 232//232 233//233
f 208//208 233//233 209//209
f 209//209 233//233 234//234
f 209//209 234//234 210//210
f 210//210 234//234 235//235
f 210//210 235//235 211//211
f 211//211 235//235 236//236
f 211//211 236//236 212//212
f 212//212 236//236 237//237
f 212//212 237//237 213//213
f 213//213 237//237 238//238
f 213//213 238//238 214//214
f 214//214 238//238 239//239
f 214//214 239//239 215//215
f 215//215 239//239 240//240
f 215//215 240//240 216//216
f 216//216 240//240 241//241
f 216//216 241//241 217//217
f 217//217 241//241 218//218
f 217//217 218//218 194//194
f 218//218 242//242 243//243
f 218//218 243//243 219//219
f 219//219 243//243 244//244
f 219//219 244//244 220//220
f 220//220 244//244 245//245
f 220//220 245//245 221//221
f 221//221 245//245 246//246
f 221//221 246//246 222//222
f 222//222 246//246 247//247
f 222//222 247//247 223//223
f 223//223 247//247 248//248
f 223//223 248//248 224//224
f 224//224 248//248 249//249
f 224//224 249//249 225//225
f 225//225 249//249 250//250
f 225//225 250//250 226//226
f 226//226 250//250 251//251
f 226//226 251//251 227//227
f 227//227 251//251 252//252
f 227//227 252//252 228//228
f 228//228 252//252 253//253
f 228//228 253//253 229//229
f 229//229 253//253 254//254
f 229//229 254//254 230//230
f 230//230 254//254 255//255
f 230//230 255//255 231//231
f 231//231 255//255 256//256
f 231//231 256//256 232//232
f 232//232 256//256 257//257
f 232//232 257//257 233//233
f 233//233 257//257 258//258
f 233//233 258//258 234//234
f 234//234 258//258 259//259
f 234//234 259//259 235//235
f 235//235 259//259 260//260
f 235//235 260//260 236//236
f 236//236 260//260 261//261
f 236//236 261//261 237//237
f 237//237 261//261 262//262
f 237//237 262//262 238//238
f 238//238 262//262 263//263
f 238//238 263//263 239//239
f 239//239 263//263 264//264
f 239//239 264//264 240//240
f 240//240 264//264 265//265
f 240//240 265//265 241//241
f 241//241 265//265 242//242
f 241//241 242//242 218//218
f 242//242 266//266 267//267
f 242//242 267//267 243//243
f 243//243 267//267 268//268
f 243//243 268//268 244//244
f 244//244 268//268 269//269
f 244//244 269//269 245//245
f 245//245 269//269 270//270
f 245//245 270//270 246//246
f 246//246 270//270 271//271
f 246//246 271//271 247//247
f 247//247 271//271 272//272
f 247//247 272//272 248//248
f 248//248 272//272 273//273
f 248//248 273//273 249//249
f 249//249 273//273 274//274
f 249//249 274//274 250//250
f 250//250 274//274 275//275
f 250//250 275//275 251//251
f 251//251 275//275 276//276
f 251//251 276//276 252//252
f 252//252 276//276 277//277
f 252//252 277//277 253//253
f 253//253 277//277 278//278
f 253//253 278//278 254//254
f 254//254 278//278 279//279
f 254//254 279//279 255//255
f 255//255 279//279 280//280
f 255//255 280//280 256//256
f 256//256 280//280 281//281
f 256//256 281//281 257//257
f 257//257 281//281 282//282
f 257//257 282//282 258//258
f 258//258 282//282 283//283
f 258//258 283//283 259//259
f 259//259 283//283 284//284
f 259//259 284//284 260//260
f 260//260 284//284 285//285
f 260//260 285//285 261//261
f 261//261 285//285 286//286
f 261//261 286//286 262//262
f 262//262 286//286 287//287
f 262//262 287//287 263//263
f 263//263 287//287 288//288
f 263//263 288//288 264//264
f 264//264 288//288 289//289
f 264//264 289//289 265//265
f 265//265 289//289 266//266
f 265//265 266//266 242//242
f 266//266 290//290 291//291
f 266//266 291//291 267//267
f 267//267 291//291 292//292
f 267//267 292//292 268//268
f 268//268 292//292 293//293
f 268//268 293//293 269//269
f 269//269 293//293 294//294
f 269//269 294//294 270//270
f 270//270 294//294 295//295
f 270//270 295//295 271//271
f 271//271 295//295 296//296
f 271//271 296//296 272//272
f 272//272 296//296 297//297
f 272//272 297//297 273//273
f 273//273 297//297 298//298
f 273//273 298//298 274//274
f 274//274 298//298 299//299
f 274//274 299//299 275//275
f 275//275 299//299 300//300
f 275//275 300//300 276//276
f 276//276 300//300 301//301
f 276//276 301//301 277//277
f 277//277 301//301 302//302
f 277//277 302//302 278//278
f 278//278 302//302 303//303
f 278//278 303//303 279//279
f 279//279 303//303 304//304
f 279//279 304//304 280//280
f 280//280 304//304 305//305
f 280//280 305//305 281//281
f 281//281 305//305 306//306
f 281//281 306//306 282//282
f 282//282 306//306 307//307
f 282//282 307//307 283//283
f 283//283 307//307 308//308
f 283//283 308//308 284//284
f 284//284 308//308 309//309
f 284//284 309//309 285//285
f 285//285 309//309 310//310
f 285//285 310//310 286//286
f 286//286 310//310 311//311
f 286//286 311//311 287//287
f 287//287 311//311 312//312
f 287//287 312//312 288//288
f 288//288 312//312 313//313
f 288//288 313//313 289//289
f 289//289 313//313 290//290
f 289//289 290//290 266//266
f 290//290 314//314 315//315
f 290//290 315//315 291//291
f 291//291 315//315 316//316
f 291//291 316//316 292//292
f 292//292 316//316 317//317
f 292//292 317//317 293//293
f 293//293 317//317 318//318
f 293//293 318//318 294//294
f 294//294 318//318 319//319
f 294//294 319//319 295//295
f 295//295 319//319 320//320
f 295//295 320//320 296//296
f 296//296 320//320 321//321
f 296//296 321//321 297//297
f 297//297 321//321 322//322
f 297//297 322//322 298//298
f 298//298 322//322 323//323
f 298//298 323//323 299//299
f 299//299 323//323 324//324
f 299//299 324//324 300//300
f 300//300 324//324 325//325
f 300//300 325//325 301//301
f 301//301 325//325 326//326
f 301//301 326//326 302//302
f 302//302 326//326 327//327
f 302//302 327//327 303//303
f 303//303 327//327 328//328
f 303//303 328//328 304//304
f 304//304 328//328 329//329
f 304//304 329//329 305//305
f 305//305 329//329 330//330
f 305//305 330//330 306//306
f 306//306 330//330 331//331
f 306//306 331//331 307//307
f 307//307 331//331 332//332
f 307//307 332//332 308//308
f 308//308 332//332 333//333
f 308//308 333//333 309//309
f 309//309 333//333 334//334
f 309//309 334//334 310//310
f 310//310 334//334 335//335
f 310//310 335//335 311//311
f 311//311 335//335 336//336
f 311//311 336//336 312//312
f 312//312 336//336 337//337
f 312//312 337//337 313//313
f 313//313 337//337 314//314
f 313//313 314//314 290//290
f 314//314 338//338 339//339
f 314//314 339//339 315//315
f 315//315 339//339 340//340
f 315//315 340//340 316//316
f 316//316 340//340 341//341
f 316//316 341//341 317//317
f 317//317 341//341 342//342
f 317//317 342//342 318//318
f 318//318 342//342 343//343
f 318//318 343//343 319//319
f 319//319 343//343 344//344
f 319//319 344//344 320//320
f 320//320 344//344 345//345
f 320//320 345//345 321//321
f 321//321 345//345 346//346
f 321//321 346//346 322//322
f 322//322 346//346 347//347
f 322//322 347//347 323//323
f 323//323 347//347 348//348
f 323//323 348//348 324//324
f 324//324 348//348 349//349
f 324//324 349//349 325//325
f 325//325 349//349 350//350
f 325//325 350//350 326//326
f 326//326 350//350 351//351
f 326//326 351//351 327//327
f 327//327 351//351 352//352
f 327//327 352//352 328//328
f 328//328 352//352 353//353
f 328//328 353//353 329//329
f 329//329 353//353 354//354
f 329//329 354//354 330//330
f 330//330 354//354 355//355
f 330//330 355//355 331//331
f 331//331 355//355 356//356
f 331//331 356//356 332//332
f 332//332 356//356 357//357
f 332//332 357//357 333//333
f 333//333 357//357 358//358
f 333//333 358//358 334//334
f 334//334 358//358 359//359
f 334//334 359//359 335//335
f 335//335 359//359 360//360
f 335//335 360//360 336//336
f 336//336 360//360 361//361
f 336//336 361//361 337//337
f 337//337 361//361 338//338
f 337//337 338//338 314//314
f 338//338 362//362 339//339
f 339//339 362//362 340//340
f 340//340 362//362 341//341
f 341//341 362//362 342//342
f 342//342 362//362 343//343
f 343//343 362//362 344//344
f 344//344 362//362 345//345
f 345//345 362//362 346//346
f 346//346 362//362 347//347
f 347//347 362//362 348//348
f 348//348 362//362 349//349
f 349//349 362//362 350//350
f 350//350 362//362 351//351
f 351//351 362//362 352//352
f 352//352 362//362 353//353
f 353//353 362//362 354//354
f 354//354 362//362 355//355
f 355//355 362//362 356//356
f 356//356 362//362 357//357
f 357//357 362//362 358//358
f 358//358 362//362 359//359
f 359//359 362//362 360//360
f 360//360 362//362 361//361
f 361//361 362//362 338//338
