# tree_yavin_01
mtllib tree_yavin_01.mtl
o tree_yavin_01
v 0.058220 0.000000 0.000000
v 0.031738 0.598764 0.000000
v 0.033483 0.000000 0.033483
v 0.019131 0.598764 0.019131
v 0.000000 0.000000 0.047738
v 0.000000 0.598764 0.025995
v -0.034841 0.000000 0.034841
v -0.020669 0.598764 0.020669
v -0.052720 0.000000 0.000000
v -0.031760 0.598764 0.000000
v -0.036569 0.000000 -0.036569
v -0.017985 0.598764 -0.017985
v -0.000000 0.000000 -0.051050
v -0.000000 0.598764 -0.029250
v 0.032400 0.000000 -0.032400
v 0.022462 0.598764 -0.022462
v -0.045707 0.919706 -0.112548
v -0.045707 0.921112 -0.112548
v -0.045707 1.006197 -0.112548
v -0.045707 0.931051 -0.112548
v -0.045707 0.916582 -0.112548
v -0.045707 0.987829 -0.112548
v -0.045707 0.984955 -0.112548
v -0.045707 0.948446 -0.112548
v -0.045707 0.916140 -0.112548
v 0.115756 0.959752 -0.112548
v 0.062090 0.945205 -0.004751
v -0.045707 0.919426 0.023925
v -0.151601 0.940860 -0.006655
v -0.162515 0.887693 -0.112548
v -0.148523 0.933838 -0.215364
v -0.045707 0.896914 -0.235070
v 0.068454 0.959728 -0.226710
v 0.107535 0.946486 -0.112548
v 0.206315 0.834764 -0.112548
v 0.144522 0.843910 0.077681
v -0.045707 0.833614 0.137336
v -0.229007 0.838638 0.070751
v -0.315804 0.844486 -0.112548
v -0.230357 0.839666 -0.297198
v -0.045707 0.845009 -0.383616
v 0.123982 0.828285 -0.282237
v 0.234957 0.850170 -0.112548
v 0.221440 0.699204 -0.112548
v 0.152185 0.699204 0.085344
v -0.045707 0.699204 0.120372
v -0.271397 0.699204 0.113142
v -0.306522 0.699204 -0.112548
v -0.279521 0.699204 -0.346362
v -0.045707 0.699204 -0.373866
v 0.139302 0.699204 -0.297557
v 0.261193 0.699204 -0.112548
v 0.221950 0.555234 -0.112548
v 0.115054 0.576915 0.048213
v -0.045707 0.548487 0.167653
v -0.241237 0.550467 0.082981
v -0.301598 0.561563 -0.112548
v -0.216360 0.569391 -0.283201
v -0.045707 0.575184 -0.343116
v 0.104930 0.584616 -0.263185
v 0.167642 0.584446 -0.112548
v 0.076106 0.502638 -0.112548
v 0.041963 0.499136 -0.024878
v -0.045707 0.470338 0.029282
v -0.158230 0.442419 -0.000025
v -0.179973 0.482545 -0.112548
v -0.142704 0.477851 -0.209545
v -0.045707 0.472916 -0.252781
v 0.046859 0.487962 -0.205115
v 0.075609 0.503441 -0.112548
v -0.045707 0.432141 -0.112548
v -0.045707 0.479154 -0.112548
v -0.045707 0.473971 -0.112548
v -0.045707 0.416123 -0.112548
v -0.045707 0.422297 -0.112548
v -0.045707 0.431216 -0.112548
v -0.045707 0.406572 -0.112548
v -0.045707 0.393256 -0.112548
v -0.045707 0.464024 -0.112548
v 0.083237 1.012052 0.084005
v 0.083237 0.997520 0.084005
v 0.083237 0.966245 0.084005
v 0.083237 1.037474 0.084005
v 0.083237 0.968092 0.084005
v 0.083237 1.003647 0.084005
v 0.083237 0.961336 0.084005
v 0.083237 0.977869 0.084005
v 0.083237 0.984519 0.084005
v 0.218489 0.984797 0.084005
v 0.169034 0.963195 0.169802
v 0.083237 0.989466 0.222264
v 0.006193 0.943978 0.161048
v -0.050434 0.982342 0.084005
v -0.000358 0.958358 0.000410
v 0.083237 0.985602 -0.051766
v 0.156406 0.935473 0.010835
v 0.189476 0.939760 0.084005
v 0.297158 0.885535 0.084005
v 0.256338 0.901514 0.257106
v 0.083237 0.901392 0.328570
v -0.053259 0.874728 0.220501
v -0.124158 0.882158 0.084005
v -0.087989 0.900142 -0.087221
v 0.083237 0.867111 -0.094309
v 0.242351 0.891279 -0.075110
v 0.271459 0.872238 0.084005
v 0.291333 0.774846 0.084005
v 0.274014 0.774846 0.274782
v 0.083237 0.774846 0.360158
v -0.072378 0.774846 0.239619
v -0.166505 0.774846 0.084005
v -0.089214 0.774846 -0.088446
v 0.083237 0.774846 -0.190362
v 0.281953 0.774846 -0.114711
v 0.321228 0.774846 0.084005
v 0.282878 0.671545 0.084005
v 0.251309 0.651857 0.252077
v 0.083237 0.644858 0.335222
v -0.045061 0.680962 0.212302
v -0.158322 0.649856 0.084005
v -0.058464 0.671155 -0.057696
v 0.083237 0.670362 -0.117923
v 0.245028 0.656453 -0.077787
v 0.313825 0.655532 0.084005
v 0.230094 0.546879 0.084005
v 0.177147 0.568686 0.177915
v 0.083237 0.610332 0.189985
v -0.002946 0.585651 0.170187
v -0.049245 0.569194 0.084005
v -0.010190 0.569748 -0.009422
v 0.083237 0.608144 -0.023386
v 0.184086 0.553454 -0.016845
v 0.193413 0.603819 0.084005
v 0.083237 0.576211 0.084005
v 0.083237 0.565192 0.084005
v 0.083237 0.526462 0.084005
v 0.083237 0.568013 0.084005
v 0.083237 0.545526 0.084005
v 0.083237 0.552432 0.084005
v 0.083237 0.541082 0.084005
v 0.083237 0.582471 0.084005
v 0.083237 0.517868 0.084005
v 0.059971 0.927689 0.100448
v 0.059971 0.931812 0.100448
v 0.059971 0.869773 0.100448
v 0.059971 0.895262 0.100448
v 0.059971 0.922383 0.100448
v 0.059971 0.873780 0.100448
v 0.059971 0.892797 0.100448
v 0.059971 0.910242 0.100448
v 0.059971 0.913810 0.100448
v 0.172199 0.862760 0.100448
v 0.158695 0.904353 0.199172
v 0.059971 0.848550 0.203318
v -0.042324 0.912021 0.202743
v -0.084247 0.911340 0.100448
v -0.029106 0.883635 0.011370
v 0.059971 0.869681 -0.016338
v 0.134545 0.852487 0.025874
v 0.202977 0.909499 0.100448
v 0.244544 0.785762 0.100448
v 0.199352 0.792110 0.239828
v 0.059971 0.807671 0.328302
v -0.076791 0.790236 0.237210
v -0.156180 0.801747 0.100448
v -0.075998 0.789669 -0.035522
v 0.059971 0.808476 -0.128998
v 0.212022 0.801180 -0.051603
v 0.273613 0.800477 0.100448
v 0.286932 0.692332 0.100448
v 0.230225 0.692332 0.270701
v 0.059971 0.692332 0.342126
v -0.111687 0.692332 0.272106
v -0.217566 0.692332 0.100448
v -0.098230 0.692332 -0.057753
v 0.059971 0.692332 -0.124346
v 0.252151 0.692332 -0.091732
v 0.284570 0.692332 0.100448
v 0.266569 0.587754 0.100448
v 0.213010 0.582777 0.253487
v 0.059971 0.596815 0.289145
v -0.066415 0.601857 0.226834
v -0.151225 0.585426 0.100448
v -0.092226 0.583379 -0.051750
v 0.059971 0.569628 -0.141958
v 0.209026 0.585629 -0.048607
v 0.283433 0.579217 0.100448
v 0.199335 0.480696 0.100448
v 0.155885 0.486348 0.196361
v 0.059971 0.522329 0.212396
v -0.038848 0.480107 0.199267
v -0.076320 0.485363 0.100448
v -0.034306 0.489861 0.006170
v 0.059971 0.489975 -0.032806
v 0.142664 0.514741 0.017755
v 0.169137 0.526554 0.100448
v 0.059971 0.464963 0.100448
v 0.059971 0.468549 0.100448
v 0.059971 0.501800 0.100448
v 0.059971 0.479570 0.100448
v 0.059971 0.460591 0.100448
v 0.059971 0.499707 0.100448
v 0.059971 0.476134 0.100448
v 0.059971 0.453830 0.100448
v 0.059971 0.503877 0.100448
vn 0.990030 0.042792 0.134202
vn 0.956155 0.036259 -0.290609
vn 0.576347 0.034141 0.816492
vn 0.724733 0.034906 0.688145
vn -0.044515 0.034738 0.998405
vn 0.210530 0.034522 0.976978
vn -0.730840 0.033134 0.681745
vn -0.503970 0.034110 0.863047
vn -0.990302 0.038612 -0.133455
vn -0.978701 0.034636 0.202346
vn -0.660635 0.041087 -0.749582
vn -0.807874 0.038955 -0.588067
vn 0.118921 0.032524 -0.992371
vn -0.238844 0.038515 -0.970294
vn 0.736311 0.028117 -0.676059
vn 0.598140 0.027372 -0.800924
vn 0.000000 0.000000 1.000000
vn -0.246882 -0.858275 0.449904
vn 0.142176 -0.989766 -0.012221
vn 0.537677 -0.842968 0.017566
vn 0.347195 -0.935348 -0.067677
vn 0.507280 -0.609221 -0.609522
vn -0.434047 -0.723470 0.536837
vn -0.063158 -0.985939 0.154711
vn -0.011896 -0.930132 -0.367033
vn -0.312026 -0.910713 -0.270630
vn -0.437194 -0.844640 -0.308943
vn 0.047007 -0.832639 -0.551817
vn 0.319745 -0.911715 -0.257953
vn 0.459286 -0.872988 -0.164160
vn 0.343190 -0.905331 0.250192
vn 0.140393 -0.873839 0.465506
vn -0.176777 -0.905464 0.385857
vn -0.498042 -0.828760 0.255168
vn -0.829739 -0.467660 -0.304675
vn -0.656315 -0.452130 -0.604010
vn -0.011827 -0.364999 -0.930933
vn 0.485542 -0.561153 -0.670341
vn 0.839359 -0.540582 -0.056985
vn 0.642943 -0.579579 0.500713
vn 0.012287 -0.493208 0.869825
vn -0.626602 -0.351584 0.695528
vn -0.762919 -0.356603 0.539248
vn -0.945080 -0.057279 -0.321780
vn -0.635301 0.121463 -0.762653
vn -0.087292 -0.078354 -0.993097
vn 0.669822 -0.085486 -0.737584
vn 0.999962 0.005220 0.007007
vn 0.697321 0.065044 0.713801
vn -0.118865 0.170356 0.978187
vn -0.666341 0.073707 0.741995
vn -0.832201 0.247930 0.495956
vn -0.767466 0.457773 -0.448819
vn -0.534618 0.511550 -0.672681
vn -0.119409 0.381333 -0.916693
vn 0.684061 0.514089 -0.517469
vn 0.857907 0.506876 0.084101
vn 0.436799 0.620178 0.651603
vn -0.091255 0.492086 0.865751
vn -0.629726 0.545353 0.553204
vn -0.721336 0.641854 0.260188
vn -0.434551 0.861242 -0.263493
vn -0.422748 0.845186 -0.327023
vn -0.101717 0.908402 -0.405537
vn 0.337276 0.914314 -0.224221
vn 0.512541 0.826821 0.231665
vn 0.348106 0.814042 0.464928
vn -0.123796 0.788765 0.602100
vn -0.582377 0.742646 0.330626
vn -0.648796 0.723994 -0.234298
vn -0.165092 0.856346 -0.489302
vn -0.017109 0.965455 -0.260009
vn -0.552002 0.778880 -0.297725
vn 0.063308 0.991463 -0.113989
vn 0.347436 0.908823 0.230929
vn 0.331766 0.887325 0.320290
vn -0.039072 0.868839 0.493550
vn -0.574903 0.719993 -0.388711
vn -0.000000 0.000000 -1.000000
vn 0.000000 0.000000 -1.000000
vn 0.111329 -0.811612 -0.573490
vn -0.627599 -0.777219 -0.045275
vn 0.401509 -0.905103 0.139924
vn 0.361576 -0.876662 -0.317376
vn -0.149870 -0.953658 0.260913
vn 0.099132 -0.986401 0.131098
vn -0.339907 -0.940429 -0.007500
vn -0.323998 -0.903225 0.281442
vn -0.400269 -0.764622 -0.505112
vn -0.394375 -0.892431 -0.219169
vn -0.068998 -0.914131 -0.399504
vn 0.533914 -0.769401 -0.350655
vn 0.479735 -0.849176 -0.220805
vn 0.393518 -0.888629 0.235547
vn -0.120345 -0.827831 0.547916
vn -0.375445 -0.837491 0.397051
vn -0.487520 -0.864769 0.120407
vn -0.823730 -0.506009 -0.255780
vn -0.717988 -0.528580 -0.452876
vn 0.070494 -0.512186 -0.855977
vn 0.649573 -0.454832 -0.609248
vn 0.834757 -0.530428 -0.147737
vn 0.616094 -0.485829 0.619999
vn 0.017868 -0.539564 0.841755
vn -0.413226 -0.736040 0.536180
vn -0.845732 -0.520493 0.117577
vn -0.990696 -0.016615 -0.135076
vn -0.778102 -0.013154 -0.628000
vn 0.080872 -0.010382 -0.996670
vn 0.758707 0.015439 -0.651249
vn 0.994059 -0.044402 -0.099371
vn 0.673442 0.001615 0.739239
vn 0.093986 -0.088976 0.991590
vn -0.743658 0.021736 0.668206
vn -0.965815 0.001485 0.259228
vn -0.963872 0.234303 -0.126703
vn -0.655452 0.453387 -0.604006
vn 0.243327 0.643433 -0.725800
vn 0.642121 0.478462 -0.598961
vn 0.874294 0.485276 -0.010782
vn 0.530716 0.528426 0.662651
vn -0.033235 0.610900 0.791010
vn -0.600166 0.514619 0.612346
vn -0.816458 0.543818 0.194056
vn -0.569798 0.783838 -0.246839
vn -0.033245 0.924034 -0.380861
vn 0.229628 0.867513 -0.441239
vn 0.361354 0.751334 -0.552196
vn 0.478983 0.874750 0.073400
vn 0.191611 0.821495 0.537058
vn 0.030550 0.778001 0.627519
vn -0.336665 0.917875 0.210149
vn -0.298420 0.941848 -0.154490
vn 0.123617 0.991346 -0.044174
vn -0.120631 0.944931 -0.304227
vn -0.148698 0.918372 -0.366718
vn 0.304174 0.943019 -0.134884
vn 0.124813 0.986448 -0.106498
vn -0.232140 0.840271 0.489954
vn 0.217332 0.949347 0.226952
vn -0.486285 0.854003 -0.184946
vn 0.000000 0.000000 1.000000
vn 0.000000 0.000000 1.000000
vn -0.061446 -0.983354 -0.170995
vn 0.573852 -0.636573 -0.515237
vn -0.676506 -0.598287 -0.429409
vn -0.107210 -0.961690 0.252306
vn -0.111314 -0.865764 0.487916
vn 0.254750 -0.966412 0.033917
vn -0.150441 -0.924798 0.349450
vn -0.004024 -0.774354 0.632739
vn -0.599754 -0.757947 0.256537
vn -0.348081 -0.833039 -0.429983
vn -0.234513 -0.852981 -0.466290
vn 0.132418 -0.829863 -0.542026
vn 0.582542 -0.812123 0.033183
vn 0.372962 -0.793376 0.481096
vn 0.046874 -0.871992 0.487271
vn -0.185664 -0.858923 0.477262
vn -0.378930 -0.754823 0.535402
vn -0.860249 -0.484083 -0.160110
vn -0.655943 -0.545589 -0.521605
vn -0.095287 -0.548248 -0.830869
vn 0.647404 -0.376156 -0.662853
vn 0.844902 -0.533657 -0.036746
vn 0.621000 -0.508000 0.596904
vn 0.085559 -0.545722 0.833587
vn -0.492349 -0.560608 0.665816
vn -0.892557 -0.354437 0.278777
vn -0.934663 -0.184689 -0.303801
vn -0.743446 -0.050307 -0.666901
vn 0.054350 0.084817 -0.994913
vn 0.670376 0.037066 -0.741095
vn 0.997383 0.067084 0.026948
vn 0.679532 0.023861 0.733257
vn 0.079258 -0.104658 0.991345
vn -0.719558 -0.027858 0.693873
vn -0.958795 0.127776 0.253743
vn -0.902607 0.306158 -0.302601
vn -0.575400 0.466842 -0.671545
vn 0.149448 0.578189 -0.802099
vn 0.567102 0.493217 -0.659645
vn 0.889298 0.457282 0.006464
vn 0.676726 0.332603 0.656824
vn -0.006775 0.445963 0.895026
vn -0.683074 0.567134 0.460184
vn -0.742843 0.579245 0.335648
vn -0.623781 0.735390 -0.264761
vn -0.130492 0.819479 -0.558055
vn 0.166891 0.739951 -0.651629
vn 0.350091 0.745632 -0.566982
vn 0.565373 0.819339 0.095058
vn 0.283295 0.853350 0.437651
vn -0.193859 0.909616 0.367446
vn -0.453094 0.863708 0.220711
vn -0.477329 0.850681 -0.220227
vn -0.086051 0.987230 -0.134063
vn 0.514132 0.763325 -0.391156
vn -0.240293 0.906805 -0.346358
vn -0.114175 0.946720 -0.301140
vn -0.102364 0.972643 0.208538
vn -0.072948 0.973939 0.214760
vn 0.086001 0.961549 0.260820
vn -0.401617 0.869551 -0.287377
vn -0.000000 0.000000 -1.000000
usemtl tree_yavin_01
f 1//1 2//2 4//4
f 1//1 4//4 3//3
f 3//3 4//4 6//6
f 3//3 6//6 5//5
f 5//5 6//6 8//8
f 5//5 8//8 7//7
f 7//7 8//8 10//10
f 7//7 10//10 9//9
f 9//9 10//10 12//12
f 9//9 12//12 11//11
f 11//11 12//12 14//14
f 11//11 14//14 13//13
f 13//13 14//14 16//16
f 13//13 16//16 15//15
f 15//15 16//16 2//2
f 15//15 2//2 1//1
f 17//17 26//26 18//18
f 26//26 27//27 18//18
f 18//18 27//27 19//19
f 27//27 28//28 19//19
f 19//19 28//28 20//20
f 28//28 29//29 20//20
f 20//20 29//29 21//21
f 29//29 30//30 21//21
f 21//21 30//30 22//22
f 30//30 31//31 22//22
f 22//22 31//31 23//23
f 31//31 32//32 23//23
f 23//23 32//32 24//24
f 32//32 33//33 24//24
f 24//24 33//33 25//25
f 33//33 34//34 25//25
f 26//26 35//35 27//27
f 35//35 36//36 27//27
f 27//27 36//36 28//28
f 36//36 37//37 28//28
f 28//28 37//37 29//29
f 37//37 38//38 29//29
f 29//29 38//38 30//30
f 38//38 39//39 30//30
f 30//30 39//39 31//31
f 39//39 40//40 31//31
f 31//31 40//40 32//32
f 40//40 41//41 32//32
f 32//32 41//41 33//33
f 41//41 42//42 33//33
f 33//33 42//42 34//34
f 42//42 43//43 34//34
f 35//35 44//44 36//36
f 44//44 45//45 36//36
f 36//36 45//45 37//37
f 45//45 46//46 37//37
f 37//37 46//46 38//38
f 46//46 47//47 38//38
f 38//38 47//47 39//39
f 47//47 48//48 39//39
f 39//39 48//48 40//40
f 48//48 49//49 40//40
f 40//40 49//49 41//41
f 49//49 50//50 41//41
f 41//41 50//50 42//42
f 50//50 51//51 42//42
f 42//42 51//51 43//43
f 51//51 52//52 43//43
f 44//44 53//53 45//45
f 53//53 54//54 45//45
f 45//45 54//54 46//46
f 54//54 55//55 46//46
f 46//46 55//55 47//47
f 55//55 56//56 47//47
f 47//47 56//56 48//48
f 56//56 57//57 48//48
f 48//48 57//57 49//49
f 57//57 58//58 49//49
f 49//49 58//58 50//50
f 58//58 59//59 50//50
f 50//50 59//59 51//51
f 59//59 60//60 51//51
f 51//51 60//60 52//52
f 60//60 61//61 52//52
f 53//53 62//62 54//54
f 62//62 63//63 54//54
f 54//54 63//63 55//55
f 63//63 64//64 55//55
f 55//55 64//64 56//56
f 64//64 65//65 56//56
f 56//56 65//65 57//57
f 65//65 66//66 57//57
f 57//57 66//66 58//58
f 66//66 67//67 58//58
f 58//58 67//67 59//59
f 67//67 68//68 59//59
f 59//59 68//68 60//60
f 68//68 69//69 60//60
f 60//60 69//69 61//61
f 69//69 70//70 61//61
f 62//62 71//71 63//63
f 71//71 72//72 63//63
f 63//63 72//72 64//64
f 72//72 73//73 64//64
f 64//64 73//73 65//65
f 73//73 74//74 65//65
f 65//65 74//74 66//66
f 74//74 75//75 66//66
f 66//66 75//75 67//67
f 75//75 76//76 67//67
f 67//67 76//76 68//68
f 76//76 77//77 68//68
f 68//68 77//77 69//69
f 77//77 78//78 69//69
f 69//69 78//78 70//70
f 78//78 79//79 70//70
f 80//80 89//89 81//81
f 89//89 90//90 81//81
f 81//81 90//90 82//82
f 90//90 91//91 82//82
f 82//82 91//91 83//83
f 91//91 92//92 83//83
f 83//83 92//92 84//84
f 92//92 93//93 84//84
f 84//84 93//93 85//85
f 93//93 94//94 85//85
f 85//85 94//94 86//86
f 94//94 95//95 86//86
f 86//86 95//95 87//87
f 95//95 96//96 87//87
f 87//87 96//96 88//88
f 96//96 97//97 88//88
f 89//89 98//98 90//90
f 98//98 99//99 90//90
f 90//90 99//99 91//91
f 99//99 100//100 91//91
f 91//91 100//100 92//92
f 100//100 101//101 92//92
f 92//92 101//101 93//93
f 101//101 102//102 93//93
f 93//93 102//102 94//94
f 102//102 103//103 94//94
f 94//94 103//103 95//95
f 103//103 104//104 95//95
f 95//95 104//104 96//96
f 104//104 105//105 96//96
f 96//96 105//105 97//97
f 105//105 106//106 97//97
f 98//98 107//107 99//99
f 107//107 108//108 99//99
f 99//99 108//108 100//100
f 108//108 109//109 100//100
f 100//100 109//109 101//101
f 109//109 110//110 101//101
f 101//101 110//110 102//102
f 110//110 111//111 102//102
f 102//102 111//111 103//103
f 111//111 112//112 103//103
f 103//103 112//112 104//104
f 112//112 113//113 104//104
f 104//104 113//113 105//105
f 113//113 114//114 105//105
f 105//105 114//114 106//106
f 114//114 115//115 106//106
f 107//107 116//116 108//108
f 116//116 117//117 108//108
f 108//108 117//117 109//109
f 117//117 118//118 109//109
f 109//109 118//118 110//110
f 118//118 119//119 110//110
f 110//110 119//119 111//111
f 119//119 120//120 111//111
f 111//111 120//120 112//112
f 120//120 121//121 112//112
f 112//112 121//121 113//113
f 121//121 122//122 113//113
f 113//113 122//122 114//114
f 122//122 123//123 114//114
f 114//114 123//123 115//115
f 123//123 124//124 115//115
f 116//116 125//125 117//117
f 125//125 126//126 117//117
f 117//117 126//126 118//118
f 126//126 127//127 118//118
f 118//118 127//127 119//119
f 127//127 128//128 119//119
f 119//119 128//128 120//120
f 128//128 129//129 120//120
f 120//120 129//129 121//121
f 129//129 130//130 121//121
f 121//121 130//130 122//122
f 130//130 131//131 122//122
f 122//122 131//131 123//123
f 131//131 132//132 123//123
f 123//123 132//132 124//124
f 132//132 133//133 124//124
f 125//125 134//134 126//126
f 134//134 135//135 126//126
f 126//126 135//135 127//127
f 135//135 136//136 127//127
f 127//127 136//136 128//128
f 136//136 137//137 128//128
f 128//128 137//137 129//129
f 137//137 138//138 129//129
f 129//129 138//138 130//130
f 138//138 139//139 130//130
f 130//130 139//139 131//131
f 139//139 140//140 131//131
f 131//131 140//140 132//132
f 140//140 141//141 132//132
f 132//132 141//141 133//133
f 141//141 142//142 133//133
f 143//143 152//152 144//144
f 152//152 153//153 144//144
f 144//144 153//153 145//145
f 153//153 154//154 145//145
f 145//145 154//154 146//146
f 154//154 155//155 146//146
f 146//146 155//155 147//147
f 155//155 156//156 147//147
f 147//147 156//156 148//148
f 156//156 157//157 148//148
f 148//148 157//157 149//149
f 157//157 158//158 149//149
f 149//149 158//158 150//150
f 158//158 159//159 150//150
f 150//150 159//159 151//151
f 159//159 160//160 151//151
f 152//152 161//161 153//153
f 161//161 162//162 153//153
f 153//153 162//162 154//154
f 162//162 163//163 154//154
f 154//154 163//163 155//155
f 163//163 164//164 155//155
f 155//155 164//164 156//156
f 164//164 165//165 156//156
f 156//156 165//165 157//157
f 165//165 166//166 157//157
f 157//157 166//166 158//158
f 166//166 167//167 158//158
f 158//158 167//167 159//159
f 167//167 168//168 159//159
f 159//159 168//168 160//160
f 168//168 169//169 160//160
f 161//161 170//170 162//162
f 170//170 171//171 162//162
f 162//162 171//171 163//163
f 171//171 172//172 163//163
f 163//163 172//172 164//164
f 172//172 173//173 164//164
f 164//164 173//173 165//165
f 173//173 174//174 165//165
f 165//165 174//174 166//166
f 174//174 175//175 166//166
f 166//166 175//175 167//167
f 175//175 176//176 167//167
f 167//167 176//176 168//168
f 176//176 177//177 168//168
f 168//168 177//177 169//169
f 177//177 178//178 169//169
f 170//170 179//179 171//171
f 179//179 180//180 171//171
f 171//171 180//180 172//172
f 180//180 181//181 172//172
f 172//172 181//181 173//173
f 181//181 182//182 173//173
f 173//173 182//182 174//174
f 182//182 183//183 174//174
f 174//174 183//183 175//175
f 183//183 184//184 175//175
f 175//175 184//184 176//176
f 184//184 185//185 176//176
f 176//176 185//185 177//177
f 185//185 186//186 177//177
f 177//177 186//186 178//178
f 186//186 187//187 178//178
f 179//179 188//188 180//180
f 188//188 189//189 180//180
f 180//180 189//189 181//181
f 189//189 190//190 181//181
f 181//181 190//190 182//182
f 190//190 191//191 182//182
f 182//182 191//191 183//183
f 191//191 192//192 183//183
f 183//183 192//192 184//184
f 192//192 193//193 184//184
f 184//184 193//193 185//185
f 193//193 194//194 185//185
f 185//185 194//194 186//186
f 194//194 195//195 186//186
f 186//186 195//195 187//187
f 195//195 196//196 187//187
f 188//188 197//197 189//189
f 197//197 198//198 189//189
f 189//189 198//198 190//190
f 198//198 199//199 190//190
f 190//190 199//199 191//191
f 199//199 200//200 191//191
f 191//191 200//200 192//192
f 200//200 201//201 192//192
f 192//192 201//201 193//193
f 201//201 202//202 193//193
f 193//193 202//202 194//194
f 202//202 203//203 194//194
f 194//194 203//203 195//195
f 203//203 204//204 195//195
f 195//195 204//204 196//196
f 204//204 205//205 196//196
