# tree_yavin_02
mtllib tree_yavin_02.mtl
o tree_yavin_02
v 0.055766 0.000000 0.000000
v 0.027777 0.668862 0.000000
v 0.040530 0.000000 0.040530
v 0.023780 0.668862 0.023780
v 0.000000 0.000000 0.054979
v 0.000000 0.668862 0.035310
v -0.042335 0.000000 0.042335
v -0.024830 0.668862 0.024830
v -0.060243 0.000000 0.000000
v -0.027591 0.668862 0.000000
v -0.037973 0.000000 -0.037973
v -0.024706 0.668862 -0.024706
v -0.000000 0.000000 -0.053906
v -0.000000 0.668862 -0.028653
v 0.036758 0.000000 -0.036758
v 0.023332 0.668862 -0.023332
v -0.019578 0.969663 -0.052240
v -0.019578 1.000189 -0.052240
v -0.019578 0.936178 -0.052240
v -0.019578 0.999893 -0.052240
v -0.019578 0.951159 -0.052240
v -0.019578 0.975728 -0.052240
v -0.019578 0.976225 -0.052240
v -0.019578 0.994055 -0.052240
v -0.019578 0.996114 -0.052240
v 0.094338 0.914048 -0.052240
v 0.071520 0.935060 0.038859
v -0.019578 0.930514 0.073366
v -0.116304 0.946270 0.044486
v -0.168303 0.963079 -0.052240
v -0.100680 0.915147 -0.133342
v -0.019578 0.954665 -0.194991
v 0.082068 0.956071 -0.153886
v 0.116566 0.945359 -0.052240
v 0.220524 0.866322 -0.052240
v 0.121669 0.847377 0.089007
v -0.019578 0.847882 0.148590
v -0.196341 0.870960 0.124524
v -0.228732 0.851791 -0.052240
v -0.150908 0.840792 -0.183570
v -0.019578 0.861702 -0.282502
v 0.165231 0.876303 -0.237049
v 0.211716 0.862186 -0.052240
v 0.242788 0.753586 -0.052240
v 0.138368 0.753586 0.105707
v -0.019578 0.753586 0.190721
v -0.223653 0.753586 0.151835
v -0.257028 0.753586 -0.052240
v -0.172674 0.753586 -0.205335
v -0.019578 0.753586 -0.339654
v 0.162194 0.753586 -0.234012
v 0.203075 0.753586 -0.052240
v 0.177435 0.661082 -0.052240
v 0.141661 0.646520 0.109000
v -0.019578 0.633033 0.204512
v -0.191747 0.639263 0.119930
v -0.227300 0.656054 -0.052240
v -0.168443 0.654738 -0.201104
v -0.019578 0.646258 -0.280825
v 0.140842 0.647064 -0.212660
v 0.185870 0.657122 -0.052240
v 0.118780 0.558696 -0.052240
v 0.078341 0.558526 0.045680
v -0.019578 0.593913 0.061117
v -0.106449 0.580535 0.034631
v -0.156273 0.561038 -0.052240
v -0.117180 0.559158 -0.149842
v -0.019578 0.548713 -0.197685
v 0.055759 0.603510 -0.127577
v 0.102297 0.581913 -0.052240
v -0.019578 0.537450 -0.052240
v -0.019578 0.527323 -0.052240
v -0.019578 0.578909 -0.052240
v -0.019578 0.540327 -0.052240
v -0.019578 0.555700 -0.052240
v -0.019578 0.533873 -0.052240
v -0.019578 0.545313 -0.052240
v -0.019578 0.557931 -0.052240
v -0.019578 0.508918 -0.052240
v -0.029048 0.959100 -0.077776
v -0.029048 0.951796 -0.077776
v -0.029048 0.948293 -0.077776
v -0.029048 0.990843 -0.077776
v -0.029048 0.945482 -0.077776
v -0.029048 0.980653 -0.077776
v -0.029048 0.938546 -0.077776
v -0.029048 0.934408 -0.077776
v -0.029048 0.953775 -0.077776
v 0.078458 0.924104 -0.077776
v 0.063798 0.961959 0.015070
v -0.029048 0.922276 0.028581
v -0.120253 0.958267 0.013429
v -0.137622 0.925802 -0.077776
v -0.126060 0.971330 -0.174788
v -0.029048 0.968783 -0.213370
v 0.056090 0.944618 -0.162914
v 0.089565 0.941772 -0.077776
v 0.199479 0.874268 -0.077776
v 0.112339 0.859116 0.063611
v -0.029048 0.861033 0.125790
v -0.166402 0.856092 0.059578
v -0.263625 0.877475 -0.077776
v -0.182166 0.867913 -0.230894
v -0.029048 0.868076 -0.294626
v 0.101165 0.850738 -0.207989
v 0.162824 0.854832 -0.077776
v 0.170889 0.753098 -0.077776
v 0.129712 0.753098 0.080985
v -0.029048 0.753098 0.114665
v -0.190100 0.753098 0.083276
v -0.226971 0.753098 -0.077776
v -0.187343 0.753098 -0.236071
v -0.029048 0.753098 -0.302744
v 0.107621 0.753098 -0.214445
v 0.170897 0.753098 -0.077776
v 0.156066 0.654946 -0.077776
v 0.125586 0.637145 0.076859
v -0.029048 0.635966 0.143134
v -0.159715 0.655118 0.052891
v -0.224394 0.649521 -0.077776
v -0.188840 0.633278 -0.237568
v -0.029048 0.664470 -0.244927
v 0.111843 0.647450 -0.218668
v 0.202657 0.630242 -0.077776
v 0.082058 0.576365 -0.077776
v 0.057393 0.558644 0.008665
v -0.029048 0.559453 0.043962
v -0.106317 0.579278 -0.000507
v -0.144354 0.569684 -0.077776
v -0.123542 0.540529 -0.172270
v -0.029048 0.576234 -0.188964
v 0.068434 0.533809 -0.175258
v 0.077165 0.584148 -0.077776
v -0.029048 0.571390 -0.077776
v -0.029048 0.519793 -0.077776
v -0.029048 0.516435 -0.077776
v -0.029048 0.555922 -0.077776
v -0.029048 0.557192 -0.077776
v -0.029048 0.567869 -0.077776
v -0.029048 0.549191 -0.077776
v -0.029048 0.560907 -0.077776
v -0.029048 0.542514 -0.077776
v -0.015613 0.994380 -0.003669
v -0.015613 0.948576 -0.003669
v -0.015613 1.004132 -0.003669
v -0.015613 0.960548 -0.003669
v -0.015613 1.018169 -0.003669
v -0.015613 1.020592 -0.003669
v -0.015613 1.030968 -0.003669
v -0.015613 1.027122 -0.003669
v -0.015613 1.020923 -0.003669
v 0.119562 0.930451 -0.003669
v 0.089581 0.951116 0.101525
v -0.015613 0.935036 0.134522
v -0.120637 0.950751 0.101355
v -0.159334 0.943444 -0.003669
v -0.129713 0.970265 -0.117769
v -0.015613 0.920702 -0.132432
v 0.088634 0.949080 -0.107916
v 0.151959 0.979709 -0.003669
v 0.231625 0.850229 -0.003669
v 0.184535 0.868380 0.196479
v -0.015613 0.878216 0.298791
v -0.220969 0.872112 0.201687
v -0.262050 0.849823 -0.003669
v -0.168521 0.834520 -0.156577
v -0.015613 0.850496 -0.251434
v 0.140242 0.836633 -0.159524
v 0.239624 0.854283 -0.003669
v 0.274217 0.724925 -0.003669
v 0.186213 0.724925 0.198157
v -0.015613 0.724925 0.300194
v -0.192916 0.724925 0.173634
v -0.333781 0.724925 -0.003669
v -0.263143 0.724925 -0.251199
v -0.015613 0.724925 -0.250361
v 0.213394 0.724925 -0.232677
v 0.286100 0.724925 -0.003669
v 0.241125 0.594806 -0.003669
v 0.165885 0.594836 0.177829
v -0.015613 0.581087 0.280138
v -0.184580 0.603819 0.165297
v -0.307083 0.577203 -0.003669
v -0.190114 0.599852 -0.178171
v -0.015613 0.593940 -0.262116
v 0.176509 0.587222 -0.195792
v 0.254517 0.588018 -0.003669
v 0.117977 0.521808 -0.003669
v 0.107689 0.459796 0.119633
v -0.015613 0.462366 0.169016
v -0.121231 0.497822 0.101949
v -0.190387 0.459190 -0.003669
v -0.106927 0.528578 -0.094983
v -0.015613 0.510229 -0.144875
v 0.090251 0.497292 -0.109533
v 0.121707 0.516137 -0.003669
v -0.015613 0.458630 -0.003669
v -0.015613 0.483735 -0.003669
v -0.015613 0.502781 -0.003669
v -0.015613 0.453008 -0.003669
v -0.015613 0.460118 -0.003669
v -0.015613 0.463364 -0.003669
v -0.015613 0.494759 -0.003669
v -0.015613 0.455940 -0.003669
v -0.015613 0.438747 -0.003669
vn 0.999242 0.038853 0.002229
vn 0.973507 0.035876 -0.225826
vn 0.641086 0.033472 0.766739
vn 0.869227 0.037546 0.492986
vn -0.080257 0.031092 0.996289
vn 0.171226 0.031001 0.984744
vn -0.784215 0.041542 0.619098
vn -0.565241 0.034078 0.824222
vn -0.996729 0.042405 -0.068791
vn -0.980880 0.042652 0.189880
vn -0.562618 0.031091 -0.826132
vn -0.800109 0.035659 -0.598793
vn 0.066456 0.034540 -0.997191
vn -0.166808 0.033030 -0.985436
vn 0.788261 0.032431 -0.614486
vn 0.578465 0.031835 -0.815086
vn 0.000000 0.000000 1.000000
vn -0.187612 -0.965753 -0.179228
vn -0.135991 -0.866346 -0.480573
vn -0.256290 -0.953802 -0.156774
vn 0.239913 -0.969220 -0.055269
vn 0.082995 -0.938937 0.333929
vn 0.632481 -0.766279 0.113065
vn 0.088086 -0.956605 0.277755
vn -0.336586 -0.941034 0.034122
vn -0.475761 -0.853317 0.213314
vn -0.338448 -0.864583 -0.371415
vn -0.232267 -0.783890 -0.575820
vn 0.151575 -0.876035 -0.457808
vn 0.537218 -0.839603 0.080395
vn 0.510154 -0.717859 0.473732
vn 0.333442 -0.813269 0.476875
vn -0.275975 -0.870144 0.408273
vn -0.566092 -0.819453 0.089651
vn -0.691530 -0.581925 -0.427960
vn -0.592595 -0.425222 -0.684118
vn -0.167564 -0.534904 -0.828130
vn 0.510678 -0.566351 -0.646881
vn 0.901667 -0.404157 0.153798
vn 0.690130 -0.478283 0.543108
vn 0.223824 -0.584793 0.779692
vn -0.598142 -0.513378 0.615361
vn -0.945442 -0.250677 0.208086
vn -0.824313 0.050826 -0.563848
vn -0.710984 -0.056548 -0.700931
vn -0.148171 -0.220009 -0.964179
vn 0.729308 -0.045005 -0.682704
vn 0.990958 0.025293 0.131770
vn 0.774503 -0.119093 0.621258
vn 0.077155 0.020290 0.996813
vn -0.770966 0.193936 0.606630
vn -0.960413 0.159868 0.228143
vn -0.886997 0.351077 -0.299968
vn -0.730377 0.312301 -0.607468
vn 0.025157 0.553588 -0.832410
vn 0.622530 0.686623 -0.375507
vn 0.867645 0.485813 0.105728
vn 0.689834 0.403303 0.601229
vn -0.024863 0.531840 0.846480
vn -0.681981 0.588743 0.433916
vn -0.712195 0.652058 0.259997
vn -0.641217 0.748419 -0.169440
vn -0.191470 0.903297 -0.383919
vn 0.222548 0.918684 -0.326331
vn 0.283789 0.894385 -0.345744
vn 0.571812 0.820061 0.023049
vn 0.419454 0.817657 0.394329
vn -0.249286 0.888948 0.384224
vn -0.492610 0.861414 0.123696
vn -0.327324 0.677964 0.658197
vn -0.221123 0.975181 0.011229
vn 0.534357 0.756597 -0.376860
vn 0.125401 0.896937 -0.424003
vn -0.119815 0.916442 -0.381809
vn 0.194912 0.980804 -0.005675
vn 0.186353 0.981351 -0.047142
vn -0.702009 0.710742 -0.045046
vn -0.212208 0.706626 0.675016
vn -0.000000 0.000000 1.000000
vn 0.000000 0.000000 -1.000000
vn -0.212985 -0.946580 0.242125
vn -0.032301 -0.963070 -0.267306
vn -0.304784 -0.930530 -0.203029
vn 0.491765 -0.820921 0.290269
vn 0.108925 -0.928040 -0.356199
vn -0.422650 -0.902840 0.079034
vn -0.039086 -0.993171 -0.109926
vn 0.061096 -0.984073 0.166935
vn -0.307692 -0.906968 0.287636
vn -0.308869 -0.898730 -0.311262
vn -0.159809 -0.798712 -0.580104
vn 0.366038 -0.853709 -0.370402
vn 0.451742 -0.848806 -0.274696
vn 0.377997 -0.909441 0.173306
vn -0.006474 -0.876959 0.480521
vn -0.455688 -0.796333 0.397746
vn -0.611647 -0.746765 0.261208
vn -0.825883 -0.424670 -0.370908
vn -0.648929 -0.369804 -0.664934
vn -0.033566 -0.394912 -0.918105
vn 0.541649 -0.450923 -0.709426
vn 0.902750 -0.417980 -0.101663
vn 0.693603 -0.294251 0.657519
vn -0.050358 -0.353320 0.934146
vn -0.697269 -0.331424 0.635589
vn -0.868003 -0.272021 0.415422
vn -0.935196 0.055155 -0.349810
vn -0.719256 -0.014842 -0.694587
vn -0.012157 -0.090634 -0.995810
vn 0.703235 0.041960 -0.709718
vn 0.985693 0.165139 0.033731
vn 0.749167 -0.035703 0.661419
vn -0.128892 0.139200 0.981840
vn -0.711987 0.030185 0.701544
vn -0.880437 -0.123858 0.457701
vn -0.938007 0.298630 -0.175962
vn -0.662557 0.375885 -0.647865
vn 0.073503 0.402228 -0.912584
vn 0.713584 0.497705 -0.493039
vn 0.931023 0.358274 -0.069538
vn 0.573584 0.475807 0.666790
vn -0.167773 0.451222 0.876499
vn -0.585424 0.192445 0.787556
vn -0.841591 0.404524 0.357889
vn -0.583660 0.811997 0.001151
vn -0.379004 0.880904 -0.283486
vn 0.231424 0.838897 -0.492641
vn 0.542977 0.785181 -0.297771
vn 0.562403 0.818028 -0.120556
vn 0.099926 0.879167 0.465918
vn 0.018249 0.727292 0.686086
vn -0.345045 0.899365 0.268490
vn -0.267429 0.893697 -0.360259
vn -0.391621 0.769139 0.505032
vn -0.504019 0.859570 0.084288
vn 0.595120 0.803299 -0.023300
vn 0.414009 0.896497 0.157765
vn 0.015499 0.984296 -0.175844
vn -0.250863 0.954132 0.163400
vn 0.434693 0.892143 0.122979
vn -0.290525 0.882707 -0.369355
vn -0.000000 0.000000 1.000000
vn 0.000000 0.000000 -1.000000
vn -0.475331 -0.872035 0.116683
vn 0.008277 -0.995200 -0.097506
vn -0.079694 -0.854168 -0.513853
vn 0.103889 -0.872945 -0.476627
vn 0.513471 -0.843157 -0.159477
vn -0.214141 -0.771791 0.598734
vn -0.005665 -0.789125 0.614206
vn -0.253575 -0.896197 0.364048
vn -0.365838 -0.919698 -0.142540
vn -0.416409 -0.898956 -0.135948
vn -0.047013 -0.925371 -0.376135
vn 0.171286 -0.922403 -0.346169
vn 0.574750 -0.814535 -0.078713
vn 0.457374 -0.726205 0.513259
vn 0.069637 -0.731139 0.678665
vn -0.273475 -0.755440 0.595417
vn -0.561386 -0.657086 0.503074
vn -0.759204 -0.641780 -0.108298
vn -0.670962 -0.554178 -0.492643
vn -0.102676 -0.546635 -0.831052
vn 0.713408 -0.363266 -0.599238
vn 0.898275 -0.439430 0.001970
vn 0.573424 -0.641711 0.509306
vn -0.004622 -0.550235 0.834997
vn -0.503782 -0.512994 0.695012
vn -0.759387 -0.499860 0.416499
vn -0.939423 -0.027284 -0.341671
vn -0.711475 0.097613 -0.695899
vn 0.046565 0.127000 -0.990809
vn 0.737277 0.067072 -0.672253
vn 0.956947 -0.253005 -0.142274
vn 0.649106 -0.050091 0.759047
vn -0.031851 -0.027100 0.999125
vn -0.608979 -0.197872 0.768109
vn -0.943301 0.070677 0.324328
vn -0.823718 0.446946 -0.348896
vn -0.678073 0.418223 -0.604406
vn 0.092547 0.408172 -0.908202
vn 0.663562 0.374440 -0.647674
vn 0.842898 0.537730 -0.019193
vn 0.376605 0.599857 0.705932
vn 0.059747 0.458106 0.886888
vn -0.612698 0.571169 0.546230
vn -0.738714 0.625870 0.250174
vn -0.661654 0.746552 0.069816
vn -0.473916 0.822538 -0.314379
vn 0.296234 0.873270 -0.386840
vn 0.378381 0.805267 -0.456479
vn 0.376856 0.895435 0.237014
vn 0.198050 0.827801 0.524901
vn 0.015274 0.876161 0.481777
vn -0.322669 0.910655 0.258056
vn -0.438811 0.897466 0.044721
vn -0.264945 0.929618 0.256152
vn 0.347144 0.937593 -0.020285
vn 0.078825 0.995428 -0.053942
vn -0.208578 0.836263 -0.507108
vn -0.018181 0.761262 0.648189
vn 0.014588 0.942315 0.334410
vn 0.059616 0.931731 0.358224
vn -0.143186 0.919751 0.365454
vn -0.000000 0.000000 1.000000
usemtl tree_yavin_02
f 1//1 2//2 4//4
f 1//1 4//4 3//3
f 3//3 4//4 6//6
f 3//3 6//6 5//5
f 5//5 6//6 8//8
f 5//5 8//8 7//7
f 7//7 8//8 10//10
f 7//7 10//10 9//9
f 9//9 10//10 12//12
f 9//9 12//12 11//11
f 11//11 12//12 14//14
f 11//11 14//14 13//13
f 13//13 14//14 16//16
f 13//13 16//16 15//15
f 15//15 16//16 2//2
f 15//15 2//2 1//1
f 17//17 26//26 18//18
f 26//26 27//27 18//18
f 18//18 27//27 19//19
f 27//27 28//28 19//19
f 19//19 28//28 20//20
f 28//28 29//29 20//20
f 20//20 29//29 21//21
f 29//29 30//30 21//21
f 21//21 30//30 22//22
f 30//30 31//31 22//22
f 22//22 31//31 23//23
f 31//31 32//32 23//23
f 23//23 32//32 24//24
f 32//32 33//33 24//24
f 24//24 33//33 25//25
f 33//33 34//34 25//25
f 26//26 35//35 27//27
f 35//35 36//36 27//27
f 27//27 36//36 28//28
f 36//36 37//37 28//28
f 28//28 37//37 29//29
f 37//37 38//38 29//29
f 29//29 38//38 30//30
f 38//38 39//39 30//30
f 30//30 39//39 31//31
f 39//39 40//40 31//31
f 31//31 40//40 32//32
f 40//40 41//41 32//32
f 32//32 41//41 33//33
f 41//41 42//42 33//33
f 33//33 42//42 34//34
f 42//42 43//43 34//34
f 35//35 44//44 36//36
f 44//44 45//45 36//36
f 36//36 45//45 37//37
f 45//45 46//46 37//37
f 37//37 46//46 38//38
f 46//46 47//47 38//38
f 38//38 47//47 39//39
f 47//47 48//48 39//39
f 39//39 48//48 40//40
f 48//48 49//49 40//40
f 40//40 49//49 41//41
f 49//49 50//50 41//41
f 41//41 50//50 42//42
f 50//50 51//51 42//42
f 42//42 51//51 43//43
f 51//51 52//52 43//43
f 44//44 53//53 45//45
f 53//53 54//54 45//45
f 45//45 54//54 46//46
f 54//54 55//55 46//46
f 46//46 55//55 47//47
f 55//55 56//56 47//47
f 47//47 56//56 48//48
f 56//56 57//57 48//48
f 48//48 57//57 49//49
f 57//57 58//58 49//49
f 49//49 58//58 50//50
f 58//58 59//59 50//50
f 50//50 59//59 51//51
f 59//59 60//60 51//51
f 51//51 60//60 52//52
f 60//60 61//61 52//52
f 53//53 62//62 54//54
f 62//62 63//63 54//54
f 54//54 63//63 55//55
f 63//63 64//64 55//55
f 55//55 64//64 56//56
f 64//64 65//65 56//56
f 56//56 65//65 57//57
f 65//65 66//66 57//57
f 57//57 66//66 58//58
f 66//66 67//67 58//58
f 58//58 67//67 59//59
f 67//67 68//68 59//59
f 59//59 68//68 60//60
f 68//68 69//69 60//60
f 60//60 69//69 61//61
f 69//69 70//70 61//61
f 62//62 71//71 63//63
f 71//71 72//72 63//63
f 63//63 72//72 64//64
f 72//72 73//73 64//64
f 64//64 73//73 65//65
f 73//73 74//74 65//65
f 65//65 74//74 66//66
f 74//74 75//75 66//66
f 66//66 75//75 67//67
f 75//75 76//76 67//67
f 67//67 76//76 68//68
f 76//76 77//77 68//68
f 68//68 77//77 69//69
f 77//77 78//78 69//69
f 69//69 78//78 70//70
f 78//78 79//79 70//70
f 80//80 89//89 81//81
f 89//89 90//90 81//81
f 81//81 90//90 82//82
f 90//90 91//91 82//82
f 82//82 91//91 83//83
f 91//91 92//92 83//83
f 83//83 92//92 84//84
f 92//92 93//93 84//84
f 84//84 93//93 85//85
f 93//93 94//94 85//85
f 85//85 94//94 86//86
f 94//94 95//95 86//86
f 86//86 95//95 87//87
f 95//95 96//96 87//87
f 87//87 96//96 88//88
f 96//96 97//97 88//88
f 89//89 98//98 90//90
f 98//98 99//99 90//90
f 90//90 99//99 91//91
f 99//99 100//100 91//91
f 91//91 100//100 92//92
f 100//100 101//101 92//92
f 92//92 101//101 93//93
f 101//101 102//102 93//93
f 93//93 102//102 94//94
f 102//102 103//103 94//94
f 94//94 103//103 95//95
f 103//103 104//104 95//95
f 95//95 104//104 96//96
f 104//104 105//105 96//96
f 96//96 105//105 97//97
f 105//105 106//106 97//97
f 98//98 107//107 99//99
f 107//107 108//108 99//99
f 99//99 108//108 100//100
f 108//108 109//109 100//100
f 100//100 109//109 101//101
f 109//109 110//110 101//101
f 101//101 110//110 102//102
f 110//110 111//111 102//102
f 102//102 111//111 103//103
f 111//111 112//112 103//103
f 103//103 112//112 104//104
f 112//112 113//113 104//104
f 104//104 113//113 105//105
f 113//113 114//114 105//105
f 105//105 114//114 106//106
f 114//114 115//115 106//106
f 107//107 116//116 108//108
f 116//116 117//117 108//108
f 108//108 117//117 109//109
f 117//117 118//118 109//109
f 109//109 118//118 110//110
f 118//118 119//119 110//110
f 110//110 119//119 111//111
f 119//119 120//120 111//111
f 111//111 120//120 112//112
f 120//120 121//121 112//112
f 112//112 121//121 113//113
f 121//121 122//122 113//113
f 113//113 122//122 114//114
f 122//122 123//123 114//114
f 114//114 123//123 115//115
f 123//123 124//124 115//115
f 116//116 125//125 117//117
f 125//125 126//126 117//117
f 117//117 126//126 118//118
f 126//126 127//127 118//118
f 118//118 127//127 119//119
f 127//127 128//128 119//119
f 119//119 128//128 120//120
f 128//128 129//129 120//120
f 120//120 129//129 121//121
f 129//129 130//130 121//121
f 121//121 130//130 122//122
f 130//130 131//131 122//122
f 122//122 131//131 123//123
f 131//131 132//132 123//123
f 123//123 132//132 124//124
f 132//132 133//133 124//124
f 125//125 134//134 126//126
f 134//134 135//135 126//126
f 126//126 135//135 127//127
f 135//135 136//136 127//127
f 127//127 136//136 128//128
f 136//136 137//137 128//128
f 128//128 137//137 129//129
f 137//137 138//138 129//129
f 129//129 138//138 130//130
f 138//138 139//139 130//130
f 130//130 139//139 131//131
f 139//139 140//140 131//131
f 131//131 140//140 132//132
f 140//140 141//141 132//132
f 132//132 141//141 133//133
f 141//141 142//142 133//133
f 143//143 152//152 144//144
f 152//152 153//153 144//144
f 144//144 153//153 145//145
f 153//153 154//154 145//145
f 145//145 154//154 146//146
f 154//154 155//155 146//146
f 146//146 155//155 147//147
f 155//155 156//156 147//147
f 147//147 156//156 148//148
f 156//156 157//157 148//148
f 148//148 157//157 149//149
f 157//157 158//158 149//149
f 149//149 158//158 150//150
f 158//158 159//159 150//150
f 150//150 159//159 151//151
f 159//159 160//160 151//151
f 152//152 161//161 153//153
f 161//161 162//162 153//153
f 153//153 162//162 154//154
f 162//162 163//163 154//154
f 154//154 163//163 155//155
f 163//163 164//164 155//155
f 155//155 164//164 156//156
f 164//164 165//165 156//156
f 156//156 165//165 157//157
f 165//165 166//166 157//157
f 157//157 166//166 158//158
f 166//166 167//167 158//158
f 158//158 167//167 159//159
f 167//167 168//168 159//159
f 159//159 168//168 160//160
f 168//168 169//169 160//160
f 161//161 170//170 162//162
f 170//170 171//171 162//162
f 162//162 171//171 163//163
f 171//171 172//172 163//163
f 163//163 172//172 164//164
f 172//172 173//173 164//164
f 164//164 173//173 165//165
f 173//173 174//174 165//165
f 165//165 174//174 166//166
f 174//174 175//175 166//166
f 166//166 175//175 167//167
f 175//175 176//176 167//167
f 167//167 176//176 168//168
f 176//176 177//177 168//168
f 168//168 177//177 169//169
f 177//177 178//178 169//169
f 170//170 179//179 171//171
f 179//179 180//180 171//171
f 171//171 180//180 172//172
f 180//180 181//181 172//172
f 172//172 181//181 173//173
f 181//181 182//182 173//173
f 173//173 182//182 174//174
f 182//182 183//183 174//174
f 174//174 183//183 175//175
f 183//183 184//184 175//175
f 175//175 184//184 176//176
f 184//184 185//185 176//176
f 176//176 185//185 177//177
f 185//185 186//186 177//177
f 177//177 186//186 178//178
f 186//186 187//187 178//178
f 179//179 188//188 180//180
f 188//188 189//189 180//180
f 180//180 189//189 181//181
f 189//189 190//190 181//181
f 181//181 190//190 182//182
f 190//190 191//191 182//182
f 182//182 191//191 183//183
f 191//191 192//192 183//183
f 183//183 192//192 184//184
f 192//192 193//193 184//184
f 184//184 193//193 185//185
f 193//193 194//194 185//185
f 185//185 194//194 186//186
f 194//194 195//195 186//186
f 186//186 195//195 187//187
f 195//195 196//196 187//187
f 188//188 197//197 189//189
f 197//197 198//198 189//189
f 189//189 198//198 190//190
f 198//198 199//199 190//190
f 190//190 199//199 191//191
f 199//199 200//200 191//191
f 191//191 200//200 192//192
f 200//200 201//201 192//192
f 192//192 201//201 193//193
f 201//201 202//202 193//193
f 193//193 202//202 194//194
f 202//202 203//203 194//194
f 194//194 203//203 195//195
f 203//203 204//204 195//195
f 195//195 204//204 196//196
f 204//204 205//205 196//196
